<svg width="24" height="24" viewBox="0 0 24 24" fill="none" xmlns="http://www.w3.org/2000/svg">
<path fill-rule="evenodd" clip-rule="evenodd" d="M22 5.7999L17.4 1.8999L16.1 3.3999L20.7 7.2999L22 5.7999ZM7.9 3.4999L6.6 1.9999L2 5.7999L3.3 7.2999L7.9 3.4999ZM11 8.0999H12.5V13.3999L16.5 15.7999L15.7 16.9999L11 14.0999V8.0999ZM12 4.0999C7 4.0999 3 8.0999 3 13.0999C3 18.0999 7 22.0999 12 22.0999C17 22.0999 21 18.0999 21 13.0999C21 8.0999 17 4.0999 12 4.0999ZM5 13.0999C5 16.9999 8.1 20.0999 12 20.0999C15.9 20.0999 19 16.9999 19 13.0999C19 9.1999 15.9 6.0999 12 6.0999C8.1 6.0999 5 9.1999 5 13.0999Z" fill="#005EE7"/>
</svg>
