<svg width="24" height="24" viewBox="0 0 24 24" fill="none" xmlns="http://www.w3.org/2000/svg">
<path fill-rule="evenodd" clip-rule="evenodd" d="M7.88 3.45993L6.6 1.92993L2 5.77993L3.29 7.30993L7.88 3.45993ZM22 5.78993L17.4 1.92993L16.11 3.45993L20.71 7.31993L22 5.78993ZM11 8.06993H12.5V13.3199L16.5 15.6899L15.75 16.9199L11 14.0699V8.06993ZM12 4.06993C7.03 4.06993 3 8.09993 3 13.0699C3 18.0399 7.02 22.0699 12 22.0699C16.97 22.0699 21 18.0399 21 13.0699C21 8.09993 16.97 4.06993 12 4.06993ZM5 13.0699C5 16.9399 8.13 20.0699 12 20.0699C15.87 20.0699 19 16.9399 19 13.0699C19 9.19993 15.87 6.06993 12 6.06993C8.13 6.06993 5 9.19993 5 13.0699Z" fill="#005EE7"/>
</svg>
