<svg width="24" height="24" viewBox="0 0 24 24" fill="none" xmlns="http://www.w3.org/2000/svg">
<g id="access_alarm-gr">
<path id="icon/device/access_alarm_24px" fill-rule="evenodd" clip-rule="evenodd" d="M7.88 3.45999L6.6 1.92999L2 5.77999L3.29 7.30999L7.88 3.45999ZM22 5.78999L17.4 1.92999L16.11 3.45999L20.71 7.31999L22 5.78999ZM11 8.06999H12.5V13.32L16.5 15.69L15.75 16.92L11 14.07V8.06999ZM12 4.06999C7.03 4.06999 3 8.09999 3 13.07C3 18.04 7.02 22.07 12 22.07C16.97 22.07 21 18.04 21 13.07C21 8.09999 16.97 4.06999 12 4.06999ZM5 13.07C5 16.94 8.13 20.07 12 20.07C15.87 20.07 19 16.94 19 13.07C19 9.19999 15.87 6.06999 12 6.06999C8.13 6.06999 5 9.19999 5 13.07Z" fill="#666666"/>
</g>
</svg>
