<svg width="24" height="24" viewBox="0 0 24 24" fill="none" xmlns="http://www.w3.org/2000/svg">
<path fill-rule="evenodd" clip-rule="evenodd" d="M7.88 3.46005L6.6 1.93005L2 5.78005L3.29 7.31005L7.88 3.46005ZM22 5.79005L17.4 1.93005L16.11 3.46005L20.71 7.32005L22 5.79005ZM11 8.07005H12.5V13.3201L16.5 15.6901L15.75 16.9201L11 14.0701V8.07005ZM12 4.07005C7.03 4.07005 3 8.10005 3 13.0701C3 18.0401 7.02 22.0701 12 22.0701C16.97 22.0701 21 18.0401 21 13.0701C21 8.10005 16.97 4.07005 12 4.07005ZM5 13.0701C5 16.9401 8.13 20.0701 12 20.0701C15.87 20.0701 19 16.9401 19 13.0701C19 9.20005 15.87 6.07005 12 6.07005C8.13 6.07005 5 9.20005 5 13.0701Z" fill="white"/>
</svg>
