<svg width="24" height="24" viewBox="0 0 24 24" fill="none" xmlns="http://www.w3.org/2000/svg">
<g id="account_balance_wallet-gr">
<path id="icon/action/account_balance_wallet_24px" fill-rule="evenodd" clip-rule="evenodd" d="M20.5 5V7.28C21.09 7.63 21.5 8.26 21.5 9V15C21.5 15.74 21.09 16.37 20.5 16.72V19C20.5 20.1 19.6 21 18.5 21H4.5C3.39 21 2.5 20.1 2.5 19V5C2.5 3.9 3.39 3 4.5 3H18.5C19.6 3 20.5 3.9 20.5 5ZM12.5 15H19.5V9H12.5V15ZM4.5 19V5H18.5V7H12.5C11.4 7 10.5 7.9 10.5 9V15C10.5 16.1 11.4 17 12.5 17H18.5V19H4.5ZM14 12C14 11.1716 14.6716 10.5 15.5 10.5C16.3284 10.5 17 11.1716 17 12C17 12.8284 16.3284 13.5 15.5 13.5C14.6716 13.5 14 12.8284 14 12Z" fill="black" fill-opacity="0.54"/>
</g>
</svg>
