<svg width="24" height="24" viewBox="0 0 24 24" fill="none" xmlns="http://www.w3.org/2000/svg">
<g id="add_call-gr">
<path id="icon/communication/add_call_24px" fill-rule="evenodd" clip-rule="evenodd" d="M16.43 14.93C17.55 15.3 18.75 15.5 20 15.5C20.55 15.5 21 15.95 21 16.5V20C21 20.55 20.55 21 20 21C10.61 21 3 13.39 3 4C3 3.45 3.45 3 4 3H7.5C8.05 3 8.5 3.45 8.5 4C8.5 5.25 8.7 6.45 9.07 7.57C9.18 7.92 9.1 8.31 8.82 8.57L6.62 10.78C8.06 13.62 10.38 15.93 13.21 17.37L15.41 15.17C15.61 14.98 15.86 14.88 16.12 14.88C16.22 14.88 16.33 14.9 16.43 14.93ZM6.98 7.58C6.75 6.75 6.6 5.88 6.53 5H5.03C5.12 6.32 5.38 7.58 5.78 8.79L6.98 7.58ZM19 18.97C17.68 18.88 16.4 18.62 15.2 18.21L16.4 17.01C17.25 17.25 18.12 17.4 19 17.46V18.97ZM18 3V6H21V8H18V11H16V8H13V6H16V3H18Z" fill="#666666"/>
</g>
</svg>
