<svg width="24" height="24" viewBox="0 0 24 24" fill="none" xmlns="http://www.w3.org/2000/svg">
<g id="airline_seat_recline_extra-gr">
<path id="icon/notification/airline_seat_recline_extra_24px" fill-rule="evenodd" clip-rule="evenodd" d="M5.35 6.13969C4.45 5.49969 4.23 4.25969 4.86 3.34969C5.49 2.44969 6.74 2.22969 7.65 2.85969C8.55 3.49969 8.77 4.73969 8.14 5.64969C7.5 6.54969 6.26 6.76969 5.35 6.13969ZM16 19.4997H8.93C7.45 19.4997 6.19 18.4197 5.97 16.9597L4 7.49969H2L3.99 17.2597C4.37 19.6997 6.47 21.4997 8.94 21.4997H16V19.4997ZM11.35 15.4997H16.23L22 19.9997L20.5 21.4997L16.68 18.4997H9.83C8.39 18.4997 7.16 17.4797 6.88 16.0597L5.53 10.1397C5.32 8.91969 6.14 7.74969 7.37 7.52969H7.39C7.72 7.46969 8.06 7.49969 8.38 7.58969C8.65 7.66969 8.91 7.78969 9.14 7.96969L10.78 9.23969C12.03 10.2197 13.84 10.7997 15.47 10.4897V12.6197C13.6 12.9397 11.9 12.2897 10.32 11.3997L11.35 15.4997Z" fill="#666666"/>
</g>
</svg>
