<svg width="24" height="24" viewBox="0 0 24 24" fill="none" xmlns="http://www.w3.org/2000/svg">
<path fill-rule="evenodd" clip-rule="evenodd" d="M5.50146 3V12C5.50146 13.66 6.84146 15 8.50146 15H12.5015V17H8.50146C5.74146 17 3.50146 14.76 3.50146 12V3H5.50146ZM19.0015 21C19.9215 21 20.6515 20.16 20.4715 19.2C20.3315 18.49 19.6715 18 18.9415 18H17.5015L19.5015 11C19.5015 9.9 18.6015 9 17.5015 9H12.5015V3H6.50146V11C6.50146 12.65 7.85146 14 9.50146 14H15.5015L14.5015 18V21H19.0015Z" fill="white"/>
</svg>
