<svg width="24" height="24" viewBox="0 0 24 24" fill="none" xmlns="http://www.w3.org/2000/svg">
<path fill-rule="evenodd" clip-rule="evenodd" d="M5.35 6.13962C4.45 5.49962 4.23 4.25962 4.86 3.34962C5.49 2.44962 6.74 2.22962 7.65 2.85962C8.55 3.49962 8.77 4.73962 8.14 5.64962C7.5 6.54962 6.26 6.76962 5.35 6.13962ZM16 19.4996H8.93C7.45 19.4996 6.19 18.4196 5.97 16.9596L4 7.49962H2L3.99 17.2596C4.37 19.6996 6.47 21.4996 8.94 21.4996H16V19.4996ZM11.35 15.4996H16.23L22 19.9996L20.5 21.4996L16.68 18.4996H9.83C8.39 18.4996 7.16 17.4796 6.88 16.0596L5.53 10.1396C5.32 8.91962 6.14 7.74962 7.37 7.52962H7.39C7.72 7.46962 8.06 7.49962 8.38 7.58962C8.65 7.66962 8.91 7.78962 9.14 7.96962L10.78 9.23962C12.03 10.2196 13.84 10.7996 15.47 10.4896V12.6196C13.6 12.9396 11.9 12.2896 10.32 11.3996L11.35 15.4996Z" fill="#005EE7"/>
</svg>
