<svg width="24" height="24" viewBox="0 0 24 24" fill="none" xmlns="http://www.w3.org/2000/svg">
<g id="alarm-gr">
<path id="icon/action/alarm_24px" fill-rule="evenodd" clip-rule="evenodd" d="M7.94416 3.441L6.66296 1.9052L2.05566 5.7488L3.33676 7.2846L7.94416 3.441ZM17.3362 1.9058L21.9436 5.7494L20.6624 7.2852L16.055 3.4416L17.3362 1.9058ZM12.4997 8.0948H10.9997V14.0948L15.7497 16.9448L16.4997 15.7148L12.4997 13.3448V8.0948ZM11.9997 4.0948C7.02966 4.0948 2.99966 8.1248 2.99966 13.0948C2.99966 18.0648 7.02966 22.0948 11.9997 22.0948C16.9697 22.0948 20.9997 18.0648 20.9997 13.0948C20.9997 8.1248 16.9697 4.0948 11.9997 4.0948ZM4.99966 13.0948C4.99966 16.9548 8.13966 20.0948 11.9997 20.0948C15.8597 20.0948 18.9997 16.9548 18.9997 13.0948C18.9997 9.2348 15.8597 6.0948 11.9997 6.0948C8.13966 6.0948 4.99966 9.2348 4.99966 13.0948Z" fill="black" fill-opacity="0.54"/>
</g>
</svg>
