<svg width="24" height="24" viewBox="0 0 24 24" fill="none" xmlns="http://www.w3.org/2000/svg">
<path fill-rule="evenodd" clip-rule="evenodd" d="M6.66296 1.90527L7.94416 3.44107L3.33676 7.28467L2.05566 5.74887L6.66296 1.90527ZM17.3362 1.90587L21.9436 5.74947L20.6624 7.28527L16.055 3.44167L17.3362 1.90587ZM2.99966 13.0949C2.99966 8.12487 7.02966 4.09487 11.9997 4.09487C16.9697 4.09487 20.9997 8.12487 20.9997 13.0949C20.9997 18.0649 16.9697 22.0949 11.9997 22.0949C7.02966 22.0949 2.99966 18.0649 2.99966 13.0949ZM11.9997 20.0949C8.13966 20.0949 4.99966 16.9549 4.99966 13.0949C4.99966 9.23487 8.13966 6.09487 11.9997 6.09487C15.8597 6.09487 18.9997 9.23487 18.9997 13.0949C18.9997 16.9549 15.8597 20.0949 11.9997 20.0949ZM10.9997 12.0949V9.09487H12.9997V12.0949H15.9997V14.0949H12.9997V17.0949H10.9997V14.0949H7.99966V12.0949H10.9997Z" fill="#005EE7"/>
</svg>
