<svg width="24" height="24" viewBox="0 0 24 24" fill="none" xmlns="http://www.w3.org/2000/svg">
<path fill-rule="evenodd" clip-rule="evenodd" d="M7.94416 3.44095L6.66296 1.90515L2.05566 5.74875L3.33676 7.28455L7.94416 3.44095ZM17.3362 1.90575L21.9436 5.74935L20.6624 7.28515L16.055 3.44155L17.3362 1.90575ZM10.5397 14.6248L8.40966 12.4948L7.34966 13.5548L10.5297 16.7348L16.5297 10.7348L15.4697 9.67475L10.5397 14.6248ZM11.9997 4.09475C7.02966 4.09475 2.99966 8.12475 2.99966 13.0948C2.99966 18.0648 7.02966 22.0948 11.9997 22.0948C16.9697 22.0948 20.9997 18.0648 20.9997 13.0948C20.9997 8.12475 16.9697 4.09475 11.9997 4.09475ZM4.99966 13.0948C4.99966 16.9548 8.13966 20.0948 11.9997 20.0948C15.8597 20.0948 18.9997 16.9548 18.9997 13.0948C18.9997 9.23475 15.8597 6.09475 11.9997 6.09475C8.13966 6.09475 4.99966 9.23475 4.99966 13.0948Z" fill="white"/>
</svg>
