<svg width="24" height="24" viewBox="0 0 24 24" fill="none" xmlns="http://www.w3.org/2000/svg">
<path fill-rule="evenodd" clip-rule="evenodd" d="M2 12C2 6.48 6.48 2 12 2C17.52 2 22 6.48 22 12C22 17.52 17.52 22 12 22C6.48 22 2 17.52 2 12ZM4 12C4 16.41 7.59 20 12 20C16.41 20 20 16.41 20 12C20 7.59 16.41 4 12 4C7.59 4 4 7.59 4 12ZM12 7.5C9.51 7.5 7.5 9.51 7.5 12C7.5 14.49 9.51 16.5 12 16.5C14.49 16.5 16.5 14.49 16.5 12C16.5 9.51 14.49 7.5 12 7.5ZM11 12C11 12.55 11.45 13 12 13C12.55 13 13 12.55 13 12C13 11.45 12.55 11 12 11C11.45 11 11 11.45 11 12Z" fill="white"/>
</svg>
