<svg width="24" height="24" viewBox="0 0 24 24" fill="none" xmlns="http://www.w3.org/2000/svg">
<path fill-rule="evenodd" clip-rule="evenodd" d="M2 12C2 6.48 6.48 2 12 2C17.52 2 22 6.48 22 12V13.43C22 15.4 20.47 17 18.5 17C17.31 17 16.19 16.42 15.54 15.53C14.64 16.44 13.38 17 12 17C9.24 17 7 14.76 7 12C7 9.24 9.24 7 12 7C14.76 7 17 9.24 17 12V13.43C17 14.22 17.71 15 18.5 15C19.29 15 20 14.22 20 13.43V12C20 7.66 16.34 4 12 4C7.66 4 4 7.66 4 12C4 16.34 7.66 20 12 20H17V22H12C6.48 22 2 17.52 2 12ZM9 12C9 13.66 10.34 15 12 15C13.66 15 15 13.66 15 12C15 10.34 13.66 9 12 9C10.34 9 9 10.34 9 12Z" fill="white"/>
</svg>
