<svg width="24" height="24" viewBox="0 0 24 24" fill="none" xmlns="http://www.w3.org/2000/svg">
<path fill-rule="evenodd" clip-rule="evenodd" d="M13.1154 3.00122C10.5354 3.00122 7.95543 3.98122 5.97543 5.95122L5.96543 5.96122C2.01543 9.91122 2.01543 16.3212 5.96543 20.2712L20.2654 5.96122C18.2954 3.99122 15.7054 3.00122 13.1154 3.00122ZM20.9966 19.5704L19.5683 20.9988L13.1266 14.5571L14.5549 13.1288L20.9966 19.5704ZM4.99543 13.1212C4.99543 14.6112 5.39543 16.0312 6.13543 17.2712L7.52543 15.8912C6.34543 14.2412 5.64543 12.3612 5.45543 10.4512C5.15543 11.3012 4.99543 12.1912 4.99543 13.1212ZM8.97543 14.4312C7.62543 12.3812 7.11543 9.93122 7.59543 7.60122C8.17543 7.48122 8.75543 7.42122 9.34543 7.42122C11.1454 7.42122 12.8954 7.97122 14.4254 8.98122L8.97543 14.4312ZM13.1154 5.00122C12.1854 5.00122 11.2954 5.16122 10.4454 5.46122C12.3554 5.65122 14.2254 6.35122 15.8754 7.53122L17.2654 6.14122C16.0254 5.40122 14.6054 5.00122 13.1154 5.00122Z" fill="white"/>
</svg>
