<svg width="24" height="24" viewBox="0 0 24 24" fill="none" xmlns="http://www.w3.org/2000/svg">
<g id="border_horizontal-gr">
<path id="icon/editor/border_horizontal_24px" fill-rule="evenodd" clip-rule="evenodd" d="M3 3H5V5H3V3ZM5 7H3V9H5V7ZM3 21H5V19H3V21ZM5 17H3V15H5V17ZM7 21H9V19H7V21ZM9 3H7V5H9V3ZM15 3H17V5H15V3ZM13 7H11V9H13V7ZM11 3H13V5H11V3ZM19 17H21V15H19V17ZM13 21H11V19H13V21ZM3 13H21V11H3V13ZM19 5V3H21V5H19ZM19 9H21V7H19V9ZM13 17H11V15H13V17ZM15 21H17V19H15V21ZM21 21H19V19H21V21Z" fill="#666666"/>
</g>
</svg>
