<svg width="24" height="24" viewBox="0 0 24 24" fill="none" xmlns="http://www.w3.org/2000/svg">
<g id="border_top-gr">
<path id="icon/editor/border_top_24px" fill-rule="evenodd" clip-rule="evenodd" d="M3 3V5H21V3H3ZM3 9H5V7H3V9ZM7 13H9V11H7V13ZM7 21H9V19H7V21ZM13 13H11V11H13V13ZM11 21H13V19H11V21ZM5 17H3V15H5V17ZM3 21H5V19H3V21ZM5 13H3V11H5V13ZM13 17H11V15H13V17ZM19 9H21V7H19V9ZM21 13H19V11H21V13ZM21 17H19V15H21V17ZM15 21H17V19H15V21ZM13 9H11V7H13V9ZM19 21H21V19H19V21ZM17 13H15V11H17V13Z" fill="#666666"/>
</g>
</svg>
