<svg width="24" height="24" viewBox="0 0 24 24" fill="none" xmlns="http://www.w3.org/2000/svg">
<g id="brightness_auto-gr">
<path id="icon/device/brightness_auto_24px" fill-rule="evenodd" clip-rule="evenodd" d="M19.9999 8.69V4H15.3099L11.9999 0.690002L8.68994 4H3.99994V8.69L0.689941 12L3.99994 15.31V20H8.68994L11.9999 23.31L15.3099 20H19.9999V15.31L23.3099 12L19.9999 8.69ZM7.79994 16L10.9999 7H12.9999L16.1999 16H14.2999L13.5999 14H10.3999L9.69994 16H7.79994ZM11.9999 9L10.8499 12.65H13.1499L11.9999 9ZM17.9999 18V14.48L20.4799 12L17.9999 9.52V6H14.4799L11.9999 3.52L9.51994 6H5.99994V9.52L3.51994 12L5.99994 14.48V18H9.51994L11.9999 20.48L14.4799 18H17.9999Z" fill="#666666"/>
</g>
</svg>
