<svg width="24" height="24" viewBox="0 0 24 24" fill="none" xmlns="http://www.w3.org/2000/svg">
<g id="brightness_low-gr">
<path id="icon/device/brightness_low_24px" fill-rule="evenodd" clip-rule="evenodd" d="M19.9999 4V8.69L23.3099 12L19.9999 15.31V20H15.3099L11.9999 23.31L8.68994 20H3.99994V15.31L0.689941 12L3.99994 8.69V4H8.68994L11.9999 0.690002L15.3099 4H19.9999ZM17.9999 18V14.48L20.4799 12L17.9999 9.52V6H14.4799L11.9999 3.52L9.51994 6H5.99994V9.52L3.51994 12L5.99994 14.48V18H9.51994L11.9999 20.48L14.4799 18H17.9999ZM11.9999 6C8.68994 6 5.99994 8.69 5.99994 12C5.99994 15.31 8.68994 18 11.9999 18C15.3099 18 17.9999 15.31 17.9999 12C17.9999 8.69 15.3099 6 11.9999 6ZM7.99994 12C7.99994 14.21 9.78994 16 11.9999 16C14.2099 16 15.9999 14.21 15.9999 12C15.9999 9.79 14.2099 8 11.9999 8C9.78994 8 7.99994 9.79 7.99994 12Z" fill="#666666"/>
</g>
</svg>
