<svg width="24" height="24" viewBox="0 0 24 24" fill="none" xmlns="http://www.w3.org/2000/svg">
<g id="brightness_4-gr">
<path id="icon/image/brightness_4_24px" fill-rule="evenodd" clip-rule="evenodd" d="M19.9999 8.69V4H15.3099L11.9999 0.690002L8.68994 4H3.99994V8.69L0.689941 12L3.99994 15.31V20H8.68994L11.9999 23.31L15.3099 20H19.9999V15.31L23.3099 12L19.9999 8.69ZM17.9999 14.48V18H14.4799L11.9999 20.48L9.51994 18H5.99994V14.48L3.51994 12L5.99994 9.52V6H9.51994L11.9999 3.52L14.4799 6H17.9999V9.52L20.4799 12L17.9999 14.48ZM10.2099 7.46C10.8399 7.17 11.5499 7 12.2899 7C15.0499 7 17.2899 9.24 17.2899 12C17.2899 14.76 15.0499 17 12.2899 17C11.5499 17 10.8399 16.83 10.2099 16.54C11.9299 15.75 13.1299 14.01 13.1299 12C13.1299 9.99 11.9299 8.25 10.2099 7.46Z" fill="#666666"/>
</g>
</svg>
