<svg width="24" height="24" viewBox="0 0 24 24" fill="none" xmlns="http://www.w3.org/2000/svg">
<g id="build-gr">
<path id="icon/action/build_24px" fill-rule="evenodd" clip-rule="evenodd" d="M13.5756 9.90959L22.6556 18.9896C23.0556 19.3896 23.0556 20.0196 22.6556 20.3996L20.3556 22.6996C19.9656 23.0896 19.3356 23.0896 18.9456 22.6996L9.83562 13.5896C7.51562 14.4596 4.80562 13.9696 2.94562 12.1096C0.645616 9.81959 0.435616 6.22959 2.29562 3.68959L6.12562 7.51959L7.54562 6.10959L3.70562 2.25959C6.25562 0.399586 9.83562 0.609586 12.1356 2.90959C14.0256 4.80959 14.5056 7.56959 13.5756 9.90959ZM10.1956 11.1296L19.6556 20.5896L20.5356 19.6996L11.0856 10.2496C11.5456 9.65959 11.8456 8.99959 11.9656 8.28959C12.2156 6.89959 11.8056 5.40959 10.7256 4.32959C9.77562 3.38959 8.52562 2.94959 7.28562 3.01959L10.3756 6.10959L6.13562 10.3496L3.04562 7.25959C2.97562 8.49959 3.41562 9.75959 4.36562 10.6996C5.40562 11.7396 6.83562 12.1496 8.19562 11.9496C8.90562 11.8496 9.58562 11.5796 10.1956 11.1296Z" fill="black" fill-opacity="0.54"/>
</g>
</svg>
