<svg width="24" height="24" viewBox="0 0 24 24" fill="none" xmlns="http://www.w3.org/2000/svg">
<path fill-rule="evenodd" clip-rule="evenodd" d="M14 5C14 6.1 13.11 7 12 7C10.9 7 10 6.1 10 5C10 4.62 10.1 4.27 10.29 3.97L12 1L13.71 3.97C13.9 4.27 14 4.62 14 5ZM13 10H18C19.66 10 21 11.34 21 13V22C21 22.55 20.55 23 20 23H4C3.45 23 3 22.55 3 22V13C3 11.34 4.34 10 6 10H11V8H13V10ZM5 21V18C5.9 17.99 6.76 17.63 7.4 16.99L8.49 15.92L9.56 16.99C10.87 18.3 13.15 18.29 14.45 16.99L15.53 15.92L16.6 16.99C17.24 17.63 18.1 17.99 19 18V21H5ZM17.65 15.93C18.01 16.3 18.49 16.49 19 16.5V13C19 12.45 18.55 12 18 12H6C5.45 12 5 12.45 5 13V16.5C5.51 16.49 5.99 16.29 6.34 15.93L8.48 13.8L10.61 15.93C11.35 16.67 12.64 16.67 13.38 15.93L15.52 13.8L17.65 15.93Z" fill="#005EE7"/>
</svg>
