<svg width="24" height="24" viewBox="0 0 24 24" fill="none" xmlns="http://www.w3.org/2000/svg">
<g id="call_end-gr">
<path id="icon/communication/call_end_24px" fill-rule="evenodd" clip-rule="evenodd" d="M0.29 12.24C3.34 9.35001 7.46 7.57001 12 7.57001C16.54 7.57001 20.66 9.35001 23.71 12.24C23.89 12.42 24 12.67 24 12.95C24 13.23 23.89 13.48 23.71 13.66L21.23 16.14C21.05 16.32 20.8 16.43 20.52 16.43C20.25 16.43 20 16.32 19.82 16.15C19.03 15.41 18.13 14.79 17.15 14.3C16.82 14.14 16.59 13.8 16.59 13.4V10.3C15.15 9.82001 13.6 9.57001 12 9.57001C10.4 9.57001 8.85 9.82001 7.4 10.29V13.39C7.4 13.78 7.17 14.13 6.84 14.29C5.86 14.78 4.97 15.41 4.18 16.14C4 16.32 3.75 16.42 3.48 16.42C3.2 16.42 2.95 16.31 2.77 16.13L0.29 13.65C0.11 13.48 0 13.23 0 12.95C0 12.67 0.11 12.42 0.29 12.24ZM5.4 11.09V12.79C4.75 13.16 4.12 13.58 3.53 14.06L2.46 12.99C3.37 12.24 4.36 11.61 5.4 11.09ZM18.59 11.09L18.6 11.0949V12.8C19.27 13.18 19.9 13.6 20.48 14.07L21.55 13C20.6329 12.2424 19.6463 11.6041 18.6 11.0949V11.09H18.59Z" fill="#666666"/>
</g>
</svg>
