<svg width="24" height="24" viewBox="0 0 24 24" fill="none" xmlns="http://www.w3.org/2000/svg">
<path fill-rule="evenodd" clip-rule="evenodd" d="M0.29 12.2401C3.34 9.35007 7.46 7.57007 12 7.57007C16.54 7.57007 20.66 9.35007 23.71 12.2401C23.89 12.4201 24 12.6701 24 12.9501C24 13.2301 23.89 13.4801 23.71 13.6601L21.23 16.1401C21.05 16.3201 20.8 16.4301 20.52 16.4301C20.25 16.4301 20 16.3201 19.82 16.1501C19.03 15.4101 18.13 14.7901 17.15 14.3001C16.82 14.1401 16.59 13.8001 16.59 13.4001V10.3001C15.15 9.82007 13.6 9.57007 12 9.57007C10.4 9.57007 8.85 9.82007 7.4 10.2901V13.3901C7.4 13.7801 7.17 14.1301 6.84 14.2901C5.86 14.7801 4.97 15.4101 4.18 16.1401C4 16.3201 3.75 16.4201 3.48 16.4201C3.2 16.4201 2.95 16.3101 2.77 16.1301L0.29 13.6501C0.11 13.4801 0 13.2301 0 12.9501C0 12.6701 0.11 12.4201 0.29 12.2401ZM5.4 11.0901V12.7901C4.75 13.1601 4.12 13.5801 3.53 14.0601L2.46 12.9901C3.37 12.2401 4.36 11.6101 5.4 11.0901ZM18.59 11.0901L18.6 11.0949V12.8001C19.27 13.1801 19.9 13.6001 20.48 14.0701L21.55 13.0001C20.6329 12.2425 19.6463 11.6041 18.6 11.0949V11.0901H18.59Z" fill="#005EE7"/>
</svg>
