<svg width="24" height="24" viewBox="0 0 24 24" fill="none" xmlns="http://www.w3.org/2000/svg">
<g id="camera-gr">
<path id="icon/image/camera_24px" fill-rule="evenodd" clip-rule="evenodd" d="M14.25 2.26L14.17 2.22L14.16 2.24C13.46 2.09 12.74 2 12 2C6.48 2 2 6.48 2 12C2 17.52 6.48 22 12 22C17.52 22 22 17.52 22 12C22 7.25 18.69 3.28 14.25 2.26ZM19.41 9H11.42L14.13 4.3C16.53 4.96 18.48 6.72 19.41 9ZM10.27 9L13.1 4.08C12.74 4.03 12.37 4 12 4C9.82 4 7.84 4.88 6.4 6.3L9.12 11L10.27 9ZM5.7 7.09L8.54 12L9.69 14H4.26C4.1 13.36 4 12.69 4 12C4 10.15 4.64 8.45 5.7 7.09ZM12.57 15H4.59C5.52 17.28 7.46 19.03 9.86 19.7L12.57 15ZM10.9 19.91L14.89 13L17.61 17.7C16.16 19.12 14.18 20 12 20C11.62 20 11.26 19.96 10.9 19.91ZM14.3 10L18.3 16.91C19.36 15.55 20 13.85 20 12C20 11.31 19.9 10.64 19.73 10H14.3Z" fill="#666666"/>
</g>
</svg>
