<svg width="24" height="24" viewBox="0 0 24 24" fill="none" xmlns="http://www.w3.org/2000/svg">
<path fill-rule="evenodd" clip-rule="evenodd" d="M4.25484 6.72128L2.96484 5.43128C6.86484 1.52128 13.2048 1.52128 17.1148 5.43128L15.8248 6.72128C12.6348 3.53128 7.44484 3.53128 4.25484 6.72128ZM5.03484 21.5013L21.0348 5.47128V21.5013H17.0348V19.5013H19.0348V10.2813L17.0348 12.2813V9.48128L5.03484 21.5013ZM17.0348 12.2813L9.81484 19.5013H17.0348V12.2813ZM8.10484 10.5713L10.0348 12.5013L11.9648 10.5713C10.8948 9.51128 9.17484 9.51128 8.10484 10.5713ZM6.82484 9.29128L5.53484 8.00128C8.01484 5.52128 12.0548 5.52128 14.5348 8.00128L13.2548 9.29128C11.4748 7.52128 8.59484 7.52128 6.82484 9.29128Z" fill="white"/>
</svg>
