<svg width="24" height="24" viewBox="0 0 24 24" fill="none" xmlns="http://www.w3.org/2000/svg">
<path fill-rule="evenodd" clip-rule="evenodd" d="M9 5H5V9H3V5C3 3.9 3.9 3 5 3H9V5ZM12 7C14.76 7 17 9.24 17 12C17 14.76 14.76 17 12 17C9.24 17 7 14.76 7 12C7 9.24 9.24 7 12 7ZM9 12C9 13.65 10.35 15 12 15C13.65 15 15 13.65 15 12C15 10.35 13.65 9 12 9C10.35 9 9 10.35 9 12ZM5 15H3V19C3 20.1 3.9 21 5 21H9V19H5V15ZM19 3H15V5H19V9H21V5C21 3.9 20.1 3 19 3ZM15 21V19H19V15H21V19C21 20.1 20.1 21 19 21H15Z" fill="#005EE7"/>
</svg>
