<svg width="24" height="24" viewBox="0 0 24 24" fill="none" xmlns="http://www.w3.org/2000/svg">
<path fill-rule="evenodd" clip-rule="evenodd" d="M17.6695 3C17.4095 3 17.1595 3.1 16.9595 3.29L13.8395 6.41L11.9095 4.5L10.4995 5.91L11.9195 7.33L2.99951 16.25V21H7.74951L16.6695 12.08L18.0895 13.5L19.4995 12.09L17.5795 10.17L20.6995 7.05C21.0995 6.65 21.0995 6.02 20.7095 5.63L18.3695 3.29C18.1695 3.1 17.9195 3 17.6695 3ZM17.6595 5.41L18.5795 6.33L15.8895 9.02L14.9695 8.1L17.6595 5.41ZM4.99951 17.08L6.91951 19L14.9795 10.94L13.0595 9.02L4.99951 17.08Z" fill="white"/>
</svg>
