<svg width="24" height="24" viewBox="0 0 24 24" fill="none" xmlns="http://www.w3.org/2000/svg">
<path fill-rule="evenodd" clip-rule="evenodd" d="M5 4H12C13.66 4 15 5.34 15 7V8H13V6H4V13H9V18H7L5 20H4V19L5 18C3.34 18 2 16.66 2 15V7C2 5.34 3.34 4 5 4ZM6 15C6 14.45 5.55 14 5 14C4.45 14 4 14.45 4 15C4 15.55 4.45 16 5 16C5.55 16 6 15.55 6 15ZM20.57 9.66C20.43 9.26 20.05 9 19.6 9H12.41C11.95 9 11.58 9.26 11.43 9.66L10.01 13.77V19.28C10.01 19.66 10.32 20 10.7 20H11.32C11.7 20 12 19.62 12 19.24V18H20V19.24C20 19.62 20.31 20 20.69 20H21.3C21.68 20 21.99 19.66 21.99 19.28L22 17.91V13.77L20.57 9.66ZM19.6 10H12.41L11.38 13H20.63L19.6 10ZM12 16C11.45 16 11 15.55 11 15C11 14.45 11.45 14 12 14C12.55 14 13 14.45 13 15C13 15.55 12.55 16 12 16ZM19 15C19 15.55 19.45 16 20 16C20.55 16 21 15.55 21 15C21 14.45 20.55 14 20 14C19.45 14 19 14.45 19 15Z" fill="#005EE7"/>
</svg>
