<svg width="24" height="24" viewBox="0 0 24 24" fill="none" xmlns="http://www.w3.org/2000/svg">
<path fill-rule="evenodd" clip-rule="evenodd" d="M12 2.5C8.1 2.5 4.56 4.09 2 6.65L7 11.65C8.28 10.37 10.05 9.57 12 9.57C13.95 9.57 15.72 10.36 17 11.64L22 6.64C19.44 4.09 15.9 2.5 12 2.5ZM7 16.5C7 13.74 9.24 11.5 12 11.5C14.76 11.5 17 13.74 17 16.5C17 19.26 14.76 21.5 12 21.5C9.24 21.5 7 19.26 7 16.5ZM9 16.5C9 18.15 10.35 19.5 12 19.5C13.65 19.5 15 18.15 15 16.5C15 14.85 13.65 13.5 12 13.5C10.35 13.5 9 14.85 9 16.5ZM12 7.57C13.74 7.57 15.4 8.06 16.84 8.97L19.05 6.76C17 5.29 14.56 4.5 12 4.5C9.44 4.5 6.99 5.29 4.94 6.76L7.15 8.98C8.59 8.06 10.26 7.57 12 7.57Z" fill="white"/>
</svg>
