<svg width="24" height="24" viewBox="0 0 24 24" fill="none" xmlns="http://www.w3.org/2000/svg">
<path fill-rule="evenodd" clip-rule="evenodd" d="M11.5 19.695V23.295L12.93 22.605C18.06 20.135 21.5 15.155 21.5 10.205C21.5 4.96496 17.24 0.704956 12 0.704956C6.76 0.704956 2.5 4.96496 2.5 10.205C2.5 15.275 6.49 19.435 11.5 19.695ZM4.5 10.205C4.5 6.06496 7.86 2.70496 12 2.70496C16.14 2.70496 19.5 6.06496 19.5 10.205C19.5 13.925 17.14 17.705 13.5 20.005V17.705H12C7.86 17.705 4.5 14.345 4.5 10.205ZM13 14.205V16.205H11V14.205H13ZM12.7704 9.52663C11.9421 10.1615 11 10.8837 11 12.705H13C13 11.6096 13.711 10.9882 14.4408 10.3505C15.21 9.67828 16 8.98787 16 7.70496C16 5.49496 14.21 3.70496 12 3.70496C9.79 3.70496 8 5.49496 8 7.70496H10C10 6.60496 10.9 5.70496 12 5.70496C13.1 5.70496 14 6.60496 14 7.70496C14 8.58417 13.4202 9.02856 12.7704 9.52663Z" fill="white"/>
</svg>
