<svg width="24" height="24" viewBox="0 0 24 24" fill="none" xmlns="http://www.w3.org/2000/svg">
<path fill-rule="evenodd" clip-rule="evenodd" d="M11.4164 0.0375974C11.6269 0.0184295 11.8292 0 12.05 0C18.34 0 23.49 4.84 24 11H22.5C22.14 7.24 19.8 4.07 16.53 2.52L15.2 3.85L11.39 0.04L11.4164 0.0375974ZM1.5 13C1.86 16.76 4.2 19.93 7.47 21.49L8.8 20.15L12.61 23.97C12.5367 23.9733 12.4644 23.9778 12.3922 23.9822C12.2478 23.9911 12.1033 24 11.95 24C5.66 24 0.51 19.16 0 13H1.5ZM16 14H18V8C18 6.89 17.1 6 16 6H10V8H16V14ZM8 4V16H20V18H18V20H16V18H8C6.89 18 6 17.1 6 16V8H4V6H6V4H8Z" fill="#005EE7"/>
</svg>
