<svg width="24" height="24" viewBox="0 0 24 24" fill="none" xmlns="http://www.w3.org/2000/svg">
<path fill-rule="evenodd" clip-rule="evenodd" d="M5 11.9749C5 15.8449 8.13 18.9749 12 18.9749C14.21 18.9749 16.17 17.9549 17.45 16.3549L20.05 17.8849C18.23 20.3649 15.3 21.9749 11.99 21.9749C6.47 21.9749 2 17.4949 2 11.9749C2 6.7849 5.94 2.5249 11 2.0249V5.0549C7.61 5.5449 5 8.4449 5 11.9749ZM13 5.0549V2.0249C18.05 2.5249 22 6.7949 22 11.9749C22 13.4249 21.68 14.8049 21.12 16.0449L18.52 14.5149C18.82 13.7249 19 12.8749 19 11.9749C19 8.4449 16.39 5.5449 13 5.0549Z" fill="#005EE7"/>
</svg>
