<svg width="24" height="24" viewBox="0 0 24 24" fill="none" xmlns="http://www.w3.org/2000/svg">
<g id="desktop_access_disabled-gr">
<path id="icon/communication/desktop_access_disabled_24px" fill-rule="evenodd" clip-rule="evenodd" d="M1.91488 0.844971L0.504883 2.25497L1.50488 3.24497V15.155C1.50488 16.255 2.39488 17.155 3.49488 17.155H10.5049V19.155H8.50488V21.155H16.5049V19.155H14.5049V17.155H15.4049L21.4049 23.155L22.8149 21.745L1.91488 0.844971ZM3.49488 15.155V5.24497L13.4049 15.155H3.49488ZM7.05488 3.15497L5.05488 1.15497H21.4949C22.5949 1.15497 23.4949 2.05497 23.4949 3.15497V15.155C23.4949 16.255 22.5949 17.155 21.4949 17.155H21.0549L19.0549 15.155H21.5049V3.15497H7.05488Z" fill="#666666"/>
</g>
</svg>
