<svg width="24" height="24" viewBox="0 0 24 24" fill="none" xmlns="http://www.w3.org/2000/svg">
<path fill-rule="evenodd" clip-rule="evenodd" d="M16.5502 3.25C16.5502 4.35 15.6502 5.25 14.5502 5.25C13.4502 5.25 12.5502 4.35 12.5502 3.25C12.5502 2.15 13.4502 1.25 14.5502 1.25C15.6502 1.25 16.5502 2.15 16.5502 3.25ZM11.9502 14.75L10.9502 19.15L3.9502 17.75L4.3502 15.75L9.2502 16.75L10.8502 8.65L9.0502 9.35V12.75H7.0502V8.05L12.2502 5.85C12.4002 5.85 12.5252 5.825 12.6502 5.8C12.7752 5.775 12.9002 5.75 13.0502 5.75C13.7502 5.75 14.3502 6.15 14.7502 6.75L15.7502 8.35C16.5502 9.75 18.1502 10.75 20.0502 10.75V12.75C17.8502 12.75 15.8502 11.75 14.5502 10.25L13.9502 13.25L16.0502 15.25V22.75H14.0502V16.75L11.9502 14.75Z" fill="#005EE7"/>
</svg>
