<svg width="24" height="24" viewBox="0 0 24 24" fill="none" xmlns="http://www.w3.org/2000/svg">
<path fill-rule="evenodd" clip-rule="evenodd" d="M15 3.25C15 4.35 14.1 5.25 13 5.25C11.9 5.25 11 4.35 11 3.25C11 2.15 11.9 1.25 13 1.25C14.1 1.25 15 2.15 15 3.25ZM6.5 22.75L9.3 8.65L7.5 9.35V12.75H5.5V8.05L10.55 5.91C11.52 5.5 12.64 5.86 13.2 6.75L14.2 8.35C15 9.75 16.6 10.75 18.5 10.75V12.75C16.3 12.75 14.3 11.75 13 10.25L12.4 13.25L14.5 15.25V22.75H12.5V16.75L10.4 14.75L8.6 22.75H6.5Z" fill="white"/>
</svg>
