<svg width="24" height="24" viewBox="0 0 24 24" fill="none" xmlns="http://www.w3.org/2000/svg">
<path fill-rule="evenodd" clip-rule="evenodd" d="M2.0249 12C2.0249 17.19 5.9749 21.45 11.0249 21.95V14.82C9.8649 14.4 9.0249 13.3 9.0249 12C9.0249 10.7 9.8649 9.60005 11.0249 9.18005V2.05005C5.9749 2.55005 2.0249 6.81005 2.0249 12ZM21.9749 11H14.8449C14.5349 10.15 13.8749 9.49005 13.0249 9.18005V2.05005C17.7449 2.52005 21.5049 6.28005 21.9749 11ZM19.4449 9.00005C18.6249 7.00005 17.0249 5.40005 15.0249 4.58005V8.01005C15.3949 8.29005 15.7349 8.63005 16.0149 9.00005H19.4449ZM9.0249 8.02005V4.58005C6.0649 5.76005 4.0249 8.65005 4.0249 12C4.0249 15.35 6.0649 18.24 9.0249 19.43V15.99C7.7949 15.06 7.0249 13.59 7.0249 12C7.0249 10.41 7.7949 8.94005 9.0249 8.02005ZM13.0249 14.82V21.95C17.7449 21.48 21.5049 17.72 21.9749 13H14.8449C14.5349 13.85 13.8749 14.51 13.0249 14.82ZM16.0149 15C15.7349 15.38 15.3949 15.71 15.0249 15.99V19.42C17.0249 18.6 18.6249 17 19.4449 15H16.0149Z" fill="white"/>
</svg>
