<svg width="24" height="24" viewBox="0 0 24 24" fill="none" xmlns="http://www.w3.org/2000/svg">
<g id="donut_small-gr">
<path id="icon/action/donut_small_24px" fill-rule="evenodd" clip-rule="evenodd" d="M2.0249 12C2.0249 17.19 5.9749 21.45 11.0249 21.95V14.82C9.8649 14.4 9.0249 13.3 9.0249 12C9.0249 10.7 9.8649 9.6 11.0249 9.18V2.05C5.9749 2.55 2.0249 6.81 2.0249 12ZM21.9749 11H14.8449C14.5349 10.15 13.8749 9.49 13.0249 9.18V2.05C17.7449 2.52 21.5049 6.28 21.9749 11ZM19.4449 9C18.6249 7 17.0249 5.4 15.0249 4.58V8.01C15.3949 8.29 15.7349 8.63 16.0149 9H19.4449ZM9.0249 8.02V4.58C6.0649 5.76 4.0249 8.65 4.0249 12C4.0249 15.35 6.0649 18.24 9.0249 19.43V15.99C7.7949 15.06 7.0249 13.59 7.0249 12C7.0249 10.41 7.7949 8.94 9.0249 8.02ZM13.0249 14.82V21.95C17.7449 21.48 21.5049 17.72 21.9749 13H14.8449C14.5349 13.85 13.8749 14.51 13.0249 14.82ZM16.0149 15C15.7349 15.38 15.3949 15.71 15.0249 15.99V19.42C17.0249 18.6 18.6249 17 19.4449 15H16.0149Z" fill="black" fill-opacity="0.54"/>
</g>
</svg>
