<svg width="24" height="24" viewBox="0 0 24 24" fill="none" xmlns="http://www.w3.org/2000/svg">
<path fill-rule="evenodd" clip-rule="evenodd" d="M4 8.75488C4 4.34488 7.59 0.754883 12 0.754883C16.41 0.754883 20 4.34488 20 8.75488C20 14.3249 13.04 22.0949 12.74 22.4249L12 23.2449L11.26 22.4249C10.96 22.0949 4 14.3249 4 8.75488ZM6 8.75488C6 12.2949 9.82 17.6149 12 20.2249C13.75 18.1149 18 12.5849 18 8.75488C18 5.44488 15.31 2.75488 12 2.75488C8.69 2.75488 6 5.44488 6 8.75488ZM8.51 10.8049V12.2449H9.95L13.87 8.31488L12.44 6.88488L8.51 10.8049ZM13.85 5.46488C14 5.31488 14.24 5.31488 14.39 5.46488L15.29 6.36488C15.44 6.51488 15.44 6.75488 15.29 6.90488L14.59 7.60488L13.15 6.16488L13.85 5.46488Z" fill="white"/>
</svg>
