<svg width="24" height="24" viewBox="0 0 24 24" fill="none" xmlns="http://www.w3.org/2000/svg">
<g id="filter_vintage-gr">
<path id="icon/image/filter_vintage_24px" fill-rule="evenodd" clip-rule="evenodd" d="M18.6998 12.4C18.4198 12.24 18.1298 12.11 17.8398 12C18.1298 11.89 18.4198 11.76 18.6998 11.6C20.6198 10.49 21.6898 8.48 21.6998 6.41C20.7898 5.89 19.7498 5.61 18.6898 5.61C17.6698 5.61 16.6398 5.87 15.6998 6.41C15.4198 6.57 15.1598 6.76 14.9198 6.95C14.9698 6.64 14.9998 6.32 14.9998 6C14.9998 3.78 13.7898 1.85 11.9998 0.809998C10.2098 1.85 8.9998 3.78 8.9998 6C8.9998 6.32 9.0298 6.64 9.0798 6.95C8.83981 6.75 8.5798 6.56 8.2998 6.4C7.3598 5.86 6.3298 5.6 5.3098 5.6C4.2598 5.6 3.2098 5.88 2.2998 6.4C2.2998 8.47 3.3698 10.48 5.2998 11.59C5.5798 11.75 5.8698 11.88 6.1598 11.99C5.8698 12.1 5.5798 12.23 5.2998 12.39C3.3798 13.5 2.3098 15.51 2.2998 17.58C3.2098 18.1 4.2498 18.38 5.3098 18.38C6.3298 18.38 7.3598 18.12 8.2998 17.58C8.5798 17.42 8.83981 17.23 9.0798 17.04C9.0298 17.36 8.9998 17.68 8.9998 18C8.9998 20.22 10.2098 22.15 11.9998 23.19C13.7898 22.15 14.9998 20.22 14.9998 18C14.9998 17.68 14.9698 17.36 14.9198 17.05C15.1598 17.25 15.4198 17.43 15.6998 17.59C16.6398 18.13 17.6698 18.39 18.6898 18.39C19.7398 18.39 20.7898 18.11 21.6998 17.59C21.6898 15.52 20.6198 13.51 18.6998 12.4ZM16.1598 8.52C16.3698 8.35 16.5398 8.23 16.6998 8.15C17.3098 7.8 17.9998 7.61 18.6998 7.61C18.9698 7.61 19.2298 7.64 19.4898 7.69C19.1798 8.6 18.5498 9.38 17.7098 9.87C17.5398 9.97 17.3498 10.05 17.1298 10.14L15.7498 10.66C15.5798 10.2 15.3398 9.79 15.0298 9.42L16.1598 8.52ZM12.9998 6C12.9998 5.03 12.6298 4.09 11.9998 3.37C11.3698 4.09 10.9998 5.02 10.9998 6C10.9998 6.19 11.0198 6.41 11.0598 6.63L11.2898 8.07C11.5198 8.03 11.7598 8 11.9998 8C12.2398 8 12.4798 8.03 12.7198 8.07L12.9498 6.63C12.9798 6.41 12.9998 6.19 12.9998 6ZM4.5098 7.68C4.7698 7.62 5.0398 7.6 5.3098 7.6C5.9998 7.6 6.6898 7.78 7.2998 8.14C7.4498 8.23 7.6198 8.34 7.7898 8.49L8.9398 9.45C8.6398 9.81 8.4098 10.21 8.2398 10.65L6.8598 10.13C6.6498 10.04 6.4598 9.95 6.2998 9.86C5.4298 9.36 4.8098 8.59 4.5098 7.68ZM7.2998 15.84C7.4598 15.76 7.6298 15.64 7.8398 15.47L8.9698 14.57C8.6598 14.21 8.4098 13.79 8.2498 13.33L6.8698 13.85C6.6498 13.94 6.4598 14.02 6.2898 14.12C5.4498 14.61 4.8198 15.39 4.5098 16.3C4.7698 16.35 5.0298 16.38 5.2998 16.38C5.9998 16.38 6.6898 16.19 7.2998 15.84ZM11.9998 20.63C11.3698 19.91 10.9998 18.97 10.9998 18C10.9998 17.8 11.0198 17.59 11.0598 17.35L11.2798 15.93C11.5098 15.97 11.7498 16 11.9998 16C12.2398 16 12.4798 15.97 12.7098 15.93L12.9398 17.37C12.9798 17.59 12.9998 17.81 12.9998 18C12.9998 18.98 12.6298 19.91 11.9998 20.63ZM16.6998 15.85C17.3098 16.21 17.9998 16.39 18.6898 16.39C18.9498 16.39 19.2198 16.37 19.4898 16.3C19.1798 15.39 18.5598 14.61 17.7098 14.12C17.5498 14.03 17.3598 13.94 17.1398 13.86L15.7598 13.34C15.5998 13.79 15.3598 14.19 15.0598 14.55L16.2098 15.51C16.3598 15.63 16.5198 15.75 16.6998 15.85Z" fill="#666666"/>
</g>
</svg>
