<svg width="24" height="24" viewBox="0 0 24 24" fill="none" xmlns="http://www.w3.org/2000/svg">
<path fill-rule="evenodd" clip-rule="evenodd" d="M7 1H21C22.1 1 23 1.9 23 3V17C23 18.1 22.1 19 21 19H7C5.9 19 5 18.1 5 17V3C5 1.9 5.9 1 7 1ZM1 5H3V21H19V23H3C1.9 23 1 22.1 1 21V5ZM21 17H7V3H21V17ZM15 15H13C11.9 15 11 14.11 11 13V11.5C11 10.67 11.67 10 12.5 10C11.67 10 11 9.33 11 8.5V7C11 5.89 11.9 5 13 5H15C16.1 5 17 5.89 17 7V8.5C17 9.33 16.33 10 15.5 10C16.33 10 17 10.67 17 11.5V13C17 14.11 16.1 15 15 15ZM13 7H15V9H13V7ZM15 11H13V13H15V11Z" fill="white"/>
</svg>
