<svg width="24" height="24" viewBox="0 0 24 24" fill="none" xmlns="http://www.w3.org/2000/svg">
<path fill-rule="evenodd" clip-rule="evenodd" d="M12 4C15.64 4 18.67 6.59 19.35 10.04C21.95 10.22 24 12.36 24 15C24 17.76 21.76 20 19 20H6C2.69 20 0 17.31 0 14C0 10.9 2.35 8.36 5.36 8.04C6.61 5.64 9.11 4 12 4ZM6 18H19C20.65 18 22 16.65 22 15C22 13.35 20.65 12 19 12H17.5V11.5C17.5 8.47 15.03 6 12 6C10.2 6 8.61 6.88 7.6 8.22C10.14 8.92 12 11.24 12 14H10C10 11.79 8.21 10 6 10C3.79 10 2 11.79 2 14C2 16.21 3.79 18 6 18Z" fill="#005EE7"/>
</svg>
