<svg width="24" height="24" viewBox="0 0 24 24" fill="none" xmlns="http://www.w3.org/2000/svg">
<path fill-rule="evenodd" clip-rule="evenodd" d="M12 6.19491C13.53 8.19491 15.08 10.6249 15.71 12.4349L17.94 14.6649C17.97 14.3949 18 14.1149 18 13.8349C18 9.85491 12 3.03491 12 3.03491C12 3.03491 10.82 4.38491 9.5 6.22491L10.94 7.66491C11.28 7.15491 11.64 6.66491 12 6.19491ZM5.41 4.97491L4 6.38491L7.32 9.70491C6.55 11.1649 6 12.6249 6 13.8349C6 17.1449 8.69 19.8349 12 19.8349C13.52 19.8349 14.9 19.2649 15.95 18.3349L18.58 20.9649L20 19.5549L5.41 4.97491ZM8 13.8349C8 16.0449 9.79 17.8349 12 17.8349C12.96 17.8349 13.83 17.4749 14.53 16.9149L8.81 11.1949C8.32 12.2149 8 13.1449 8 13.8349Z" fill="#005EE7"/>
</svg>
