<svg width="24" height="24" viewBox="0 0 24 24" fill="none" xmlns="http://www.w3.org/2000/svg">
<path fill-rule="evenodd" clip-rule="evenodd" d="M12 20C15.31 20 18 17.31 18 14H20C20 18.42 16.42 22 12 22C7.58 22 4 18.42 4 14C4 9.58 7.58 6 12 6V2L17 7L12 12V8C8.69 8 6 10.69 6 14C6 17.31 8.69 20 12 20ZM12.3 16.32C12.37 16.28 12.43 16.22 12.48 16.15C12.53 16.08 12.57 16 12.59 15.91C12.61 15.82 12.62 15.72 12.62 15.6C12.62 15.48 12.61 15.39 12.58 15.29C12.55 15.19 12.5 15.11 12.45 15.05C12.4 14.99 12.32 14.93 12.24 14.9C12.16 14.87 12.06 14.85 11.94 14.85C11.87 14.85 11.79 14.86 11.74 14.87C11.69 14.88 11.64 14.9 11.59 14.92C11.54 14.94 11.51 14.96 11.47 14.99C11.43 15.02 11.4 15.05 11.37 15.08L10.7 14.91L10.95 12.74H13.34V13.45H11.64L11.53 14.37C11.545 14.365 11.56 14.3575 11.5775 14.3487C11.595 14.34 11.615 14.33 11.64 14.32C11.665 14.31 11.69 14.3025 11.715 14.295C11.74 14.2875 11.765 14.28 11.79 14.27C11.8345 14.2522 11.8949 14.2423 11.9499 14.2333C11.9567 14.2322 11.9634 14.2311 11.97 14.23C12.03 14.22 12.1 14.21 12.17 14.21C12.38 14.21 12.56 14.25 12.72 14.31C12.88 14.37 13.02 14.47 13.13 14.59C13.24 14.71 13.32 14.87 13.38 15.04C13.44 15.21 13.47 15.42 13.47 15.64C13.47 15.83 13.44 16.01 13.38 16.18C13.32 16.35 13.23 16.5 13.11 16.63C12.99 16.76 12.84 16.86 12.66 16.94C12.48 17.02 12.26 17.06 12.02 17.06C11.84 17.06 11.66 17.03 11.49 16.98C11.32 16.93 11.16 16.85 11.03 16.74C10.9 16.63 10.79 16.51 10.71 16.35C10.63 16.19 10.59 16.02 10.58 15.82H11.42C11.44 15.99 11.5 16.13 11.61 16.23C11.72 16.33 11.86 16.38 12.03 16.38C12.13 16.38 12.23 16.36 12.3 16.32Z" fill="white"/>
</svg>
