<svg width="24" height="24" viewBox="0 0 24 24" fill="none" xmlns="http://www.w3.org/2000/svg">
<g id="hdr_off-gr">
<path id="icon/image/hdr_off_24px" fill-rule="evenodd" clip-rule="evenodd" d="M1.94482 3.00501L3.00482 1.94501L22.0548 20.995L20.9948 22.055L13.3948 14.455H9.99482V11.055L8.49482 9.55501V14.455H6.99482V11.955H4.99482V14.455H3.49482V8.45501H4.99482V10.455H6.99482V8.45501H7.39482L1.94482 3.00501ZM13.4948 9.95501V10.315L14.9948 11.815V9.95501C14.9948 9.15501 14.2948 8.45501 13.4948 8.45501H11.6348L13.1348 9.95501H13.4948ZM17.9948 12.455V14.455H17.6348L16.4948 13.315V8.45501H19.9948C20.7948 8.45501 21.4948 9.15501 21.4948 9.95501V10.955C21.4948 11.555 21.0948 12.055 20.5948 12.355L21.4948 14.455H19.9948L19.0948 12.455H17.9948ZM19.9948 9.95501H17.9948V10.955H19.9948V9.95501Z" fill="#666666"/>
</g>
</svg>
