<svg width="24" height="24" viewBox="0 0 24 24" fill="none" xmlns="http://www.w3.org/2000/svg">
<path fill-rule="evenodd" clip-rule="evenodd" d="M1.94482 3.00495L3.00482 1.94495L22.0548 20.9949L20.9948 22.0549L13.3948 14.4549H9.99482V11.0549L8.49482 9.55495V14.4549H6.99482V11.9549H4.99482V14.4549H3.49482V8.45495H4.99482V10.4549H6.99482V8.45495H7.39482L1.94482 3.00495ZM13.4948 9.95495V10.3149L14.9948 11.8149V9.95495C14.9948 9.15495 14.2948 8.45495 13.4948 8.45495H11.6348L13.1348 9.95495H13.4948ZM17.9948 12.4549V14.4549H17.6348L16.4948 13.3149V8.45495H19.9948C20.7948 8.45495 21.4948 9.15495 21.4948 9.95495V10.9549C21.4948 11.5549 21.0948 12.0549 20.5948 12.3549L21.4948 14.4549H19.9948L19.0948 12.4549H17.9948ZM19.9948 9.95495H17.9948V10.9549H19.9948V9.95495Z" fill="white"/>
</svg>
