<svg width="24" height="24" viewBox="0 0 24 24" fill="none" xmlns="http://www.w3.org/2000/svg">
<path fill-rule="evenodd" clip-rule="evenodd" d="M1.94482 3.00507L3.00482 1.94507L22.0548 20.9951L20.9948 22.0551L13.3948 14.4551H9.99482V11.0551L8.49482 9.55507V14.4551H6.99482V11.9551H4.99482V14.4551H3.49482V8.45507H4.99482V10.4551H6.99482V8.45507H7.39482L1.94482 3.00507ZM13.4948 9.95507V10.3151L14.9948 11.8151V9.95507C14.9948 9.15507 14.2948 8.45507 13.4948 8.45507H11.6348L13.1348 9.95507H13.4948ZM17.9948 12.4551V14.4551H17.6348L16.4948 13.3151V8.45507H19.9948C20.7948 8.45507 21.4948 9.15507 21.4948 9.95507V10.9551C21.4948 11.5551 21.0948 12.0551 20.5948 12.3551L21.4948 14.4551H19.9948L19.0948 12.4551H17.9948ZM19.9948 9.95507H17.9948V10.9551H19.9948V9.95507Z" fill="#005EE7"/>
</svg>
