<svg width="24" height="24" viewBox="0 0 24 24" fill="none" xmlns="http://www.w3.org/2000/svg">
<g id="headset-gr">
<path id="icon/hardware/headset_24px" fill-rule="evenodd" clip-rule="evenodd" d="M3 11.5C3 6.53 7.03 2.5 12 2.5C16.97 2.5 21 6.53 21 11.5V18.5C21 20.16 19.66 21.5 18 21.5H15V13.5H19V11.5C19 7.63 15.87 4.5 12 4.5C8.13 4.5 5 7.63 5 11.5V13.5H9V21.5H6C4.34 21.5 3 20.16 3 18.5V11.5ZM7 15.5V19.5H6C5.45 19.5 5 19.05 5 18.5V15.5H7ZM19 15.5V18.5C19 19.05 18.55 19.5 18 19.5H17V15.5H19Z" fill="#666666"/>
</g>
</svg>
