<svg width="24" height="24" viewBox="0 0 24 24" fill="none" xmlns="http://www.w3.org/2000/svg">
<path fill-rule="evenodd" clip-rule="evenodd" d="M7.64 3.02999L6.22 1.60999C4.23 3.59999 3 6.34999 3 9.38999C3 12.43 4.23 15.18 6.22 17.17L7.63 15.76C6.01 14.13 5 11.88 5 9.38999C5 6.89999 6.01 4.64999 7.64 3.02999ZM17 20.39C16.71 20.39 16.44 20.33 16.24 20.24C15.53 19.87 15.03 19.36 14.53 17.86C14.0247 16.3143 13.0775 15.5834 12.1652 14.8795L12.14 14.86L12.13 14.8522C11.3431 14.2446 10.527 13.6145 9.82 12.33C9.29 11.37 9 10.32 9 9.38999C9 6.58999 11.2 4.38999 14 4.38999C16.8 4.38999 19 6.58999 19 9.38999H21C21 5.45999 17.93 2.38999 14 2.38999C10.07 2.38999 7 5.45999 7 9.38999C7 10.65 7.38 12.04 8.07 13.29C8.98 14.94 10.05 15.77 10.92 16.44C11.73 17.06 12.31 17.51 12.63 18.49C13.23 20.31 14 21.33 15.36 22.04C15.87 22.27 16.43 22.39 17 22.39C19.21 22.39 21 20.6 21 18.39H19C19 19.49 18.1 20.39 17 20.39ZM14 11.89C12.62 11.89 11.5 10.77 11.5 9.38999C11.5 8.00999 12.62 6.88999 14 6.88999C15.38 6.88999 16.5 8.00999 16.5 9.38999C16.5 10.77 15.38 11.89 14 11.89Z" fill="white"/>
</svg>
