<svg width="24" height="24" viewBox="0 0 24 24" fill="none" xmlns="http://www.w3.org/2000/svg">
<path fill-rule="evenodd" clip-rule="evenodd" d="M11.34 15.0205C11.73 15.4105 12.36 15.4105 12.75 15.0205L19.11 8.66053C19.5 8.27053 19.5 7.64053 19.11 7.25053L14.16 2.30053C13.78 1.90053 13.15 1.90053 12.76 2.29053L6.39 8.66053C6 9.05053 6 9.68053 6.39 10.0705L11.34 15.0205ZM17.32 13.0005H18L21 16.0005V20.0005C21 21.1105 20.1 22.0005 19 22.0005H4.99C3.89 22.0005 3 21.1005 3 20.0005V16.0005L6 13.0005H6.83L8.83 15.0005H6.78L5 17.0005H19L17.23 15.0005H15.32L17.32 13.0005ZM5 20.0005H19V19.0005H5V20.0005ZM17 7.95053L13.46 4.41053L8.51 9.36053L12.05 12.9005L17 7.95053Z" fill="#005EE7"/>
</svg>
