<svg width="24" height="24" viewBox="0 0 24 24" fill="none" xmlns="http://www.w3.org/2000/svg">
<path fill-rule="evenodd" clip-rule="evenodd" d="M19.09 8.89C19.53 8.19 19.79 7.38 19.79 6.5C19.79 4.01 17.78 2 15.29 2C12.8 2 10.79 4.01 10.79 6.5C10.79 8.99 12.8 11 15.28 11C16.16 11 16.98 10.74 17.67 10.3L20.79 13.42L22.21 12L19.09 8.89ZM17.79 20V13L19.79 15V20C19.79 21.1 18.89 22 17.79 22H3.79004C2.69004 22 1.79004 21.1 1.79004 20V6C1.79004 4.9 2.69004 4 3.79004 4H9.29004C9.03004 4.62 8.86004 5.29 8.81004 6H3.79004V20H17.79ZM16.29 18L12.75 13.29L10 16.83L8.04004 14.47L5.29004 18H16.29ZM12.79 6.5C12.79 7.88 13.91 9 15.29 9C16.67 9 17.79 7.88 17.79 6.5C17.79 5.12 16.67 4 15.29 4C13.91 4 12.79 5.12 12.79 6.5Z" fill="#005EE7"/>
</svg>
