<svg width="24" height="24" viewBox="0 0 24 24" fill="none" xmlns="http://www.w3.org/2000/svg">
<path fill-rule="evenodd" clip-rule="evenodd" d="M17.5 3.5C18.67 3.5 19.89 3.65 21 4C21.75 4.25 22.4 4.55 23 5V19.6C23 19.85 22.75 20.1 22.5 20.1C22.4 20.1 22.35 20.1 22.25 20.05C20.85 19.3 19.15 19 17.5 19C15.8 19 13.35 19.65 12 20.5C10.55 19.4 8.45 19 6.5 19C5.05 19 3.1 19.45 1.75 20.1C1.7 20.1 1.6625 20.1125 1.625 20.125C1.5875 20.1375 1.55 20.15 1.5 20.15C1.25 20.15 1 19.9 1 19.65V5C2.45 3.9 4.55 3.5 6.5 3.5C8.45 3.5 10.55 3.9 12 5C13.45 3.9 15.55 3.5 17.5 3.5ZM17.5 17C18.7 17 19.9 17.15 21 17.5V6C19.9 5.65 18.7 5.5 17.5 5.5C15.8 5.5 13.35 6.15 12 7V18.5C13.35 17.65 15.8 17 17.5 17Z" fill="white"/>
</svg>
