<svg width="24" height="24" viewBox="0 0 24 24" fill="none" xmlns="http://www.w3.org/2000/svg">
<g id="invert_colors_off-gr">
<path id="icon/communication/invert_colors_off_24px" fill-rule="evenodd" clip-rule="evenodd" d="M11.9402 4.71V8.76L19.3402 16.16C20.4902 13.28 19.9302 9.88 17.5902 7.55L11.9402 1.88L8.50018 5.32L9.91018 6.73L11.9402 4.71ZM4.34018 3.98L2.93018 5.39L5.71018 8.17C3.17018 11.31 3.36018 15.92 6.28018 18.85C7.84018 20.41 9.89018 21.19 11.9402 21.19C13.7202 21.19 15.5002 20.6 16.9602 19.42L19.6602 22.12L21.0702 20.71L4.34018 3.98ZM7.70018 17.44C8.83018 18.58 10.3402 19.2 11.9402 19.2V14.4L7.15018 9.61C6.37018 10.64 5.94018 11.88 5.94018 13.2C5.94018 14.8 6.56018 16.3 7.70018 17.44Z" fill="#666666"/>
</g>
</svg>
