<svg width="24" height="24" viewBox="0 0 24 24" fill="none" xmlns="http://www.w3.org/2000/svg">
<g id="keyboard_hide-gr">
<path id="icon/hardware/keyboard_hide_24px" fill-rule="evenodd" clip-rule="evenodd" d="M4 2H20C21.1 2 22 2.9 22 4V14C22 15.1 21.1 16 20 16H4C2.9 16 2 15.1 2 14L2.01 4C2.01 2.9 2.9 2 4 2ZM4 14H20V4H4V14ZM11 5H13V7H11V5ZM13 8H11V10H13V8ZM8 5H10V7H8V5ZM10 8H8V10H10V8ZM5 8H7V10H5V8ZM7 5H5V7H7V5ZM8 11H16V13H8V11ZM16 8H14V10H16V8ZM14 5H16V7H14V5ZM19 8H17V10H19V8ZM17 5H19V7H17V5ZM12 22L8 18H16L12 22Z" fill="#666666"/>
</g>
</svg>
