<svg width="24" height="24" viewBox="0 0 24 24" fill="none" xmlns="http://www.w3.org/2000/svg">
<path fill-rule="evenodd" clip-rule="evenodd" d="M2 4.22006L3.58 5.80006C3.22 6.15006 3 6.65006 3 7.19006V17.1901C3 18.2901 3.9 19.1801 5 19.1801L16 19.1901C16.28 19.1901 16.55 19.1201 16.79 19.0101L18.97 21.1901L20.38 19.7801L3.41 2.81006L2 4.22006ZM16 7.19006L19.55 12.1901L17.92 14.4801L19.35 15.9101L22 12.1901L17.63 6.03006C17.27 5.52006 16.67 5.19006 16 5.19006L8.63 5.20006L10.63 7.19006H16ZM5 17.1901H14.97L5 7.22006V17.1901Z" fill="#005EE7"/>
</svg>
