<svg width="24" height="24" viewBox="0 0 24 24" fill="none" xmlns="http://www.w3.org/2000/svg">
<path fill-rule="evenodd" clip-rule="evenodd" d="M3.34018 1.89502L1.93018 3.30502L6.15018 7.52502L2.93018 10.035L11.9302 17.035L14.0302 15.405L15.4502 16.825L11.9202 19.575L4.55018 13.845L2.93018 15.105L11.9302 22.105L16.8802 18.255L20.6602 22.035L22.0702 20.625L3.34018 1.89502ZM17.6702 10.035L11.9302 5.56502L10.7602 6.47502L9.34018 5.05502L11.9302 3.03502L20.9302 10.035L17.2102 12.925L15.7802 11.505L17.6702 10.035ZM19.3002 13.835L20.9302 15.105L20.0602 15.785L18.6302 14.355L19.3002 13.835ZM6.19018 10.035L11.9302 14.505L12.6002 13.975L7.58018 8.95502L6.19018 10.035Z" fill="#005EE7"/>
</svg>
