<svg width="24" height="24" viewBox="0 0 24 24" fill="none" xmlns="http://www.w3.org/2000/svg">
<path fill-rule="evenodd" clip-rule="evenodd" d="M2.93018 4.34005L4.34018 2.93005L21.0702 19.6601L19.6602 21.0701L16.8202 18.2301C16.2602 19.0401 15.9302 20.0101 15.9302 21.0701H13.9302C13.9302 19.4601 14.4802 17.9801 15.3902 16.8001L13.9602 15.3701C12.6902 16.9301 11.9302 18.9101 11.9302 21.0701H9.93018C9.93018 18.3601 10.9202 15.8801 12.5502 13.9601L10.0402 11.4501C8.13018 13.0801 5.65018 14.0701 2.93018 14.0701V12.0701C5.09018 12.0701 7.07018 11.3101 8.63018 10.0401L7.20018 8.61005C6.02018 9.52005 4.54018 10.0701 2.93018 10.0701V8.07005C3.99018 8.07005 4.96018 7.74005 5.77018 7.18005L2.93018 4.34005ZM9.93018 3.07005H7.93018C7.93018 3.19527 7.9128 3.31615 7.89523 3.43841C7.88614 3.50165 7.877 3.56527 7.87018 3.63005L9.55018 5.31005C9.80018 4.61005 9.93018 3.85005 9.93018 3.07005ZM13.9302 3.07005H11.9302C11.9302 4.42005 11.6202 5.70005 11.0902 6.84005L12.5802 8.33005C13.4402 6.77005 13.9302 4.98005 13.9302 3.07005ZM20.9302 12.0701V10.0701C19.0202 10.0701 17.2302 10.5601 15.6602 11.4201L17.1502 12.9101C18.3002 12.3801 19.5802 12.0701 20.9302 12.0701ZM20.9302 14.0701V16.0701C20.8221 16.0701 20.7172 16.083 20.6119 16.096C20.5321 16.1059 20.4521 16.1157 20.3702 16.1201L18.6902 14.4401C19.3902 14.2001 20.1402 14.0701 20.9302 14.0701Z" fill="white"/>
</svg>
