<svg width="24" height="24" viewBox="0 0 24 24" fill="none" xmlns="http://www.w3.org/2000/svg">
<path fill-rule="evenodd" clip-rule="evenodd" d="M20.67 7.99H22C21.99 4.68 19.31 2 16 2V3.33C18.58 3.33 20.66 5.41 20.67 7.99ZM20 9V20H4V8H8.05L9.88 6H15V4H9L7.17 6H4C2.9 6 2 6.9 2 8V20C2 21.1 2.9 22 4 22H20C21.1 22 22 21.1 22 20V9H20ZM19.33 7.99H18C17.99 6.89 17.11 6 16 6V4.67C17.84 4.67 19.32 6.15 19.33 7.99ZM7 14C7 16.76 9.24 19 12 19C14.76 19 17 16.76 17 14C17 11.24 14.76 9 12 9C9.24 9 7 11.24 7 14ZM12 17C13.65 17 15 15.65 15 14C15 12.34 13.65 11 12 11C10.35 11 9 12.35 9 14C9 15.65 10.35 17 12 17Z" fill="white"/>
</svg>
