<svg width="24" height="24" viewBox="0 0 24 24" fill="none" xmlns="http://www.w3.org/2000/svg">
<path fill-rule="evenodd" clip-rule="evenodd" d="M17.9302 9C17.9302 6.24 15.6902 4 12.9302 4C11.6502 4 10.4902 4.5 9.61018 5.29L8.18018 3.86C9.43018 2.71 11.0902 2 12.9302 2C16.8002 2 19.9302 5.13 19.9302 9C19.9302 10.57 19.3002 12.36 18.4202 14.11L16.9302 12.62C17.5402 11.32 17.9302 10.06 17.9302 9ZM11.3702 7.06C11.8002 6.71 12.3402 6.5 12.9302 6.5C14.3102 6.5 15.4302 7.62 15.4302 9C15.4302 9.59 15.2202 10.13 14.8702 10.56L11.3702 7.06ZM4.34018 2.86L2.93018 4.27L6.11018 7.45C6.00018 7.95 5.93018 8.47 5.93018 9C5.93018 14.25 12.9302 22 12.9302 22C12.9302 22 14.6002 20.15 16.3102 17.65L19.6602 21L21.0702 19.59L4.34018 2.86ZM7.95018 9.29C8.13018 12.14 10.9202 16.3 12.9302 18.88C13.5402 18.1 14.2202 17.19 14.8702 16.21L7.95018 9.29Z" fill="white"/>
</svg>
