<svg width="24" height="24" viewBox="0 0 24 24" fill="none" xmlns="http://www.w3.org/2000/svg">
<path fill-rule="evenodd" clip-rule="evenodd" d="M7 5.0999C7.83 5.0999 8.5 4.4299 8.5 3.5999C8.5 2.5999 7 0.899902 7 0.899902C7 0.899902 5.5 2.5999 5.5 3.5999C5.5 4.4299 6.17 5.0999 7 5.0999ZM13.5 3.5999C13.5 4.4299 12.83 5.0999 12 5.0999C11.17 5.0999 10.5 4.4299 10.5 3.5999C10.5 2.5999 12 0.899902 12 0.899902C12 0.899902 13.5 2.5999 13.5 3.5999ZM18.5 3.5999C18.5 4.4299 17.83 5.0999 17 5.0999C16.17 5.0999 15.5 4.4299 15.5 3.5999C15.5 2.5999 17 0.899902 17 0.899902C17 0.899902 18.5 2.5999 18.5 3.5999ZM17.5 7.0999C18.16 7.0999 18.72 7.5199 18.92 8.1099L21 14.0999V22.0999C21 22.6499 20.55 23.0999 20 23.0999H19C18.45 23.0999 18 22.6499 18 22.0999V21.0999H6V22.0999C6 22.6499 5.55 23.0999 5 23.0999H4C3.45 23.0999 3 22.6499 3 22.0999V14.0999L5.08 8.1099C5.29 7.5199 5.84 7.0999 6.5 7.0999H17.5ZM6.85 9.0999H17.14L18.18 12.0999H5.81L6.85 9.0999ZM5 14.4399V19.0999H19V14.4399L18.89 14.0999H5.12L5 14.4399ZM7.5 15.0999C6.67157 15.0999 6 15.7715 6 16.5999C6 17.4283 6.67157 18.0999 7.5 18.0999C8.32843 18.0999 9 17.4283 9 16.5999C9 15.7715 8.32843 15.0999 7.5 15.0999ZM15 16.5999C15 15.7715 15.6716 15.0999 16.5 15.0999C17.3284 15.0999 18 15.7715 18 16.5999C18 17.4283 17.3284 18.0999 16.5 18.0999C15.6716 18.0999 15 17.4283 15 16.5999Z" fill="white"/>
</svg>
