<svg width="24" height="24" viewBox="0 0 24 24" fill="none" xmlns="http://www.w3.org/2000/svg">
<g id="local_car_wash-gr">
<path id="icon/maps/local_car_wash_24px" fill-rule="evenodd" clip-rule="evenodd" d="M7 5.10002C7.83 5.10002 8.5 4.43002 8.5 3.60002C8.5 2.60002 7 0.900024 7 0.900024C7 0.900024 5.5 2.60002 5.5 3.60002C5.5 4.43002 6.17 5.10002 7 5.10002ZM13.5 3.60002C13.5 4.43002 12.83 5.10002 12 5.10002C11.17 5.10002 10.5 4.43002 10.5 3.60002C10.5 2.60002 12 0.900024 12 0.900024C12 0.900024 13.5 2.60002 13.5 3.60002ZM18.5 3.60002C18.5 4.43002 17.83 5.10002 17 5.10002C16.17 5.10002 15.5 4.43002 15.5 3.60002C15.5 2.60002 17 0.900024 17 0.900024C17 0.900024 18.5 2.60002 18.5 3.60002ZM17.5 7.10002C18.16 7.10002 18.72 7.52002 18.92 8.11002L21 14.1V22.1C21 22.65 20.55 23.1 20 23.1H19C18.45 23.1 18 22.65 18 22.1V21.1H6V22.1C6 22.65 5.55 23.1 5 23.1H4C3.45 23.1 3 22.65 3 22.1V14.1L5.08 8.11002C5.29 7.52002 5.84 7.10002 6.5 7.10002H17.5ZM6.85 9.10002H17.14L18.18 12.1H5.81L6.85 9.10002ZM5 14.44V19.1H19V14.44L18.89 14.1H5.12L5 14.44ZM7.5 15.1C6.67157 15.1 6 15.7716 6 16.6C6 17.4285 6.67157 18.1 7.5 18.1C8.32843 18.1 9 17.4285 9 16.6C9 15.7716 8.32843 15.1 7.5 15.1ZM15 16.6C15 15.7716 15.6716 15.1 16.5 15.1C17.3284 15.1 18 15.7716 18 16.6C18 17.4285 17.3284 18.1 16.5 18.1C15.6716 18.1 15 17.4285 15 16.6Z" fill="#666666"/>
</g>
</svg>
