<svg width="24" height="24" viewBox="0 0 24 24" fill="none" xmlns="http://www.w3.org/2000/svg">
<path fill-rule="evenodd" clip-rule="evenodd" d="M16 5.2251C16 7.4351 14.21 9.2251 12 9.2251C9.79 9.2251 8 7.4351 8 5.2251C8 3.0151 9.79 1.2251 12 1.2251C14.21 1.2251 16 3.0151 16 5.2251ZM14 5.2251C14 4.1251 13.1 3.2251 12 3.2251C10.9 3.2251 10 4.1251 10 5.2251C10 6.3251 10.9 7.2251 12 7.2251C13.1 7.2251 14 6.3251 14 5.2251ZM12 11.7751C9.64 9.5751 6.48 8.2251 3 8.2251V19.2251C6.48 19.2251 9.64 20.5751 12 22.7751C14.36 20.5851 17.52 19.2251 21 19.2251V8.2251C17.52 8.2251 14.36 9.5751 12 11.7751ZM12 20.1751C14.07 18.6551 16.47 17.6951 19 17.3551V10.4051C16.9 10.7851 14.95 11.7551 13.36 13.2351L12 14.5051L10.64 13.2251C9.05 11.7451 7.1 10.7751 5 10.3951V17.3451C7.53 17.6851 9.94 18.6551 12 20.1751Z" fill="white"/>
</svg>
