<svg width="24" height="24" viewBox="0 0 24 24" fill="none" xmlns="http://www.w3.org/2000/svg">
<path fill-rule="evenodd" clip-rule="evenodd" d="M17 6.5H19C20.1 6.5 21 7.4 21 8.5V20.5C21 21.6 20.1 22.5 19 22.5H5C3.9 22.5 3 21.6 3 20.5V8.5C3 7.4 3.9 6.5 5 6.5H7C7 3.74 9.24 1.5 12 1.5C14.76 1.5 17 3.74 17 6.5ZM15 6.5C15 4.84 13.66 3.5 12 3.5C10.34 3.5 9 4.84 9 6.5H15ZM5 20.5V8.5H19V20.5H5ZM9 9.5C9 11.16 10.34 12.5 12 12.5C13.66 12.5 15 11.16 15 9.5H17C17 12.26 14.76 14.5 12 14.5C9.24 14.5 7 12.26 7 9.5H9Z" fill="#005EE7"/>
</svg>
