<svg width="24" height="24" viewBox="0 0 24 24" fill="none" xmlns="http://www.w3.org/2000/svg">
<path fill-rule="evenodd" clip-rule="evenodd" d="M6 2L18 2.01C19.11 2.01 20 2.89 20 4V20C20 21.11 19.11 22 18 22H6C4.89 22 4 21.11 4 20V4C4 2.89 4.89 2 6 2ZM5.99 4L6 20H18V4H5.99ZM8 5C7.44772 5 7 5.44772 7 6C7 6.55228 7.44772 7 8 7C8.55228 7 9 6.55228 9 6C9 5.44772 8.55228 5 8 5ZM10 6C10 5.44772 10.4477 5 11 5C11.5523 5 12 5.44772 12 6C12 6.55228 11.5523 7 11 7C10.4477 7 10 6.55228 10 6ZM12 19C14.76 19 17 16.76 17 14C17 11.24 14.76 9 12 9C9.24 9 7 11.24 7 14C7 16.76 9.24 19 12 19ZM14.36 16.36C15.66 15.06 15.66 12.94 14.36 11.64L9.64 16.36C10.94 17.66 13.06 17.66 14.36 16.36Z" fill="#005EE7"/>
</svg>
