<svg width="24" height="24" viewBox="0 0 24 24" fill="none" xmlns="http://www.w3.org/2000/svg">
<path fill-rule="evenodd" clip-rule="evenodd" d="M12 2C6.48 2 2 6.48 2 12C2 17.52 6.48 22 12 22C17.52 22 22 17.52 22 12C22 6.48 17.52 2 12 2ZM12 20C7.59 20 4 16.41 4 12C4 7.59 7.59 4 12 4C16.41 4 20 7.59 20 12C20 16.41 16.41 20 12 20ZM9.97 9.47C9.97 10.2 10.54 10.69 12.31 11.14C14.07 11.6 15.96 12.36 15.97 14.56C15.96 16.17 14.76 17.04 13.24 17.33V19H10.9V17.3C9.4 16.99 8.14 16.03 8.04 14.33H9.76C9.85 15.25 10.48 15.97 12.08 15.97C13.79 15.97 14.18 15.11 14.18 14.58C14.18 13.86 13.79 13.17 11.84 12.71C9.67 12.19 8.18 11.29 8.18 9.5C8.18 7.99 9.39 7.01 10.9 6.69V5H13.23V6.71C14.85 7.11 15.67 8.34 15.72 9.68H14.01C13.97 8.7 13.45 8.04 12.07 8.04C10.76 8.04 9.97 8.63 9.97 9.47Z" fill="white"/>
</svg>
