<svg width="24" height="24" viewBox="0 0 24 24" fill="none" xmlns="http://www.w3.org/2000/svg">
<path fill-rule="evenodd" clip-rule="evenodd" d="M12 1.03491C16.4 1.03491 19.96 4.57491 20 8.96491V14.9649C20 19.3849 16.42 22.9649 12 22.9649C7.58 22.9649 4 19.3849 4 14.9649V8.96491C4.04 4.57491 7.6 1.03491 12 1.03491ZM13 8.96491H18C17.96 6.02491 15.81 3.59491 13 3.12491V8.96491ZM11 3.12491V8.96491H6C6.04 6.02491 8.19 3.59491 11 3.12491ZM12 20.9649C15.31 20.9649 18 18.2749 18 14.9649V10.9649H6V14.9649C6 18.2749 8.69 20.9649 12 20.9649Z" fill="#005EE7"/>
</svg>
