<svg width="24" height="24" viewBox="0 0 24 24" fill="none" xmlns="http://www.w3.org/2000/svg">
<g id="nature_people-gr">
<path id="icon/image/nature_people_24px" fill-rule="evenodd" clip-rule="evenodd" d="M22.085 9.08499C22.085 5.21499 18.955 2.08499 15.085 2.08499C11.215 2.08499 8.08504 5.21499 8.08504 9.08499C8.08504 12.555 10.605 15.425 13.915 15.975V19.915H5.91504V16.915H6.91504V12.915C6.91504 12.365 6.46504 11.915 5.91504 11.915H2.91504C2.36504 11.915 1.91504 12.365 1.91504 12.915V16.915H2.91504V21.915H18.915V19.915H15.915V16.035C19.385 15.625 22.085 12.675 22.085 9.08499ZM4.41504 7.91499C3.58661 7.91499 2.91504 8.58656 2.91504 9.41499C2.91504 10.2434 3.58661 10.915 4.41504 10.915C5.24347 10.915 5.91504 10.2434 5.91504 9.41499C5.91504 8.58656 5.24347 7.91499 4.41504 7.91499ZM10.085 9.08499C10.085 11.845 12.325 14.085 15.085 14.085C17.845 14.085 20.085 11.845 20.085 9.08499C20.085 6.32499 17.845 4.08499 15.085 4.08499C12.325 4.08499 10.085 6.32499 10.085 9.08499Z" fill="#666666"/>
</g>
</svg>
