<svg width="24" height="24" viewBox="0 0 24 24" fill="none" xmlns="http://www.w3.org/2000/svg">
<g id="network_check-gr">
<path id="icon/notification/network_check_24px" fill-rule="evenodd" clip-rule="evenodd" d="M1 8.77107L3 10.7711C5.88 7.89107 9.79 6.69107 13.53 7.15107L14.72 4.47107C9.89 3.61107 4.74 5.04107 1 8.77107ZM15.9 4.77107C15.73 4.77107 15.58 4.86107 15.49 5.00107L15.42 5.15107L10.24 16.8011C10.08 17.0911 9.98 17.4111 9.98 17.7611C9.98 18.8711 10.88 19.7711 11.99 19.7711C12.95 19.7711 13.76 19.0911 13.95 18.1811L13.96 18.1511L16.4 5.27107C16.4 4.99107 16.18 4.77107 15.9 4.77107ZM23 8.77107L21 10.7711C19.78 9.55107 18.38 8.64107 16.88 8.02107L17.41 5.20107C19.45 5.95107 21.36 7.13107 23 8.77107ZM17 14.7711L19 12.7711C18.2 11.9711 17.3 11.3511 16.34 10.8811L15.79 13.8011C16.21 14.0711 16.62 14.3911 17 14.7711ZM7 14.7711L5 12.7711C7.01 10.7611 9.68 9.81107 12.31 9.89107L11.03 12.7711C9.56 12.9811 8.13 13.6411 7 14.7711Z" fill="#666666"/>
</g>
</svg>
