<svg width="24" height="24" viewBox="0 0 24 24" fill="none" xmlns="http://www.w3.org/2000/svg">
<path fill-rule="evenodd" clip-rule="evenodd" d="M20.56 9.21491L23 11.9949L20.56 14.7749L20.9 18.4549L17.29 19.2749L15.4 22.4549L12 20.9949L8.6 22.4649L6.71 19.2849L3.1 18.4649L3.44 14.7749L1 11.9949L3.44 9.20491L3.1 5.52491L6.71 4.71491L8.6 1.53491L12 2.99491L15.4 1.53491L17.29 4.71491L20.9 5.53491L20.56 9.21491ZM18.75 16.8949L18.49 14.1049L20.34 11.9949L18.49 9.88491L18.75 7.09491L16.01 6.47491L14.58 4.06491L12 5.17491L9.42 4.07491L7.99 6.48491L5.25 7.09491L5.51 9.87491L3.66 11.9949L5.51 14.0949L5.25 16.8949L7.99 17.5149L9.42 19.9249L12 18.8149L14.58 19.9249L16.01 17.5149L18.75 16.8949ZM13 14.9949V16.9949H11V14.9949H13ZM13 6.99491H11V12.9949H13V6.99491Z" fill="#005EE7"/>
</svg>
