<svg width="24" height="24" viewBox="0 0 24 24" fill="none" xmlns="http://www.w3.org/2000/svg">
<path fill-rule="evenodd" clip-rule="evenodd" d="M8.80478 6C8.80478 4.29 10.1948 2.9 11.9048 2.9C13.6148 2.9 15.0048 4.29 15.0048 6V8H10.3448L12.3448 10H17.9048V15.56L19.9048 17.56V10C19.9048 8.9 19.0048 8 17.9048 8H16.9048V6C16.9048 3.24 14.6648 1 11.9048 1C9.58479 1 7.64478 2.59 7.08478 4.74L8.80478 6.46V6ZM4.31479 4.81L2.90479 6.22L4.94479 8.26C4.32479 8.6 3.90479 9.25 3.90479 10V20C3.90479 21.1 4.80479 22 5.90479 22H18.6848L19.6848 23L21.0948 21.59L4.31479 4.81ZM5.90479 10V20H16.6848L6.68479 10H5.90479Z" fill="#005EE7"/>
</svg>
