<svg width="24" height="24" viewBox="0 0 24 24" fill="none" xmlns="http://www.w3.org/2000/svg">
<path fill-rule="evenodd" clip-rule="evenodd" d="M4 8.75488C4 4.34488 7.59 0.754883 12 0.754883C16.41 0.754883 20 4.34488 20 8.75488C20 14.3249 13.04 22.0949 12.74 22.4249L12 23.2449L11.26 22.4249C10.96 22.0949 4 14.3249 4 8.75488ZM6 8.75488C6 12.2949 9.82 17.6149 12 20.2249C13.75 18.1149 18 12.5849 18 8.75488C18 5.44488 15.31 2.75488 12 2.75488C8.69 2.75488 6 5.44488 6 8.75488ZM11.13 13.7549H12.88V15.5049H11.13V13.7549ZM8.5 8.25488C8.5 6.32488 10.07 4.75488 12 4.75488C13.93 4.75488 15.5 6.32488 15.5 8.25488C15.5 9.37886 14.8099 9.98392 14.138 10.573C13.5008 11.1317 12.88 11.6759 12.88 12.6349H11.13C11.13 11.0458 11.9502 10.4148 12.6728 9.85883C13.2417 9.42119 13.75 9.03011 13.75 8.25488C13.75 7.29488 12.96 6.50488 12 6.50488C11.04 6.50488 10.25 7.29488 10.25 8.25488H8.5Z" fill="#005EE7"/>
</svg>
