<svg width="24" height="24" viewBox="0 0 24 24" fill="none" xmlns="http://www.w3.org/2000/svg">
<path fill-rule="evenodd" clip-rule="evenodd" d="M17.9998 15.75V10.75C17.9998 7.68 16.3698 5.11 13.4998 4.43V3.75C13.4998 2.92 12.8298 2.25 11.9998 2.25C11.1698 2.25 10.4998 2.92 10.4998 3.75V4.43C7.63979 5.11 5.99979 7.67 5.99979 10.75V15.75L3.99979 17.75V18.75H19.9998V17.75L17.9998 15.75ZM11.9998 21.75C13.0998 21.75 13.9998 20.85 13.9998 19.75H9.99978C9.99978 20.85 10.8998 21.75 11.9998 21.75ZM7.99978 16.75H15.9998V10.75C15.9998 8.27 14.4898 6.25 11.9998 6.25C9.50978 6.25 7.99978 8.27 7.99978 10.75V16.75ZM7.57979 3.83L6.14979 2.4C3.74978 4.23 2.16979 7.05 2.02979 10.25H4.02979C4.17979 7.6 5.53979 5.28 7.57979 3.83ZM21.9698 10.25H19.9698C19.8198 7.6 18.4498 5.28 16.4298 3.83L17.8498 2.4C20.2398 4.23 21.8198 7.05 21.9698 10.25Z" fill="#005EE7"/>
</svg>
