<svg width="24" height="24" viewBox="0 0 24 24" fill="none" xmlns="http://www.w3.org/2000/svg">
<path fill-rule="evenodd" clip-rule="evenodd" d="M15.3052 10.75C15.3052 8.27 13.7952 6.25 11.3052 6.25C11.1612 6.25 11.023 6.26722 10.8862 6.28426L10.8862 6.28426C10.8424 6.28972 10.7988 6.29515 10.7552 6.3L9.11518 4.66L9.22018 4.6215L9.22019 4.62149L9.22021 4.62149C9.40811 4.55231 9.6031 4.48052 9.80518 4.43V3.75C9.80518 2.92 10.4752 2.25 11.3052 2.25C12.1352 2.25 12.8052 2.92 12.8052 3.75V4.43C15.6752 5.11 17.3052 7.68 17.3052 10.75V12.85L15.3052 10.85V10.75ZM13.3052 19.75C13.3052 20.85 12.4052 21.75 11.3052 21.75C10.2052 21.75 9.30518 20.85 9.30518 19.75H13.3052ZM4.71518 3.1L3.30518 4.51L6.11518 7.32C5.59518 8.32 5.30518 9.49 5.30518 10.75V15.75L3.30518 17.75V18.75H17.5452L19.2852 20.49L20.6952 19.08L4.71518 3.1ZM7.30518 16.75H15.3052V16.51L7.64518 8.85C7.42518 9.43 7.30518 10.07 7.30518 10.75V16.75Z" fill="white"/>
</svg>
