<svg width="24" height="24" viewBox="0 0 24 24" fill="none" xmlns="http://www.w3.org/2000/svg">
<g id="offline_pin-gr">
<path id="icon/action/offline_pin_24px" fill-rule="evenodd" clip-rule="evenodd" d="M2 12C2 6.5 6.5 2 12 2C17.5 2 22 6.5 22 12C22 17.5 17.5 22 12 22C6.5 22 2 17.5 2 12ZM4 12C4 16.41 7.59 20 12 20C16.41 20 20 16.41 20 12C20 7.59 16.41 4 12 4C7.59 4 4 7.59 4 12ZM17 15V17H7V15H17ZM8.4 9.3L10.3 11.2L15.6 5.9L17 7.3L10.3 14L7 10.7L8.4 9.3Z" fill="black" fill-opacity="0.54"/>
</g>
</svg>
