<svg width="24" height="24" viewBox="0 0 24 24" fill="none" xmlns="http://www.w3.org/2000/svg">
<g id="pages-gr">
<path id="icon/social/pages_24px" fill-rule="evenodd" clip-rule="evenodd" d="M5 3H19C20.1 3 21 3.9 21 5V19C21 20.1 20.1 21 19 21H5C3.9 21 3 20.1 3 19V5C3 3.9 3.9 3 5 3ZM19 5H13V8L17 7L16 11H19V5ZM5 5H11V8L7 7L8 11H5V5ZM5 13V19H11V16L7 17L8 13H5ZM13 19V16L17 17L16 13H19V19H13ZM12 13.72L14.63 14.63L13.72 12L14.63 9.37L12 10.28L9.37 9.37L10.28 12L9.37 14.63L12 13.72Z" fill="#666666"/>
</g>
</svg>
