<svg width="24" height="24" viewBox="0 0 24 24" fill="none" xmlns="http://www.w3.org/2000/svg">
<path fill-rule="evenodd" clip-rule="evenodd" d="M16.83 5H20C21.1 5 22 5.9 22 7V19C22 20.1 21.1 21 20 21H4C2.9 21 2 20.1 2 19V7C2 5.9 2.9 5 4 5H7.17L9 3H15L16.83 5ZM4 19H20V7H15.95L15.36 6.35L14.12 5H9.88L8.64 6.35L8.05 7H4V19ZM9 13C9 11.34 10.34 10 12 10H15.98C15.06 8.79 13.63 8 12 8C9.24 8 7 10.24 7 13C7 13.34 7.04 13.68 7.1 14H9.18C9.07 13.69 9 13.35 9 13ZM12 16C13.66 16 15 14.66 15 13C15 12.65 14.93 12.31 14.82 12H16.9C16.97 12.32 17 12.66 17 13C17 15.76 14.76 18 12 18C10.37 18 8.94 17.21 8.02 16H12Z" fill="white"/>
</svg>
