<svg width="24" height="24" viewBox="0 0 24 24" fill="none" xmlns="http://www.w3.org/2000/svg">
<g id="perm_camera_mic-gr">
<path id="icon/action/perm_camera_mic_24px" fill-rule="evenodd" clip-rule="evenodd" d="M20 5H16.83L14.97 3H8.96L7.17 5H4C2.9 5 2 5.9 2 7V19C2 20.1 2.9 21 4 21H20C21.1 21 22 20.1 22 19V7C22 5.9 21.1 5 20 5ZM12 6C10.9 6 10 6.9 10 8V12C10 13.1 10.9 14 12 14C13.1 14 14 13.1 14 12V8C14 6.9 13.1 6 12 6ZM13 19H20V7H16.11L15.52 6.35L14.28 5H10.04L8.8 6.35L8.21 7H4V19H11V17.91C8.17 17.43 6 14.97 6 12H8C8 14.21 9.79 16 12 16C14.21 16 16 14.21 16 12H18C18 14.97 15.83 17.43 13 17.91V19Z" fill="black" fill-opacity="0.54"/>
</g>
</svg>
