<svg width="24" height="24" viewBox="0 0 24 24" fill="none" xmlns="http://www.w3.org/2000/svg">
<path fill-rule="evenodd" clip-rule="evenodd" d="M4 8.75488C4 4.34488 7.59 0.754883 12 0.754883C16.41 0.754883 20 4.34488 20 8.75488C20 14.3249 13.04 22.0949 12.74 22.4249L12 23.2449L11.26 22.4249C10.96 22.0949 4 14.3249 4 8.75488ZM6 8.75488C6 12.2949 9.82 17.6149 12 20.2249C13.75 18.1149 18 12.5849 18 8.75488C18 5.44488 15.31 2.75488 12 2.75488C8.69 2.75488 6 5.44488 6 8.75488ZM12 8.75488C12.83 8.75488 13.5 8.08488 13.5 7.25488C13.5 6.42488 12.83 5.75488 12 5.75488C11.17 5.75488 10.5 6.43488 10.5 7.25488C10.5 8.08488 11.17 8.75488 12 8.75488ZM9 11.2549C9 10.2549 11 9.75488 12 9.75488C13 9.75488 15 10.2549 15 11.2549V11.3749C14.27 12.2149 13.2 12.7549 12 12.7549C10.8 12.7549 9.73 12.2149 9 11.3749V11.2549Z" fill="#005EE7"/>
</svg>
