<svg width="24" height="24" viewBox="0 0 24 24" fill="none" xmlns="http://www.w3.org/2000/svg">
<g id="person_add_disabled-gr">
<path id="icon/communication/person_add_disabled_24px" fill-rule="evenodd" clip-rule="evenodd" d="M1.91 0.85498L0.5 2.26498L4.5 6.26498V9.14498H1.5V11.145H4.5V14.145H6.5V11.145H9.38L11.89 13.655C9.69 14.255 7.5 15.445 7.5 17.145V19.145H17.38L21.38 23.145L22.79 21.735L1.91 0.85498ZM11.5 7.14498C11.5 4.93498 13.29 3.14498 15.5 3.14498C17.71 3.14498 19.5 4.93498 19.5 7.14498C19.5 9.35498 17.71 11.145 15.5 11.145C15.3636 11.145 15.2329 11.1277 15.1036 11.1107L15.1036 11.1107L15.1034 11.1107C15.0622 11.1052 15.0211 11.0998 14.98 11.095L11.55 7.66498C11.5452 7.62396 11.5398 7.58293 11.5343 7.54177L11.5343 7.54165L11.5343 7.54153L11.5343 7.54141L11.5343 7.5414C11.5172 7.4121 11.5 7.28141 11.5 7.14498ZM17.5 7.14498C17.5 6.04498 16.6 5.14498 15.5 5.14498C14.51 5.14498 13.69 5.86498 13.52 6.80498L15.83 9.11498C16.77 8.96498 17.5 8.13498 17.5 7.14498ZM17.19 13.305L23.03 19.145H23.5V17.145C23.5 15.005 19.94 13.645 17.19 13.305ZM15.38 17.145L13.51 15.275L12.41 15.575C10.38 16.135 9.58 16.905 9.5 17.145H15.38ZM6.5 8.26498V9.14498H7.38L6.5 8.26498Z" fill="#666666"/>
</g>
</svg>
