<svg width="24" height="24" viewBox="0 0 24 24" fill="none" xmlns="http://www.w3.org/2000/svg">
<path fill-rule="evenodd" clip-rule="evenodd" d="M15.41 9.21491H18V11.2149H12V5.21491H14V7.80491L19.02 2.78491L20.43 4.19491L15.41 9.21491ZM16.43 15.1549C17.55 15.5249 18.76 15.7249 20 15.7249C20.55 15.7249 21 16.1749 21 16.7249V20.2149C21 20.7649 20.55 21.2149 20 21.2149C10.61 21.2149 3 13.6049 3 4.21491C3 3.66491 3.45 3.21491 4 3.21491H7.5C8.05 3.21491 8.5 3.66491 8.5 4.21491C8.5 5.46491 8.7 6.66491 9.07 7.78491C9.18 8.13491 9.1 8.52491 8.82 8.80491L6.62 11.0049C8.06 13.8349 10.38 16.1449 13.21 17.5949L15.41 15.3949C15.61 15.2049 15.86 15.1049 16.12 15.1049C16.22 15.1049 16.33 15.1149 16.43 15.1549ZM6.53 5.21491H5.03C5.12 6.53491 5.38 7.80491 5.79 9.00491L6.99 7.80491C6.75 6.97491 6.6 6.10491 6.53 5.21491ZM19 19.1849L18.99 19.1842V17.6949C18.11 17.6349 17.24 17.4849 16.39 17.2449L15.2 18.4349C16.4069 18.8339 17.6736 19.0936 18.99 19.1842V19.1849H19Z" fill="#005EE7"/>
</svg>
