<svg width="24" height="24" viewBox="0 0 24 24" fill="none" xmlns="http://www.w3.org/2000/svg">
<g id="phone_callback-gr">
<path id="icon/notification/phone_callback_24px" fill-rule="evenodd" clip-rule="evenodd" d="M15.41 9.215H18V11.215H12V5.215H14V7.805L19.02 2.785L20.43 4.195L15.41 9.215ZM16.43 15.155C17.55 15.525 18.76 15.725 20 15.725C20.55 15.725 21 16.175 21 16.725V20.215C21 20.765 20.55 21.215 20 21.215C10.61 21.215 3 13.605 3 4.215C3 3.665 3.45 3.215 4 3.215H7.5C8.05 3.215 8.5 3.665 8.5 4.215C8.5 5.465 8.7 6.665 9.07 7.785C9.18 8.135 9.1 8.525 8.82 8.805L6.62 11.005C8.06 13.835 10.38 16.145 13.21 17.595L15.41 15.395C15.61 15.205 15.86 15.105 16.12 15.105C16.22 15.105 16.33 15.115 16.43 15.155ZM6.53 5.215H5.03C5.12 6.535 5.38 7.805 5.79 9.005L6.99 7.805C6.75 6.975 6.6 6.105 6.53 5.215ZM19 19.185L18.99 19.1843V17.695C18.11 17.635 17.24 17.485 16.39 17.245L15.2 18.435C16.4069 18.834 17.6736 19.0937 18.99 19.1843V19.185H19Z" fill="#666666"/>
</g>
</svg>
