<svg width="24" height="24" viewBox="0 0 24 24" fill="none" xmlns="http://www.w3.org/2000/svg">
<path fill-rule="evenodd" clip-rule="evenodd" d="M17 8.21L14.71 10.5L14 9.79L16.79 7L14 4.21L14.71 3.5L17 5.79V2H17.5L20.36 4.85L18.21 7L20.35 9.15L17.5 12H17V8.21ZM16.43 15.93C17.55 16.3 18.75 16.5 20 16.5C20.55 16.5 21 16.95 21 17.5V21C21 21.55 20.55 22 20 22C10.61 22 3 14.39 3 5C3 4.45 3.45 4 4 4H7.5C8.05 4 8.5 4.45 8.5 5C8.5 6.25 8.7 7.45 9.07 8.57C9.18 8.92 9.1 9.31 8.82 9.57L6.62 11.78C8.06 14.62 10.38 16.93 13.21 18.37L15.41 16.17C15.61 15.98 15.86 15.88 16.12 15.88C16.22 15.88 16.33 15.9 16.43 15.93ZM6.98 8.58C6.75 7.75 6.6 6.88 6.53 6H5.03C5.12 7.32 5.38 8.58 5.78 9.79L6.98 8.58ZM19 19.97C17.68 19.88 16.4 19.62 15.2 19.21L16.4 18.01C17.25 18.25 18.12 18.4 19 18.46V19.97ZM18 3.91L18.94 4.85L18 5.79V3.91ZM18.94 9.15L18 8.21V10.09L18.94 9.15Z" fill="#005EE7"/>
</svg>
