<svg width="24" height="24" viewBox="0 0 24 24" fill="none" xmlns="http://www.w3.org/2000/svg">
<g id="photo_size_select_large-gr">
<path id="icon/image/photo_size_select_large_24px" fill-rule="evenodd" clip-rule="evenodd" d="M15 3H13V5H15V3ZM23 11H21V13H23V11ZM23 15H21V17H23V15ZM23 19H21V21C22 21 23 20 23 19ZM21 7H23V9H21V7ZM21 5V3C22 3 23 4 23 5H21ZM1 7H3V9H1V7ZM19 3H17V5H19V3ZM17 19H19V21H17V19ZM1 5C1 4 2 3 3 3V5H1ZM9 3H11V5H9V3ZM7 3H5V5H7V3ZM1 11V19C1 20.1 1.9 21 3 21H15V11H1ZM5.5 15.79L3 19H13L9.79 14.72L7.29 17.94L5.5 15.79Z" fill="#666666"/>
</g>
</svg>
