<svg width="24" height="24" viewBox="0 0 24 24" fill="none" xmlns="http://www.w3.org/2000/svg">
<g id="pin_drop-gr">
<path id="icon/maps/pin_drop_24px" fill-rule="evenodd" clip-rule="evenodd" d="M12 2C15.31 2 18 4.69 18 8C18 12.5 12 19 12 19C12 19 6 12.5 6 8C6 4.69 8.69 2 12 2ZM19 22V20H5V22H19ZM8 8C8 5.79 9.79 4 12 4C14.21 4 16 5.79 16 8C16 10.13 13.92 13.46 12 15.91C10.08 13.47 8 10.13 8 8ZM10 8C10 6.9 10.9 6 12 6C13.1 6 14 6.9 14 8C14 9.1 13.11 10 12 10C10.9 10 10 9.1 10 8Z" fill="#666666"/>
</g>
</svg>
