<svg width="24" height="24" viewBox="0 0 24 24" fill="none" xmlns="http://www.w3.org/2000/svg">
<g id="pool-gr">
<path id="icon/places/pool_24px" fill-rule="evenodd" clip-rule="evenodd" d="M10 8.0001L6.75 11.2501C7.0296 11.3583 7.26039 11.491 7.45704 11.604L7.52 11.6401C7.89 11.8701 8.11 12.0001 8.67 12.0001C9.23 12.0001 9.45 11.8701 9.82 11.6401L9.83265 11.6327C10.2914 11.3634 10.9101 11.0001 12.01 11.0001C13.12 11.0001 13.74 11.3701 14.19 11.6401L14.2008 11.6465C14.5645 11.8628 14.7954 12.0001 15.34 12.0001C15.89 12.0001 16.12 11.8701 16.49 11.6401C16.61 11.5701 16.75 11.4901 16.9 11.4101L10.48 5.0001C8.93 3.4501 7.5 2.9901 5 3.0001V5.5001C6.82 5.4901 7.89 5.8901 9 7.0001L10 8.0001ZM6.4892 15.8537C6.12548 15.6374 5.89463 15.5001 5.35 15.5001C4.8 15.5001 4.57 15.6301 4.2 15.8601L4.1707 15.8769C3.70419 16.1452 3.08709 16.5001 2 16.5001V14.5001C2.56 14.5001 2.78 14.3701 3.15 14.1401C3.6 13.8701 4.22 13.5001 5.33 13.5001C6.44 13.5001 7.06 13.8701 7.51 14.1401L7.5208 14.1465C7.88452 14.3628 8.11537 14.5001 8.66 14.5001C9.22 14.5001 9.44 14.3701 9.81 14.1401C10.26 13.8701 10.88 13.5001 11.99 13.5001C13.1 13.5001 13.72 13.8701 14.17 14.1401L14.1808 14.1465C14.5445 14.3628 14.7754 14.5001 15.32 14.5001C15.87 14.5001 16.1 14.3701 16.47 14.1401C16.92 13.8701 17.54 13.5001 18.65 13.5001C19.76 13.5001 20.38 13.8701 20.83 14.1401L20.8408 14.1465C21.2045 14.3628 21.4354 14.5001 21.98 14.5001V16.5001C20.88 16.4901 20.27 16.1301 19.82 15.8601L19.8092 15.8537C19.4455 15.6374 19.2146 15.5001 18.67 15.5001C18.11 15.5001 17.89 15.6301 17.52 15.8601C17.07 16.1301 16.45 16.5001 15.34 16.5001C14.23 16.5001 13.61 16.1301 13.16 15.8601L13.1492 15.8537C12.7855 15.6374 12.5546 15.5001 12.01 15.5001C11.45 15.5001 11.23 15.6301 10.86 15.8601C10.41 16.1301 9.79 16.5001 8.68 16.5001C7.57 16.5001 6.95 16.1301 6.5 15.8601L6.4892 15.8537ZM18.67 18.0001C17.56 18.0001 16.94 18.3701 16.49 18.6401C16.12 18.8701 15.89 19.0001 15.34 19.0001C14.7954 19.0001 14.5645 18.8628 14.2008 18.6465L14.19 18.6401C13.74 18.3701 13.12 18.0001 12.01 18.0001C10.9101 18.0001 10.2914 18.3634 9.83265 18.6327L9.82 18.6401C9.45 18.8701 9.23 19.0001 8.67 19.0001C8.11 19.0001 7.89 18.8701 7.52 18.6401C7.07 18.3701 6.45 18.0001 5.34 18.0001C4.24015 18.0001 3.62138 18.3634 3.16265 18.6327L3.15 18.6401C2.78 18.8701 2.56 19.0001 2 19.0001V21.0001C3.09985 21.0001 3.71862 20.6368 4.17734 20.3675L4.19 20.3601C4.56 20.1301 4.79 20.0001 5.34 20.0001C5.89 20.0001 6.12 20.1301 6.49 20.3601C6.94 20.6301 7.56 21.0001 8.67 21.0001C9.76985 21.0001 10.3886 20.6368 10.8473 20.3675L10.86 20.3601C11.23 20.1301 11.45 20.0001 12.01 20.0001C12.5546 20.0001 12.7855 20.1374 13.1492 20.3537L13.1492 20.3537L13.16 20.3601C13.61 20.6301 14.23 21.0001 15.34 21.0001C16.4305 21.0001 17.0384 20.643 17.4956 20.3744L17.52 20.3601C17.89 20.1301 18.11 20.0001 18.67 20.0001C19.2146 20.0001 19.4455 20.1374 19.8092 20.3537L19.82 20.3601C20.27 20.6301 20.89 21.0001 22 21.0001V19.0001C21.44 19.0001 21.22 18.8701 20.85 18.6401C20.4 18.3701 19.78 18.0001 18.67 18.0001ZM14 5.5001C14 4.11939 15.1193 3.0001 16.5 3.0001C17.8807 3.0001 19 4.11939 19 5.5001C19 6.88081 17.8807 8.0001 16.5 8.0001C15.1193 8.0001 14 6.88081 14 5.5001Z" fill="#666666"/>
</g>
</svg>
