<svg width="24" height="24" viewBox="0 0 24 24" fill="none" xmlns="http://www.w3.org/2000/svg">
<path fill-rule="evenodd" clip-rule="evenodd" d="M10 8.00016L6.75 11.2502C7.0296 11.3584 7.26039 11.491 7.45704 11.604L7.52 11.6402C7.89 11.8702 8.11 12.0002 8.67 12.0002C9.23 12.0002 9.45 11.8702 9.82 11.6402L9.83265 11.6327C10.2914 11.3634 10.9101 11.0002 12.01 11.0002C13.12 11.0002 13.74 11.3702 14.19 11.6402L14.2008 11.6466C14.5645 11.8629 14.7954 12.0002 15.34 12.0002C15.89 12.0002 16.12 11.8702 16.49 11.6402C16.61 11.5702 16.75 11.4902 16.9 11.4102L10.48 5.00016C8.93 3.45016 7.5 2.99016 5 3.00016V5.50016C6.82 5.49016 7.89 5.89016 9 7.00016L10 8.00016ZM6.4892 15.8537C6.12548 15.6374 5.89463 15.5002 5.35 15.5002C4.8 15.5002 4.57 15.6302 4.2 15.8602L4.1707 15.877C3.70419 16.1453 3.08709 16.5002 2 16.5002V14.5002C2.56 14.5002 2.78 14.3702 3.15 14.1402C3.6 13.8702 4.22 13.5002 5.33 13.5002C6.44 13.5002 7.06 13.8702 7.51 14.1402L7.5208 14.1466C7.88452 14.3629 8.11537 14.5002 8.66 14.5002C9.22 14.5002 9.44 14.3702 9.81 14.1402C10.26 13.8702 10.88 13.5002 11.99 13.5002C13.1 13.5002 13.72 13.8702 14.17 14.1402L14.1808 14.1466C14.5445 14.3629 14.7754 14.5002 15.32 14.5002C15.87 14.5002 16.1 14.3702 16.47 14.1402C16.92 13.8702 17.54 13.5002 18.65 13.5002C19.76 13.5002 20.38 13.8702 20.83 14.1402L20.8408 14.1466C21.2045 14.3629 21.4354 14.5002 21.98 14.5002V16.5002C20.88 16.4902 20.27 16.1302 19.82 15.8602L19.8092 15.8537C19.4455 15.6374 19.2146 15.5002 18.67 15.5002C18.11 15.5002 17.89 15.6302 17.52 15.8602C17.07 16.1302 16.45 16.5002 15.34 16.5002C14.23 16.5002 13.61 16.1302 13.16 15.8602L13.1492 15.8537C12.7855 15.6374 12.5546 15.5002 12.01 15.5002C11.45 15.5002 11.23 15.6302 10.86 15.8602C10.41 16.1302 9.79 16.5002 8.68 16.5002C7.57 16.5002 6.95 16.1302 6.5 15.8602L6.4892 15.8537ZM18.67 18.0002C17.56 18.0002 16.94 18.3702 16.49 18.6402C16.12 18.8702 15.89 19.0002 15.34 19.0002C14.7954 19.0002 14.5645 18.8629 14.2008 18.6466L14.19 18.6402C13.74 18.3702 13.12 18.0002 12.01 18.0002C10.9101 18.0002 10.2914 18.3634 9.83265 18.6327L9.82 18.6402C9.45 18.8702 9.23 19.0002 8.67 19.0002C8.11 19.0002 7.89 18.8702 7.52 18.6402C7.07 18.3702 6.45 18.0002 5.34 18.0002C4.24015 18.0002 3.62138 18.3634 3.16265 18.6327L3.15 18.6402C2.78 18.8702 2.56 19.0002 2 19.0002V21.0002C3.09985 21.0002 3.71862 20.6369 4.17734 20.3676L4.19 20.3602C4.56 20.1302 4.79 20.0002 5.34 20.0002C5.89 20.0002 6.12 20.1302 6.49 20.3602C6.94 20.6302 7.56 21.0002 8.67 21.0002C9.76985 21.0002 10.3886 20.6369 10.8473 20.3676L10.86 20.3602C11.23 20.1302 11.45 20.0002 12.01 20.0002C12.5546 20.0002 12.7855 20.1374 13.1492 20.3537L13.1492 20.3537L13.16 20.3602C13.61 20.6302 14.23 21.0002 15.34 21.0002C16.4305 21.0002 17.0384 20.6431 17.4956 20.3745L17.52 20.3602C17.89 20.1302 18.11 20.0002 18.67 20.0002C19.2146 20.0002 19.4455 20.1374 19.8092 20.3537L19.82 20.3602C20.27 20.6302 20.89 21.0002 22 21.0002V19.0002C21.44 19.0002 21.22 18.8702 20.85 18.6402C20.4 18.3702 19.78 18.0002 18.67 18.0002ZM14 5.50016C14 4.11945 15.1193 3.00016 16.5 3.00016C17.8807 3.00016 19 4.11945 19 5.50016C19 6.88087 17.8807 8.00016 16.5 8.00016C15.1193 8.00016 14 6.88087 14 5.50016Z" fill="#005EE7"/>
</svg>
