<svg width="24" height="24" viewBox="0 0 24 24" fill="none" xmlns="http://www.w3.org/2000/svg">
<path fill-rule="evenodd" clip-rule="evenodd" d="M8.2148 2.50488H10.2148V6.38488L8.2148 4.38488V2.50488ZM16.2148 12.3849V8.50488H12.3348L10.3348 6.50488H14.2148V2.50488H16.2148V6.50488C17.3148 6.50488 18.2148 7.40488 18.2148 8.50488V13.9849L18.0148 14.1849L16.2148 12.3849ZM4.3348 3.34488L2.9248 4.75488L6.2148 8.04488V14.0049L9.7148 17.5049V20.5049H14.7148V17.5049L15.1948 17.0249L19.6648 21.4949L21.0748 20.0849L4.3348 3.34488ZM12.7148 18.5049V16.6749L13.7848 15.6149L8.2148 10.0449V13.1549L11.7148 16.6749V18.5049H12.7148Z" fill="#005EE7"/>
</svg>
