<svg width="24" height="24" viewBox="0 0 24 24" fill="none" xmlns="http://www.w3.org/2000/svg">
<path fill-rule="evenodd" clip-rule="evenodd" d="M2.22982 0.820068L0.819824 2.23007L5.81982 7.22007C4.15982 7.22007 2.81982 8.56007 2.81982 10.2201V16.2201H6.81982V20.2201H18.8198L21.7698 23.1801L23.1798 21.7701L2.22982 0.820068ZM4.81982 14.2201V10.2201C4.81982 9.67007 5.26982 9.22007 5.81982 9.22007H7.81982L10.8198 12.2201H6.81982V14.2201H4.81982ZM16.8198 18.2201L12.8198 14.2201H8.81982V18.2201H16.8198ZM8.81982 4.22007H16.8198V7.22007H11.4798L13.4798 9.22007H19.8198C20.3698 9.22007 20.8198 9.67007 20.8198 10.2201V14.2201L18.8198 14.2301V12.2201H16.4798L20.4798 16.2201H22.8198V10.2201C22.8198 8.56007 21.4798 7.22007 19.8198 7.22007H18.8198V2.22007H6.81982V2.58007L8.81982 4.58007V4.22007ZM17.8198 10.7301C17.8198 10.1778 18.2675 9.73007 18.8198 9.73007C19.3721 9.73007 19.8198 10.1778 19.8198 10.7301C19.8198 11.2824 19.3721 11.7301 18.8198 11.7301C18.2675 11.7301 17.8198 11.2824 17.8198 10.7301Z" fill="white"/>
</svg>
