<svg width="24" height="24" viewBox="0 0 24 24" fill="none" xmlns="http://www.w3.org/2000/svg">
<g id="remove_shopping_cart-gr">
<path id="icon/action/remove_shopping_cart_24px" fill-rule="evenodd" clip-rule="evenodd" d="M0.564941 1.975L1.97494 0.565002L23.4349 22.025L22.0249 23.435L19.1849 20.595C18.8249 21.105 18.2349 21.435 17.5649 21.435C16.4649 21.435 15.5749 20.535 15.5749 19.435C15.5749 18.765 15.9049 18.175 16.4049 17.815L15.0249 16.435H7.56494C6.46494 16.435 5.56494 15.535 5.56494 14.435C5.56494 14.085 5.65494 13.755 5.81494 13.475L7.16494 11.025L4.95494 6.365L0.564941 1.975ZM8.66494 12.435L7.56494 14.435H13.0249L11.0249 12.435H8.66494ZM20.5649 3.435H7.68494L9.68494 5.435H18.8749L16.1149 10.435H14.6749L16.6149 12.375C17.1549 12.235 17.6049 11.885 17.8649 11.405L21.4449 4.915C21.8149 4.255 21.3249 3.435 20.5649 3.435ZM5.57494 19.435C5.57494 18.335 6.46494 17.435 7.56494 17.435C8.66494 17.435 9.56494 18.335 9.56494 19.435C9.56494 20.535 8.66494 21.435 7.56494 21.435C6.46494 21.435 5.57494 20.535 5.57494 19.435Z" fill="black" fill-opacity="0.54"/>
</g>
</svg>
