<svg width="24" height="24" viewBox="0 0 24 24" fill="none" xmlns="http://www.w3.org/2000/svg">
<g id="replay_30-gr">
<path id="icon/av/replay_30_24px" fill-rule="evenodd" clip-rule="evenodd" d="M12 2V6C16.42 6 20 9.58 20 14C20 18.42 16.42 22 12 22C7.58 22 4 18.42 4 14H6C6 17.31 8.69 20 12 20C15.31 20 18 17.31 18 14C18 10.69 15.31 8 12 8V12L7 7L12 2ZM10.01 14.49H9.56V15.14H10.03C10.14 15.14 10.23 15.16 10.32 15.18C10.41 15.2 10.48 15.24 10.54 15.29C10.6 15.34 10.65 15.41 10.68 15.49C10.71 15.57 10.73 15.67 10.73 15.78C10.73 15.87 10.72 15.95 10.69 16.02C10.66 16.09 10.61 16.15 10.56 16.2C10.51 16.25 10.44 16.29 10.36 16.32C10.28 16.35 10.19 16.36 10.09 16.36C10 16.36 9.92001 16.34 9.84001 16.32L9.84 16.32C9.76 16.3 9.7 16.26 9.64 16.21C9.58 16.16 9.54 16.11 9.51 16.04C9.48 15.97 9.46 15.9 9.46 15.82H8.61C8.61 16.03 8.65 16.22 8.73 16.37C8.81 16.52 8.93 16.64 9.06 16.75C9.19 16.86 9.35 16.93 9.52 16.98C9.69 17.03 9.87 17.05 10.05 17.05C10.27 17.05 10.46 17.02 10.65 16.97C10.84 16.92 10.99 16.83 11.13 16.73C11.27 16.63 11.37 16.49 11.45 16.34C11.53 16.19 11.57 16.01 11.57 15.81C11.57 15.58 11.51 15.38 11.39 15.2C11.27 15.02 11.09 14.9 10.85 14.81C10.96 14.76 11.05 14.71 11.13 14.64C11.21 14.57 11.27 14.5 11.33 14.42C11.39 14.34 11.43 14.26 11.46 14.17C11.49 14.08 11.5 13.99 11.5 13.9C11.5 13.7 11.46 13.52 11.39 13.37C11.32 13.22 11.22 13.09 11.09 12.99C10.96 12.89 10.81 12.81 10.63 12.76C10.45 12.71 10.25 12.68 10.04 12.68C9.85 12.68 9.67 12.71 9.5 12.76C9.33 12.81 9.19 12.89 9.06 12.99C8.93 13.09 8.83 13.22 8.76 13.36C8.69 13.5 8.65 13.66 8.65 13.84H9.5C9.5 13.77 9.52 13.7 9.55 13.64C9.58 13.58 9.62 13.54 9.67 13.49C9.72 13.44 9.78 13.41 9.85 13.39C9.92 13.37 9.99 13.36 10.07 13.36C10.16 13.36 10.25 13.38 10.32 13.4C10.39 13.42 10.45 13.46 10.5 13.51C10.55 13.56 10.58 13.61 10.61 13.68C10.64 13.75 10.65 13.82 10.65 13.9C10.65 14.08 10.6 14.22 10.49 14.33C10.38 14.44 10.22 14.49 10.01 14.49ZM15.3 15.24C15.3 15.56 15.27 15.84 15.2 16.06C15.13 16.28 15.03 16.48 14.91 16.63C14.79 16.78 14.63 16.89 14.46 16.96C14.29 17.03 14.09 17.06 13.87 17.06C13.65 17.06 13.46 17.03 13.28 16.96C13.1 16.89 12.95 16.78 12.82 16.63C12.69 16.48 12.59 16.29 12.52 16.06C12.45 15.83 12.41 15.56 12.41 15.24V14.5C12.41 14.18 12.44 13.9 12.51 13.68C12.58 13.46 12.68 13.26 12.8 13.11C12.92 12.96 13.08 12.85 13.25 12.78C13.42 12.71 13.62 12.68 13.84 12.68C14.06 12.68 14.25 12.71 14.43 12.78C14.61 12.85 14.76 12.96 14.89 13.11C15.02 13.26 15.12 13.45 15.19 13.68C15.26 13.91 15.3 14.18 15.3 14.5V15.24ZM14.41 13.9C14.44 14.03 14.45 14.19 14.45 14.38H14.44V15.35C14.44 15.54 14.43 15.7 14.4 15.83C14.38 15.96 14.34 16.07 14.29 16.15C14.24 16.23 14.17 16.29 14.1 16.32C14.03 16.35 13.94 16.37 13.85 16.37C13.76 16.37 13.68 16.35 13.6 16.32C13.52 16.29 13.46 16.23 13.41 16.15C13.36 16.07 13.32 15.96 13.29 15.83C13.26 15.7 13.25 15.54 13.25 15.35V14.38C13.25 14.19 13.26 14.03 13.29 13.9C13.32 13.77 13.36 13.67 13.41 13.59C13.46 13.51 13.53 13.45 13.6 13.42C13.67 13.39 13.76 13.37 13.85 13.37C13.94 13.37 14.02 13.39 14.1 13.42C14.18 13.45 14.24 13.51 14.29 13.59C14.34 13.67 14.38 13.77 14.41 13.9Z" fill="#666666"/>
</g>
</svg>
