<svg width="24" height="24" viewBox="0 0 24 24" fill="none" xmlns="http://www.w3.org/2000/svg">
<g id="report_off-gr">
<path id="icon/content/report_off_24px" fill-rule="evenodd" clip-rule="evenodd" d="M2.70004 1.29L1.29004 2.7L4.93004 6.34L3.29004 7.98V15.44L8.56004 20.71H16.02L17.66 19.07L21.3 22.71L22.71 21.3L2.70004 1.29ZM9.39004 4.71H15.19L19.29 8.81V14.61L19.07 14.83L20.49 16.24L21.29 15.44V7.98L16.02 2.71H8.56004L7.76004 3.51L9.17004 4.93L9.39004 4.71ZM12.29 14.71C11.7378 14.71 11.29 15.1577 11.29 15.71C11.29 16.2623 11.7378 16.71 12.29 16.71C12.8423 16.71 13.29 16.2623 13.29 15.71C13.29 15.1577 12.8423 14.71 12.29 14.71ZM13.29 6.71V9.04L11.29 7.04V6.71H13.29ZM9.39004 18.71H15.19L16.24 17.66L6.34004 7.76L5.29004 8.81V14.61L9.39004 18.71Z" fill="#666666"/>
</g>
</svg>
