<svg width="24" height="24" viewBox="0 0 24 24" fill="none" xmlns="http://www.w3.org/2000/svg">
<path fill-rule="evenodd" clip-rule="evenodd" d="M14 2H6C4.9 2 4.01 2.9 4.01 4L4 20C4 21.1 4.89 22 5.99 22H18C19.1 22 20 21.1 20 20V8L14 2ZM18 20H6V4H13.17L18 8.83V20ZM7.28 9.4L8.45 10.57C9.25 9.33 10.63 8.5 12.22 8.5C14.7 8.5 16.72 10.52 16.72 13C16.72 15.48 14.7 17.5 12.22 17.5C10.38 17.5 8.79 16.38 8.1 14.8H9.65C10.21 15.61 11.16 16.15 12.23 16.15C13.97 16.15 15.38 14.74 15.38 13C15.38 11.26 13.97 9.85 12.23 9.85C11.02 9.85 9.96 10.55 9.44 11.56L10.88 13H7.28V9.4Z" fill="#005EE7"/>
</svg>
