<svg width="24" height="24" viewBox="0 0 24 24" fill="none" xmlns="http://www.w3.org/2000/svg">
<path fill-rule="evenodd" clip-rule="evenodd" d="M11 2.57007H13V7.57007H11V2.57007ZM19.75 5.42007L21.16 6.83007C21.05 6.86007 17.6 10.3801 17.6 10.3801L16.19 8.97007L19.75 5.42007ZM12 12.5701C16.54 12.5701 20.66 14.3501 23.71 17.2401C23.89 17.4201 24 17.6701 24 17.9401C24 18.2201 23.89 18.4701 23.71 18.6501L21.23 21.1301C21.05 21.3101 20.8 21.4201 20.52 21.4201C20.25 21.4201 20 21.3201 19.82 21.1401C19.03 20.4101 18.14 19.7801 17.16 19.2901C16.83 19.1301 16.6 18.7801 16.6 18.3901V15.2901C15.15 14.8201 13.6 14.5701 12 14.5701C10.4 14.5701 8.85 14.8201 7.4 15.3001V18.4001C7.4 18.8001 7.17 19.1401 6.84 19.3001C5.87 19.7901 4.97 20.4101 4.18 21.1501C4 21.3201 3.75 21.4301 3.48 21.4301C3.2 21.4301 2.95 21.3201 2.77 21.1401L0.29 18.6601C0.11 18.4801 0 18.2301 0 17.9501C0 17.6701 0.11 17.4201 0.29 17.2401C3.34 14.3501 7.46 12.5701 12 12.5701ZM3.53 19.0701C4.11 18.6001 4.74 18.1701 5.4 17.8001H5.41V16.1001C4.36 16.6101 3.37 17.2501 2.46 18.0001L3.53 19.0701ZM20.47 19.0601C19.88 18.5801 19.26 18.1601 18.6 17.7901V16.0901C19.64 16.6001 20.63 17.2401 21.54 17.9901L20.47 19.0601ZM7.81 8.97007L6.4 10.3801C6.4 10.3801 2.95 6.86007 2.84 6.83007L4.26 5.41007L7.81 8.97007Z" fill="#005EE7"/>
</svg>
