<svg width="24" height="24" viewBox="0 0 24 24" fill="none" xmlns="http://www.w3.org/2000/svg">
<g id="ring_volume-gr">
<path id="icon/communication/ring_volume_24px" fill-rule="evenodd" clip-rule="evenodd" d="M11 2.57001H13V7.57001H11V2.57001ZM19.75 5.42001L21.16 6.83001C21.05 6.86001 17.6 10.38 17.6 10.38L16.19 8.97001L19.75 5.42001ZM12 12.57C16.54 12.57 20.66 14.35 23.71 17.24C23.89 17.42 24 17.67 24 17.94C24 18.22 23.89 18.47 23.71 18.65L21.23 21.13C21.05 21.31 20.8 21.42 20.52 21.42C20.25 21.42 20 21.32 19.82 21.14C19.03 20.41 18.14 19.78 17.16 19.29C16.83 19.13 16.6 18.78 16.6 18.39V15.29C15.15 14.82 13.6 14.57 12 14.57C10.4 14.57 8.85 14.82 7.4 15.3V18.4C7.4 18.8 7.17 19.14 6.84 19.3C5.87 19.79 4.97 20.41 4.18 21.15C4 21.32 3.75 21.43 3.48 21.43C3.2 21.43 2.95 21.32 2.77 21.14L0.29 18.66C0.11 18.48 0 18.23 0 17.95C0 17.67 0.11 17.42 0.29 17.24C3.34 14.35 7.46 12.57 12 12.57ZM3.53 19.07C4.11 18.6 4.74 18.17 5.4 17.8H5.41V16.1C4.36 16.61 3.37 17.25 2.46 18L3.53 19.07ZM20.47 19.06C19.88 18.58 19.26 18.16 18.6 17.79V16.09C19.64 16.6 20.63 17.24 21.54 17.99L20.47 19.06ZM7.81 8.97001L6.4 10.38C6.4 10.38 2.95 6.86001 2.84 6.83001L4.26 5.41001L7.81 8.97001Z" fill="#666666"/>
</g>
</svg>
