<svg width="24" height="24" viewBox="0 0 24 24" fill="none" xmlns="http://www.w3.org/2000/svg">
<g id="screen_rotation-gr">
<path id="icon/device/screen_rotation_24px" fill-rule="evenodd" clip-rule="evenodd" d="M22.4498 11C22.0898 7.24 19.7498 4.07 16.4798 2.52L15.1498 3.84L11.3398 0.03L11.9998 0C18.2898 0 23.4398 4.84 23.9498 11H22.4498ZM8.1098 1.75C8.6898 1.16 9.6398 1.16 10.2298 1.75L22.2498 13.77C22.8398 14.35 22.8398 15.3 22.2498 15.89L15.8898 22.25C15.3098 22.84 14.3598 22.84 13.7698 22.25L1.7498 10.23C1.1598 9.65 1.1598 8.7 1.7498 8.11L8.1098 1.75ZM14.8298 21.19L2.8098 9.17L9.1698 2.81L21.1898 14.83L14.8298 21.19ZM1.5498 13C1.9098 16.76 4.2498 19.94 7.5198 21.48L8.8498 20.16L12.6598 23.97L11.9998 24C5.7098 24 0.559805 19.16 0.0498047 13H1.5498Z" fill="#666666"/>
</g>
</svg>
