<svg width="24" height="24" viewBox="0 0 24 24" fill="none" xmlns="http://www.w3.org/2000/svg">
<path fill-rule="evenodd" clip-rule="evenodd" d="M15 9.5C15 11.16 13.66 12.5 12 12.5C10.34 12.5 9 11.16 9 9.5V3.5C9 1.84 10.34 0.5 12 0.5C13.66 0.5 15 1.84 15 3.5V9.5ZM9 21.5H7V23.5H9V21.5ZM11 3.5C11 2.95 11.45 2.5 12 2.5C12.55 2.5 13 2.95 13 3.5V9.5C13 10.06 12.56 10.5 12 10.5C11.45 10.5 11 10.05 11 9.5V3.5ZM13 23.5V21.5H11V23.5H13ZM15 21.5H17V23.5H15V21.5ZM17.3 9.5H19C19 12.91 16.28 15.73 13 16.22V19.5H11V16.22C7.72 15.73 5 12.91 5 9.5H6.7C6.7 12.5 9.24 14.6 12 14.6C14.76 14.6 17.3 12.5 17.3 9.5Z" fill="white"/>
</svg>
