<svg width="24" height="24" viewBox="0 0 24 24" fill="none" xmlns="http://www.w3.org/2000/svg">
<g id="signal_wifi_statusbar_not_connected_26x24px">
<path id="Shape" d="M14.7692 13.4375C14.7692 10.7925 16.8369 8.64585 19.3846 8.64585C20.1692 8.64585 20.8985 8.86627 21.5446 9.23044L23.6123 6.55669C23.1692 6.21169 18.7015 2.41669 12 2.41669C5.29846 2.41669 0.830772 6.21169 0.387695 6.55669L12 21.5834L15.8954 16.5425C15.2031 15.7088 14.7692 14.6259 14.7692 13.4375Z" fill="#666666"/>
<path id="Path" d="M19.3846 10.0833C17.603 10.0833 16.1538 11.5879 16.1538 13.4375H17.7692C17.7692 12.5079 18.4892 11.7604 19.3846 11.7604C20.28 11.7604 21 12.5079 21 13.4375C21 13.8975 20.8153 14.3192 20.5292 14.6258L19.523 15.68C18.9415 16.2838 18.5815 17.1271 18.5815 18.0471V18.4688H20.1969C20.1969 17.2133 20.5569 16.7054 21.1477 16.1017L21.8677 15.335C22.3292 14.8558 22.6246 14.185 22.6246 13.4471C22.6153 11.5879 21.1661 10.0833 19.3846 10.0833Z" fill="#666666"/>
<path id="Path_2" d="M18.5078 21.5354H20.2617V19.7146H18.5078V21.5354Z" fill="#666666"/>
</g>
</svg>
