<svg width="24" height="24" viewBox="0 0 24 24" fill="none" xmlns="http://www.w3.org/2000/svg">
<path fill-rule="evenodd" clip-rule="evenodd" d="M10.9749 2.05005V4.07005C9.5149 4.25005 8.1849 4.83005 7.0749 5.69005L5.6549 4.26005C7.1349 3.05005 8.9649 2.25005 10.9749 2.05005ZM13.0249 9.79005L9.9749 7.50005V16.5L13.0249 14.21L15.9749 12L13.0249 9.79005ZM5.6649 7.10005L4.2349 5.68005C3.0249 7.16005 2.2249 8.99005 2.0249 11H4.0449C4.2249 9.54005 4.8049 8.21005 5.6649 7.10005ZM2.0249 13H4.0449C4.2249 14.46 4.8049 15.79 5.6649 16.89L4.2349 18.32C3.0249 16.84 2.2249 15.01 2.0249 13ZM5.6549 19.74C7.1349 20.95 8.9749 21.75 10.9749 21.95V19.93C9.5149 19.75 8.1849 19.17 7.0749 18.31L5.6549 19.74ZM13.0249 21.95C18.0549 21.42 21.9749 17.16 21.9749 12C21.9749 6.84005 18.0549 2.58005 13.0249 2.05005V4.07005C16.9449 4.59005 19.9749 7.95005 19.9749 12C19.9749 16.05 16.9449 19.41 13.0249 19.93V21.95Z" fill="white"/>
</svg>
