<svg width="24" height="24" viewBox="0 0 24 24" fill="none" xmlns="http://www.w3.org/2000/svg">
<g id="smoke_free-gr">
<path id="icon/places/smoke_free_24px" fill-rule="evenodd" clip-rule="evenodd" d="M16.03 8.17498H14.5C12.65 8.17498 11.15 6.67498 11.15 4.82498C11.15 2.97498 12.65 1.47498 14.5 1.47498V2.97498C13.48 2.97498 12.65 3.70498 12.65 4.72498C12.65 5.74498 13.48 6.72498 14.5 6.72498H16.03C17.9 6.72498 19.5 8.07498 19.5 9.88498V11.525H18V10.225C18 8.91498 17.08 8.17498 16.03 8.17498ZM17 12.525H14.66L17 14.865V12.525ZM19.5 12.525H18V15.525H19.5V12.525ZM22 12.525H20.5V15.525H22V12.525ZM18.85 4.25498C19.47 3.64498 19.85 2.80498 19.85 1.87498H18.35C18.35 2.89498 17.52 3.72498 16.5 3.72498V5.22498C18.74 5.22498 20.5 7.05498 20.5 9.29498V11.525H22V9.28498C22 7.06498 20.72 5.14498 18.85 4.25498ZM2 5.52498L3.41 4.11498L20.41 21.115L19 22.525L12 15.525H2V12.525H9L2 5.52498Z" fill="#666666"/>
</g>
</svg>
