<svg width="24" height="24" viewBox="0 0 24 24" fill="none" xmlns="http://www.w3.org/2000/svg">
<path fill-rule="evenodd" clip-rule="evenodd" d="M19.85 6.85C19.85 7.78 19.47 8.62 18.85 9.23C20.72 10.12 22 12.04 22 14.26V16.5H20.5V14.27C20.5 12.03 18.74 10.2 16.5 10.2V8.7C17.52 8.7 18.35 7.87 18.35 6.85C18.35 5.83 17.52 5 16.5 5V3.5C18.35 3.5 19.85 5 19.85 6.85ZM14.5 11.7H16.03C17.9 11.7 19.5 13.05 19.5 14.86V16.5H18V15.2C18 13.89 17.08 13.15 16.03 13.15H14.5C12.65 13.15 11.15 11.65 11.15 9.8C11.15 7.95 12.65 6.45 14.5 6.45V7.95C13.48 7.95 12.65 8.68 12.65 9.7C12.65 10.72 13.48 11.7 14.5 11.7ZM2 17.5H17V20.5H2V17.5ZM18 17.5H19.5V20.5H18V17.5ZM20.5 17.5H22V20.5H20.5V17.5Z" fill="#005EE7"/>
</svg>
