<svg width="24" height="24" viewBox="0 0 24 24" fill="none" xmlns="http://www.w3.org/2000/svg">
<path fill-rule="evenodd" clip-rule="evenodd" d="M2.05518 5.74875L3.33638 7.28455L7.94368 3.44095L6.66258 1.90515L2.05518 5.74875ZM16.0561 3.44145L17.3373 1.90565L21.9447 5.74925L20.6635 7.28505L16.0561 3.44145ZM8.99968 11.095H12.6297L8.99968 15.295V17.095H14.9997V15.095H11.3697L14.9997 10.895V9.09495H8.99968V11.095ZM11.9997 6.09495C15.8597 6.09495 18.9997 9.23495 18.9997 13.095C18.9997 16.955 15.8597 20.095 11.9997 20.095C8.13968 20.095 4.99968 16.955 4.99968 13.095C4.99968 9.23495 8.13968 6.09495 11.9997 6.09495ZM2.99968 13.095C2.99968 8.12495 7.02968 4.09495 11.9997 4.09495C16.9697 4.09495 20.9997 8.12495 20.9997 13.095C20.9997 18.065 16.9697 22.095 11.9997 22.095C7.02968 22.095 2.99968 18.065 2.99968 13.095Z" fill="white"/>
</svg>
