<svg width="24" height="24" viewBox="0 0 24 24" fill="none" xmlns="http://www.w3.org/2000/svg">
<g id="speaker_phone-gr">
<path id="icon/communication/speaker_phone_24px" fill-rule="evenodd" clip-rule="evenodd" d="M4.25 4.715C6.24 2.735 8.98 1.505 12 1.505C15.02 1.505 17.76 2.735 19.75 4.715L18.34 6.125C16.72 4.505 14.47 3.505 12 3.505C9.53 3.505 7.28 4.505 5.66 6.125L4.25 4.715ZM8.43 9.005L7 7.575C8.28 6.295 10.05 5.505 12 5.505C13.95 5.505 15.72 6.295 17 7.575L15.57 9.005C14.66 8.09501 13.39 7.525 12 7.525C10.61 7.525 9.34 8.09501 8.43 9.005ZM9.14 10.505C8.51 10.505 8 11.015 8 11.645V21.355C8 21.985 8.51 22.495 9.14 22.495H14.85C15.48 22.495 15.99 21.985 15.99 21.355V11.645C16 11.015 15.49 10.515 14.86 10.515L9.14 10.505ZM9 12.505V20.505H15V12.505H9Z" fill="#666666"/>
</g>
</svg>
