<svg width="24" height="24" viewBox="0 0 24 24" fill="none" xmlns="http://www.w3.org/2000/svg">
<path fill-rule="evenodd" clip-rule="evenodd" d="M2.33969 0.929932L0.929688 2.33993L2.93969 4.34993L2.92969 21.3399L6.92969 17.3399H15.9297L21.6597 23.0699L23.0697 21.6599L2.33969 0.929932ZM20.9297 15.3399V3.33993H7.58969L5.58969 1.33993H20.9297C22.0297 1.33993 22.9297 2.23993 22.9297 3.33993V15.3399C22.9297 16.2399 22.3197 16.9999 21.4997 17.2499L19.5897 15.3399H20.9297ZM8.92969 11.3399H6.92969V13.3399H8.92969V11.3399ZM18.9297 8.33993H12.5897L14.5897 10.3399H18.9297V8.33993ZM10.9297 5.33993H18.9297V7.33993H11.5897L10.9297 6.67993V5.33993ZM4.92969 16.5099L6.09969 15.3399H13.9297L8.92969 10.3399H6.92969V8.33993L4.92969 6.33993V16.5099Z" fill="white"/>
</svg>
