<svg width="24" height="24" viewBox="0 0 24 24" fill="none" xmlns="http://www.w3.org/2000/svg">
<g id="stop_screen_share-gr">
<path id="icon/communication/stop_screen_share_24px" fill-rule="evenodd" clip-rule="evenodd" d="M1.11 2.83999L2.66 4.39999C2.25 4.76999 2 5.28999 2 5.87999V15.86C2 16.96 2.9 17.86 4.01 17.86H0V19.86H18.13L20.84 22.57L22.25 21.16L2.52 1.42999L1.11 2.83999ZM21.79 17.86L23.79 19.86H24V17.86H21.79ZM4.13 5.87999H4V15.88H14.13L10.67 12.4C9.13 12.78 7.96 13.57 7 14.86C7.31 13.38 7.94 11.93 9.08 10.81L4.13 5.87999ZM20 5.87999V16.07L21.3 17.37C21.72 17 22 16.48 22 15.88V5.87999C22 4.76999 21.1 3.87999 20 3.87999H7.8L9.8 5.87999H20ZM15.72 11.79L12.93 9.00999L13 8.98999V6.85999L17 10.59L15.72 11.79Z" fill="#666666"/>
</g>
</svg>
