<svg width="24" height="24" viewBox="0 0 24 24" fill="none" xmlns="http://www.w3.org/2000/svg">
<path fill-rule="evenodd" clip-rule="evenodd" d="M6.85 8.57512C6.85 9.21512 6.98 9.76512 7.24 10.2451C7.27155 10.3082 7.31556 10.3776 7.35728 10.4433C7.36844 10.4609 7.37944 10.4782 7.39 10.4951H12C11.36 10.2751 10.97 10.0451 10.59 9.79512C10.1 9.46512 9.85 9.06512 9.85 8.58512C9.85 8.35512 9.9 8.13512 10 7.92512C10.1 7.71512 10.25 7.53512 10.44 7.37512C10.63 7.22512 10.87 7.10512 11.16 7.01512C11.45 6.92512 11.8 6.88512 12.19 6.88512C12.59 6.88512 12.95 6.94512 13.25 7.04512C13.55 7.15512 13.8 7.29512 14 7.48512C14.2 7.67512 14.35 7.89512 14.44 8.16512C14.54 8.42512 14.59 8.70512 14.59 9.01512H17.6C17.6 8.35512 17.47 7.75512 17.22 7.20512C16.97 6.65512 16.61 6.17512 16.14 5.77512C15.68 5.37512 15.11 5.05512 14.45 4.83512C13.78 4.60512 13.05 4.49512 12.24 4.49512C11.45 4.49512 10.72 4.59512 10.06 4.78512C9.41 4.98512 8.84 5.26512 8.36 5.61512C7.88 5.97512 7.51 6.40512 7.25 6.90512C6.98 7.41512 6.85 7.96512 6.85 8.57512ZM21 11.4951V13.4951V13.5151H17.13C17.19 13.6151 17.25 13.7351 17.3 13.8451C17.51 14.3151 17.61 14.8551 17.61 15.4551C17.61 16.0951 17.48 16.6651 17.23 17.1651C16.98 17.6651 16.62 18.0951 16.16 18.4351C15.7 18.7751 15.14 19.0351 14.49 19.2251C13.84 19.4151 13.11 19.5051 12.31 19.5051C11.83 19.5051 11.35 19.4551 10.87 19.3751C10.39 19.2851 9.93 19.1551 9.49 18.9851C9.05 18.8151 8.64 18.5951 8.27 18.3351C7.89 18.0751 7.57 17.7651 7.29 17.4151C7.01 17.0551 6.8 16.6551 6.64 16.2051C6.48 15.7551 6.4 15.1751 6.4 14.6251H9.37C9.37 15.0751 9.48 15.5251 9.62 15.8351C9.76 16.1451 9.96 16.3951 10.21 16.5851C10.46 16.7751 10.77 16.9151 11.12 17.0051C11.47 17.0951 11.87 17.1351 12.3 17.1351C12.68 17.1351 13.02 17.0851 13.31 17.0051C13.6 16.9151 13.83 16.8051 14.02 16.6551C14.21 16.5051 14.35 16.3251 14.44 16.1251C14.53 15.9151 14.58 15.6951 14.58 15.4651C14.58 15.2051 14.54 14.9751 14.47 14.7751C14.39 14.5651 14.25 14.3751 14.04 14.2051C13.83 14.0351 13.54 13.8651 13.17 13.6951C13.0936 13.6646 12.9991 13.6314 12.901 13.597C12.8064 13.5638 12.7084 13.5295 12.62 13.4951H3V11.4951H21Z" fill="#005EE7"/>
</svg>
