<svg width="24" height="24" viewBox="0 0 24 24" fill="none" xmlns="http://www.w3.org/2000/svg">
<path fill-rule="evenodd" clip-rule="evenodd" d="M12 2C13.86 2 16 2.09 17.8 2.8C20.47 3.84 22 6.05 22 8.86V22H2V8.86C2 6.05 3.53 3.84 6.2 2.8C8 2.09 10.14 2 12 2ZM10.67 18.5L9.17 20H14.83L13.33 18.5H10.67ZM7.01 14V9H17.01V14H7.01ZM15.5 17C16.05 17 16.5 16.55 16.5 16C16.5 15.45 16.05 15 15.5 15C14.95 15 14.5 15.45 14.5 16C14.5 16.55 14.95 17 15.5 17ZM8.5 15C9.05 15 9.5 15.45 9.5 16C9.5 16.55 9.05 17 8.5 17C7.95 17 7.5 16.55 7.5 16C7.5 15.45 7.95 15 8.5 15ZM16.5 20H20V8.86C20 6.86 18.99 5.41 17.07 4.66C15.59 4.08 13.68 4 12 4C10.32 4 8.41 4.08 6.93 4.66C5.01 5.41 4 6.86 4 8.86V20H7.5V19.62L8.65 18.46C7.16 18.29 6 17.04 6 15.5V9C6 6.37 9 6 12 6C15 6 18 6.37 18 9V15.5C18 17.04 16.84 18.29 15.35 18.46L16.5 19.62V20Z" fill="#005EE7"/>
</svg>
