<svg width="24" height="24" viewBox="0 0 24 24" fill="none" xmlns="http://www.w3.org/2000/svg">
<g id="swap_vertical_circle-gr">
<path id="icon/action/swap_vertical_circle_24px" fill-rule="evenodd" clip-rule="evenodd" d="M2 12C2 6.48 6.48 2 12 2C17.52 2 22 6.48 22 12C22 17.52 17.52 22 12 22C6.48 22 2 17.52 2 12ZM4 12C4 16.41 7.59 20 12 20C16.41 20 20 16.41 20 12C20 7.59 16.41 4 12 4C7.59 4 4 7.59 4 12ZM6.5 9L10 5.5L13.5 9H11V13H9V9H6.5ZM14 18.5L17.5 15H15V11H13V15H10.5L14 18.5Z" fill="black" fill-opacity="0.54"/>
</g>
</svg>
