<svg width="24" height="24" viewBox="0 0 24 24" fill="none" xmlns="http://www.w3.org/2000/svg">
<g id="sync_disabled-gr">
<path id="icon/notification/sync_disabled_24px" fill-rule="evenodd" clip-rule="evenodd" d="M3.31982 4.73001L4.72982 3.32001L20.6798 19.27L19.2698 20.68L16.6898 18.1C16.0098 18.52 15.2598 18.85 14.4598 19.06V16.97C14.7198 16.87 14.9698 16.76 15.2198 16.63L7.13982 8.55001C6.70982 9.38001 6.45982 10.32 6.45982 11.32C6.45982 12.98 7.13982 14.47 8.21982 15.56L10.4598 13.32V19.32H4.45982L6.81982 16.96C5.36982 15.52 4.45982 13.53 4.45982 11.32C4.45982 9.76001 4.90982 8.31001 5.67982 7.09001L3.31982 4.73001ZM20.4598 11.32C20.4598 9.11001 19.5498 7.12001 18.0998 5.68001L20.4598 3.32001H14.4598V9.32001L16.6998 7.08001C17.7798 8.17001 18.4598 9.66001 18.4598 11.32C18.4598 12.17 18.2698 12.97 17.9498 13.7L19.4498 15.2C20.0898 14.06 20.4598 12.73 20.4598 11.32ZM10.4598 5.67001V3.58001C9.79982 3.75001 9.16982 4.01001 8.57982 4.33001L10.0798 5.83001C10.1448 5.80501 10.2073 5.77751 10.2698 5.75001C10.3323 5.72251 10.3948 5.69501 10.4598 5.67001Z" fill="#666666"/>
</g>
</svg>
