<svg width="24" height="24" viewBox="0 0 24 24" fill="none" xmlns="http://www.w3.org/2000/svg">
<g id="sync_problem-gr">
<path id="icon/notification/sync_problem_24px" fill-rule="evenodd" clip-rule="evenodd" d="M21 4H15V10L17.24 7.76C18.32 8.85 19 10.34 19 12C19 14.61 17.33 16.83 15 17.65V19.74C18.45 18.85 21 15.73 21 12C21 9.79 20.09 7.8 18.64 6.36L21 4ZM5.36 17.64C3.91 16.2 3 14.21 3 12C3 8.27 5.55 5.15 9 4.26V6.35C6.67 7.17 5 9.39 5 12C5 13.66 5.68 15.15 6.76 16.24L9 14V20H3L5.36 17.64ZM13 17H11V15H13V17ZM13 13H11V7H13V13Z" fill="#666666"/>
</g>
</svg>
