<svg width="24" height="24" viewBox="0 0 24 24" fill="none" xmlns="http://www.w3.org/2000/svg">
<path fill-rule="evenodd" clip-rule="evenodd" d="M3.31982 4.72995L4.72982 3.31995L20.6798 19.2699L19.2698 20.6799L16.6898 18.0999C16.0098 18.5199 15.2598 18.8499 14.4598 19.0599V16.9699C14.7198 16.8699 14.9698 16.7599 15.2198 16.6299L7.13982 8.54995C6.70982 9.37995 6.45982 10.3199 6.45982 11.3199C6.45982 12.9799 7.13982 14.4699 8.21982 15.5599L10.4598 13.3199V19.3199H4.45982L6.81982 16.9599C5.36982 15.5199 4.45982 13.5299 4.45982 11.3199C4.45982 9.75995 4.90982 8.30995 5.67982 7.08995L3.31982 4.72995ZM20.4598 11.3199C20.4598 9.10995 19.5498 7.11995 18.0998 5.67995L20.4598 3.31995H14.4598V9.31995L16.6998 7.07995C17.7798 8.16995 18.4598 9.65995 18.4598 11.3199C18.4598 12.1699 18.2698 12.9699 17.9498 13.6999L19.4498 15.1999C20.0898 14.0599 20.4598 12.7299 20.4598 11.3199ZM10.4598 5.66995V3.57995C9.79982 3.74995 9.16982 4.00995 8.57982 4.32995L10.0798 5.82995C10.1448 5.80495 10.2073 5.77745 10.2698 5.74995C10.3323 5.72245 10.3948 5.69495 10.4598 5.66995Z" fill="white"/>
</svg>
