<svg width="24" height="24" viewBox="0 0 24 24" fill="none" xmlns="http://www.w3.org/2000/svg">
<path fill-rule="evenodd" clip-rule="evenodd" d="M8.5 1L18.5 1.01C19.6 1.01 20.5 1.9 20.5 3V20C20.5 21.1 19.6 22 18.5 22H16.42C16.31 20.59 15.99 19.25 15.47 18H18.5V5H8.5V11.01C7.86 10.74 7.19 10.53 6.5 10.37V3C6.5 1.9 7.4 1 8.5 1ZM3.5 12V14C8.47 14 12.5 18.03 12.5 23H14.5C14.5 16.92 9.58 12 3.5 12ZM3.5 18V16C7.37 16 10.5 19.13 10.5 23H8.5C8.5 20.24 6.26 18 3.5 18ZM3.5 23V20C5.16 20 6.5 21.34 6.5 23H3.5Z" fill="white"/>
</svg>
