<svg width="24" height="24" viewBox="0 0 24 24" fill="none" xmlns="http://www.w3.org/2000/svg">
<path fill-rule="evenodd" clip-rule="evenodd" d="M11 7V3H12C16.97 3 21 7.03 21 12C21 16.97 16.97 21 12 21C7.02 21 3 16.97 3 12C3 9.05 4.42 6.45 6.61 4.81V4.79L13.41 11.59L12 13L6.58 7.58C5.59 8.78 5 10.32 5 12C5 15.87 8.13 19 12 19C15.87 19 19 15.87 19 12C19 8.47 16.39 5.57 13 5.08V7H11ZM12 18C11.45 18 11 17.55 11 17C11 16.45 11.45 16 12 16C12.55 16 13 16.45 13 17C13 17.55 12.55 18 12 18ZM18 12C18 11.45 17.55 11 17 11C16.45 11 16 11.45 16 12C16 12.55 16.45 13 17 13C17.55 13 18 12.55 18 12ZM7 13C6.45 13 6 12.55 6 12C6 11.45 6.45 11 7 11C7.55 11 8 11.45 8 12C8 12.55 7.55 13 7 13Z" fill="#005EE7"/>
</svg>
