<svg width="24" height="24" viewBox="0 0 24 24" fill="none" xmlns="http://www.w3.org/2000/svg">
<path fill-rule="evenodd" clip-rule="evenodd" d="M9.625 1H15.625V3H9.625V1ZM11.625 8V8.86L13.625 10.86V8H11.625ZM19.625 13C19.625 9.13 16.495 6 12.625 6C11.505 6 10.445 6.27 9.505 6.74L8.035 5.27C9.375 4.47 10.945 4 12.625 4C14.745 4 16.695 4.74 18.245 5.98L19.665 4.56C20.175 4.98 20.645 5.46 21.075 5.97L19.655 7.39C20.885 8.93 21.625 10.88 21.625 13C21.625 14.68 21.155 16.25 20.355 17.59L18.885 16.12C19.355 15.18 19.625 14.12 19.625 13ZM3.785 3.86L2.375 5.27L5.125 8.02C4.185 9.45 3.625 11.16 3.625 13C3.625 17.97 7.645 22 12.625 22C14.465 22 16.175 21.45 17.605 20.5L20.105 23L21.515 21.59L3.785 3.86ZM5.625 13C5.625 16.87 8.755 20 12.625 20C13.915 20 15.115 19.65 16.155 19.05L6.585 9.48C5.975 10.51 5.625 11.71 5.625 13Z" fill="white"/>
</svg>
