<svg width="24" height="24" viewBox="0 0 24 24" fill="none" xmlns="http://www.w3.org/2000/svg">
<g id="touch_app-gr">
<path id="icon/action/touch_app_24px" fill-rule="evenodd" clip-rule="evenodd" d="M18.2637 12.94L15.0237 11.32C16.3137 10.32 17.1437 8.76 17.1437 7C17.1437 3.97 14.6737 1.5 11.6437 1.5C8.61373 1.5 6.14373 3.97 6.14373 7C6.14373 9.13 7.36373 10.98 9.14373 11.89V15.15L7.30373 14.76L7.20373 14.74C7.10373 14.72 7.00373 14.71 6.88373 14.71C6.35373 14.71 5.85373 14.92 5.47373 15.3L4.07373 16.72L9.16373 21.81C9.59373 22.25 10.1937 22.5 10.8137 22.5H17.1137C18.0937 22.5 18.9237 21.8 19.0837 20.83L19.8837 16.12C20.1037 14.82 19.4537 13.54 18.2637 12.94ZM17.9137 15.79L17.1137 20.5H10.8137C10.7237 20.5 10.6437 20.46 10.5737 20.4L6.89373 16.72L11.1437 17.61V7C11.1437 6.72 11.3637 6.5 11.6437 6.5C11.9237 6.5 12.1437 6.72 12.1437 7V13H13.9037L17.3637 14.73C17.7637 14.93 17.9837 15.36 17.9137 15.79ZM11.6437 3.5C9.71373 3.5 8.14373 5.07 8.14373 7C8.14373 7.95 8.52373 8.81 9.14373 9.44V7C9.14373 5.62 10.2637 4.5 11.6437 4.5C13.0237 4.5 14.1437 5.62 14.1437 7V9.44C14.7637 8.81 15.1437 7.95 15.1437 7C15.1437 5.07 13.5737 3.5 11.6437 3.5Z" fill="black" fill-opacity="0.54"/>
</g>
</svg>
