<svg width="24" height="24" viewBox="0 0 24 24" fill="none" xmlns="http://www.w3.org/2000/svg">
<g id="unsubscribe-gr">
<path id="icon/communication/unsubscribe_24px" fill-rule="evenodd" clip-rule="evenodd" d="M20.4885 5.49817V14.5382C21.2685 15.3282 21.6785 16.4782 21.4285 17.7182C21.1585 19.0582 20.0685 20.1582 18.7285 20.4282C16.6485 20.8482 14.8285 19.4182 14.5485 17.4982H4.49854C3.39854 17.4982 2.49854 16.5982 2.49854 15.4982V5.49817C2.49854 4.39817 3.39854 3.49817 4.49854 3.49817H18.4885C19.5885 3.49817 20.4885 4.39817 20.4885 5.49817ZM11.4985 8.99817L18.4885 5.49817H4.49854L11.4985 8.99817ZM14.8485 15.4982H4.49854V7.49817L11.4985 10.9982L18.4985 7.49817V13.5482C18.4628 13.5437 18.4266 13.5387 18.3899 13.5337C18.2626 13.5163 18.1306 13.4982 17.9985 13.4982C16.6085 13.4982 15.4085 14.3182 14.8485 15.4982ZM15.9985 16.4982V17.4982H19.9985V16.4982H15.9985Z" fill="#666666"/>
</g>
</svg>
