<svg width="24" height="24" viewBox="0 0 24 24" fill="none" xmlns="http://www.w3.org/2000/svg">
<path d="M15.0999 7.3999V11.3999H16.0999V13.3999H13.0999V5.3999H15.0999L12.0999 1.3999L9.0999 5.3999H11.0999V13.3999H8.0999V11.3299C8.7999 10.9599 9.2999 10.2499 9.2999 9.3999C9.2999 8.1899 8.3099 7.1999 7.0999 7.1999C5.8899 7.1999 4.8999 8.1899 4.8999 9.3999C4.8999 10.2499 5.3999 10.9599 6.0999 11.3299V13.3999C6.0999 14.5099 6.9899 15.3999 8.0999 15.3999H11.0999V18.4499C10.3899 18.8199 9.8999 19.5499 9.8999 20.3999C9.8999 21.6199 10.8899 22.5999 12.0999 22.5999C13.3099 22.5999 14.2999 21.6199 14.2999 20.3999C14.2999 19.5499 13.8099 18.8199 13.0999 18.4499V15.3999H16.0999C17.2099 15.3999 18.0999 14.5099 18.0999 13.3999V11.3999H19.0999V7.3999H15.0999Z" fill="#005EE7"/>
</svg>
