<svg width="24" height="24" viewBox="0 0 24 24" fill="none" xmlns="http://www.w3.org/2000/svg">
<g id="usb-gr">
<path id="icon/device/usb_24px" d="M15.0999 7.39999V11.4H16.0999V13.4H13.0999V5.39999H15.0999L12.0999 1.39999L9.0999 5.39999H11.0999V13.4H8.0999V11.33C8.7999 10.96 9.2999 10.25 9.2999 9.39999C9.2999 8.18999 8.3099 7.19999 7.0999 7.19999C5.8899 7.19999 4.8999 8.18999 4.8999 9.39999C4.8999 10.25 5.3999 10.96 6.0999 11.33V13.4C6.0999 14.51 6.9899 15.4 8.0999 15.4H11.0999V18.45C10.3899 18.82 9.8999 19.55 9.8999 20.4C9.8999 21.62 10.8899 22.6 12.0999 22.6C13.3099 22.6 14.2999 21.62 14.2999 20.4C14.2999 19.55 13.8099 18.82 13.0999 18.45V15.4H16.0999C17.2099 15.4 18.0999 14.51 18.0999 13.4V11.4H19.0999V7.39999H15.0999Z" fill="#666666"/>
</g>
</svg>
