<svg width="24" height="24" viewBox="0 0 24 24" fill="none" xmlns="http://www.w3.org/2000/svg">
<path fill-rule="evenodd" clip-rule="evenodd" d="M9.99018 8.57005L7.99018 6.57005L3.84018 2.43005L2.43018 3.84005L5.16018 6.57005H4.43018C3.88018 6.57005 3.43018 7.02005 3.43018 7.57005V17.5701C3.43018 18.1201 3.88018 18.5701 4.43018 18.5701H16.4302C16.6402 18.5701 16.8202 18.4901 16.9802 18.3901L20.1602 21.5701L21.5702 20.1601L12.7102 11.3001L9.99018 8.57005ZM5.43018 16.5701V8.57005H7.16018L15.1602 16.5701H5.43018ZM15.4302 11.1801V8.57005H12.8202L10.8202 6.57005H16.4302C16.9802 6.57005 17.4302 7.02005 17.4302 7.57005V11.0701L21.4302 7.07005V17.1801L15.4302 11.1801Z" fill="white"/>
</svg>
