<svg width="24" height="24" viewBox="0 0 24 24" fill="none" xmlns="http://www.w3.org/2000/svg">
<path fill-rule="evenodd" clip-rule="evenodd" d="M9.99018 8.56993L7.99018 6.56993L3.84018 2.42993L2.43018 3.83993L5.16018 6.56993H4.43018C3.88018 6.56993 3.43018 7.01993 3.43018 7.56993V17.5699C3.43018 18.1199 3.88018 18.5699 4.43018 18.5699H16.4302C16.6402 18.5699 16.8202 18.4899 16.9802 18.3899L20.1602 21.5699L21.5702 20.1599L12.7102 11.2999L9.99018 8.56993ZM5.43018 16.5699V8.56993H7.16018L15.1602 16.5699H5.43018ZM15.4302 11.1799V8.56993H12.8202L10.8202 6.56993H16.4302C16.9802 6.56993 17.4302 7.01993 17.4302 7.56993V11.0699L21.4302 7.06993V17.1799L15.4302 11.1799Z" fill="#005EE7"/>
</svg>
