<svg width="24" height="24" viewBox="0 0 24 24" fill="none" xmlns="http://www.w3.org/2000/svg">
<g id="view_comfy-gr">
<path id="icon/image/view_comfy_24px" fill-rule="evenodd" clip-rule="evenodd" d="M2.5 5V19H21.5V5H2.5ZM19.5 9H17.25V7H19.5V9ZM11 11H8.75V13H11V11ZM6.75 13H4.5V11H6.75V13ZM8.75 9H11V7H8.75V9ZM13 7H15.25V9H13V7ZM11 17V15H8.75V17H11ZM13 15H15.25V17H13V15ZM13 11V13H15.25V11H13ZM17.25 11H19.5V13H17.25V11ZM6.75 9V7H4.5V9H6.75ZM4.5 15H6.75V17H4.5V15ZM17.25 15V17H19.5V15H17.25Z" fill="#666666"/>
</g>
</svg>
