<svg width="24" height="24" viewBox="0 0 24 24" fill="none" xmlns="http://www.w3.org/2000/svg">
<g id="volume_off-gr">
<path id="icon/av/volume_off_24px" fill-rule="evenodd" clip-rule="evenodd" d="M4.34018 2.935L2.93018 4.345L7.29018 8.705L7.00018 9.005H3.00018V15.005H7.00018L12.0002 20.005V13.415L16.1802 17.595C15.5302 18.085 14.8002 18.475 14.0002 18.705V20.765C15.3402 20.465 16.5702 19.845 17.6102 19.015L19.6602 21.065L21.0702 19.655L4.34018 2.935ZM10.0002 15.175L7.83018 13.005H5.00018V11.005H7.83018L8.71018 10.125L10.0002 11.415V15.175ZM18.5902 14.345C18.8502 13.615 19.0002 12.825 19.0002 12.005C19.0002 8.835 16.8902 6.155 14.0002 5.295V3.235C18.0102 4.145 21.0002 7.725 21.0002 12.005C21.0002 13.395 20.6802 14.705 20.1202 15.875L18.5902 14.345ZM12.0002 4.005L10.1202 5.885L12.0002 7.765V4.005ZM14.0002 7.975C15.4802 8.715 16.5002 10.235 16.5002 12.005C16.5002 12.085 16.4902 12.165 16.4802 12.245L14.0002 9.765V7.975Z" fill="#666666"/>
</g>
</svg>
