<svg width="24" height="24" viewBox="0 0 24 24" fill="none" xmlns="http://www.w3.org/2000/svg">
<path fill-rule="evenodd" clip-rule="evenodd" d="M19.95 4.46003C19.2 4.08003 18.37 3.66003 17 3.66003C15.63 3.66003 14.8 4.08003 14.05 4.46003L13.9703 4.49933C13.3558 4.80261 12.8342 5.06003 12 5.06003C11.1 5.06003 10.6 4.81003 9.95 4.46003L9.87173 4.42136C9.14248 4.06074 8.33216 3.66003 7 3.66003C5.62883 3.66003 4.81051 4.07468 4.0644 4.45274L4.05 4.46003L4.0245 4.47298C3.3863 4.79707 2.86846 5.06003 2 5.06003V6.99003C3.3291 6.99003 4.17356 6.57325 4.91509 6.20726L4.95 6.19003L4.9755 6.17709C5.6137 5.853 6.13154 5.59003 7 5.59003C7.88 5.59003 8.4 5.84003 9.05 6.19003L9.0644 6.19733C9.81051 6.57539 10.6288 6.99003 12 6.99003C13.3322 6.99003 14.1425 6.58933 14.8717 6.22871L14.95 6.19003L15.0297 6.15074C15.6442 5.84746 16.1658 5.59003 17 5.59003C17.9 5.59003 18.4 5.84003 19.05 6.19003C19.8 6.57003 20.63 6.99003 22 6.99003V5.04003C21.1 5.04003 20.6 4.79003 19.95 4.46003ZM14.0849 13.3228C14.8264 12.9568 15.6709 12.54 17 12.54C18.35 12.54 19.2 12.96 19.95 13.34C20.6 13.69 21.1 13.94 22 13.94V15.89C20.63 15.89 19.8 15.47 19.05 15.09C18.4 14.74 17.9 14.49 17 14.49C16.1 14.49 15.6 14.74 14.95 15.09L14.8717 15.1287C14.1425 15.4893 13.3322 15.89 12 15.89C10.6288 15.89 9.81051 15.4754 9.0644 15.0973L9.05 15.09C8.4 14.74 7.9 14.49 7 14.49C6.1 14.49 5.6 14.74 4.95 15.09L4.91509 15.1073C4.17356 15.4732 3.3291 15.89 2 15.89V13.94C2.83575 13.94 3.3468 13.6875 3.95287 13.388L4.05 13.34L4.12827 13.3014C4.85752 12.9407 5.66784 12.54 7 12.54C8.37117 12.54 9.18949 12.9547 9.9356 13.3327L9.95 13.34C10.6 13.69 11.1 13.94 12 13.94C12.8342 13.94 13.3558 13.6826 13.9703 13.3793L14.05 13.34L14.0849 13.3228ZM14.05 17.79C14.8 17.41 15.65 16.99 17 16.99C18.35 16.99 19.2 17.41 19.95 17.79C20.6 18.14 21.1 18.39 22 18.39V20.34C20.63 20.34 19.8 19.92 19.05 19.54C18.4 19.19 17.9 18.94 17 18.94C16.1318 18.94 15.6022 19.2089 14.9541 19.538L14.95 19.54L14.9356 19.5473C14.1895 19.9254 13.3712 20.34 12 20.34C10.6288 20.34 9.81051 19.9254 9.0644 19.5473L9.05 19.54C8.4 19.19 7.88 18.94 7 18.94C6.13154 18.94 5.6137 19.203 4.9755 19.5271L4.95 19.54C4.2 19.92 3.35 20.34 2 20.34V18.39C2.86846 18.39 3.3863 18.1271 4.0245 17.803L4.05 17.79L4.0644 17.7827C4.81051 17.4047 5.62883 16.99 7 16.99C8.37117 16.99 9.18949 17.4047 9.9356 17.7827L9.95 17.79C10.6 18.14 11.1 18.39 12 18.39C12.8682 18.39 13.3978 18.1212 14.0459 17.7921L14.05 17.79ZM14.0849 8.87281C14.8264 8.50682 15.6709 8.09003 17 8.09003C18.35 8.09003 19.2 8.51003 19.95 8.89003C20.6 9.24003 21.1 9.49003 22 9.49003V11.44C20.63 11.44 19.8 11.02 19.05 10.64C18.4 10.29 17.9 10.04 17 10.04C16.1658 10.04 15.6442 10.2975 15.0297 10.6007C15.0033 10.6138 14.9768 10.6269 14.95 10.64C14.924 10.6529 14.8979 10.6658 14.8717 10.6787C14.1425 11.0393 13.3322 11.44 12 11.44C10.6288 11.44 9.81051 11.0254 9.0644 10.6473L9.05 10.64C8.4 10.29 7.87 10.04 7 10.04C6.16581 10.04 5.64421 10.2975 5.02969 10.6007C5.00331 10.6138 4.97675 10.6269 4.95 10.64C4.93839 10.6458 4.92675 10.6515 4.91509 10.6573C4.17356 11.0232 3.3291 11.44 2 11.44V9.49003C2.9 9.49003 3.4 9.24003 4.05 8.89003C4.076 8.87721 4.10208 8.86431 4.12826 8.85136C4.85752 8.49074 5.66783 8.09003 7 8.09003C8.37117 8.09003 9.18949 8.50468 9.9356 8.88274L9.95 8.89003C10.6 9.24003 11.1 9.49003 12 9.49003C12.9 9.49003 13.4 9.24003 14.05 8.89003L14.0849 8.87281Z" fill="white"/>
</svg>
