<svg width="24" height="24" viewBox="0 0 24 24" fill="none" xmlns="http://www.w3.org/2000/svg">
<g id="wb_auto-gr">
<path id="icon/image/wb_auto_24px" fill-rule="evenodd" clip-rule="evenodd" d="M22.1001 7L20.9001 13.29L19.4001 7H17.8001L16.3101 13.29L15.1001 7H14.3401L14.3301 7.01C12.8601 5.18 10.6301 4 8.1001 4C3.6801 4 0.100098 7.58 0.100098 12C0.100098 16.42 3.6801 20 8.1001 20C11.0601 20 13.6501 18.39 15.0301 16C15.0451 15.97 15.0576 15.94 15.0701 15.91C15.0826 15.88 15.0951 15.85 15.1101 15.82C15.1351 15.78 15.1576 15.7375 15.1801 15.695L15.1801 15.695L15.1801 15.695C15.2026 15.6525 15.2251 15.61 15.2501 15.57L15.3501 16H17.1001L18.6001 9.9L20.1001 16H21.8501L23.9001 7H22.1001ZM3.9001 16L7.1001 7H9.1001L12.3001 16H10.4001L9.7001 14H6.5001L5.8001 16H3.9001ZM8.1001 9L6.9501 12.65H9.2501L8.1001 9ZM8.1001 18C10.4501 18 12.4801 16.64 13.4701 14.67C13.8701 13.86 14.1001 12.96 14.1001 12C14.1001 8.69 11.4101 6 8.1001 6C4.7901 6 2.1001 8.69 2.1001 12C2.1001 15.31 4.7901 18 8.1001 18Z" fill="#666666"/>
</g>
</svg>
