<svg width="24" height="24" viewBox="0 0 24 24" fill="none" xmlns="http://www.w3.org/2000/svg">
<path fill-rule="evenodd" clip-rule="evenodd" d="M10.9949 1H12.9949V4H10.9949V1ZM18.9949 15H4.99492V9H18.9949V15ZM16.9949 11H6.99492V13H16.9949V11ZM19.0349 3.6L20.4549 5.01L18.6549 6.8L17.2449 5.39L19.0349 3.6ZM10.9949 20H12.9949V23H10.9949V20ZM19.0249 20.51L17.2349 18.71L18.6449 17.3L20.4449 19.09L19.0249 20.51ZM4.95412 3.5949L6.74312 5.3839L5.33602 6.7909L3.54692 5.002L4.95412 3.5949ZM4.95492 20.5L3.54492 19.08L5.33492 17.29L6.74492 18.7L4.95492 20.5Z" fill="white"/>
</svg>
