<svg width="24" height="24" viewBox="0 0 24 24" fill="none" xmlns="http://www.w3.org/2000/svg">
<g id="wb_sunny-gr">
<path id="icon/image/wb_sunny_24px" fill-rule="evenodd" clip-rule="evenodd" d="M11 1.04999H13V3.99999H11V1.04999ZM4.96 3.54999L6.76 5.33999L5.34 6.74999L3.55 4.95999L4.96 3.54999ZM4 11H1V13H4V11ZM20.4476 4.95199L19.0404 3.54499L17.2515 5.33389L18.6586 6.74099L20.4476 4.95199ZM17.24 18.66L19.03 20.46L20.44 19.05L18.64 17.26L17.24 18.66ZM23 11H20V13H23V11ZM12 5.99999C8.69 5.99999 6 8.68999 6 12C6 15.31 8.69 18 12 18C15.31 18 18 15.31 18 12C18 8.68999 15.31 5.99999 12 5.99999ZM8 12C8 14.21 9.79 16 12 16C14.21 16 16 14.21 16 12C16 9.78999 14.21 7.99999 12 7.99999C9.79 7.99999 8 9.78999 8 12ZM13 20V22.95H11V20H13ZM4.96 20.45L3.55 19.04L5.34 17.24L6.75 18.65L4.96 20.45Z" fill="#666666"/>
</g>
</svg>
