<svg width="24" height="24" viewBox="0 0 24 24" fill="none" xmlns="http://www.w3.org/2000/svg">
<g id="work_off-gr">
<path id="icon/action/work_off_24px" fill-rule="evenodd" clip-rule="evenodd" d="M2.82992 1.41998L1.41992 2.82998L4.16992 5.57998H3.42992C2.31992 5.57998 1.43992 6.46998 1.43992 7.57998L1.42992 18.58C1.42992 19.69 2.31992 20.58 3.42992 20.58H19.1699L21.1699 22.58L22.5799 21.17L2.82992 1.41998ZM9.42992 3.57998H13.4299V5.57998H9.82992L11.8299 7.57998H19.4299V15.18L21.4299 17.18V7.57998C21.4299 6.46998 20.5399 5.57998 19.4299 5.57998H15.4299V3.57998C15.4299 2.46998 14.5399 1.57998 13.4299 1.57998H9.42992C8.43992 1.57998 7.62992 2.27998 7.46992 3.21998L9.42992 5.17998V3.57998ZM3.42992 7.57998V18.58H17.1699L6.16992 7.57998H3.42992Z" fill="black" fill-opacity="0.54"/>
</g>
</svg>
