<svg width="24" height="24" viewBox="0 0 24 24" fill="none" xmlns="http://www.w3.org/2000/svg">
<path fill-rule="evenodd" clip-rule="evenodd" d="M2.82992 1.41992L1.41992 2.82992L4.16992 5.57992H3.42992C2.31992 5.57992 1.43992 6.46992 1.43992 7.57992L1.42992 18.5799C1.42992 19.6899 2.31992 20.5799 3.42992 20.5799H19.1699L21.1699 22.5799L22.5799 21.1699L2.82992 1.41992ZM9.42992 3.57992H13.4299V5.57992H9.82992L11.8299 7.57992H19.4299V15.1799L21.4299 17.1799V7.57992C21.4299 6.46992 20.5399 5.57992 19.4299 5.57992H15.4299V3.57992C15.4299 2.46992 14.5399 1.57992 13.4299 1.57992H9.42992C8.43992 1.57992 7.62992 2.27992 7.46992 3.21992L9.42992 5.17992V3.57992ZM3.42992 7.57992V18.5799H17.1699L6.16992 7.57992H3.42992Z" fill="white"/>
</svg>
