<svg width="100" height="100" viewBox="0 0 100 100" fill="none" xmlns="http://www.w3.org/2000/svg">
<rect x="57.8457" y="20" width="26.9286" height="31.0714" rx="2" transform="rotate(34.6422 57.8457 20)" fill="url(#paint0_linear_36_1112)"/>
<rect x="62.3989" y="23.1455" width="3.26802" height="31.0714" transform="rotate(34.6422 62.3989 23.1455)" fill="#00C2CE"/>
<path d="M27.7543 32.4287C26.1062 32.4287 24.5256 33.0834 23.3602 34.2488C22.1948 35.4142 21.54 36.9949 21.54 38.643V68.6787C21.54 71.1509 22.5221 73.5218 24.2702 75.2699C26.0183 77.018 28.3893 78.0001 30.8615 78.0001H66.0757C68.5479 78.0001 70.9189 77.018 72.667 75.2699C74.4151 73.5218 75.3972 71.1509 75.3972 68.6787V50.0358C75.3972 47.5636 74.4151 45.1927 72.667 43.4446C70.9189 41.6965 68.5479 40.7144 66.0757 40.7144H27.7543C27.2049 40.7144 26.6781 40.4962 26.2896 40.1077C25.9011 39.7192 25.6829 39.1924 25.6829 38.643C25.6829 38.0936 25.9011 37.5667 26.2896 37.1783C26.6781 36.7898 27.2049 36.5716 27.7543 36.5716H46.4134L49.2697 32.4287H27.7543ZM58.8257 57.2858H65.04C65.5894 57.2858 66.1163 57.5041 66.5047 57.8925C66.8932 58.281 67.1114 58.8079 67.1114 59.3573C67.1114 59.9066 66.8932 60.4335 66.5047 60.822C66.1163 61.2105 65.5894 61.4287 65.04 61.4287H58.8257C58.2764 61.4287 57.7495 61.2105 57.361 60.822C56.9725 60.4335 56.7543 59.9066 56.7543 59.3573C56.7543 58.8079 56.9725 58.281 57.361 57.8925C57.7495 57.5041 58.2764 57.2858 58.8257 57.2858Z" fill="url(#paint1_linear_36_1112)"/>
<rect x="56.5322" y="56.8418" width="10.875" height="4.95663" rx="2.47831" fill="#D7E3F9"/>
<defs>
<linearGradient id="paint0_linear_36_1112" x1="65.7445" y1="44.2837" x2="77.046" y2="15.546" gradientUnits="userSpaceOnUse">
<stop stop-color="#F3F7FF"/>
<stop offset="1" stop-color="#C6D7F5"/>
</linearGradient>
<linearGradient id="paint1_linear_36_1112" x1="48.4686" y1="32.4287" x2="48.4686" y2="78.0001" gradientUnits="userSpaceOnUse">
<stop stop-color="#1F70EC"/>
<stop offset="1" stop-color="#91B1FE"/>
</linearGradient>
</defs>
</svg>
