<svg width="100" height="100" viewBox="0 0 100 100" fill="none" xmlns="http://www.w3.org/2000/svg">
<rect x="28" y="23" width="44" height="57" rx="2" fill="url(#paint0_linear_36_1110)"/>
<rect x="34.9233" y="20" width="3.46154" height="8.07692" rx="1.73077" fill="#005EE7"/>
<rect x="44.1538" y="20" width="3.46154" height="8.07692" rx="1.73077" fill="#005EE7"/>
<rect x="53.3848" y="20" width="3.46154" height="8.07692" rx="1.73077" fill="#005EE7"/>
<rect x="62.6152" y="20" width="3.46154" height="8.07692" rx="1.73077" fill="#005EE7"/>
<path d="M48.4693 57.0844L55.7905 49.7632L54.3366 48.3094L48.4693 54.1767L45.5097 51.2171L44.0559 52.6709L48.4693 57.0844ZM49.9232 62.6921C48.4867 62.6921 47.1367 62.4193 45.8732 61.8738C44.6097 61.3282 43.5107 60.5885 42.5761 59.6546C41.6415 58.72 40.9017 57.6209 40.3569 56.3575C39.812 55.094 39.5393 53.744 39.5386 52.3075C39.5386 50.8709 39.8113 49.5209 40.3569 48.2575C40.9024 46.994 41.6422 45.895 42.5761 44.9604C43.5107 44.0257 44.6097 43.286 45.8732 42.7412C47.1367 42.1963 48.4867 41.9235 49.9232 41.9229C51.3597 41.9229 52.7097 42.1956 53.9732 42.7412C55.2366 43.2867 56.3357 44.0264 57.2703 44.9604C58.2049 45.895 58.945 46.994 59.4905 48.2575C60.0361 49.5209 60.3085 50.8709 60.3078 52.3075C60.3078 53.744 60.035 55.094 59.4895 56.3575C58.944 57.6209 58.2042 58.72 57.2703 59.6546C56.3357 60.5892 55.2366 61.3293 53.9732 61.8748C52.7097 62.4203 51.3597 62.6928 49.9232 62.6921Z" fill="#00C2CE"/>
<defs>
<linearGradient id="paint0_linear_36_1110" x1="50" y1="23" x2="50" y2="134.625" gradientUnits="userSpaceOnUse">
<stop stop-color="#F3F7FF"/>
<stop offset="1" stop-color="#C6D7F5"/>
</linearGradient>
</defs>
</svg>
