<svg width="28" height="28" viewBox="0 0 28 28" fill="none" xmlns="http://www.w3.org/2000/svg">
<rect width="28" height="28" rx="14" fill="#73A56F"/>
<g clip-path="url(#clip0_96_17265)">
<path d="M19.8335 15.6668V9.00016C19.8335 8.0835 19.0835 7.3335 18.1668 7.3335H6.50016C5.5835 7.3335 4.8335 8.0835 4.8335 9.00016V15.6668C4.8335 16.5835 5.5835 17.3335 6.50016 17.3335H18.1668C19.0835 17.3335 19.8335 16.5835 19.8335 15.6668ZM18.1668 15.6668H6.50016V9.00016H18.1668V15.6668ZM12.3335 9.8335C10.9502 9.8335 9.8335 10.9502 9.8335 12.3335C9.8335 13.7168 10.9502 14.8335 12.3335 14.8335C13.7168 14.8335 14.8335 13.7168 14.8335 12.3335C14.8335 10.9502 13.7168 9.8335 12.3335 9.8335ZM23.1668 9.8335V19.0002C23.1668 19.9168 22.4168 20.6668 21.5002 20.6668H7.3335C7.3335 19.8335 7.3335 19.9168 7.3335 19.0002H21.5002V9.8335C22.4168 9.8335 22.3335 9.8335 23.1668 9.8335Z" fill="white"/>
</g>
<defs>
<clipPath id="clip0_96_17265">
<rect width="20" height="20" fill="white" transform="translate(4 4)"/>
</clipPath>
</defs>
</svg>
