<svg width="28" height="28" viewBox="0 0 28 28" fill="none" xmlns="http://www.w3.org/2000/svg">
<rect width="28" height="28" rx="14" fill="#D54545"/>
<g clip-path="url(#clip0_96_17263)">
<path d="M15.6668 8.16667V19.8333H12.3335V8.16667H15.6668ZM20.6668 6.5H19.0002V8.16667H17.3335V6.5H10.6668V8.16667H9.00016V6.5H7.3335V21.5H9.00016V19.8333H10.6668V21.5H17.3335V19.8333H19.0002V21.5H20.6668V6.5ZM17.3335 11.5V9.83333H19.0002V11.5H17.3335ZM9.00016 11.5V9.83333H10.6668V11.5H9.00016ZM17.3335 14.8333V13.1667H19.0002V14.8333H17.3335ZM9.00016 14.8333V13.1667H10.6668V14.8333H9.00016ZM17.3335 18.1667V16.5H19.0002V18.1667H17.3335ZM9.00016 18.1667V16.5H10.6668V18.1667H9.00016Z" fill="white"/>
</g>
<defs>
<clipPath id="clip0_96_17263">
<rect width="20" height="20" fill="white" transform="translate(4 4)"/>
</clipPath>
</defs>
</svg>
