<svg width="28" height="28" viewBox="0 0 28 28" fill="none" xmlns="http://www.w3.org/2000/svg">
<rect width="28" height="28" rx="14" fill="#25A4C0"/>
<g clip-path="url(#clip0_96_17262)">
<path d="M13.9998 22.3332C9.40817 22.3332 5.6665 18.5915 5.6665 13.9998C5.6665 9.40817 9.40817 5.6665 13.9998 5.6665C18.5915 5.6665 22.3332 9.03317 22.3332 13.1665C22.3332 15.9248 20.0915 18.1665 17.3332 18.1665H15.8582C15.6248 18.1665 15.4415 18.3498 15.4415 18.5832C15.4415 18.6832 15.4832 18.7748 15.5498 18.8582C15.8915 19.2498 16.0832 19.7415 16.0832 20.2498C16.0832 21.3998 15.1498 22.3332 13.9998 22.3332ZM13.9998 7.33317C10.3248 7.33317 7.33317 10.3248 7.33317 13.9998C7.33317 17.6748 10.3248 20.6665 13.9998 20.6665C14.2332 20.6665 14.4165 20.4832 14.4165 20.2498C14.4165 20.1165 14.3498 20.0165 14.2998 19.9582C13.9582 19.5748 13.7748 19.0832 13.7748 18.5832C13.7748 17.4332 14.7082 16.4998 15.8582 16.4998H17.3332C19.1748 16.4998 20.6665 15.0082 20.6665 13.1665C20.6665 9.94984 17.6748 7.33317 13.9998 7.33317Z" fill="white"/>
<path d="M9.4165 14.8335C10.1069 14.8335 10.6665 14.2739 10.6665 13.5835C10.6665 12.8931 10.1069 12.3335 9.4165 12.3335C8.72615 12.3335 8.1665 12.8931 8.1665 13.5835C8.1665 14.2739 8.72615 14.8335 9.4165 14.8335Z" fill="white"/>
<path d="M11.9165 11.5C12.6069 11.5 13.1665 10.9404 13.1665 10.25C13.1665 9.55964 12.6069 9 11.9165 9C11.2261 9 10.6665 9.55964 10.6665 10.25C10.6665 10.9404 11.2261 11.5 11.9165 11.5Z" fill="white"/>
<path d="M16.0835 11.5C16.7739 11.5 17.3335 10.9404 17.3335 10.25C17.3335 9.55964 16.7739 9 16.0835 9C15.3931 9 14.8335 9.55964 14.8335 10.25C14.8335 10.9404 15.3931 11.5 16.0835 11.5Z" fill="white"/>
<path d="M18.5835 14.8335C19.2739 14.8335 19.8335 14.2739 19.8335 13.5835C19.8335 12.8931 19.2739 12.3335 18.5835 12.3335C17.8931 12.3335 17.3335 12.8931 17.3335 13.5835C17.3335 14.2739 17.8931 14.8335 18.5835 14.8335Z" fill="white"/>
</g>
<defs>
<clipPath id="clip0_96_17262">
<rect width="20" height="20" fill="white" transform="translate(4 4)"/>
</clipPath>
</defs>
</svg>
