<svg width="100" height="100" viewBox="0 0 100 100" fill="none" xmlns="http://www.w3.org/2000/svg">
<path d="M65 44V34.0806C65 33.2421 64.0301 32.7759 63.3753 33.2998L50 44V34.0806C50 33.2421 49.0301 32.7759 48.3753 33.2998L35 44V28C35 26.8954 34.1046 26 33 26H22C20.8954 26 20 26.8954 20 28V72C20 73.1046 20.8954 74 22 74H78C79.1046 74 80 73.1046 80 72V34.0806C80 33.2421 79.0301 32.7759 78.3753 33.2998L65 44Z" fill="url(#paint0_linear_36_1113)"/>
<rect x="35" y="56.3159" width="6.25" height="8.8421" rx="1" fill="#D7E3F9"/>
<rect x="50" y="56.3159" width="6.25" height="8.8421" rx="1" fill="#D7E3F9"/>
<rect x="65" y="56.3159" width="6.25" height="8.8421" rx="1" fill="#D7E3F9"/>
<defs>
<linearGradient id="paint0_linear_36_1113" x1="50" y1="26" x2="50" y2="74" gradientUnits="userSpaceOnUse">
<stop stop-color="#005EE7"/>
<stop offset="1" stop-color="#87ABFC"/>
</linearGradient>
</defs>
</svg>
