<svg width="100" height="100" viewBox="0 0 100 100" fill="none" xmlns="http://www.w3.org/2000/svg">
<circle cx="41.8604" cy="31.4722" r="9.4722" fill="#005EE7"/>
<path fill-rule="evenodd" clip-rule="evenodd" d="M64.0471 25.1577C65.6507 25.1577 66.9507 26.4577 66.9507 28.0613L68.3992 36.0528C71.3029 38.0773 73.6276 40.8235 75.1451 44.0169H75.0133C76.5523 44.0169 78.0282 43.6468 79.1165 44.735C80.0622 45.6808 79.7494 47.2992 79.7494 48.8382V55.153C79.7494 56.692 79.1165 59.2562 78.4835 59.8891C77.3953 60.9774 76.5523 61.4252 75.0133 61.4252H75.1435C74.1766 63.4618 72.8762 65.324 71.2977 66.9363V71.5801C71.2977 73.5039 70.5335 75.3488 69.1732 76.7091C67.8129 78.0694 65.968 78.8336 64.0442 78.8336C62.1205 78.8336 60.2755 78.0694 58.9152 76.7091C57.902 75.6959 57.2195 74.4137 56.9372 73.0303C56.8883 73.0307 56.8395 73.0308 56.7907 73.0308M56.7907 73.0308H45.1862C45.1373 73.0308 45.0875 73.0307 45.0387 73.0303C44.7564 74.4137 44.0739 75.6959 43.0606 76.7091C41.7004 78.0694 39.8554 78.8336 37.9316 78.8336C36.0079 78.8336 34.1629 78.0694 32.8027 76.7091C31.4424 75.3488 30.6782 73.5039 30.6782 71.5801V66.9378C28.123 64.331 26.3114 61.0769 25.4461 57.5137C24.4754 53.516 24.7415 49.3177 26.2093 45.4746C27.6771 41.6315 30.2774 38.3247 33.666 35.992C37.0545 33.6594 41.0714 32.4107 45.1851 32.4113H51.5602L62.4364 25.6454C62.9126 25.3279 63.4729 25.1577 64.0471 25.1577" fill="url(#paint0_linear_36_1114)"/>
<rect x="60.8052" y="44.1021" width="6.3148" height="6.3148" rx="3.1574" fill="white"/>
<path fill-rule="evenodd" clip-rule="evenodd" d="M21.3373 45.9526C22.0588 45.9526 22.6438 46.5376 22.6438 47.2591V50.9609C22.6438 51.6825 23.2287 52.2674 23.9503 52.2674H26.0734C26.7949 52.2674 27.3799 52.8524 27.3799 53.574C27.3799 54.2955 26.7949 54.8805 26.0734 54.8805H23.9503C21.7856 54.8805 20.0308 53.1256 20.0308 50.9609V47.2591C20.0308 46.5376 20.6157 45.9526 21.3373 45.9526Z" fill="#01C2CE"/>
<defs>
<linearGradient id="paint0_linear_36_1114" x1="25.2024" y1="52.4856" x2="80.0758" y2="52.4856" gradientUnits="userSpaceOnUse">
<stop stop-color="#00C2CE"/>
<stop offset="1" stop-color="#50D9EC"/>
</linearGradient>
</defs>
</svg>
