<svg width="100" height="100" viewBox="0 0 100 100" fill="none" xmlns="http://www.w3.org/2000/svg">
<path d="M50 25L28 46.892V77H72V46.892L50 25Z" fill="url(#paint0_linear_102_13304)"/>
<path d="M73.92 76H26.08C24.9318 76 24 76.8953 24 78C24 79.1047 24.9318 80 26.08 80H73.92C75.0682 80 76 79.1047 76 78C76 76.8953 75.0682 76 73.92 76Z" fill="url(#paint1_linear_102_13304)"/>
<path d="M49.1956 48C48.7615 48.0009 48.3368 47.8799 47.9756 47.6525C47.6144 47.4251 47.3329 47.1014 47.1667 46.7225C47.0006 46.3437 46.9574 45.9267 47.0426 45.5246C47.1278 45.1225 47.3375 44.7534 47.6452 44.4641L61.8992 31L65 33.929L50.746 47.3931C50.5429 47.5861 50.3013 47.7391 50.0352 47.8433C49.769 47.9475 49.4837 48.0007 49.1956 48Z" fill="#0661E8"/>
<path d="M73.8315 48C73.2779 48 72.7221 47.7902 72.3001 47.3686L49.9987 25.1985L27.6973 47.3686C27.4962 47.5685 27.2574 47.7271 26.9947 47.8353C26.7319 47.9435 26.4502 47.9992 26.1658 47.9992C25.8814 47.9992 25.5998 47.9435 25.337 47.8353C25.0742 47.7271 24.8355 47.5685 24.6344 47.3686C24.4332 47.1686 24.2737 46.9313 24.1649 46.6701C24.056 46.4088 24 46.1289 24 45.8461C24 45.5634 24.056 45.2834 24.1649 45.0222C24.2737 44.761 24.4332 44.5236 24.6344 44.3237L48.4672 20.6312C48.6682 20.4311 48.907 20.2723 49.1698 20.164C49.4325 20.0557 49.7142 20 49.9987 20C50.2831 20 50.5648 20.0557 50.8276 20.164C51.0904 20.2723 51.3291 20.4311 51.5301 20.6312L75.363 44.3237C75.6668 44.6245 75.8739 45.0083 75.958 45.4263C76.0421 45.8443 75.9994 46.2777 75.8353 46.6715C75.6712 47.0653 75.3932 47.4019 75.0364 47.6384C74.6797 47.8749 74.2603 48.0008 73.8315 48Z" fill="#0661E8"/>
<rect x="34" y="61.2603" width="6" height="6" rx="1" fill="url(#paint2_linear_102_13304)"/>
<rect x="34" y="52" width="6" height="6" rx="1" fill="url(#paint3_linear_102_13304)"/>
<rect x="42" y="61.2603" width="6" height="6" rx="1" fill="url(#paint4_linear_102_13304)"/>
<rect x="42" y="52" width="6" height="6" rx="1" fill="url(#paint5_linear_102_13304)"/>
<rect x="58" y="52" width="6" height="6" rx="1" fill="url(#paint6_linear_102_13304)"/>
<path d="M58 69C58 67.3431 59.3431 66 61 66C62.6569 66 64 67.3431 64 69V76H58V69Z" fill="url(#paint7_linear_102_13304)"/>
<defs>
<linearGradient id="paint0_linear_102_13304" x1="50" y1="25" x2="50" y2="77" gradientUnits="userSpaceOnUse">
<stop stop-color="#CBDAF6"/>
<stop offset="1" stop-color="#F2F6FE"/>
</linearGradient>
<linearGradient id="paint1_linear_102_13304" x1="50" y1="76" x2="50" y2="80" gradientUnits="userSpaceOnUse">
<stop stop-color="#3CD3E4"/>
<stop offset="1" stop-color="#48D7E9"/>
</linearGradient>
<linearGradient id="paint2_linear_102_13304" x1="37" y1="61.2603" x2="37" y2="67.2603" gradientUnits="userSpaceOnUse">
<stop stop-color="#0661E8"/>
<stop offset="1" stop-color="#80A7FB"/>
</linearGradient>
<linearGradient id="paint3_linear_102_13304" x1="37" y1="52" x2="37" y2="58" gradientUnits="userSpaceOnUse">
<stop stop-color="#0661E8"/>
<stop offset="1" stop-color="#80A7FB"/>
</linearGradient>
<linearGradient id="paint4_linear_102_13304" x1="45" y1="61.2603" x2="45" y2="67.2603" gradientUnits="userSpaceOnUse">
<stop stop-color="#0661E8"/>
<stop offset="1" stop-color="#80A7FB"/>
</linearGradient>
<linearGradient id="paint5_linear_102_13304" x1="45" y1="52" x2="45" y2="58" gradientUnits="userSpaceOnUse">
<stop stop-color="#0661E8"/>
<stop offset="1" stop-color="#80A7FB"/>
</linearGradient>
<linearGradient id="paint6_linear_102_13304" x1="61" y1="52" x2="61" y2="58" gradientUnits="userSpaceOnUse">
<stop stop-color="#0661E8"/>
<stop offset="1" stop-color="#80A7FB"/>
</linearGradient>
<linearGradient id="paint7_linear_102_13304" x1="61" y1="66" x2="61" y2="76" gradientUnits="userSpaceOnUse">
<stop stop-color="#0661E8"/>
<stop offset="1" stop-color="#80A7FB"/>
</linearGradient>
</defs>
</svg>
