<svg width="24" height="24" viewBox="0 0 24 24" fill="none" xmlns="http://www.w3.org/2000/svg">
<g id="3d_rotation-gr">
<path id="icon/action/3d_rotation_24px" fill-rule="evenodd" clip-rule="evenodd" d="M11.3447 0.03L12.0047 0C18.2947 0 23.4447 4.84 23.9447 10.99H22.4447C22.0947 7.23 19.7547 4.06 16.4847 2.51L15.1547 3.84L11.3447 0.03ZM8.41469 14.96C8.22469 14.96 8.04469 14.93 7.89469 14.88C7.73469 14.82 7.60469 14.75 7.49469 14.64C7.38469 14.54 7.29469 14.42 7.23469 14.27C7.17469 14.13 7.14469 13.97 7.14469 13.8H5.84469C5.84469 14.16 5.91469 14.48 6.05469 14.75C6.19469 15.02 6.38469 15.25 6.61469 15.44C6.85469 15.62 7.12469 15.76 7.43469 15.85C7.73469 15.95 8.05469 16 8.39469 16C8.76469 16 9.11469 15.95 9.42469 15.85C9.74469 15.75 10.0247 15.6 10.2547 15.41C10.4847 15.22 10.6747 14.98 10.8047 14.69C10.9347 14.4 11.0047 14.08 11.0047 13.72C11.0047 13.53 10.9847 13.34 10.9347 13.16C10.8847 12.98 10.8147 12.81 10.7047 12.65C10.6047 12.49 10.4647 12.35 10.3047 12.22C10.1347 12.09 9.93469 11.99 9.69469 11.91C9.89469 11.82 10.0647 11.71 10.2147 11.58C10.3647 11.45 10.4847 11.31 10.5847 11.16C10.6847 11.01 10.7547 10.86 10.8047 10.7C10.8547 10.54 10.8747 10.38 10.8747 10.22C10.8747 9.86 10.8147 9.54 10.6947 9.26C10.5747 8.98 10.4047 8.75 10.1847 8.57C9.98469 8.38 9.71469 8.24 9.41469 8.14C9.10469 8.05 8.76469 8 8.39469 8C8.03469 8 7.70469 8.05 7.39469 8.16C7.09469 8.27 6.82469 8.42 6.60469 8.61C6.39469 8.8 6.22469 9.02 6.09469 9.28C5.97469 9.54 5.91469 9.82 5.91469 10.13H7.21469C7.21469 9.96 7.24469 9.81 7.30469 9.68C7.36469 9.55 7.44469 9.43 7.55469 9.34C7.66469 9.25 7.78469 9.17 7.93469 9.12C8.08469 9.07 8.23469 9.04 8.41469 9.04C8.81469 9.04 9.11469 9.14 9.30469 9.35C9.49469 9.55 9.59469 9.84 9.59469 10.21C9.59469 10.39 9.56469 10.55 9.51469 10.7C9.46469 10.85 9.37469 10.97 9.26469 11.07C9.15469 11.17 9.01469 11.25 8.85469 11.31C8.69469 11.37 8.49469 11.4 8.27469 11.4H7.50469V12.43H8.27469C8.49469 12.43 8.69469 12.45 8.87469 12.5C9.05469 12.55 9.20469 12.63 9.32469 12.73C9.44469 12.84 9.54469 12.97 9.61469 13.13C9.68469 13.29 9.71469 13.48 9.71469 13.7C9.71469 14.11 9.59469 14.42 9.36469 14.63C9.13469 14.86 8.81469 14.96 8.41469 14.96ZM7.52469 21.48C4.25469 19.94 1.91469 16.76 1.55469 13H0.0546875C0.564687 19.16 5.71469 24 12.0047 24L12.6647 23.97L8.85469 20.16L7.52469 21.48ZM15.8247 8.27C16.2647 8.45 16.6447 8.71 16.9647 9.04C17.2847 9.37 17.5347 9.77 17.7047 10.24C17.8747 10.71 17.9647 11.23 17.9647 11.81V12.21C17.9647 12.79 17.8747 13.31 17.7047 13.78C17.5347 14.24 17.2847 14.64 16.9647 14.97C16.6447 15.3 16.2547 15.55 15.8047 15.73C15.3547 15.91 14.8447 16 14.2947 16H11.9947V8H14.3547C14.8947 8 15.3847 8.09 15.8247 8.27ZM16.5747 12.2C16.5747 12.62 16.5247 12.99 16.4347 13.33C16.3347 13.66 16.1947 13.95 16.0047 14.18C15.8147 14.41 15.5747 14.59 15.2947 14.71C15.0047 14.83 14.6747 14.89 14.3047 14.89H13.3947V9.12H14.3647C15.0847 9.12 15.6347 9.35 16.0047 9.81C16.3847 10.27 16.5747 10.93 16.5747 11.8V12.2Z" fill="black" fill-opacity="0.54"/>
</g>
</svg>
