<svg width="24" height="24" viewBox="0 0 24 24" fill="none" xmlns="http://www.w3.org/2000/svg">
<path fill-rule="evenodd" clip-rule="evenodd" d="M12 2C10.8954 2 10 2.89543 10 4C10 5.10457 10.8954 6 12 6C13.1046 6 14 5.10457 14 4C14 2.89543 13.1046 2 12 2ZM19 13V11C17.46 11.02 15.91 10.25 14.93 9.17L13.64 7.74C13.47 7.55 13.26 7.4 13.03 7.29C13.025 7.29 13.0225 7.2875 13.02 7.285C13.0175 7.2825 13.015 7.28 13.01 7.28H13C12.65 7.08 12.25 6.98 11.81 7.02C10.76 7.11 10 8.04 10 9.09V15C10 16.1 10.9 17 12 17H17V22H19V16.5C19 15.4 18.1 14.5 17 14.5H14V11.05C15.29 12.12 17.25 12.99 19 13ZM7 17C7 18.66 8.34 20 10 20C11.31 20 12.42 19.16 12.83 18H14.9C14.44 20.28 12.42 22 10 22C7.24 22 5 19.76 5 17C5 14.58 6.72 12.56 9 12.1V14.17C7.84 14.59 7 15.69 7 17Z" fill="white"/>
</svg>
