<svg width="24" height="24" viewBox="0 0 24 24" fill="none" xmlns="http://www.w3.org/2000/svg">
<g id="accessible_forward-gr">
<path id="icon/action/accessible_forward_24px" fill-rule="evenodd" clip-rule="evenodd" d="M17.5 2.27C16.3954 2.27 15.5 3.16543 15.5 4.27C15.5 5.37457 16.3954 6.27 17.5 6.27C18.6046 6.27 19.5 5.37457 19.5 4.27C19.5 3.16543 18.6046 2.27 17.5 2.27ZM14.5 16.73H12.5C12.5 18.38 11.15 19.73 9.5 19.73C7.85 19.73 6.5 18.38 6.5 16.73C6.5 15.08 7.85 13.73 9.5 13.73V11.73C6.74 11.73 4.5 13.97 4.5 16.73C4.5 19.49 6.74 21.73 9.5 21.73C12.26 21.73 14.5 19.49 14.5 16.73ZM15.64 13.23H17.5C18.6 13.23 19.5 14.13 19.5 15.23V20.73H17.5V15.73H12.52C11.06 15.73 10.07 14.16 10.67 12.83L12.5 8.73H10.29L9.64 10.26L7.72 9.73L8.39 7.93C8.72 7.2 9.45 6.73 10.26 6.73H15.46C16.94 6.73 17.92 8.23 17.31 9.56L15.64 13.23Z" fill="black" fill-opacity="0.54"/>
</g>
</svg>
