<svg width="24" height="24" viewBox="0 0 24 24" fill="none" xmlns="http://www.w3.org/2000/svg">
<g id="adb-gr">
<path id="icon/notification/adb_24px" fill-rule="evenodd" clip-rule="evenodd" d="M18.22 2.05L16.12 4.15C17.86 5.42 19 7.46 19 9.78V10.78H5V9.78C5 7.46 6.14 5.42 7.88 4.15L5.78 2.05L6.6 1.22L8.91 3.53C9.84 3.06 10.88 2.78 12 2.78C13.12 2.78 14.16 3.06 15.1 3.53L17.4 1.22L18.22 2.05ZM12 22.78C8.13 22.78 5 19.65 5 15.78V11.78H19V15.78C19 19.65 15.87 22.78 12 22.78ZM9 8.78C8.45 8.78 8 8.33 8 7.78C8 7.23 8.45 6.78 9 6.78C9.55 6.78 10 7.23 10 7.78C10 8.33 9.55 8.78 9 8.78ZM14 7.78C14 8.33 14.45 8.78 15 8.78C15.55 8.78 16 8.33 16 7.78C16 7.23 15.55 6.78 15 6.78C14.45 6.78 14 7.23 14 7.78Z" fill="#666666"/>
</g>
</svg>
