<svg width="24" height="24" viewBox="0 0 24 24" fill="none" xmlns="http://www.w3.org/2000/svg">
<path fill-rule="evenodd" clip-rule="evenodd" d="M7.88 3.46005L6.6 1.93005L2 5.78005L3.29 7.31005L7.88 3.46005ZM22 5.79005L17.4 1.93005L16.11 3.46005L20.71 7.32005L22 5.79005ZM3 13.0701C3 8.10005 7.03 4.07005 12 4.07005C16.97 4.07005 21 8.10005 21 13.0701C21 18.0401 16.97 22.0701 12 22.0701C7.02 22.0701 3 18.0401 3 13.0701ZM12 20.0701C8.13 20.0701 5 16.9401 5 13.0701C5 9.20005 8.13 6.07005 12 6.07005C15.87 6.07005 19 9.20005 19 13.0701C19 16.9401 15.87 20.0701 12 20.0701ZM11 12.0701V9.07005H13V12.0701H16V14.0701H13V17.0701H11V14.0701H8V12.0701H11Z" fill="white"/>
</svg>
