<svg width="24" height="24" viewBox="0 0 24 24" fill="none" xmlns="http://www.w3.org/2000/svg">
<path fill-rule="evenodd" clip-rule="evenodd" d="M13.9199 9.5H11.9199V6.5H8.91992V4.5H11.9199V1.5H13.9199V4.5H16.9199V6.5H13.9199V9.5ZM5.92992 20.5C5.92992 19.4 6.81992 18.5 7.91992 18.5C9.01992 18.5 9.91992 19.4 9.91992 20.5C9.91992 21.6 9.01992 22.5 7.91992 22.5C6.81992 22.5 5.92992 21.6 5.92992 20.5ZM17.9199 18.5C16.8199 18.5 15.9299 19.4 15.9299 20.5C15.9299 21.6 16.8199 22.5 17.9199 22.5C19.0199 22.5 19.9199 21.6 19.9199 20.5C19.9199 19.4 19.0199 18.5 17.9199 18.5ZM16.4699 13.5H9.01992L7.91992 15.5H19.9199V17.5H7.91992C6.39992 17.5 5.43992 15.87 6.16992 14.53L7.51992 12.09L3.91992 4.5H1.91992V2.5H5.18992L9.44992 11.5H16.4699L20.3399 4.5L22.0799 5.46L18.2199 12.47C17.8799 13.09 17.2199 13.5 16.4699 13.5Z" fill="#005EE7"/>
</svg>
