<svg width="24" height="24" viewBox="0 0 24 24" fill="none" xmlns="http://www.w3.org/2000/svg">
<path fill-rule="evenodd" clip-rule="evenodd" d="M7.88 3.45993L6.6 1.92993L2 5.77993L3.29 7.30993L7.88 3.45993ZM22 5.78993L17.4 1.92993L16.11 3.45993L20.71 7.31993L22 5.78993ZM3 13.0699C3 8.09993 7.03 4.06993 12 4.06993C16.97 4.06993 21 8.09993 21 13.0699C21 18.0399 16.97 22.0699 12 22.0699C7.02 22.0699 3 18.0399 3 13.0699ZM12 20.0699C8.13 20.0699 5 16.9399 5 13.0699C5 9.19993 8.13 6.06993 12 6.06993C15.87 6.06993 19 9.19993 19 13.0699C19 16.9399 15.87 20.0699 12 20.0699ZM11 12.0699V9.06993H13V12.0699H16V14.0699H13V17.0699H11V14.0699H8V12.0699H11Z" fill="#005EE7"/>
</svg>
