<svg width="24" height="24" viewBox="0 0 24 24" fill="none" xmlns="http://www.w3.org/2000/svg">
<g id="airline_seat_recline_normal-gr">
<path id="icon/notification/airline_seat_recline_normal_24px" fill-rule="evenodd" clip-rule="evenodd" d="M7.59 5.6625C6.81 4.8825 6.81 3.6125 7.59 2.8325C8.37 2.0525 9.64 2.0525 10.42 2.8325C11.2 3.6125 11.2 4.8825 10.42 5.6625C9.63 6.4525 8.37 6.4525 7.59 5.6625ZM6 16.2525V7.2525H4V16.2525C4 19.0125 6.24 21.2525 9 21.2525H15V19.2525H9C7.34 19.2525 6 17.9125 6 16.2525ZM14.93 15.2525L20 20.3225L18.57 21.7525L15.07 18.2525H10C8.34 18.2525 7 16.9125 7 15.2525V9.5025C7 8.2625 8.01 7.2525 9.25 7.2525H9.28C9.62 7.2525 9.95 7.3425 10.24 7.4825C10.5 7.6025 10.74 7.7725 10.93 7.9825L12.33 9.5325C13.39 10.7025 15.34 11.5925 17 11.5725V13.7325C15.1 13.7325 12.9 12.7225 11.5 11.5725V15.2525H14.93Z" fill="#666666"/>
</g>
</svg>
