<svg width="24" height="24" viewBox="0 0 24 24" fill="none" xmlns="http://www.w3.org/2000/svg">
<g id="airline_seat_flat_angled-gr">
<path id="icon/notification/airline_seat_flat_angled_24px" fill-rule="evenodd" clip-rule="evenodd" d="M4.70098 5.05C5.12098 4.85 5.56098 4.75 6.00098 4.75C7.12098 4.75 8.19098 5.38 8.71098 6.45C9.42098 7.94 8.79098 9.73 7.30098 10.45C6.88098 10.65 6.44098 10.75 6.00098 10.75C4.88098 10.75 3.81098 10.12 3.30098 9.05C2.58098 7.55 3.21098 5.76 4.70098 5.05ZM6.90098 7.31C6.70098 6.9 6.31098 6.75 6.00098 6.75C5.85098 6.75 5.71098 6.79 5.57098 6.85C5.24098 7.01 5.11098 7.27 5.06098 7.41C5.01098 7.56 4.94098 7.85 5.11098 8.19C5.30098 8.6 5.70098 8.75 6.00098 8.75C6.15098 8.75 6.29098 8.71 6.43098 8.65C6.92098 8.41 7.14098 7.81 6.90098 7.31ZM19.161 11.27L12.471 8.86L11.771 10.76L20.361 13.87L20.371 13.85C20.561 13.35 20.531 12.8 20.311 12.32C20.091 11.83 19.681 11.46 19.161 11.27ZM10.001 15.44L14.001 16.88V17.25H10.001V15.44ZM11.281 6.3L9.20098 11.96L21.561 16.43L22.251 14.54C23.021 12.45 21.941 10.15 19.841 9.39L11.281 6.3ZM1.50098 12.39L2.19098 10.5L21.211 17.36L20.521 19.25L16.001 17.62V19.25H8.00098V14.73L1.50098 12.39Z" fill="#666666"/>
</g>
</svg>
