<svg width="24" height="24" viewBox="0 0 24 24" fill="none" xmlns="http://www.w3.org/2000/svg">
<path fill-rule="evenodd" clip-rule="evenodd" d="M7.59 5.66256C6.81 4.88256 6.81 3.61256 7.59 2.83256C8.37 2.05256 9.64 2.05256 10.42 2.83256C11.2 3.61256 11.2 4.88256 10.42 5.66256C9.63 6.45256 8.37 6.45256 7.59 5.66256ZM6 16.2526V7.25256H4V16.2526C4 19.0126 6.24 21.2526 9 21.2526H15V19.2526H9C7.34 19.2526 6 17.9126 6 16.2526ZM14.93 15.2526L20 20.3226L18.57 21.7526L15.07 18.2526H10C8.34 18.2526 7 16.9126 7 15.2526V9.50256C7 8.26256 8.01 7.25256 9.25 7.25256H9.28C9.62 7.25256 9.95 7.34256 10.24 7.48256C10.5 7.60256 10.74 7.77256 10.93 7.98256L12.33 9.53256C13.39 10.7026 15.34 11.5926 17 11.5726V13.7326C15.1 13.7326 12.9 12.7226 11.5 11.5726V15.2526H14.93Z" fill="#005EE7"/>
</svg>
