<svg width="24" height="24" viewBox="0 0 24 24" fill="none" xmlns="http://www.w3.org/2000/svg">
<path fill-rule="evenodd" clip-rule="evenodd" d="M3.49951 3V12C3.49951 13.66 4.83951 15 6.49951 15H12.4995V17H6.49951C3.73951 17 1.49951 14.76 1.49951 12V3H3.49951ZM20.2995 16.61C21.0395 16.27 21.9495 16.52 22.3295 17.24C22.7295 18 22.3995 18.94 21.6295 19.3L17.9095 21L14.4995 14H7.49951C5.83951 14 4.49951 12.66 4.49951 11V3H10.4995V9H14.0095C14.7695 9 15.4595 9.45 15.7995 10.13L19.2095 17.11L20.2995 16.61Z" fill="white"/>
</svg>
