<svg width="24" height="24" viewBox="0 0 24 24" fill="none" xmlns="http://www.w3.org/2000/svg">
<path fill-rule="evenodd" clip-rule="evenodd" d="M6.66296 1.90515L7.94416 3.44095L3.33676 7.28455L2.05566 5.74875L6.66296 1.90515ZM17.3362 1.90575L21.9436 5.74935L20.6624 7.28515L16.055 3.44155L17.3362 1.90575ZM2.99966 13.0948C2.99966 8.12475 7.02966 4.09475 11.9997 4.09475C16.9697 4.09475 20.9997 8.12475 20.9997 13.0948C20.9997 18.0648 16.9697 22.0948 11.9997 22.0948C7.02966 22.0948 2.99966 18.0648 2.99966 13.0948ZM11.9997 20.0948C8.13966 20.0948 4.99966 16.9548 4.99966 13.0948C4.99966 9.23475 8.13966 6.09475 11.9997 6.09475C15.8597 6.09475 18.9997 9.23475 18.9997 13.0948C18.9997 16.9548 15.8597 20.0948 11.9997 20.0948ZM10.9997 12.0948V9.09475H12.9997V12.0948H15.9997V14.0948H12.9997V17.0948H10.9997V14.0948H7.99966V12.0948H10.9997Z" fill="white"/>
</svg>
