<svg width="24" height="24" viewBox="0 0 24 24" fill="none" xmlns="http://www.w3.org/2000/svg">
<path fill-rule="evenodd" clip-rule="evenodd" d="M8.16301 3.44503L7.70301 3.82503L6.28301 2.40503L6.88301 1.90503L8.16301 3.44503ZM17.5595 1.90603L22.1669 5.74963L20.8857 7.28543L16.2783 3.44183L17.5595 1.90603ZM10.263 6.38503C10.883 6.20503 11.543 6.09503 12.223 6.09503C16.083 6.09503 19.223 9.23503 19.223 13.095C19.223 13.775 19.113 14.435 18.933 15.055L20.493 16.615C20.963 15.535 21.223 14.345 21.223 13.095C21.223 8.12503 17.193 4.09503 12.223 4.09503C10.973 4.09503 9.78301 4.35503 8.69301 4.81503L10.263 6.38503ZM1.83301 3.60503L3.24301 2.19503L21.623 20.585L20.213 21.995L18.113 19.895C16.533 21.265 14.473 22.095 12.223 22.095C7.25301 22.095 3.22301 18.065 3.22301 13.095C3.22301 10.845 4.05301 8.78503 5.42301 7.20503L4.62301 6.40503L3.56301 7.28503L2.28301 5.74503L3.20301 4.97503L1.83301 3.60503ZM12.223 20.095C8.36301 20.095 5.22301 16.955 5.22301 13.095C5.22301 11.395 5.83301 9.83503 6.84301 8.62503L16.693 18.475C15.483 19.485 13.923 20.095 12.223 20.095Z" fill="#005EE7"/>
</svg>
