<svg width="24" height="24" viewBox="0 0 24 24" fill="none" xmlns="http://www.w3.org/2000/svg">
<path fill-rule="evenodd" clip-rule="evenodd" d="M7.94416 3.44107L6.66296 1.90527L2.05566 5.74887L3.33676 7.28467L7.94416 3.44107ZM17.3362 1.90587L21.9436 5.74947L20.6624 7.28527L16.055 3.44167L17.3362 1.90587ZM10.5397 14.6249L8.40966 12.4949L7.34966 13.5549L10.5297 16.7349L16.5297 10.7349L15.4697 9.67487L10.5397 14.6249ZM11.9997 4.09487C7.02966 4.09487 2.99966 8.12487 2.99966 13.0949C2.99966 18.0649 7.02966 22.0949 11.9997 22.0949C16.9697 22.0949 20.9997 18.0649 20.9997 13.0949C20.9997 8.12487 16.9697 4.09487 11.9997 4.09487ZM4.99966 13.0949C4.99966 16.9549 8.13966 20.0949 11.9997 20.0949C15.8597 20.0949 18.9997 16.9549 18.9997 13.0949C18.9997 9.23487 15.8597 6.09487 11.9997 6.09487C8.13966 6.09487 4.99966 9.23487 4.99966 13.0949Z" fill="#005EE7"/>
</svg>
