<svg width="24" height="24" viewBox="0 0 24 24" fill="none" xmlns="http://www.w3.org/2000/svg">
<g id="beach_access-gr">
<path id="icon/places/beach_access_24px" fill-rule="evenodd" clip-rule="evenodd" d="M13.1154 3.00119C10.5354 3.00119 7.95543 3.98119 5.97543 5.95119L5.96543 5.96119C2.01543 9.91119 2.01543 16.3212 5.96543 20.2712L20.2654 5.96119C18.2954 3.99119 15.7054 3.00119 13.1154 3.00119ZM20.9966 19.5704L19.5683 20.9988L13.1266 14.5571L14.5549 13.1288L20.9966 19.5704ZM4.99543 13.1212C4.99543 14.6112 5.39543 16.0312 6.13543 17.2712L7.52543 15.8912C6.34543 14.2412 5.64543 12.3612 5.45543 10.4512C5.15543 11.3012 4.99543 12.1912 4.99543 13.1212ZM8.97543 14.4312C7.62543 12.3812 7.11543 9.93119 7.59543 7.60119C8.17543 7.48119 8.75543 7.42119 9.34543 7.42119C11.1454 7.42119 12.8954 7.97119 14.4254 8.98119L8.97543 14.4312ZM13.1154 5.00119C12.1854 5.00119 11.2954 5.16119 10.4454 5.46119C12.3554 5.65119 14.2254 6.35119 15.8754 7.53119L17.2654 6.14119C16.0254 5.40119 14.6054 5.00119 13.1154 5.00119Z" fill="#666666"/>
</g>
</svg>
