<svg width="24" height="24" viewBox="0 0 24 24" fill="none" xmlns="http://www.w3.org/2000/svg">
<path fill-rule="evenodd" clip-rule="evenodd" d="M19.9999 3.99994V8.68994L23.3099 11.9999L19.9999 15.3099V19.9999H15.3099L11.9999 23.3099L8.68994 19.9999H3.99994V15.3099L0.689941 11.9999L3.99994 8.68994V3.99994H8.68994L11.9999 0.689941L15.3099 3.99994H19.9999ZM17.9999 17.9999V14.4799L20.4799 11.9999L17.9999 9.51994V5.99994H14.4799L11.9999 3.51994L9.51994 5.99994H5.99994V9.51994L3.51994 11.9999L5.99994 14.4799V17.9999H9.51994L11.9999 20.4799L14.4799 17.9999H17.9999ZM11.9999 6.49994C8.96994 6.49994 6.49994 8.96994 6.49994 11.9999C6.49994 15.0299 8.96994 17.4999 11.9999 17.4999C15.0299 17.4999 17.4999 15.0299 17.4999 11.9999C17.4999 8.96994 15.0299 6.49994 11.9999 6.49994ZM8.49994 11.9999C8.49994 13.9299 10.0699 15.4999 11.9999 15.4999C13.9299 15.4999 15.4999 13.9299 15.4999 11.9999C15.4999 10.0699 13.9299 8.49994 11.9999 8.49994C10.0699 8.49994 8.49994 10.0699 8.49994 11.9999Z" fill="#005EE7"/>
</svg>
