<svg width="24" height="24" viewBox="0 0 24 24" fill="none" xmlns="http://www.w3.org/2000/svg">
<g id="brightness_7-gr">
<path id="icon/image/brightness_7_24px" fill-rule="evenodd" clip-rule="evenodd" d="M19.9999 8.69V4H15.3099L11.9999 0.690002L8.68994 4H3.99994V8.69L0.689941 12L3.99994 15.31V20H8.68994L11.9999 23.31L15.3099 20H19.9999V15.31L23.3099 12L19.9999 8.69ZM17.9999 14.48V18H14.4799L11.9999 20.48L9.51994 18H5.99994V14.48L3.51994 12L5.99994 9.52V6H9.51994L11.9999 3.52L14.4799 6H17.9999V9.52L20.4799 12L17.9999 14.48ZM6.49994 12C6.49994 8.97 8.96994 6.5 11.9999 6.5C15.0299 6.5 17.4999 8.97 17.4999 12C17.4999 15.03 15.0299 17.5 11.9999 17.5C8.96994 17.5 6.49994 15.03 6.49994 12ZM11.9999 15.5C10.0699 15.5 8.49994 13.93 8.49994 12C8.49994 10.07 10.0699 8.5 11.9999 8.5C13.9299 8.5 15.4999 10.07 15.4999 12C15.4999 13.93 13.9299 15.5 11.9999 15.5ZM9.99994 12C9.99994 10.8954 10.8954 10 11.9999 10C13.1045 10 13.9999 10.8954 13.9999 12C13.9999 13.1046 13.1045 14 11.9999 14C10.8954 14 9.99994 13.1046 9.99994 12Z" fill="#666666"/>
</g>
</svg>
