<svg width="24" height="24" viewBox="0 0 24 24" fill="none" xmlns="http://www.w3.org/2000/svg">
<path fill-rule="evenodd" clip-rule="evenodd" d="M19.9999 8.68994V3.99994H15.3099L11.9999 0.689941L8.68994 3.99994H3.99994V8.68994L0.689941 11.9999L3.99994 15.3099V19.9999H8.68994L11.9999 23.3099L15.3099 19.9999H19.9999V15.3099L23.3099 11.9999L19.9999 8.68994ZM7.79994 15.9999L10.9999 6.99994H12.9999L16.1999 15.9999H14.2999L13.5999 13.9999H10.3999L9.69994 15.9999H7.79994ZM11.9999 8.99994L10.8499 12.6499H13.1499L11.9999 8.99994ZM17.9999 17.9999V14.4799L20.4799 11.9999L17.9999 9.51994V5.99994H14.4799L11.9999 3.51994L9.51994 5.99994H5.99994V9.51994L3.51994 11.9999L5.99994 14.4799V17.9999H9.51994L11.9999 20.4799L14.4799 17.9999H17.9999Z" fill="#005EE7"/>
</svg>
