<svg width="24" height="24" viewBox="0 0 24 24" fill="none" xmlns="http://www.w3.org/2000/svg">
<path fill-rule="evenodd" clip-rule="evenodd" d="M19.1685 3C18.9085 3 18.6585 3.1 18.4585 3.29L9.49854 12.25L12.2485 15L21.2085 6.04C21.5985 5.65 21.5985 5.02 21.2085 4.63L19.8685 3.29C19.6685 3.09 19.4185 3 19.1685 3ZM7.49854 16C8.04854 16 8.49854 16.45 8.49854 17C8.49854 18.1 7.59854 19 6.49854 19C6.32854 19 6.16854 18.98 5.99854 18.95C6.30854 18.4 6.49854 17.74 6.49854 17C6.49854 16.45 6.94853 16 7.49854 16ZM4.49854 17C4.49854 15.34 5.83854 14 7.49854 14C9.15854 14 10.4985 15.34 10.4985 17C10.4985 19.21 8.70854 21 6.49854 21C4.98854 21 3.41854 20.22 2.49854 19C3.33854 19 4.49854 18.31 4.49854 17Z" fill="white"/>
</svg>
