<svg width="24" height="24" viewBox="0 0 24 24" fill="none" xmlns="http://www.w3.org/2000/svg">
<path fill-rule="evenodd" clip-rule="evenodd" d="M13.5756 9.90961L22.6556 18.9896C23.0556 19.3896 23.0556 20.0196 22.6556 20.3996L20.3556 22.6996C19.9656 23.0896 19.3356 23.0896 18.9456 22.6996L9.83562 13.5896C7.51562 14.4596 4.80562 13.9696 2.94562 12.1096C0.645616 9.8196 0.435616 6.2296 2.29562 3.6896L6.12562 7.51961L7.54562 6.1096L3.70562 2.25961C6.25562 0.399605 9.83562 0.609605 12.1356 2.90961C14.0256 4.80961 14.5056 7.5696 13.5756 9.90961ZM10.1956 11.1296L19.6556 20.5896L20.5356 19.6996L11.0856 10.2496C11.5456 9.65961 11.8456 8.99961 11.9656 8.28961C12.2156 6.89961 11.8056 5.40961 10.7256 4.32961C9.77562 3.38961 8.52562 2.9496 7.28562 3.0196L10.3756 6.1096L6.13562 10.3496L3.04562 7.2596C2.97562 8.49961 3.41562 9.75961 4.36562 10.6996C5.40562 11.7396 6.83562 12.1496 8.19562 11.9496C8.90562 11.8496 9.58562 11.5796 10.1956 11.1296Z" fill="white"/>
</svg>
