<svg width="24" height="24" viewBox="0 0 24 24" fill="none" xmlns="http://www.w3.org/2000/svg">
<path fill-rule="evenodd" clip-rule="evenodd" d="M12 3.5C13.1 3.5 14 4.4 14 5.5H22V20.5H14C14 21.6 13.1 22.5 12 22.5H4C2.9 22.5 2 21.6 2 20.5V5.5C2 4.4 2.9 3.5 4 3.5H5V2.5C5 1.95 5.45 1.5 6 1.5H10C10.55 1.5 11 1.95 11 2.5V3.5H12ZM12 18.5H20V7.5H12V5.5H9V3.5H7V5.5H4V20.5H12V18.5ZM11 15.5V17.5H9V15.5H11ZM11 10.5V8.5H9V10.5H11ZM15 15.5V17.5H13V15.5H15ZM15 10.5V8.5H13V10.5H15ZM17 15.5H19V17.5H17V15.5ZM19 8.5H17V10.5H19V8.5Z" fill="#005EE7"/>
</svg>
