<svg width="24" height="24" viewBox="0 0 24 24" fill="none" xmlns="http://www.w3.org/2000/svg">
<path fill-rule="evenodd" clip-rule="evenodd" d="M13.5 10V2C17.92 2 21.5 5.58 21.5 10H13.5ZM15.5 4.34V8H19.16C18.55 6.29 17.2 4.94 15.5 4.34ZM6.94 11L5.99 9H2.5V11H4.72C4.72 11 6.61 15.07 6.84 15.42C5.74 16.01 5 17.17 5 18.5C5 20.43 6.57 22 8.5 22C10.26 22 11.72 20.7 11.96 19H14.04C14.28 20.7 15.74 22 17.5 22C19.43 22 21 20.43 21 18.5C21 17.46 20.54 16.53 19.82 15.89C20.87 14.54 21.5 12.84 21.5 11H6.94ZM7 18.5C7 19.33 7.67 20 8.5 20C9.33 20 10 19.33 10 18.5C10 17.67 9.33 17 8.5 17C7.67 17 7 17.67 7 18.5ZM17.5 20C16.67 20 16 19.33 16 18.5C16 17.67 16.67 17 17.5 17C18.33 17 19 17.67 19 18.5C19 19.33 18.33 20 17.5 20ZM17.95 15.03L18.24 14.66C18.64 14.15 18.95 13.59 19.16 13H7.87C7.99494 13.2537 8.10699 13.4858 8.20341 13.6857C8.36167 14.0136 8.47786 14.2544 8.54 14.36L8.98 15.03C10.16 15.2 11.16 15.96 11.66 17H14.34C14.9 15.82 16.11 15 17.5 15C17.65 15 17.81 15.01 17.95 15.03Z" fill="#005EE7"/>
</svg>
