<svg width="24" height="24" viewBox="0 0 24 24" fill="none" xmlns="http://www.w3.org/2000/svg">
<path fill-rule="evenodd" clip-rule="evenodd" d="M5 4H19C20.1 4 21 4.9 21 6V18C21 19.1 20.1 20 19 20H5C3.89 20 3 19.1 3 18V6C3 4.9 3.89 4 5 4ZM5 18H19V6H5V18ZM7 15H10C10.55 15 11 14.55 11 14V13H9.5V13.5H7.5V10.5H9.5V11H11V10C11 9.45 10.55 9 10 9H7C6.45 9 6 9.45 6 10V14C6 14.55 6.45 15 7 15ZM17 15H14C13.45 15 13 14.55 13 14V10C13 9.45 13.45 9 14 9H17C17.55 9 18 9.45 18 10V11H16.5V10.5H14.5V13.5H16.5V13H18V14C18 14.55 17.55 15 17 15Z" fill="#005EE7"/>
</svg>
