<svg width="24" height="24" viewBox="0 0 24 24" fill="none" xmlns="http://www.w3.org/2000/svg">
<path fill-rule="evenodd" clip-rule="evenodd" d="M4.41 2.92993L3 4.33993L5.77 7.10993H5.35C2.34 7.42993 0 9.97993 0 13.0699C0 16.3799 2.69 19.0699 6 19.0699H17.73L19.73 21.0699L21.14 19.6599L4.41 2.92993ZM24 14.0699C24 11.4299 21.95 9.28993 19.35 9.10993C18.67 5.65993 15.64 3.06993 12 3.06993C10.67 3.06993 9.43 3.42993 8.35 4.03993L9.84 5.52993C10.51 5.23993 11.23 5.06993 12 5.06993C15.04 5.06993 17.5 7.52993 17.5 10.5699V11.0699H19C20.66 11.0699 22 12.4099 22 14.0699C22 15.0599 21.52 15.9199 20.79 16.4699L22.2 17.8799C23.29 16.9599 24 15.6099 24 14.0699ZM2 13.0699C2 15.2799 3.79 17.0699 6 17.0699H15.73L7.73 9.06993H6C3.79 9.06993 2 10.8599 2 13.0699Z" fill="#005EE7"/>
</svg>
