<svg width="24" height="24" viewBox="0 0 24 24" fill="none" xmlns="http://www.w3.org/2000/svg">
<path fill-rule="evenodd" clip-rule="evenodd" d="M4 0H20V2H4V0ZM4 4H20C21.1 4 22 4.9 22 6V18C22 19.1 21.1 20 20 20H4C2.9 20 2 19.1 2 18V6C2 4.9 2.9 4 4 4ZM4 18H20V6H4V18ZM4 22V24H20V22H4ZM12 12C13.38 12 14.5 10.88 14.5 9.5C14.5 8.12 13.38 7 12 7C10.62 7 9.5 8.12 9.5 9.5C9.5 10.88 10.62 12 12 12ZM13 9.5C13 8.95 12.55 8.5 12 8.5C11.45 8.5 11 8.95 11 9.5C11 10.05 11.45 10.5 12 10.5C12.55 10.5 13 10.05 13 9.5ZM17 15.99C17 13.9 13.69 13 12 13C10.31 13 7 13.9 7 15.99V17H17V15.99ZM12 14.5C10.84 14.5 9.42 14.98 8.81 15.5H15.2C14.59 14.98 13.17 14.5 12 14.5Z" fill="#005EE7"/>
</svg>
