<svg width="24" height="24" viewBox="0 0 24 24" fill="none" xmlns="http://www.w3.org/2000/svg">
<path fill-rule="evenodd" clip-rule="evenodd" d="M11.5 19.6951V23.2951L12.93 22.6051C18.06 20.1351 21.5 15.1551 21.5 10.2051C21.5 4.96508 17.24 0.705078 12 0.705078C6.76 0.705078 2.5 4.96508 2.5 10.2051C2.5 15.2751 6.49 19.4351 11.5 19.6951ZM4.5 10.2051C4.5 6.06508 7.86 2.70508 12 2.70508C16.14 2.70508 19.5 6.06508 19.5 10.2051C19.5 13.9251 17.14 17.7051 13.5 20.0051V17.7051H12C7.86 17.7051 4.5 14.3451 4.5 10.2051ZM13 14.2051V16.2051H11V14.2051H13ZM12.7704 9.52675C11.9421 10.1617 11 10.8838 11 12.7051H13C13 11.6097 13.711 10.9883 14.4408 10.3506C15.21 9.6784 16 8.988 16 7.70508C16 5.49508 14.21 3.70508 12 3.70508C9.79 3.70508 8 5.49508 8 7.70508H10C10 6.60508 10.9 5.70508 12 5.70508C13.1 5.70508 14 6.60508 14 7.70508C14 8.58429 13.4202 9.02869 12.7704 9.52675Z" fill="#005EE7"/>
</svg>
