<svg width="24" height="24" viewBox="0 0 24 24" fill="none" xmlns="http://www.w3.org/2000/svg">
<g id="contact_phone-gr">
<path id="icon/communication/contact_phone_24px" fill-rule="evenodd" clip-rule="evenodd" d="M22 3H2C0.9 3 0 3.9 0 5V19C0 20.1 0.9 21 2 21H22C23.1 21 23.99 20.1 23.99 19L24 5C24 3.9 23.1 3 22 3ZM2 19V5H22V19H2ZM21 16L19.01 17.99C17.7 17.01 16.73 15.61 16.28 14C16.1 13.36 16 12.69 16 12C16 11.31 16.1 10.64 16.28 10C16.73 8.38 17.7 6.99 19.01 6.01L21 8L19.49 10H17.85C17.63 10.63 17.5 11.3 17.5 12C17.5 12.7 17.63 13.37 17.85 14H19.49L21 16ZM9 12C10.65 12 12 10.65 12 9C12 7.35 10.65 6 9 6C7.35 6 6 7.35 6 9C6 10.65 7.35 12 9 12ZM10 9C10 8.45 9.55 8 9 8C8.45 8 8 8.45 8 9C8 9.55 8.45 10 9 10C9.55 10 10 9.55 10 9ZM15 16.59C15 14.09 11.03 13.01 9 13.01C6.97 13.01 3 14.09 3 16.59V18H15V16.59ZM9 15C7.7 15 6.22 15.5 5.48 16H12.52C11.77 15.49 10.3 15 9 15Z" fill="#666666"/>
</g>
</svg>
