<svg width="24" height="24" viewBox="0 0 24 24" fill="none" xmlns="http://www.w3.org/2000/svg">
<path fill-rule="evenodd" clip-rule="evenodd" d="M5 11.975C5 15.845 8.13 18.975 12 18.975C14.21 18.975 16.17 17.955 17.45 16.355L20.05 17.885C18.23 20.365 15.3 21.975 11.99 21.975C6.47 21.975 2 17.495 2 11.975C2 6.78502 5.94 2.52502 11 2.02502V5.05502C7.61 5.54502 5 8.44502 5 11.975ZM13 5.05502V2.02502C18.05 2.52502 22 6.79502 22 11.975C22 13.425 21.68 14.805 21.12 16.045L18.52 14.515C18.82 13.725 19 12.875 19 11.975C19 8.44502 16.39 5.54502 13 5.05502Z" fill="white"/>
</svg>
