<svg width="24" height="24" viewBox="0 0 24 24" fill="none" xmlns="http://www.w3.org/2000/svg">
<path fill-rule="evenodd" clip-rule="evenodd" d="M16 1C13.61 1 11.51 2.2 10.25 4.02C9.84 4.01 9.43 4 9 4C4.58 4 1 4.5 1 8V18C1 18.88 1.39 19.67 2 20.22V22C2 22.55 2.45 23 3 23H4C4.55 23 5 22.55 5 22V21H13V22C13 22.55 13.45 23 14 23H15C15.55 23 16 22.55 16 22V20.22C16.61 19.67 17 18.88 17 18V14.92C20.39 14.43 23 11.53 23 8C23 4.13 19.87 1 16 1ZM4 16.5C4 15.6716 4.67157 15 5.5 15C6.32843 15 7 15.6716 7 16.5C7 17.3284 6.32843 18 5.5 18C4.67157 18 4 17.3284 4 16.5ZM11 16.5C11 15.6716 11.6716 15 12.5 15C13.3284 15 14 15.6716 14 16.5C14 17.3284 13.3284 18 12.5 18C11.6716 18 11 17.3284 11 16.5ZM9.29 6H9C5.31 6 3.89 6.46 3.34 6.99H9.08C9.13 6.66 9.2 6.32 9.29 6ZM3 8.99H9.08C9.24 10.1 9.65 11.12 10.26 12H3V8.99ZM14.66 18.73C14.79 18.62 15 18.37 15 18V14.92C14.06 14.79 13.19 14.47 12.41 14H3V18C3 18.37 3.21 18.62 3.34 18.73L3.63 19H14.37L14.66 18.73ZM16 13C13.24 13 11 10.76 11 8C11 5.24 13.24 3 16 3C18.76 3 21 5.24 21 8C21 10.76 18.76 13 16 13ZM15 4H16.5V8.25L19.37 9.93L18.62 11.16L15 9V4Z" fill="white"/>
</svg>
