<svg width="24" height="24" viewBox="0 0 24 24" fill="none" xmlns="http://www.w3.org/2000/svg">
<path fill-rule="evenodd" clip-rule="evenodd" d="M7 1H17C18.1 1 19 1.9 19 3V21C19 22.1 18.1 23 17 23H7C5.9 23 5 22.1 5 21V3C5 1.9 5.9 1 7 1ZM17 19V5H7V19H17ZM12 6.72C10.04 6.72 8.5 8.24 8.5 10.19H10.25C10.25 9.26 11.07 8.44 12 8.44C12.93 8.44 13.75 9.26 13.75 10.19C13.75 10.9566 13.2453 11.3528 12.6781 11.7982C11.9505 12.3695 11.12 13.0216 11.12 14.64H12.88C12.88 13.6949 13.4892 13.152 14.1201 12.5898C14.7975 11.9862 15.5 11.3602 15.5 10.19C15.5 8.23 13.96 6.72 12 6.72ZM13 18V16H11V18H13Z" fill="#005EE7"/>
</svg>
