<svg width="24" height="24" viewBox="0 0 24 24" fill="none" xmlns="http://www.w3.org/2000/svg">
<g id="dialer_sip-gr">
<path id="icon/communication/dialer_sip_24px" fill-rule="evenodd" clip-rule="evenodd" d="M16.43 14.93C17.55 15.3 18.75 15.5 20 15.5C20.55 15.5 21 15.95 21 16.5V20C21 20.55 20.55 21 20 21C10.61 21 3 13.39 3 4C3 3.45 3.45 3 4 3H7.5C8.05 3 8.5 3.45 8.5 4C8.5 5.25 8.7 6.45 9.07 7.57C9.18 7.92 9.1 8.31 8.83 8.57L6.63 10.78C8.07 13.62 10.39 15.93 13.22 17.37L15.42 15.17C15.61 14.98 15.86 14.88 16.12 14.88C16.22 14.88 16.33 14.9 16.43 14.93ZM15 5H13V4H15V3H12V6H14V7H12V8H15V5ZM16 3H17V8H16V3ZM18 8V3H21V6H19V8H18ZM20 5H19V4H20V5ZM5.03 5H6.53C6.6 5.88 6.75 6.75 6.99 7.59L5.79 8.8C5.38 7.59 5.12 6.32 5.03 5ZM18.99 18.9693C18.9933 18.9695 18.9967 18.9698 19 18.97H18.99V18.9693ZM18.99 18.9693V17.47C18.11 17.41 17.25 17.26 16.4 17.02L15.2 18.22C16.4069 18.619 17.6736 18.8787 18.99 18.9693Z" fill="#666666"/>
</g>
</svg>
