<svg width="24" height="24" viewBox="0 0 24 24" fill="none" xmlns="http://www.w3.org/2000/svg">
<path fill-rule="evenodd" clip-rule="evenodd" d="M4 6.5C4 3 7.58 2.5 12 2.5C16.42 2.5 20 3 20 6.5V16.5C20 17.38 19.61 18.17 19 18.72V20.5C19 21.05 18.55 21.5 18 21.5H17C16.45 21.5 16 21.05 16 20.5V19.5H8V20.5C8 21.05 7.55 21.5 7 21.5H6C5.45 21.5 5 21.05 5 20.5V18.72C4.39 18.17 4 17.38 4 16.5V6.5ZM12 4.5C8.31 4.5 6.89 4.96 6.34 5.49H17.66C17.11 4.96 15.69 4.5 12 4.5ZM18 7.49V10.5H6V7.49H18ZM17.37 17.5L17.66 17.23C17.79 17.12 18 16.87 18 16.5V12.5H6V16.5C6 16.87 6.21 17.12 6.34 17.23L6.63 17.5H17.37ZM8.5 13.5C7.67157 13.5 7 14.1716 7 15C7 15.8284 7.67157 16.5 8.5 16.5C9.32843 16.5 10 15.8284 10 15C10 14.1716 9.32843 13.5 8.5 13.5ZM14 15C14 14.1716 14.6716 13.5 15.5 13.5C16.3284 13.5 17 14.1716 17 15C17 15.8284 16.3284 16.5 15.5 16.5C14.6716 16.5 14 15.8284 14 15Z" fill="white"/>
</svg>
