<svg width="24" height="24" viewBox="0 0 24 24" fill="none" xmlns="http://www.w3.org/2000/svg">
<path fill-rule="evenodd" clip-rule="evenodd" d="M9.00135 1H15.0014V4H18.0014C19.1014 4 20.0014 4.9 20.0014 6V10.62L21.2814 11.04C21.5414 11.12 21.7614 11.3 21.8814 11.54C22.0014 11.78 22.0214 12.06 21.9414 12.32L20.0514 19H20.0014C18.4014 19 16.9814 18.12 16.0014 17C15.0214 18.12 13.6014 19 12.0014 19C10.4014 19 8.98135 18.12 8.00135 17C7.02135 18.12 5.60135 19 4.00135 19H3.95135L2.05135 12.32C1.96135 12.06 1.99135 11.78 2.11135 11.54C2.23135 11.3 2.45135 11.12 2.71135 11.04L4.00135 10.62V6C4.00135 4.9 4.90135 4 6.00135 4H9.00135V1ZM13.0014 3V4H11.0014V3H13.0014ZM12.0014 10.11L17.3814 11.88L19.7714 12.66L18.6514 16.63C18.1114 16.33 17.7114 15.92 17.5114 15.69L16.0014 13.96L14.4914 15.68C14.1514 16.08 13.2114 17 12.0014 17C10.7914 17 9.85135 16.08 9.51135 15.68L8.00135 13.96L6.49135 15.68C6.29135 15.91 5.89135 16.31 5.35135 16.61L4.22135 12.65L6.62135 11.86L12.0014 10.11ZM6.00135 9.97V6H18.0014V9.97L12.0014 8L6.00135 9.97ZM12.0014 20.96C13.3914 20.96 14.7814 20.53 16.0014 19.68C17.2214 20.53 18.6114 21 20.0014 21H22.0014V23H20.0014C18.6214 23 17.2614 22.66 16.0014 22.01C14.7414 22.66 13.3714 22.98 12.0014 22.98C10.6314 22.98 9.26135 22.65 8.00135 22.01C6.74135 22.65 5.38135 23 4.00135 23H2.00135V21H4.00135C5.39135 21 6.78135 20.53 8.00135 19.68C9.22135 20.53 10.6114 20.96 12.0014 20.96Z" fill="white"/>
</svg>
