<svg width="24" height="24" viewBox="0 0 24 24" fill="none" xmlns="http://www.w3.org/2000/svg">
<path fill-rule="evenodd" clip-rule="evenodd" d="M2.25521 0.844971L0.845215 2.25497L2.84521 4.25497V20.155H18.7452L21.7452 23.155L23.1552 21.745L2.25521 0.844971ZM6.84521 18.155H4.84521V16.155H6.84521V18.155ZM4.84521 14.155H6.84521V12.155H4.84521V14.155ZM4.84521 10.155V8.15497H6.84521V10.155H4.84521ZM8.84521 18.155H10.8452V16.155H8.84521V18.155ZM8.84521 14.155V12.155H10.8452V14.155H8.84521ZM12.8452 16.155V18.155H16.7452L14.7452 16.155H12.8452ZM8.84521 4.15497H10.8452V6.15497H10.3952L12.8452 8.60497V8.15497H20.8452V16.605L22.8452 18.605V6.15497H12.8452V2.15497H6.39522L8.84521 4.60497V4.15497ZM18.8452 10.155H16.8452V12.155H18.8452V10.155Z" fill="white"/>
</svg>
