<svg width="24" height="24" viewBox="0 0 24 24" fill="none" xmlns="http://www.w3.org/2000/svg">
<path fill-rule="evenodd" clip-rule="evenodd" d="M5.02539 12C5.02539 15.52 7.63539 18.43 11.0254 18.92V21.95C5.97539 21.45 2.02539 17.19 2.02539 12C2.02539 6.81005 5.97539 2.55005 11.0254 2.05005V5.08005C7.63539 5.57005 5.02539 8.48005 5.02539 12ZM13.0254 5.08005C16.0854 5.52005 18.5054 7.94005 18.9454 11H21.9754C21.5054 6.28005 17.7454 2.52005 13.0254 2.05005V5.08005ZM18.9454 13C18.5054 16.06 16.0854 18.48 13.0254 18.92V21.95C17.7454 21.48 21.5054 17.72 21.9754 13H18.9454Z" fill="#005EE7"/>
</svg>
