<svg width="24" height="24" viewBox="0 0 24 24" fill="none" xmlns="http://www.w3.org/2000/svg">
<g id="edit_location-gr">
<path id="icon/maps/edit_location_24px" fill-rule="evenodd" clip-rule="evenodd" d="M4 8.755C4 4.34501 7.59 0.755005 12 0.755005C16.41 0.755005 20 4.34501 20 8.755C20 14.325 13.04 22.095 12.74 22.425L12 23.245L11.26 22.425C10.96 22.095 4 14.325 4 8.755ZM6 8.755C6 12.295 9.82 17.615 12 20.225C13.75 18.115 18 12.585 18 8.755C18 5.445 15.31 2.755 12 2.755C8.69 2.755 6 5.445 6 8.755ZM8.51 10.805V12.245H9.95L13.87 8.315L12.44 6.885L8.51 10.805ZM13.85 5.465C14 5.315 14.24 5.315 14.39 5.465L15.29 6.365C15.44 6.515 15.44 6.755 15.29 6.905L14.59 7.605L13.15 6.165L13.85 5.465Z" fill="#666666"/>
</g>
</svg>
