<svg width="24" height="24" viewBox="0 0 24 24" fill="none" xmlns="http://www.w3.org/2000/svg">
<path fill-rule="evenodd" clip-rule="evenodd" d="M8.25 4.75C8.25 3.37 9.37 2.25 10.75 2.25C12.13 2.25 13.25 3.37 13.25 4.75H17.25C18.35 4.75 19.25 5.65 19.25 6.75V10.75C20.63 10.75 21.75 11.87 21.75 13.25C21.75 14.63 20.63 15.75 19.25 15.75V19.75C19.25 20.85 18.35 21.75 17.25 21.75H13.45V21.45C13.45 19.96 12.24 18.75 10.75 18.75C9.26 18.75 8.05 19.96 8.05 21.45V21.75H4.25C3.15 21.75 2.25 20.85 2.25 19.75V15.95H2.55C4.04 15.95 5.25 14.74 5.25 13.25C5.25 11.76 4.04 10.55 2.55 10.55H2.26V6.75C2.26 5.65 3.15 4.75 4.25 4.75H8.25ZM11.25 4.75C11.25 4.47 11.03 4.25 10.75 4.25C10.47 4.25 10.25 4.47 10.25 4.75V6.75H4.25L4.26 8.87C6.01 9.55 7.25 11.26 7.25 13.25C7.25 15.24 6 16.95 4.25 17.63V19.75H6.37C7.05 18 8.76 16.75 10.75 16.75C12.74 16.75 14.45 18 15.13 19.75H17.25V13.75H19.25C19.53 13.75 19.75 13.53 19.75 13.25C19.75 12.97 19.53 12.75 19.25 12.75H17.25V6.75H11.25V4.75Z" fill="#005EE7"/>
</svg>
