<svg width="24" height="24" viewBox="0 0 24 24" fill="none" xmlns="http://www.w3.org/2000/svg">
<path fill-rule="evenodd" clip-rule="evenodd" d="M10.9998 4.07005V2.05005C8.98981 2.25005 7.1598 3.05005 5.6798 4.26005L7.0998 5.69005C8.2098 4.83005 9.5398 4.25005 10.9998 4.07005ZM18.3198 4.26005C16.8398 3.05005 15.0098 2.25005 12.9998 2.05005V4.07005C14.4598 4.25005 15.7898 4.83005 16.8998 5.69005L18.3198 4.26005ZM21.9498 11H19.9298C19.7498 9.54005 19.1698 8.21005 18.3098 7.10005L19.7398 5.68005C20.9498 7.16005 21.7498 8.99005 21.9498 11ZM5.6898 7.10005L4.2598 5.68005C3.0498 7.16005 2.2498 8.99005 2.0498 11H4.0698C4.2498 9.54005 4.8298 8.21005 5.6898 7.10005ZM2.0498 13H4.0698C4.2498 14.46 4.8298 15.79 5.6898 16.89L4.2598 18.32C3.0498 16.84 2.2498 15.01 2.0498 13ZM14.9998 12C14.9998 10.34 13.6598 9.00005 11.9998 9.00005C10.3398 9.00005 8.9998 10.34 8.9998 12C8.9998 13.66 10.3398 15 11.9998 15C13.6598 15 14.9998 13.66 14.9998 12ZM19.7398 18.33L18.3098 16.9C19.1698 15.79 19.7498 14.46 19.9298 13.01H21.9498C21.7498 15.01 20.9498 16.85 19.7398 18.33ZM12.9998 19.93V21.95C15.0098 21.75 16.8398 20.95 18.3198 19.74L16.8898 18.31C15.7898 19.17 14.4598 19.75 12.9998 19.93ZM10.9998 21.95C8.9998 21.75 7.1598 20.95 5.6798 19.74L7.0998 18.31C8.2098 19.17 9.5398 19.75 10.9998 19.93V21.95Z" fill="#005EE7"/>
</svg>
