<svg width="24" height="24" viewBox="0 0 24 24" fill="none" xmlns="http://www.w3.org/2000/svg">
<path fill-rule="evenodd" clip-rule="evenodd" d="M18.6998 12.4001C18.4198 12.2401 18.1298 12.1101 17.8398 12.0001C18.1298 11.8901 18.4198 11.7601 18.6998 11.6001C20.6198 10.4901 21.6898 8.48006 21.6998 6.41006C20.7898 5.89006 19.7498 5.61006 18.6898 5.61006C17.6698 5.61006 16.6398 5.87006 15.6998 6.41006C15.4198 6.57006 15.1598 6.76006 14.9198 6.95006C14.9698 6.64006 14.9998 6.32006 14.9998 6.00006C14.9998 3.78006 13.7898 1.85006 11.9998 0.810059C10.2098 1.85006 8.9998 3.78006 8.9998 6.00006C8.9998 6.32006 9.0298 6.64006 9.0798 6.95006C8.83981 6.75006 8.5798 6.56006 8.2998 6.40006C7.3598 5.86006 6.3298 5.60006 5.3098 5.60006C4.2598 5.60006 3.2098 5.88006 2.2998 6.40006C2.2998 8.47006 3.3698 10.4801 5.2998 11.5901C5.5798 11.7501 5.8698 11.8801 6.1598 11.9901C5.8698 12.1001 5.5798 12.2301 5.2998 12.3901C3.3798 13.5001 2.3098 15.5101 2.2998 17.5801C3.2098 18.1001 4.2498 18.3801 5.3098 18.3801C6.3298 18.3801 7.3598 18.1201 8.2998 17.5801C8.5798 17.4201 8.83981 17.2301 9.0798 17.0401C9.0298 17.3601 8.9998 17.6801 8.9998 18.0001C8.9998 20.2201 10.2098 22.1501 11.9998 23.1901C13.7898 22.1501 14.9998 20.2201 14.9998 18.0001C14.9998 17.6801 14.9698 17.3601 14.9198 17.0501C15.1598 17.2501 15.4198 17.4301 15.6998 17.5901C16.6398 18.1301 17.6698 18.3901 18.6898 18.3901C19.7398 18.3901 20.7898 18.1101 21.6998 17.5901C21.6898 15.5201 20.6198 13.5101 18.6998 12.4001ZM16.1598 8.52006C16.3698 8.35006 16.5398 8.23006 16.6998 8.15006C17.3098 7.80006 17.9998 7.61006 18.6998 7.61006C18.9698 7.61006 19.2298 7.64006 19.4898 7.69006C19.1798 8.60006 18.5498 9.38006 17.7098 9.87006C17.5398 9.97006 17.3498 10.0501 17.1298 10.1401L15.7498 10.6601C15.5798 10.2001 15.3398 9.79006 15.0298 9.42006L16.1598 8.52006ZM12.9998 6.00006C12.9998 5.03006 12.6298 4.09006 11.9998 3.37006C11.3698 4.09006 10.9998 5.02006 10.9998 6.00006C10.9998 6.19006 11.0198 6.41006 11.0598 6.63006L11.2898 8.07006C11.5198 8.03006 11.7598 8.00006 11.9998 8.00006C12.2398 8.00006 12.4798 8.03006 12.7198 8.07006L12.9498 6.63006C12.9798 6.41006 12.9998 6.19006 12.9998 6.00006ZM4.5098 7.68006C4.7698 7.62006 5.0398 7.60006 5.3098 7.60006C5.9998 7.60006 6.6898 7.78006 7.2998 8.14006C7.4498 8.23006 7.6198 8.34006 7.7898 8.49006L8.9398 9.45006C8.6398 9.81006 8.4098 10.2101 8.2398 10.6501L6.8598 10.1301C6.6498 10.0401 6.4598 9.95006 6.2998 9.86006C5.4298 9.36006 4.8098 8.59006 4.5098 7.68006ZM7.2998 15.8401C7.4598 15.7601 7.6298 15.6401 7.8398 15.4701L8.9698 14.5701C8.6598 14.2101 8.4098 13.7901 8.2498 13.3301L6.8698 13.8501C6.6498 13.9401 6.4598 14.0201 6.2898 14.1201C5.4498 14.6101 4.8198 15.3901 4.5098 16.3001C4.7698 16.3501 5.0298 16.3801 5.2998 16.3801C5.9998 16.3801 6.6898 16.1901 7.2998 15.8401ZM11.9998 20.6301C11.3698 19.9101 10.9998 18.9701 10.9998 18.0001C10.9998 17.8001 11.0198 17.5901 11.0598 17.3501L11.2798 15.9301C11.5098 15.9701 11.7498 16.0001 11.9998 16.0001C12.2398 16.0001 12.4798 15.9701 12.7098 15.9301L12.9398 17.3701C12.9798 17.5901 12.9998 17.8101 12.9998 18.0001C12.9998 18.9801 12.6298 19.9101 11.9998 20.6301ZM16.6998 15.8501C17.3098 16.2101 17.9998 16.3901 18.6898 16.3901C18.9498 16.3901 19.2198 16.3701 19.4898 16.3001C19.1798 15.3901 18.5598 14.6101 17.7098 14.1201C17.5498 14.0301 17.3598 13.9401 17.1398 13.8601L15.7598 13.3401C15.5998 13.7901 15.3598 14.1901 15.0598 14.5501L16.2098 15.5101C16.3598 15.6301 16.5198 15.7501 16.6998 15.8501Z" fill="#005EE7"/>
</svg>
