<svg width="24" height="24" viewBox="0 0 24 24" fill="none" xmlns="http://www.w3.org/2000/svg">
<g id="filter_9_plus-gr">
<path id="icon/image/filter_9_plus_24px" fill-rule="evenodd" clip-rule="evenodd" d="M21 1H7C5.9 1 5 1.9 5 3V17C5 18.1 5.9 19 7 19H21C22.1 19 23 18.1 23 17V3C23 1.9 22.1 1 21 1ZM3 5H1V21C1 22.1 1.9 23 3 23H19V21H3V5ZM14 12V8C14 6.89 13.1 6 12 6H11C9.9 6 9 6.89 9 8V9C9 10.11 9.9 11 11 11H12V12H9V14H12C13.1 14 14 13.11 14 12ZM11 8V9H12V8H11ZM19 9H21V3H7V17H21V11H19V13H17V11H15V9H17V7H19V9Z" fill="#666666"/>
</g>
</svg>
