<svg width="24" height="24" viewBox="0 0 24 24" fill="none" xmlns="http://www.w3.org/2000/svg">
<path fill-rule="evenodd" clip-rule="evenodd" d="M13.7949 6.715C12.8849 5.815 11.6349 5.255 10.2549 5.255C7.83488 5.255 5.81488 6.975 5.35488 9.255H3.33488C3.82488 5.865 6.72488 3.255 10.2549 3.255C12.1849 3.255 13.9349 4.035 15.2049 5.305L17.2549 3.255V9.255H11.2549L13.7949 6.715ZM17.1749 11.255C17.0149 12.425 16.5549 13.495 15.8949 14.395L20.7449 19.255L19.2549 20.745L14.3949 15.895C13.2349 16.745 11.8049 17.255 10.2549 17.255C8.32488 17.255 6.57488 16.475 5.30488 15.205L3.25488 17.255V11.255H9.25488L6.71488 13.795C7.62488 14.695 8.87488 15.255 10.2549 15.255C12.6749 15.255 14.6949 13.535 15.1549 11.255H17.1749Z" fill="white"/>
</svg>
