<svg width="24" height="24" viewBox="0 0 24 24" fill="none" xmlns="http://www.w3.org/2000/svg">
<path fill-rule="evenodd" clip-rule="evenodd" d="M13.7949 6.71488C12.8849 5.81488 11.6349 5.25488 10.2549 5.25488C7.83488 5.25488 5.81488 6.97488 5.35488 9.25488H3.33488C3.82488 5.86488 6.72488 3.25488 10.2549 3.25488C12.1849 3.25488 13.9349 4.03488 15.2049 5.30488L17.2549 3.25488V9.25488H11.2549L13.7949 6.71488ZM17.1749 11.2549C17.0149 12.4249 16.5549 13.4949 15.8949 14.3949L20.7449 19.2549L19.2549 20.7449L14.3949 15.8949C13.2349 16.7449 11.8049 17.2549 10.2549 17.2549C8.32488 17.2549 6.57488 16.4749 5.30488 15.2049L3.25488 17.2549V11.2549H9.25488L6.71488 13.7949C7.62488 14.6949 8.87488 15.2549 10.2549 15.2549C12.6749 15.2549 14.6949 13.5349 15.1549 11.2549H17.1749Z" fill="#005EE7"/>
</svg>
