<svg width="24" height="24" viewBox="0 0 24 24" fill="none" xmlns="http://www.w3.org/2000/svg">
<g id="folder_shared-gr">
<path id="icon/file/folder_shared_24px" fill-rule="evenodd" clip-rule="evenodd" d="M12 6H20C21.1 6 22 6.9 22 8V18C22 19.1 21.1 20 20 20H4C2.9 20 2 19.1 2 18L2.01 6C2.01 4.9 2.9 4 4 4H10L12 6ZM4 6V18H20V8H11.17L9.17 6H4ZM15 13C16.1 13 17 12.1 17 11C17 9.9 16.1 9 15 9C13.9 9 13 9.9 13 11C13 12.1 13.9 13 15 13ZM19 16V17H11V16C11 14.67 13.67 14 15 14C16.33 14 19 14.67 19 16Z" fill="#666666"/>
</g>
</svg>
