<svg width="24" height="24" viewBox="0 0 24 24" fill="none" xmlns="http://www.w3.org/2000/svg">
<path fill-rule="evenodd" clip-rule="evenodd" d="M12 6.19503C13.53 8.19503 15.08 10.625 15.71 12.435L17.94 14.665C17.97 14.395 18 14.115 18 13.835C18 9.85503 12 3.03503 12 3.03503C12 3.03503 10.82 4.38503 9.5 6.22503L10.94 7.66503C11.28 7.15503 11.64 6.66503 12 6.19503ZM5.41 4.97503L4 6.38503L7.32 9.70503C6.55 11.165 6 12.625 6 13.835C6 17.145 8.69 19.835 12 19.835C13.52 19.835 14.9 19.265 15.95 18.335L18.58 20.965L20 19.555L5.41 4.97503ZM8 13.835C8 16.045 9.79 17.835 12 17.835C12.96 17.835 13.83 17.475 14.53 16.915L8.81 11.195C8.32 12.215 8 13.145 8 13.835Z" fill="white"/>
</svg>
