<svg width="24" height="24" viewBox="0 0 24 24" fill="none" xmlns="http://www.w3.org/2000/svg">
<g id="format_color_fill-gr">
<path id="icon/editor/format_color_fill_24px" fill-rule="evenodd" clip-rule="evenodd" d="M7.62 0L16.56 8.94C17.15 9.53 17.15 10.48 16.56 11.06L11.06 16.56C10.77 16.85 10.38 17 10 17C9.62 17 9.23 16.85 8.94 16.56L3.44 11.06C2.85 10.48 2.85 9.53 3.44 8.94L8.59 3.79L6.21 1.41L7.62 0ZM10 5.21L5.21 10H14.79L10 5.21ZM19 11.5C19 11.5 17 13.67 17 15C17 16.1 17.9 17 19 17C20.1 17 21 16.1 21 15C21 13.67 19 11.5 19 11.5ZM24 20H0V24H24V20Z" fill="#666666"/>
</g>
</svg>
