<svg width="24" height="24" viewBox="0 0 24 24" fill="none" xmlns="http://www.w3.org/2000/svg">
<path fill-rule="evenodd" clip-rule="evenodd" d="M12 20C15.31 20 18 17.31 18 14H20C20 18.42 16.42 22 12 22C7.58 22 4 18.42 4 14C4 9.58 7.58 6 12 6V2L17 7L12 12V8C8.69 8 6 10.69 6 14C6 17.31 8.69 20 12 20ZM10.34 16.34C10.42 16.31 10.48 16.27 10.54 16.22C10.5539 16.2033 10.5679 16.1881 10.5814 16.1734C10.6163 16.1354 10.6484 16.1005 10.67 16.05C10.7 15.98 10.71 15.9 10.71 15.81C10.71 15.7 10.69 15.6 10.66 15.52C10.63 15.44 10.58 15.37 10.52 15.32C10.46 15.27 10.39 15.24 10.3 15.21C10.21 15.18 10.12 15.17 10.01 15.17H9.56V14.51H9.99C10.21 14.51 10.36 14.46 10.47 14.35C10.58 14.24 10.63 14.1 10.63 13.92C10.63 13.84 10.62 13.76 10.59 13.7C10.56 13.64 10.53 13.58 10.48 13.53C10.43 13.48 10.37 13.45 10.3 13.42C10.23 13.39 10.15 13.38 10.05 13.38C9.97 13.38 9.9 13.38 9.83 13.41C9.76 13.44 9.7 13.47 9.65 13.51C9.6 13.55 9.56 13.6 9.53 13.66C9.5 13.72 9.48 13.79 9.48 13.86H8.63C8.63 13.68 8.67 13.53 8.74 13.38C8.81 13.23 8.92 13.11 9.04 13.01C9.16 12.91 9.32 12.83 9.48 12.78C9.64 12.73 9.83 12.7 10.02 12.7C10.24 12.7 10.43 12.73 10.61 12.78C10.79 12.83 10.94 12.91 11.07 13.01C11.2 13.11 11.3 13.23 11.37 13.39C11.44 13.55 11.48 13.72 11.48 13.92C11.48 14.01 11.47 14.1 11.44 14.19C11.41 14.28 11.36 14.36 11.31 14.44C11.26 14.52 11.19 14.59 11.11 14.66C11.03 14.73 10.93 14.78 10.83 14.83C11.07 14.92 11.25 15.05 11.37 15.22C11.49 15.39 11.55 15.6 11.55 15.83C11.55 16.03 11.51 16.21 11.43 16.36C11.35 16.51 11.25 16.65 11.11 16.75C10.97 16.85 10.82 16.94 10.63 16.99C10.44 17.04 10.24 17.07 10.03 17.07C9.85 17.07 9.67 17.05 9.5 17C9.33 16.95 9.18 16.87 9.04 16.77C8.9 16.67 8.79 16.55 8.71 16.39C8.63 16.23 8.59 16.05 8.59 15.84H9.44C9.44 15.92 9.46 15.99 9.49 16.06C9.52 16.13 9.56 16.18 9.62 16.23C9.68 16.28 9.74 16.31 9.82 16.34C9.9 16.37 9.98 16.38 10.07 16.38C10.17 16.38 10.26 16.37 10.34 16.34ZM14.44 12.78C14.26 12.71 14.07 12.68 13.85 12.68C13.63 12.68 13.44 12.71 13.26 12.78C13.08 12.85 12.93 12.96 12.81 13.11C12.69 13.26 12.58 13.45 12.52 13.68C12.46 13.91 12.42 14.18 12.42 14.5V15.24C12.42 15.56 12.46 15.84 12.53 16.06C12.6 16.28 12.7 16.48 12.83 16.63C12.96 16.78 13.11 16.89 13.29 16.96C13.47 17.03 13.66 17.06 13.88 17.06C14.1 17.06 14.29 17.03 14.47 16.96C14.65 16.89 14.8 16.78 14.92 16.63C15.04 16.48 15.14 16.29 15.21 16.06C15.28 15.83 15.31 15.56 15.31 15.24V14.5C15.31 14.18 15.27 13.9 15.2 13.68C15.13 13.46 15.03 13.26 14.9 13.11C14.77 12.96 14.62 12.85 14.44 12.78ZM14.41 15.83C14.44 15.7 14.45 15.54 14.45 15.35H14.46V14.38C14.46 14.19 14.45 14.03 14.42 13.9C14.39 13.77 14.35 13.67 14.3 13.59C14.25 13.51 14.18 13.45 14.11 13.42C14.04 13.39 13.95 13.37 13.86 13.37C13.77 13.37 13.69 13.39 13.61 13.42C13.53 13.45 13.48 13.51 13.42 13.59C13.36 13.67 13.33 13.77 13.3 13.9C13.27 14.03 13.26 14.19 13.26 14.38V15.35C13.26 15.54 13.27 15.7 13.3 15.83C13.33 15.96 13.37 16.07 13.42 16.15C13.47 16.23 13.54 16.29 13.61 16.32C13.68 16.35 13.77 16.37 13.86 16.37C13.95 16.37 14.03 16.35 14.11 16.32C14.19 16.29 14.25 16.23 14.3 16.15C14.35 16.07 14.38 15.96 14.41 15.83Z" fill="white"/>
</svg>
