<svg width="24" height="24" viewBox="0 0 24 24" fill="none" xmlns="http://www.w3.org/2000/svg">
<path fill-rule="evenodd" clip-rule="evenodd" d="M6.37992 5.68001C6.06992 5.55001 5.36992 6.19001 4.66992 6.90001L2.91992 5.19001C3.13992 4.92001 3.43992 4.62001 3.79992 4.26001C4.04992 4.01001 5.19992 3.01001 6.51992 3.01001C7.38992 3.01001 9.02992 3.70001 9.02992 5.87001C9.02992 7.23001 8.50992 8.01001 7.72992 9.15001C7.27992 9.81001 6.22992 11.58 5.87992 12.67C5.51992 13.76 5.78992 14.59 6.23992 14.59C6.65213 14.59 7.06434 14.0938 7.31798 13.7884C7.32893 13.7752 7.33958 13.7624 7.34992 13.75C7.57992 13.51 9.05992 11.76 9.63992 11.03C10.3999 10.1 12.3299 8.19001 14.5799 8.19001C17.5199 8.19001 18.4599 10.74 18.6099 12.39H21.0799V14.89H18.6199C18.2199 19.66 15.5599 20.99 13.9299 20.99C12.1599 20.99 10.7199 19.6 10.7199 17.9C10.7199 16.2 12.3199 13.17 16.0999 12.53C16.0928 12.4797 16.0861 12.4284 16.0793 12.3765C15.9806 11.6239 15.8648 10.74 14.3399 10.74C13.0899 10.74 11.4699 12.69 10.2599 14.18L10.2473 14.1956C9.14322 15.5583 8.26585 16.6412 7.19992 16.95C6.29992 17.22 5.30992 17.05 4.55992 16.49C3.69992 15.85 3.21992 14.79 3.21992 13.51C3.21992 11.4026 5.19921 8.49892 5.87563 7.50659C5.97596 7.3594 6.04763 7.25426 6.07992 7.20001C6.37992 6.71001 6.87992 5.88001 6.37992 5.68001ZM13.2199 17.84C13.2199 18.3 13.6499 18.56 13.9599 18.56C14.6599 18.56 15.7899 17.77 16.0899 15.08C13.9499 15.64 13.2199 17.24 13.2199 17.84Z" fill="white"/>
</svg>
