<svg width="24" height="24" viewBox="0 0 24 24" fill="none" xmlns="http://www.w3.org/2000/svg">
<path fill-rule="evenodd" clip-rule="evenodd" d="M0.564941 1.97924L1.97494 0.569824L23.4349 22.0209L22.0249 23.4303L20.0149 21.4211H4.56494C3.46494 21.4211 2.56494 20.5215 2.56494 19.422V3.9784L0.564941 1.97924ZM8.56494 3.42863V4.31826L10.5649 6.31743V3.42863H14.5649V7.42697H11.6749L13.6749 9.42613H14.5649V10.3158L16.5649 12.3149V9.42613H20.5649V13.4245H17.6749L19.6749 15.4236H20.5649V16.3133L22.5649 18.3124V3.42863C22.5649 2.32909 21.6649 1.42947 20.5649 1.42947H5.67494L7.67494 3.42863H8.56494ZM16.5649 3.42863H20.5649V7.42697H16.5649V3.42863ZM10.5649 11.9751L12.0149 13.4245H10.5649V11.9751ZM6.01494 7.42697L4.56494 5.97757V7.42697H6.01494ZM8.56494 19.422H4.56494V15.4236H8.56494V19.422ZM4.56494 13.4245H8.56494V9.97591L8.01494 9.42613H4.56494V13.4245ZM14.5649 19.422H10.5649V15.4236H14.0149L14.5649 15.9734V19.422ZM16.5649 17.9726V19.422H18.0149L16.5649 17.9726Z" fill="#005EE7"/>
</svg>
