<svg width="24" height="24" viewBox="0 0 24 24" fill="none" xmlns="http://www.w3.org/2000/svg">
<path fill-rule="evenodd" clip-rule="evenodd" d="M17.42 6.71C17.99 7.33 18.24 8.12 18.09 8.91L17.98 9.5H19.89L19.95 9.07C20.16 7.71 19.68 6.36 18.65 5.36L18.58 5.29C18.01 4.67 17.76 3.88 17.91 3.09L18 2.5H16.11L16.05 2.93C15.85 4.29 16.32 5.64 17.35 6.65L17.42 6.71ZM5 5.5C5 4.39543 5.89543 3.5 7 3.5C8.10457 3.5 9 4.39543 9 5.5C9 6.60457 8.10457 7.5 7 7.5C5.89543 7.5 5 6.60457 5 5.5ZM10.33 10.78C10.56 11.04 10.84 11.28 11.15 11.5H22V19.5C22 20.6 21.1 21.5 20 21.5H4C2.9 21.5 2 20.6 2 19.5V11.5H5V10.75C5 9.51 6.01 8.5 7.25 8.5H7.28C7.62 8.5 7.95 8.59 8.24 8.73C8.5 8.85 8.74 9.02 8.93 9.23L10.33 10.78ZM7 19.5H5V13.5H7V19.5ZM9 19.5H11V13.5H9V19.5ZM15 13.5V19.5H13V13.5H15ZM19 19.5V13.5H17V19.5H19ZM14.09 8.91C14.24 8.12 13.99 7.33 13.42 6.71L13.35 6.65C12.32 5.64 11.85 4.29 12.05 2.93L12.11 2.5H14L13.91 3.09C13.76 3.88 14.01 4.67 14.58 5.29L14.65 5.36C15.68 6.36 16.16 7.71 15.95 9.07L15.89 9.5H13.98L14.09 8.91Z" fill="#005EE7"/>
</svg>
