<svg width="24" height="24" viewBox="0 0 24 24" fill="none" xmlns="http://www.w3.org/2000/svg">
<path fill-rule="evenodd" clip-rule="evenodd" d="M20 2H2C0.89 2 0 2.89 0 4V16C0 17.1 0.89 18 2 18H9V20H7V22H15V20H13V18H15V16H2V4H20V9H22V4C22 2.89 21.1 2 20 2ZM18 11L23 11.01C23.55 11.01 24 11.45 24 12V21C24 21.55 23.55 22 23 22H18C17.45 22 17 21.55 17 21V12C17 11.45 17.45 11 18 11ZM18 20H23V13H18V20ZM11 6L11.97 9H15L12.53 10.76L13.47 13.67L11 11.87L8.53 13.67L9.47 10.76L7 9H10.03L11 6Z" fill="#005EE7"/>
</svg>
