<svg width="24" height="24" viewBox="0 0 24 24" fill="none" xmlns="http://www.w3.org/2000/svg">
<path fill-rule="evenodd" clip-rule="evenodd" d="M11.9402 4.70988V8.75988L19.3402 16.1599C20.4902 13.2799 19.9302 9.87988 17.5902 7.54988L11.9402 1.87988L8.50018 5.31988L9.91018 6.72988L11.9402 4.70988ZM4.34018 3.97988L2.93018 5.38988L5.71018 8.16988C3.17018 11.3099 3.36018 15.9199 6.28018 18.8499C7.84018 20.4099 9.89018 21.1899 11.9402 21.1899C13.7202 21.1899 15.5002 20.5999 16.9602 19.4199L19.6602 22.1199L21.0702 20.7099L4.34018 3.97988ZM7.70018 17.4399C8.83018 18.5799 10.3402 19.1999 11.9402 19.1999V14.3999L7.15018 9.60988C6.37018 10.6399 5.94018 11.8799 5.94018 13.1999C5.94018 14.7999 6.56018 16.2999 7.70018 17.4399Z" fill="white"/>
</svg>
