<svg width="24" height="24" viewBox="0 0 24 24" fill="none" xmlns="http://www.w3.org/2000/svg">
<path fill-rule="evenodd" clip-rule="evenodd" d="M2.93018 4.33993L4.34018 2.92993L21.0702 19.6599L19.6602 21.0699L16.8202 18.2299C16.2602 19.0399 15.9302 20.0099 15.9302 21.0699H13.9302C13.9302 19.4599 14.4802 17.9799 15.3902 16.7999L13.9602 15.3699C12.6902 16.9299 11.9302 18.9099 11.9302 21.0699H9.93018C9.93018 18.3599 10.9202 15.8799 12.5502 13.9599L10.0402 11.4499C8.13018 13.0799 5.65018 14.0699 2.93018 14.0699V12.0699C5.09018 12.0699 7.07018 11.3099 8.63018 10.0399L7.20018 8.60993C6.02018 9.51993 4.54018 10.0699 2.93018 10.0699V8.06993C3.99018 8.06993 4.96018 7.73993 5.77018 7.17993L2.93018 4.33993ZM9.93018 3.06993H7.93018C7.93018 3.19515 7.9128 3.31603 7.89523 3.43828C7.88614 3.50153 7.877 3.56515 7.87018 3.62993L9.55018 5.30993C9.80018 4.60993 9.93018 3.84993 9.93018 3.06993ZM13.9302 3.06993H11.9302C11.9302 4.41993 11.6202 5.69993 11.0902 6.83993L12.5802 8.32993C13.4402 6.76993 13.9302 4.97993 13.9302 3.06993ZM20.9302 12.0699V10.0699C19.0202 10.0699 17.2302 10.5599 15.6602 11.4199L17.1502 12.9099C18.3002 12.3799 19.5802 12.0699 20.9302 12.0699ZM20.9302 14.0699V16.0699C20.8221 16.0699 20.7172 16.0829 20.6119 16.0959C20.5321 16.1057 20.4521 16.1156 20.3702 16.1199L18.6902 14.4399C19.3902 14.1999 20.1402 14.0699 20.9302 14.0699Z" fill="#005EE7"/>
</svg>
