<svg width="24" height="24" viewBox="0 0 24 24" fill="none" xmlns="http://www.w3.org/2000/svg">
<g id="leak_remove-gr">
<path id="icon/image/leak_remove_24px" fill-rule="evenodd" clip-rule="evenodd" d="M2.93018 4.33999L4.34018 2.92999L21.0702 19.66L19.6602 21.07L16.8202 18.23C16.2602 19.04 15.9302 20.01 15.9302 21.07H13.9302C13.9302 19.46 14.4802 17.98 15.3902 16.8L13.9602 15.37C12.6902 16.93 11.9302 18.91 11.9302 21.07H9.93018C9.93018 18.36 10.9202 15.88 12.5502 13.96L10.0402 11.45C8.13018 13.08 5.65018 14.07 2.93018 14.07V12.07C5.09018 12.07 7.07018 11.31 8.63018 10.04L7.20018 8.60999C6.02018 9.51999 4.54018 10.07 2.93018 10.07V8.06999C3.99018 8.06999 4.96018 7.73999 5.77018 7.17999L2.93018 4.33999ZM9.93018 3.06999H7.93018C7.93018 3.19521 7.9128 3.31609 7.89523 3.43834C7.88614 3.50159 7.877 3.56521 7.87018 3.62999L9.55018 5.30999C9.80018 4.60999 9.93018 3.84999 9.93018 3.06999ZM13.9302 3.06999H11.9302C11.9302 4.41999 11.6202 5.69999 11.0902 6.83999L12.5802 8.32999C13.4402 6.76999 13.9302 4.97999 13.9302 3.06999ZM20.9302 12.07V10.07C19.0202 10.07 17.2302 10.56 15.6602 11.42L17.1502 12.91C18.3002 12.38 19.5802 12.07 20.9302 12.07ZM20.9302 14.07V16.07C20.8221 16.07 20.7172 16.0829 20.6119 16.0959C20.5321 16.1058 20.4521 16.1157 20.3702 16.12L18.6902 14.44C19.3902 14.2 20.1402 14.07 20.9302 14.07Z" fill="#666666"/>
</g>
</svg>
