<svg width="24" height="24" viewBox="0 0 24 24" fill="none" xmlns="http://www.w3.org/2000/svg">
<path fill-rule="evenodd" clip-rule="evenodd" d="M16.83 5H20C21.1 5 22 5.9 22 7V19C22 20.1 21.1 21 20 21H4C2.9 21 2 20.1 2 19V7C2 5.9 2.9 5 4 5H7.17L9 3H15L16.83 5ZM4 19H20V7H15.95L15.36 6.35L14.12 5H9.88L8.64 6.35L8.05 7H4V19ZM12 8C9.24 8 7 10.24 7 13C7 15.76 9.24 18 12 18C14.76 18 17 15.76 17 13C17 10.24 14.76 8 12 8ZM8.8 13C8.8 14.77 10.23 16.2 12 16.2C13.77 16.2 15.2 14.77 15.2 13C15.2 11.23 13.77 9.8 12 9.8C10.23 9.8 8.8 11.23 8.8 13Z" fill="#005EE7"/>
</svg>
