<svg width="24" height="24" viewBox="0 0 24 24" fill="none" xmlns="http://www.w3.org/2000/svg">
<g id="local_library-gr">
<path id="icon/maps/local_library_24px" fill-rule="evenodd" clip-rule="evenodd" d="M16 5.22498C16 7.43498 14.21 9.22498 12 9.22498C9.79 9.22498 8 7.43498 8 5.22498C8 3.01498 9.79 1.22498 12 1.22498C14.21 1.22498 16 3.01498 16 5.22498ZM14 5.22498C14 4.12498 13.1 3.22498 12 3.22498C10.9 3.22498 10 4.12498 10 5.22498C10 6.32498 10.9 7.22498 12 7.22498C13.1 7.22498 14 6.32498 14 5.22498ZM12 11.775C9.64 9.57498 6.48 8.22498 3 8.22498V19.225C6.48 19.225 9.64 20.575 12 22.775C14.36 20.585 17.52 19.225 21 19.225V8.22498C17.52 8.22498 14.36 9.57498 12 11.775ZM12 20.175C14.07 18.655 16.47 17.695 19 17.355V10.405C16.9 10.785 14.95 11.755 13.36 13.235L12 14.505L10.64 13.225C9.05 11.745 7.1 10.775 5 10.395V17.345C7.53 17.685 9.94 18.655 12 20.175Z" fill="#666666"/>
</g>
</svg>
