<svg width="24" height="24" viewBox="0 0 24 24" fill="none" xmlns="http://www.w3.org/2000/svg">
<path fill-rule="evenodd" clip-rule="evenodd" d="M14.9249 9C14.8649 7.75 14.2049 6.9 12.4249 6.9C12.0249 6.9 11.6549 6.95 11.3349 7.03L9.82486 5.52C10.1749 5.37 10.5349 5.24 10.9249 5.16V3H13.9249V5.19C16.0149 5.7 17.0649 7.28 17.1349 9H14.9249ZM3.98486 5.33L5.39486 3.92L20.0149 18.54L18.6049 19.95L16.3849 17.73C15.7549 18.3 14.8849 18.67 13.9249 18.85V21H10.9249V18.83C9.00486 18.42 7.36486 17.19 7.24486 15H9.44486C9.55486 16.18 10.3649 17.1 12.4249 17.1C13.7949 17.1 14.5049 16.68 14.8449 16.19L11.3349 12.68C8.98486 11.99 7.42486 10.85 7.42486 8.77L3.98486 5.33Z" fill="#005EE7"/>
</svg>
