<svg width="24" height="24" viewBox="0 0 24 24" fill="none" xmlns="http://www.w3.org/2000/svg">
<g id="mouse-gr">
<path id="icon/hardware/mouse_24px" fill-rule="evenodd" clip-rule="evenodd" d="M12 1.03497C16.4 1.03497 19.96 4.57497 20 8.96497V14.965C20 19.385 16.42 22.965 12 22.965C7.58 22.965 4 19.385 4 14.965V8.96497C4.04 4.57497 7.6 1.03497 12 1.03497ZM13 8.96497H18C17.96 6.02497 15.81 3.59497 13 3.12497V8.96497ZM11 3.12497V8.96497H6C6.04 6.02497 8.19 3.59497 11 3.12497ZM12 20.965C15.31 20.965 18 18.275 18 14.965V10.965H6V14.965C6 18.275 8.69 20.965 12 20.965Z" fill="#666666"/>
</g>
</svg>
