<svg width="24" height="24" viewBox="0 0 24 24" fill="none" xmlns="http://www.w3.org/2000/svg">
<g id="music_off-gr">
<path id="icon/image/music_off_24px" fill-rule="evenodd" clip-rule="evenodd" d="M11.9302 10.5094L4.34018 2.92938L2.93018 4.33938L11.9302 13.3394V13.6194C10.9902 13.0794 9.83018 12.8694 8.60018 13.2994C7.26018 13.7794 6.23018 14.9694 5.99018 16.3694C5.53018 19.1094 7.85018 21.4494 10.5802 21.0194C12.5402 20.7094 13.9302 18.9094 13.9302 16.9194V15.3394L19.6602 21.0694L21.0702 19.6594L11.9302 10.5094ZM13.9302 7.06938H17.9302V3.06938H11.9302V7.67938L13.9302 9.67938V7.06938ZM7.93018 17.0694C7.93018 18.1694 8.83018 19.0694 9.93018 19.0694C11.0302 19.0694 11.9302 18.1694 11.9302 17.0694C11.9302 15.9694 11.0302 15.0694 9.93018 15.0694C8.83018 15.0694 7.93018 15.9694 7.93018 17.0694Z" fill="#666666"/>
</g>
</svg>
