<svg width="24" height="24" viewBox="0 0 24 24" fill="none" xmlns="http://www.w3.org/2000/svg">
<g id="nature-gr">
<path id="icon/image/nature_24px" fill-rule="evenodd" clip-rule="evenodd" d="M12.885 16.035H12.915V19.915H18.915V21.915H4.91504V19.915H10.915V15.975C7.60504 15.425 5.08504 12.555 5.08504 9.08499C5.08504 5.21499 8.21504 2.08499 12.085 2.08499C15.955 2.08499 19.085 5.21499 19.085 9.08499C19.085 12.675 16.375 15.635 12.885 16.035ZM12.085 4.08499C9.32504 4.08499 7.08504 6.32499 7.08504 9.08499C7.08504 11.845 9.32504 14.085 12.085 14.085C14.845 14.085 17.085 11.845 17.085 9.08499C17.085 6.32499 14.845 4.08499 12.085 4.08499Z" fill="#666666"/>
</g>
</svg>
