<svg width="24" height="24" viewBox="0 0 24 24" fill="none" xmlns="http://www.w3.org/2000/svg">
<path fill-rule="evenodd" clip-rule="evenodd" d="M1 8.77104L3 10.771C5.88 7.89104 9.79 6.69104 13.53 7.15104L14.72 4.47104C9.89 3.61104 4.74 5.04104 1 8.77104ZM15.9 4.77104C15.73 4.77104 15.58 4.86104 15.49 5.00104L15.42 5.15104L10.24 16.801C10.08 17.091 9.98 17.411 9.98 17.761C9.98 18.871 10.88 19.771 11.99 19.771C12.95 19.771 13.76 19.091 13.95 18.181L13.96 18.151L16.4 5.27104C16.4 4.99104 16.18 4.77104 15.9 4.77104ZM23 8.77104L21 10.771C19.78 9.55104 18.38 8.64104 16.88 8.02104L17.41 5.20104C19.45 5.95104 21.36 7.13104 23 8.77104ZM17 14.771L19 12.771C18.2 11.971 17.3 11.351 16.34 10.881L15.79 13.801C16.21 14.071 16.62 14.391 17 14.771ZM7 14.771L5 12.771C7.01 10.761 9.68 9.81104 12.31 9.89104L11.03 12.771C9.56 12.981 8.13 13.641 7 14.771Z" fill="white"/>
</svg>
