<svg width="24" height="24" viewBox="0 0 24 24" fill="none" xmlns="http://www.w3.org/2000/svg">
<path fill-rule="evenodd" clip-rule="evenodd" d="M1 8.77116L3 10.7712C5.88 7.89116 9.79 6.69116 13.53 7.15116L14.72 4.47116C9.89 3.61116 4.74 5.04116 1 8.77116ZM15.9 4.77116C15.73 4.77116 15.58 4.86116 15.49 5.00116L15.42 5.15116L10.24 16.8012C10.08 17.0912 9.98 17.4112 9.98 17.7612C9.98 18.8712 10.88 19.7712 11.99 19.7712C12.95 19.7712 13.76 19.0912 13.95 18.1812L13.96 18.1512L16.4 5.27116C16.4 4.99116 16.18 4.77116 15.9 4.77116ZM23 8.77116L21 10.7712C19.78 9.55117 18.38 8.64116 16.88 8.02116L17.41 5.20116C19.45 5.95116 21.36 7.13116 23 8.77116ZM17 14.7712L19 12.7712C18.2 11.9712 17.3 11.3512 16.34 10.8812L15.79 13.8012C16.21 14.0712 16.62 14.3912 17 14.7712ZM7 14.7712L5 12.7712C7.01 10.7612 9.68 9.81116 12.31 9.89116L11.03 12.7712C9.56 12.9812 8.13 13.6412 7 14.7712Z" fill="#005EE7"/>
</svg>
