<svg width="24" height="24" viewBox="0 0 24 24" fill="none" xmlns="http://www.w3.org/2000/svg">
<path fill-rule="evenodd" clip-rule="evenodd" d="M18 11.76V6.33L5.83 18.5H14V20.5H1L20 1.5V11.55C19.9548 11.5447 19.9103 11.5387 19.8662 11.5327C19.7442 11.5162 19.6248 11.5 19.5 11.5C18.97 11.5 18.47 11.6 18 11.76ZM22 16.5V16C22 14.62 20.88 13.5 19.5 13.5C18.12 13.5 17 14.62 17 16V16.5C16.45 16.5 16 16.95 16 17.5V21.5C16 22.05 16.45 22.5 17 22.5H22C22.55 22.5 23 22.05 23 21.5V17.5C23 16.95 22.55 16.5 22 16.5ZM21 16.5H18V16C18 15.17 18.67 14.5 19.5 14.5C20.33 14.5 21 15.17 21 16V16.5Z" fill="#005EE7"/>
</svg>
