<svg width="24" height="24" viewBox="0 0 24 24" fill="none" xmlns="http://www.w3.org/2000/svg">
<path fill-rule="evenodd" clip-rule="evenodd" d="M20.56 9.21503L23 11.995L20.56 14.775L20.9 18.455L17.29 19.275L15.4 22.455L12 20.995L8.6 22.465L6.71 19.285L3.1 18.465L3.44 14.775L1 11.995L3.44 9.20503L3.1 5.52503L6.71 4.71503L8.6 1.53503L12 2.99503L15.4 1.53503L17.29 4.71503L20.9 5.53503L20.56 9.21503ZM18.75 16.895L18.49 14.105L20.34 11.995L18.49 9.88503L18.75 7.09503L16.01 6.47503L14.58 4.06503L12 5.17503L9.42 4.07503L7.99 6.48503L5.25 7.09503L5.51 9.87503L3.66 11.995L5.51 14.095L5.25 16.895L7.99 17.515L9.42 19.925L12 18.815L14.58 19.925L16.01 17.515L18.75 16.895ZM13 14.995V16.995H11V14.995H13ZM13 6.99503H11V12.995H13V6.99503Z" fill="white"/>
</svg>
