<svg width="24" height="24" viewBox="0 0 24 24" fill="none" xmlns="http://www.w3.org/2000/svg">
<g id="notifications_paused-gr">
<path id="icon/social/notifications_paused_24px" fill-rule="evenodd" clip-rule="evenodd" d="M18 10.75V15.75L20 17.75V18.75H4V17.75L6 15.75V10.75C6 7.67 7.64 5.11 10.5 4.43V3.75C10.5 2.92 11.17 2.25 12 2.25C12.83 2.25 13.5 2.92 13.5 3.75V4.43C16.37 5.11 18 7.68 18 10.75ZM12.3 9.55H9.5V7.75H14.5V9.55L11.7 12.95H14.5V14.75H9.5V12.95L12.3 9.55ZM16 16.75H8V10.75C8 8.27 9.51 6.25 12 6.25C14.49 6.25 16 8.27 16 10.75V16.75ZM14 19.75C14 20.85 13.1 21.75 12 21.75C10.9 21.75 10 20.85 10 19.75H14Z" fill="#666666"/>
</g>
</svg>
