<svg width="24" height="24" viewBox="0 0 24 24" fill="none" xmlns="http://www.w3.org/2000/svg">
<g id="pageview-gr">
<path id="icon/action/pageview_24px" fill-rule="evenodd" clip-rule="evenodd" d="M20 4H4C2.9 4 2 4.9 2 6V18C2 19.1 2.9 20 4 20H20C21.1 20 22 19.1 22 18V6C22 4.9 21.1 4 20 4ZM13.88 15.3C13.19 15.74 12.37 16 11.49 16C9.01 16 7 13.99 7 11.5C7 9.01 9.01 7 11.5 7C13.99 7 16 9.01 16 11.5C16 12.38 15.74 13.19 15.3 13.89L17.74 16.32L16.32 17.74L13.88 15.3ZM14 11.5C14 10.12 12.88 9 11.5 9C10.12 9 9 10.12 9 11.5C9 12.88 10.12 14 11.5 14C12.88 14 14 12.88 14 11.5ZM4 18H20V6H4V18Z" fill="black" fill-opacity="0.54"/>
</g>
</svg>
