<svg width="24" height="24" viewBox="0 0 24 24" fill="none" xmlns="http://www.w3.org/2000/svg">
<path fill-rule="evenodd" clip-rule="evenodd" d="M11.8199 23.9949H18.3699C20.5799 23.9949 22.3699 22.2049 22.3699 19.9949V6.14488C22.3699 4.76488 21.2499 3.64488 19.8699 3.64488C19.6999 3.64488 19.5299 3.66488 19.3699 3.69488V3.41488C19.3699 2.03488 18.2499 0.914883 16.8699 0.914883C16.5399 0.914883 16.2199 0.974883 15.9299 1.09488C15.4799 0.434883 14.7299 0.00488281 13.8699 0.00488281C12.5499 0.00488281 11.4699 1.03488 11.3799 2.33488C11.2099 2.30488 11.0399 2.28488 10.8699 2.28488C9.48988 2.28488 8.36988 3.40488 8.36988 4.78488V14.3349L5.95988 13.0549C5.22988 12.6649 4.31988 12.7749 3.69988 13.3249L1.62988 15.1549L8.92988 22.7649C9.67988 23.5449 10.7399 23.9949 11.8199 23.9949ZM10.3699 21.3749L4.50988 15.2749L5.01988 14.8249L10.3699 17.6549V4.78488C10.3699 4.51488 10.5899 4.28488 10.8699 4.28488C11.1499 4.28488 11.3699 4.50488 11.3699 4.78488V11.9949H13.3699V2.50488C13.3699 2.22488 13.5899 2.00488 13.8699 2.00488C14.1499 2.00488 14.3699 2.22488 14.3699 2.50488V11.9949H16.3699V3.41488C16.3699 3.13488 16.5899 2.91488 16.8699 2.91488C17.1499 2.91488 17.3699 3.13488 17.3699 3.41488V11.9949H19.3699V6.14488C19.3699 5.86488 19.5899 5.64488 19.8699 5.64488C20.1499 5.64488 20.3699 5.86488 20.3699 6.14488V19.9949C20.3699 21.0949 19.4699 21.9949 18.3699 21.9949H11.8099C11.2699 21.9949 10.7499 21.7649 10.3699 21.3749Z" fill="#005EE7"/>
</svg>
