<svg width="24" height="24" viewBox="0 0 24 24" fill="none" xmlns="http://www.w3.org/2000/svg">
<g id="pan_tool-gr">
<path id="icon/action/pan_tool_24px" fill-rule="evenodd" clip-rule="evenodd" d="M11.8199 23.995H18.3699C20.5799 23.995 22.3699 22.205 22.3699 19.995V6.145C22.3699 4.765 21.2499 3.645 19.8699 3.645C19.6999 3.645 19.5299 3.665 19.3699 3.695V3.415C19.3699 2.03501 18.2499 0.915005 16.8699 0.915005C16.5399 0.915005 16.2199 0.975005 15.9299 1.095C15.4799 0.435005 14.7299 0.00500488 13.8699 0.00500488C12.5499 0.00500488 11.4699 1.035 11.3799 2.335C11.2099 2.305 11.0399 2.285 10.8699 2.285C9.48988 2.285 8.36988 3.405 8.36988 4.78501V14.335L5.95988 13.055C5.22988 12.665 4.31988 12.775 3.69988 13.325L1.62988 15.155L8.92988 22.765C9.67988 23.545 10.7399 23.995 11.8199 23.995ZM10.3699 21.375L4.50988 15.275L5.01988 14.825L10.3699 17.655V4.785C10.3699 4.515 10.5899 4.285 10.8699 4.285C11.1499 4.285 11.3699 4.505 11.3699 4.785V11.995H13.3699V2.505C13.3699 2.225 13.5899 2.005 13.8699 2.005C14.1499 2.005 14.3699 2.225 14.3699 2.505V11.995H16.3699V3.415C16.3699 3.135 16.5899 2.915 16.8699 2.915C17.1499 2.915 17.3699 3.135 17.3699 3.415V11.995H19.3699V6.145C19.3699 5.865 19.5899 5.64501 19.8699 5.64501C20.1499 5.64501 20.3699 5.865 20.3699 6.145V19.995C20.3699 21.095 19.4699 21.995 18.3699 21.995H11.8099C11.2699 21.995 10.7499 21.765 10.3699 21.375Z" fill="black" fill-opacity="0.54"/>
</g>
</svg>
