<svg width="24" height="24" viewBox="0 0 24 24" fill="none" xmlns="http://www.w3.org/2000/svg">
<path fill-rule="evenodd" clip-rule="evenodd" d="M20.66 4.88C20.73 4.99 20.79 5.1 20.84 5.22C20.94 5.46 21 5.72 21 6V20C21 20.41 20.87 20.8 20.66 21.12C20.52 21.33 20.33 21.52 20.12 21.66C20.01 21.73 19.9 21.79 19.78 21.84C19.54 21.94 19.28 22 19 22H5C3.89 22 3 21.1 3 20V6C3 5.72 3.06 5.46 3.16 5.22C3.21 5.1 3.27 4.99 3.34 4.88C3.48 4.67 3.67 4.48 3.88 4.34C4.2 4.13 4.58 4 5 4H6V2H8V4H16V2H18V4H19C19.28 4 19.54 4.06 19.78 4.16C19.9 4.21 20.01 4.27 20.12 4.34C20.33 4.48 20.52 4.67 20.66 4.88ZM5 6V20H19V6H5ZM12 13.88C9.97 13.88 6 14.96 6 17.46V19H18V17.47C18 14.96 14.03 13.88 12 13.88ZM12 15.88C10.69 15.88 9 16.44 8.31 17H15.69C15.01 16.44 13.31 15.88 12 15.88ZM12 13C13.65 13 15 11.65 15 10C15 8.35 13.65 7 12 7C10.35 7 9 8.35 9 10C9 11.65 10.35 13 12 13ZM13 10C13 9.45 12.55 9 12 9C11.45 9 11 9.45 11 10C11 10.55 11.45 11 12 11C12.55 11 13 10.55 13 10Z" fill="#005EE7"/>
</svg>
