<svg width="24" height="24" viewBox="0 0 24 24" fill="none" xmlns="http://www.w3.org/2000/svg">
<path fill-rule="evenodd" clip-rule="evenodd" d="M15 12C17.21 12 19 10.21 19 8C19 5.79 17.21 4 15 4C12.79 4 11 5.79 11 8C11 10.21 12.79 12 15 12ZM15 6C16.1 6 17 6.9 17 8C17 9.1 16.1 10 15 10C13.9 10 13 9.1 13 8C13 6.9 13.9 6 15 6ZM7 18C7 15.34 12.33 14 15 14C17.67 14 23 15.34 23 18V20H7V18ZM9 18C9.22 17.28 12.31 16 15 16C17.7 16 20.8 17.29 21 18H9ZM6 12V15H4V12H1V10H4V7H6V10H9V12H6Z" fill="#005EE7"/>
</svg>
