<svg width="24" height="24" viewBox="0 0 24 24" fill="none" xmlns="http://www.w3.org/2000/svg">
<g id="person_pin_circle-gr">
<path id="icon/maps/person_pin_circle_24px" fill-rule="evenodd" clip-rule="evenodd" d="M4 8.755C4 4.34501 7.59 0.755005 12 0.755005C16.41 0.755005 20 4.34501 20 8.755C20 14.325 13.04 22.095 12.74 22.425L12 23.245L11.26 22.425C10.96 22.095 4 14.325 4 8.755ZM6 8.755C6 12.295 9.82 17.615 12 20.225C13.75 18.115 18 12.585 18 8.755C18 5.445 15.31 2.755 12 2.755C8.69 2.755 6 5.445 6 8.755ZM12 8.755C12.83 8.755 13.5 8.085 13.5 7.255C13.5 6.425 12.83 5.755 12 5.755C11.17 5.755 10.5 6.435 10.5 7.255C10.5 8.085 11.17 8.755 12 8.755ZM9 11.255C9 10.255 11 9.755 12 9.755C13 9.755 15 10.255 15 11.255V11.375C14.27 12.215 13.2 12.755 12 12.755C10.8 12.755 9.73 12.215 9 11.375V11.255Z" fill="#666666"/>
</g>
</svg>
