<svg width="24" height="24" viewBox="0 0 24 24" fill="none" xmlns="http://www.w3.org/2000/svg">
<path fill-rule="evenodd" clip-rule="evenodd" d="M14.0127 1H4.0127C2.9127 1 2.0127 1.9 2.0127 3V21C2.0127 22.1 2.9127 23 4.0127 23H14.0127C15.1127 23 16.0127 22.1 16.0127 21V3C16.0127 1.9 15.1127 1 14.0127 1ZM19.1127 8.7L20.1127 7.7C22.6127 10.1 22.6127 13.9 20.1127 16.2L19.1127 15.2C20.9127 13.3 20.9127 10.5 19.1127 8.7ZM17.0127 10.8L18.0127 9.8C19.2127 11.1 19.2127 12.9 18.0127 14.1L17.0127 13.1C17.5127 12.4 17.5127 11.5 17.0127 10.8ZM4.0127 20H14.0127V4H4.0127V20Z" fill="white"/>
</svg>
