<svg width="24" height="24" viewBox="0 0 24 24" fill="none" xmlns="http://www.w3.org/2000/svg">
<g id="phonelink_off-gr">
<path id="icon/hardware/phonelink_off_24px" fill-rule="evenodd" clip-rule="evenodd" d="M2.06 1.58002L0.65 2.99002L2.47 4.81002C2.18 5.15002 2 5.59002 2 6.07002V17.07H0V20.07H17.73L20.08 22.42L21.49 21.01L2.06 1.58002ZM22 4.07002V6.07002H9.39L7.39 4.07002H22ZM24 9.07002V19.07C24 19.51 23.71 19.87 23.32 20L20.39 17.07H22V10.07H18V14.68L16 12.68V9.07002C16 8.52002 16.45 8.07002 17 8.07002H23C23.55 8.07002 24 8.52002 24 9.07002ZM4 6.34002V17.07H14.73L4 6.34002Z" fill="#666666"/>
</g>
</svg>
