<svg width="24" height="24" viewBox="0 0 24 24" fill="none" xmlns="http://www.w3.org/2000/svg">
<path fill-rule="evenodd" clip-rule="evenodd" d="M2.06 1.58008L0.65 2.99008L2.47 4.81008C2.18 5.15008 2 5.59008 2 6.07008V17.0701H0V20.0701H17.73L20.08 22.4201L21.49 21.0101L2.06 1.58008ZM22 4.07008V6.07008H9.39L7.39 4.07008H22ZM24 9.07008V19.0701C24 19.5101 23.71 19.8701 23.32 20.0001L20.39 17.0701H22V10.0701H18V14.6801L16 12.6801V9.07008C16 8.52008 16.45 8.07008 17 8.07008H23C23.55 8.07008 24 8.52008 24 9.07008ZM4 6.34008V17.0701H14.73L4 6.34008Z" fill="#005EE7"/>
</svg>
