<svg width="24" height="24" viewBox="0 0 24 24" fill="none" xmlns="http://www.w3.org/2000/svg">
<path fill-rule="evenodd" clip-rule="evenodd" d="M11.935 11.5L6.99708 6.56001V9.13001H4.99792V3.13001H10.9954V5.13001H8.3965L11.935 8.67001L17.5927 3.01001L19.0021 4.43001L11.935 11.5ZM11.995 12.13C16.5331 12.13 20.6514 13.91 23.7001 16.8C23.8801 16.98 24 17.22 24 17.5C24 17.78 23.89 18.03 23.7101 18.21L21.2312 20.69C21.0512 20.87 20.8013 20.98 20.5215 20.98C20.2516 20.98 20.0017 20.88 19.8217 20.7C19.0221 19.97 18.1324 19.34 17.1529 18.85C16.823 18.69 16.5931 18.34 16.5931 17.95V14.85C15.1437 14.38 13.5943 14.13 11.995 14.13C10.3957 14.13 8.84631 14.38 7.39692 14.86V17.96C7.39692 18.36 7.16701 18.7 6.83715 18.86C5.86756 19.35 4.96793 19.97 4.17826 20.71C3.99833 20.88 3.74844 20.99 3.47855 20.99C3.19867 20.99 2.94877 20.88 2.76885 20.7L0.289879 18.22C0.109954 18.04 0 17.79 0 17.51C0 17.23 0.109954 16.98 0.289879 16.8C3.33861 13.91 7.45689 12.13 11.995 12.13ZM3.52853 18.63C4.10829 18.16 4.73803 17.73 5.39775 17.36H5.40775V15.66C4.35818 16.17 3.3686 16.81 2.45898 17.56L3.52853 18.63ZM20.4715 18.62C19.8717 18.14 19.252 17.72 18.5923 17.35V15.65C19.6418 16.16 20.6214 16.8 21.541 17.55L20.4715 18.62Z" fill="white"/>
</svg>
