<svg width="24" height="24" viewBox="0 0 24 24" fill="none" xmlns="http://www.w3.org/2000/svg">
<g id="power_off-gr">
<path id="icon/notification/power_off_24px" fill-rule="evenodd" clip-rule="evenodd" d="M8.2148 2.505H10.2148V6.385L8.2148 4.385V2.505ZM16.2148 12.385V8.505H12.3348L10.3348 6.505H14.2148V2.505H16.2148V6.505C17.3148 6.505 18.2148 7.405 18.2148 8.505V13.985L18.0148 14.185L16.2148 12.385ZM4.3348 3.345L2.9248 4.755L6.2148 8.045V14.005L9.7148 17.505V20.505H14.7148V17.505L15.1948 17.025L19.6648 21.495L21.0748 20.085L4.3348 3.345ZM12.7148 18.505V16.675L13.7848 15.615L8.2148 10.045V13.155L11.7148 16.675V18.505H12.7148Z" fill="#666666"/>
</g>
</svg>
