<svg width="24" height="24" viewBox="0 0 24 24" fill="none" xmlns="http://www.w3.org/2000/svg">
<g id="print_disabled-gr">
<path id="icon/communication/print_disabled_24px" fill-rule="evenodd" clip-rule="evenodd" d="M2.22982 0.820007L0.819824 2.23001L5.81982 7.22001C4.15982 7.22001 2.81982 8.56001 2.81982 10.22V16.22H6.81982V20.22H18.8198L21.7698 23.18L23.1798 21.77L2.22982 0.820007ZM4.81982 14.22V10.22C4.81982 9.67001 5.26982 9.22001 5.81982 9.22001H7.81982L10.8198 12.22H6.81982V14.22H4.81982ZM16.8198 18.22L12.8198 14.22H8.81982V18.22H16.8198ZM8.81982 4.22001H16.8198V7.22001H11.4798L13.4798 9.22001H19.8198C20.3698 9.22001 20.8198 9.67001 20.8198 10.22V14.22L18.8198 14.23V12.22H16.4798L20.4798 16.22H22.8198V10.22C22.8198 8.56001 21.4798 7.22001 19.8198 7.22001H18.8198V2.22001H6.81982V2.58001L8.81982 4.58001V4.22001ZM17.8198 10.73C17.8198 10.1777 18.2675 9.73001 18.8198 9.73001C19.3721 9.73001 19.8198 10.1777 19.8198 10.73C19.8198 11.2823 19.3721 11.73 18.8198 11.73C18.2675 11.73 17.8198 11.2823 17.8198 10.73Z" fill="#666666"/>
</g>
</svg>
