<svg width="24" height="24" viewBox="0 0 24 24" fill="none" xmlns="http://www.w3.org/2000/svg">
<path fill-rule="evenodd" clip-rule="evenodd" d="M8.3 6.5H20C21.11 6.5 22 7.39 22 8.5V20.5C22 21.6 21.11 22.5 20 22.5H4C2.89 22.5 2 21.6 2 20.5V8.5C2 7.67 2.51 6.93 3.24 6.65L15.88 1.5L16.56 3.16L8.3 6.5ZM20 11.5V8.5H4V11.5H16V9.5H18V11.5H20ZM4 20.5V13.5H20V20.5H4ZM5.5 16.98C5.5 15.5993 6.61929 14.48 8 14.48C9.38071 14.48 10.5 15.5993 10.5 16.98C10.5 18.3607 9.38071 19.48 8 19.48C6.61929 19.48 5.5 18.3607 5.5 16.98Z" fill="#005EE7"/>
</svg>
