<svg width="24" height="24" viewBox="0 0 24 24" fill="none" xmlns="http://www.w3.org/2000/svg">
<g id="recent_actors-gr">
<path id="icon/av/recent_actors_24px" fill-rule="evenodd" clip-rule="evenodd" d="M14 5H2C1.45 5 1 5.45 1 6V18C1 18.55 1.45 19 2 19H14C14.55 19 15 18.55 15 18V6C15 5.45 14.55 5 14 5ZM19 5H17V19H19V5ZM23 5H21V19H23V5ZM13 17V7H3V17H13ZM8 7.99C6.92305 7.99 6.05 8.86304 6.05 9.94C6.05 11.017 6.92305 11.89 8 11.89C9.07696 11.89 9.95 11.017 9.95 9.94C9.95 8.86304 9.07696 7.99 8 7.99ZM8 13.4C9.3 13.4 11.89 14.05 11.89 15.35V16H4.11V15.35C4.11 14.05 6.7 13.4 8 13.4Z" fill="#666666"/>
</g>
</svg>
