<svg width="24" height="24" viewBox="0 0 24 24" fill="none" xmlns="http://www.w3.org/2000/svg">
<path fill-rule="evenodd" clip-rule="evenodd" d="M18.4405 4.13L20.0705 2.5C23.9805 6.55 23.9705 12.61 20.0705 16.5L18.4405 14.87C21.2105 11.69 21.2105 7.15 18.4405 4.13ZM13.0005 9.5C13.0005 11.71 11.2105 13.5 9.00049 13.5C6.79049 13.5 5.00049 11.71 5.00049 9.5C5.00049 7.29 6.79049 5.5 9.00049 5.5C11.2105 5.5 13.0005 7.29 13.0005 9.5ZM11.0005 9.5C11.0005 8.4 10.1005 7.5 9.00049 7.5C7.90049 7.5 7.00049 8.4 7.00049 9.5C7.00049 10.6 7.90049 11.5 9.00049 11.5C10.1005 11.5 11.0005 10.6 11.0005 9.5ZM9.00049 15.5C6.33049 15.5 1.00049 16.84 1.00049 19.5V21.5H17.0005V19.5C17.0005 16.84 11.6705 15.5 9.00049 15.5ZM9.00049 17.5C6.31049 17.5 3.22049 18.78 3.00049 19.5H15.0005C14.8005 18.79 11.7005 17.5 9.00049 17.5ZM15.0805 7.55C15.9205 8.73 15.9205 10.26 15.0805 11.44L16.7605 13.13C18.7805 11.11 18.7805 8.06 16.7605 5.86L15.0805 7.55Z" fill="white"/>
</svg>
