<svg width="24" height="24" viewBox="0 0 24 24" fill="none" xmlns="http://www.w3.org/2000/svg">
<path fill-rule="evenodd" clip-rule="evenodd" d="M0.564941 1.97494L1.97494 0.564941L23.4349 22.0249L22.0249 23.4349L19.1849 20.5949C18.8249 21.1049 18.2349 21.4349 17.5649 21.4349C16.4649 21.4349 15.5749 20.5349 15.5749 19.4349C15.5749 18.7649 15.9049 18.1749 16.4049 17.8149L15.0249 16.4349H7.56494C6.46494 16.4349 5.56494 15.5349 5.56494 14.4349C5.56494 14.0849 5.65494 13.7549 5.81494 13.4749L7.16494 11.0249L4.95494 6.36494L0.564941 1.97494ZM8.66494 12.4349L7.56494 14.4349H13.0249L11.0249 12.4349H8.66494ZM20.5649 3.43494H7.68494L9.68494 5.43494H18.8749L16.1149 10.4349H14.6749L16.6149 12.3749C17.1549 12.2349 17.6049 11.8849 17.8649 11.4049L21.4449 4.91494C21.8149 4.25494 21.3249 3.43494 20.5649 3.43494ZM5.57494 19.4349C5.57494 18.3349 6.46494 17.4349 7.56494 17.4349C8.66494 17.4349 9.56494 18.3349 9.56494 19.4349C9.56494 20.5349 8.66494 21.4349 7.56494 21.4349C6.46494 21.4349 5.57494 20.5349 5.57494 19.4349Z" fill="#005EE7"/>
</svg>
