<svg width="24" height="24" viewBox="0 0 24 24" fill="none" xmlns="http://www.w3.org/2000/svg">
<g id="replay_5-gr">
<path id="icon/av/replay_5_24px" fill-rule="evenodd" clip-rule="evenodd" d="M12 2V6C16.42 6 20 9.58 20 14C20 18.42 16.42 22 12 22C7.58 22 4 18.42 4 14H6C6 17.31 8.69 20 12 20C15.31 20 18 17.31 18 14C18 10.69 15.31 8 12 8V12L7 7L12 2ZM10.94 12.73L10.69 14.9L11.36 15.06C11.3674 15.0526 11.3747 15.0447 11.3822 15.0366C11.4053 15.0116 11.4298 14.9851 11.46 14.97C11.48 14.96 11.5 14.9475 11.52 14.935C11.54 14.9225 11.56 14.91 11.58 14.9C11.62 14.88 11.68 14.86 11.73 14.85C11.78 14.84 11.85 14.83 11.93 14.83C12.04 14.83 12.15 14.85 12.23 14.88C12.31 14.91 12.38 14.96 12.44 15.03C12.5 15.1 12.54 15.17 12.57 15.27C12.6 15.37 12.61 15.47 12.61 15.58C12.61 15.69 12.61 15.79 12.58 15.89C12.55 15.99 12.51 16.07 12.47 16.14C12.43 16.21 12.36 16.27 12.29 16.31C12.22 16.35 12.13 16.37 12.02 16.37C11.85 16.37 11.71 16.31 11.6 16.22C11.49 16.13 11.43 15.99 11.41 15.81H10.57C10.57 16.01 10.62 16.19 10.7 16.34C10.78 16.49 10.88 16.63 11.02 16.73C11.16 16.83 11.31 16.92 11.48 16.97C11.65 17.02 11.83 17.05 12.01 17.05C12.26 17.05 12.47 17 12.65 16.93C12.83 16.86 12.98 16.75 13.1 16.62C13.22 16.49 13.31 16.34 13.37 16.17C13.43 16 13.46 15.82 13.46 15.63C13.46 15.41 13.42 15.21 13.37 15.03C13.32 14.85 13.23 14.7 13.12 14.58C13.01 14.46 12.87 14.37 12.71 14.3C12.55 14.23 12.37 14.2 12.16 14.2C12.09 14.2 12.02 14.21 11.96 14.22C11.93 14.225 11.9 14.2325 11.87 14.24C11.84 14.2475 11.81 14.255 11.78 14.26C11.72 14.27 11.67 14.29 11.63 14.31C11.6133 14.3183 11.5966 14.325 11.5806 14.3313C11.5583 14.3401 11.5375 14.3483 11.52 14.36L11.63 13.44H13.33V12.73H10.94Z" fill="#666666"/>
</g>
</svg>
