<svg width="24" height="24" viewBox="0 0 24 24" fill="none" xmlns="http://www.w3.org/2000/svg">
<path fill-rule="evenodd" clip-rule="evenodd" d="M11.0352 2.53491L15.5852 7.08491L11.0352 11.5349V7.62491C8.19516 8.10491 6.03516 10.5649 6.03516 13.5349C6.03516 16.5049 8.19516 18.9649 11.0352 19.4449V21.4649C7.08516 20.9749 4.03516 17.6149 4.03516 13.5349C4.03516 9.45491 7.09516 6.09491 11.0352 5.60491V2.53491ZM18.3452 8.64491C19.2452 9.80491 19.7952 11.1449 19.9652 12.5349H17.9452C17.8052 11.6649 17.4652 10.8149 16.9252 10.0649L18.3452 8.64491ZM13.0352 19.4349V21.4549C14.4252 21.2849 15.7752 20.7449 16.9352 19.8449L15.4952 18.4049C14.7452 18.9449 13.9052 19.2949 13.0352 19.4349ZM18.3452 18.4249L16.9252 17.0149C17.4652 16.2549 17.8052 15.4049 17.9452 14.5349H19.9652C19.7952 15.9249 19.2452 17.2649 18.3452 18.4249Z" fill="#005EE7"/>
</svg>
