<svg width="24" height="24" viewBox="0 0 24 24" fill="none" xmlns="http://www.w3.org/2000/svg">
<path fill-rule="evenodd" clip-rule="evenodd" d="M12.9652 2.53491V5.60491C16.9152 6.09491 19.9652 9.45491 19.9652 13.5349C19.9652 17.6149 16.9152 20.9749 12.9652 21.4649V19.4449C15.8052 18.9649 17.9652 16.5049 17.9652 13.5349C17.9652 10.5649 15.8052 8.10491 12.9652 7.62491V11.5349L8.41516 7.08491L12.9652 2.53491ZM5.66516 8.64491L7.07516 10.0649C6.54516 10.8149 6.19516 11.6649 6.05516 12.5349H4.03516C4.20516 11.1449 4.76516 9.80491 5.66516 8.64491ZM4.03516 14.5349H6.05516C6.19516 15.4149 6.54516 16.2549 7.06516 17.0049L5.65516 18.4249C4.75516 17.2649 4.20516 15.9249 4.03516 14.5349ZM7.06516 19.8549C8.22516 20.7549 9.57516 21.2949 10.9652 21.4649V19.4349C10.0952 19.2849 9.25516 18.9449 8.50516 18.4049L7.06516 19.8549Z" fill="#005EE7"/>
</svg>
