<svg width="24" height="24" viewBox="0 0 24 24" fill="none" xmlns="http://www.w3.org/2000/svg">
<path fill-rule="evenodd" clip-rule="evenodd" d="M13.5702 4.62C15.8702 4.62 18.1802 5.5 19.9302 7.26C23.4502 10.77 23.4502 16.47 19.9302 19.98C18.1802 21.74 15.8702 22.62 13.5702 22.62C12.0802 22.62 10.5902 22.24 9.24018 21.5L10.7302 20.01C11.6302 20.41 12.6002 20.62 13.5702 20.62C15.3602 20.62 17.1502 19.94 18.5202 18.57C21.2502 15.84 21.2502 11.4 18.5202 8.67C17.1502 7.3 15.3602 6.62 13.5702 6.62V9.86L9.33018 5.62L13.5702 1.38V4.62ZM7.91018 7.03L1.43018 13.52L7.92018 20L14.4102 13.52L7.91018 7.03ZM4.26018 13.52L7.92018 9.86L11.5702 13.52L7.91018 17.18L4.26018 13.52Z" fill="white"/>
</svg>
