<svg width="24" height="24" viewBox="0 0 24 24" fill="none" xmlns="http://www.w3.org/2000/svg">
<path fill-rule="evenodd" clip-rule="evenodd" d="M13.5702 4.61988C15.8702 4.61988 18.1802 5.49988 19.9302 7.25988C23.4502 10.7699 23.4502 16.4699 19.9302 19.9799C18.1802 21.7399 15.8702 22.6199 13.5702 22.6199C12.0802 22.6199 10.5902 22.2399 9.24018 21.4999L10.7302 20.0099C11.6302 20.4099 12.6002 20.6199 13.5702 20.6199C15.3602 20.6199 17.1502 19.9399 18.5202 18.5699C21.2502 15.8399 21.2502 11.3999 18.5202 8.66988C17.1502 7.29988 15.3602 6.61988 13.5702 6.61988V9.85988L9.33018 5.61988L13.5702 1.37988V4.61988ZM7.91018 7.02988L1.43018 13.5199L7.92018 19.9999L14.4102 13.5199L7.91018 7.02988ZM4.26018 13.5199L7.92018 9.85988L11.5702 13.5199L7.91018 17.1799L4.26018 13.5199Z" fill="#005EE7"/>
</svg>
