<svg width="24" height="24" viewBox="0 0 24 24" fill="none" xmlns="http://www.w3.org/2000/svg">
<path fill-rule="evenodd" clip-rule="evenodd" d="M12.9652 2.53503V5.60503C16.9152 6.09503 19.9652 9.45503 19.9652 13.535C19.9652 17.615 16.9152 20.975 12.9652 21.465V19.445C15.8052 18.965 17.9652 16.505 17.9652 13.535C17.9652 10.565 15.8052 8.10503 12.9652 7.62503V11.535L8.41516 7.08503L12.9652 2.53503ZM5.66516 8.64503L7.07516 10.065C6.54516 10.815 6.19516 11.665 6.05516 12.535H4.03516C4.20516 11.145 4.76516 9.80503 5.66516 8.64503ZM4.03516 14.535H6.05516C6.19516 15.415 6.54516 16.255 7.06516 17.005L5.65516 18.425C4.75516 17.265 4.20516 15.925 4.03516 14.535ZM7.06516 19.855C8.22516 20.755 9.57516 21.295 10.9652 21.465V19.435C10.0952 19.285 9.25516 18.945 8.50516 18.405L7.06516 19.855Z" fill="white"/>
</svg>
