<svg width="24" height="24" viewBox="0 0 24 24" fill="none" xmlns="http://www.w3.org/2000/svg">
<g id="rotate_right-gr">
<path id="icon/image/rotate_right_24px" fill-rule="evenodd" clip-rule="evenodd" d="M11.0352 2.535L15.5852 7.085L11.0352 11.535V7.625C8.19516 8.105 6.03516 10.565 6.03516 13.535C6.03516 16.505 8.19516 18.965 11.0352 19.445V21.465C7.08516 20.975 4.03516 17.615 4.03516 13.535C4.03516 9.455 7.09516 6.095 11.0352 5.605V2.535ZM18.3452 8.645C19.2452 9.805 19.7952 11.145 19.9652 12.535H17.9452C17.8052 11.665 17.4652 10.815 16.9252 10.065L18.3452 8.645ZM13.0352 19.435V21.455C14.4252 21.285 15.7752 20.745 16.9352 19.845L15.4952 18.405C14.7452 18.945 13.9052 19.295 13.0352 19.435ZM18.3452 18.425L16.9252 17.015C17.4652 16.255 17.8052 15.405 17.9452 14.535H19.9652C19.7952 15.925 19.2452 17.265 18.3452 18.425Z" fill="#666666"/>
</g>
</svg>
