<svg width="24" height="24" viewBox="0 0 24 24" fill="none" xmlns="http://www.w3.org/2000/svg">
<path fill-rule="evenodd" clip-rule="evenodd" d="M4.22021 4.21997V7.04997C11.2502 7.04997 16.9502 12.75 16.9502 19.78H19.7802C19.7802 11.19 12.8102 4.21997 4.22021 4.21997ZM6.40021 15.42C5.19623 15.42 4.22021 16.396 4.22021 17.6C4.22021 18.804 5.19623 19.78 6.40021 19.78C7.6042 19.78 8.58021 18.804 8.58021 17.6C8.58021 16.396 7.6042 15.42 6.40021 15.42ZM4.22021 12.71V9.87997C9.69021 9.87997 14.1202 14.31 14.1202 19.78H11.2902C11.2902 15.88 8.12021 12.71 4.22021 12.71Z" fill="white"/>
</svg>
