<svg width="24" height="24" viewBox="0 0 24 24" fill="none" xmlns="http://www.w3.org/2000/svg">
<path fill-rule="evenodd" clip-rule="evenodd" d="M11.2002 10.2C8.9902 10.2 7.2002 8.40995 7.2002 6.19995C7.2002 3.98995 8.9902 2.19995 11.2002 2.19995C13.4102 2.19995 15.2002 3.98995 15.2002 6.19995C15.2002 8.40995 13.4102 10.2 11.2002 10.2ZM3.2002 14.2C3.2002 16.41 4.9902 18.2 7.2002 18.2C9.4102 18.2 11.2002 16.41 11.2002 14.2C11.2002 11.99 9.4102 10.2 7.2002 10.2C4.9902 10.2 3.2002 11.99 3.2002 14.2ZM5.2002 14.2C5.2002 13.1 6.1002 12.2 7.2002 12.2C8.3002 12.2 9.2002 13.1 9.2002 14.2C9.2002 15.3 8.3002 16.2 7.2002 16.2C6.1002 16.2 5.2002 15.3 5.2002 14.2ZM9.2002 6.19995C9.2002 5.09995 10.1002 4.19995 11.2002 4.19995C12.3002 4.19995 13.2002 5.09995 13.2002 6.19995C13.2002 7.29995 12.3002 8.19995 11.2002 8.19995C10.1002 8.19995 9.2002 7.29995 9.2002 6.19995ZM16.8002 21.8C14.5902 21.8 12.8002 20.01 12.8002 17.8C12.8002 15.59 14.5902 13.8 16.8002 13.8C19.0102 13.8 20.8002 15.59 20.8002 17.8C20.8002 20.01 19.0102 21.8 16.8002 21.8ZM14.8002 17.8C14.8002 16.7 15.7002 15.8 16.8002 15.8C17.9002 15.8 18.8002 16.7 18.8002 17.8C18.8002 18.9 17.9002 19.8 16.8002 19.8C15.7002 19.8 14.8002 18.9 14.8002 17.8Z" fill="#005EE7"/>
</svg>
