<svg width="24" height="24" viewBox="0 0 24 24" fill="none" xmlns="http://www.w3.org/2000/svg">
<path fill-rule="evenodd" clip-rule="evenodd" d="M1 12.2949C1 6.22492 5.93 1.29492 12 1.29492C18.07 1.29492 23 6.22492 23 12.2949H21C21 7.32492 16.97 3.29492 12 3.29492C7.03 3.29492 3 7.32492 3 12.2949H1ZM12 5.29492C8.13 5.29492 5 8.42492 5 12.2949H7C7 9.53492 9.24 7.29492 12 7.29492C14.76 7.29492 17 9.53492 17 12.2949H19C19 8.42492 15.87 5.29492 12 5.29492ZM13 14.5849C13.88 14.1949 14.5 13.3249 14.5 12.2949C14.5 10.9149 13.38 9.79492 12 9.79492C10.62 9.79492 9.5 10.9149 9.5 12.2949C9.5 13.3149 10.12 14.1949 11 14.5849V17.8849L7.59 21.2949L9 22.7049L12 19.7049L15 22.7049L16.41 21.2949L13 17.8849V14.5849Z" fill="white"/>
</svg>
