<svg width="24" height="24" viewBox="0 0 24 24" fill="none" xmlns="http://www.w3.org/2000/svg">
<path fill-rule="evenodd" clip-rule="evenodd" d="M4.5 12C4.5 7.03 8.53 3 13.5 3C18.47 3 22.5 7.03 22.5 12C22.5 16.97 18.47 21 13.5 21C11.44 21 9.54 20.3 8.02 19.14L9.44 17.7C10.59 18.51 11.99 19 13.5 19C17.37 19 20.5 15.87 20.5 12C20.5 8.13 17.37 5 13.5 5C9.63 5 6.5 8.13 6.5 12H9.5L5.5 16L1.5 12H4.5ZM13.5 10C14.6 10 15.5 10.9 15.5 12C15.5 13.1 14.6 14 13.5 14C12.4 14 11.5 13.1 11.5 12C11.5 10.9 12.4 10 13.5 10Z" fill="white"/>
</svg>
