<svg width="24" height="24" viewBox="0 0 24 24" fill="none" xmlns="http://www.w3.org/2000/svg">
<g id="settings_input_antenna-gr">
<path id="icon/action/settings_input_antenna_24px" fill-rule="evenodd" clip-rule="evenodd" d="M1 12.295C1 6.22498 5.93 1.29498 12 1.29498C18.07 1.29498 23 6.22498 23 12.295H21C21 7.32498 16.97 3.29498 12 3.29498C7.03 3.29498 3 7.32498 3 12.295H1ZM12 5.29498C8.13 5.29498 5 8.42498 5 12.295H7C7 9.53498 9.24 7.29498 12 7.29498C14.76 7.29498 17 9.53498 17 12.295H19C19 8.42498 15.87 5.29498 12 5.29498ZM13 14.585C13.88 14.195 14.5 13.325 14.5 12.295C14.5 10.915 13.38 9.79498 12 9.79498C10.62 9.79498 9.5 10.915 9.5 12.295C9.5 13.315 10.12 14.195 11 14.585V17.885L7.59 21.295L9 22.705L12 19.705L15 22.705L16.41 21.295L13 17.885V14.585Z" fill="black" fill-opacity="0.54"/>
</g>
</svg>
