<svg width="24" height="24" viewBox="0 0 24 24" fill="none" xmlns="http://www.w3.org/2000/svg">
<path fill-rule="evenodd" clip-rule="evenodd" d="M15 1.5H9V3.5H15V1.5ZM19.03 7.89L20.45 6.47C20.02 5.96 19.55 5.48 19.04 5.06L17.62 6.48C16.07 5.24 14.12 4.5 12 4.5C7.03 4.5 3 8.53 3 13.5C3 18.47 7.02 22.5 12 22.5C16.98 22.5 21 18.47 21 13.5C21 11.38 20.26 9.43 19.03 7.89ZM5 13.5C5 17.37 8.13 20.5 12 20.5C15.87 20.5 19 17.37 19 13.5C19 9.63 15.87 6.5 12 6.5C8.13 6.5 5 9.63 5 13.5ZM11.68 15.5H6.35C6.92 17.12 8.17 18.42 9.76 19.06L9.65 19L11.68 15.5ZM14.31 7.96C15.87 8.61 17.08 9.9 17.65 11.5H12.26L14.31 7.96ZM10.61 19.33C11.06 19.44 11.52 19.5 12 19.5C13.34 19.5 14.57 19.05 15.57 18.31L13.46 14.41L10.61 19.33ZM6 13.5C6 11.96 6.59 10.55 7.55 9.49L10.81 14.5H6.09C6.04 14.17 6 13.84 6 13.5ZM16.34 17.63C17.37 16.56 18 15.1 18 13.5C18 13.16 17.96 12.83 17.91 12.5H13.57L16.34 17.63ZM12 7.5C12.46 7.5 12.9 7.56 13.33 7.65L10.61 12.35L8.29 8.79C9.31 7.99 10.6 7.5 12 7.5Z" fill="#005EE7"/>
</svg>
