<svg width="24" height="24" viewBox="0 0 24 24" fill="none" xmlns="http://www.w3.org/2000/svg">
<g id="slow_motion_video-gr">
<path id="icon/av/slow_motion_video_24px" fill-rule="evenodd" clip-rule="evenodd" d="M10.9749 2.04999V4.06999C9.5149 4.24999 8.1849 4.82999 7.0749 5.68999L5.6549 4.25999C7.1349 3.04999 8.9649 2.24999 10.9749 2.04999ZM13.0249 9.78999L9.9749 7.49999V16.5L13.0249 14.21L15.9749 12L13.0249 9.78999ZM5.6649 7.09999L4.2349 5.67999C3.0249 7.15999 2.2249 8.98999 2.0249 11H4.0449C4.2249 9.53999 4.8049 8.20999 5.6649 7.09999ZM2.0249 13H4.0449C4.2249 14.46 4.8049 15.79 5.6649 16.89L4.2349 18.32C3.0249 16.84 2.2249 15.01 2.0249 13ZM5.6549 19.74C7.1349 20.95 8.9749 21.75 10.9749 21.95V19.93C9.5149 19.75 8.1849 19.17 7.0749 18.31L5.6549 19.74ZM13.0249 21.95C18.0549 21.42 21.9749 17.16 21.9749 12C21.9749 6.83999 18.0549 2.57999 13.0249 2.04999V4.06999C16.9449 4.58999 19.9749 7.94999 19.9749 12C19.9749 16.05 16.9449 19.41 13.0249 19.93V21.95Z" fill="#666666"/>
</g>
</svg>
