<svg width="24" height="24" viewBox="0 0 24 24" fill="none" xmlns="http://www.w3.org/2000/svg">
<path fill-rule="evenodd" clip-rule="evenodd" d="M16.03 8.1751H14.5C12.65 8.1751 11.15 6.6751 11.15 4.8251C11.15 2.9751 12.65 1.4751 14.5 1.4751V2.9751C13.48 2.9751 12.65 3.7051 12.65 4.7251C12.65 5.7451 13.48 6.7251 14.5 6.7251H16.03C17.9 6.7251 19.5 8.0751 19.5 9.8851V11.5251H18V10.2251C18 8.9151 17.08 8.1751 16.03 8.1751ZM17 12.5251H14.66L17 14.8651V12.5251ZM19.5 12.5251H18V15.5251H19.5V12.5251ZM22 12.5251H20.5V15.5251H22V12.5251ZM18.85 4.2551C19.47 3.6451 19.85 2.8051 19.85 1.8751H18.35C18.35 2.8951 17.52 3.7251 16.5 3.7251V5.2251C18.74 5.2251 20.5 7.0551 20.5 9.2951V11.5251H22V9.2851C22 7.0651 20.72 5.1451 18.85 4.2551ZM2 5.5251L3.41 4.1151L20.41 21.1151L19 22.5251L12 15.5251H2V12.5251H9L2 5.5251Z" fill="white"/>
</svg>
