<svg width="24" height="24" viewBox="0 0 24 24" fill="none" xmlns="http://www.w3.org/2000/svg">
<g id="snooze-gr">
<path id="icon/av/snooze_24px" fill-rule="evenodd" clip-rule="evenodd" d="M2.05518 5.74869L3.33638 7.28449L7.94368 3.44089L6.66258 1.90509L2.05518 5.74869ZM16.0561 3.44139L17.3373 1.90559L21.9447 5.74919L20.6635 7.28499L16.0561 3.44139ZM8.99968 11.0949H12.6297L8.99968 15.2949V17.0949H14.9997V15.0949H11.3697L14.9997 10.8949V9.09489H8.99968V11.0949ZM11.9997 6.09489C15.8597 6.09489 18.9997 9.23489 18.9997 13.0949C18.9997 16.9549 15.8597 20.0949 11.9997 20.0949C8.13968 20.0949 4.99968 16.9549 4.99968 13.0949C4.99968 9.23489 8.13968 6.09489 11.9997 6.09489ZM2.99968 13.0949C2.99968 8.12489 7.02968 4.09489 11.9997 4.09489C16.9697 4.09489 20.9997 8.12489 20.9997 13.0949C20.9997 18.0649 16.9697 22.0949 11.9997 22.0949C7.02968 22.0949 2.99968 18.0649 2.99968 13.0949Z" fill="#666666"/>
</g>
</svg>
