<svg width="24" height="24" viewBox="0 0 24 24" fill="none" xmlns="http://www.w3.org/2000/svg">
<path fill-rule="evenodd" clip-rule="evenodd" d="M15.49 9.63C15.31 6.84 14.18 4.12 12.06 2C9.92 4.14 8.74 6.86 8.51 9.63C9.79 10.31 10.97 11.19 12 12.26C13.03 11.2 14.21 10.32 15.49 9.63ZM12.05 5.19C12.68 6.22 13.12 7.37 13.35 8.57C12.88 8.87 12.44 9.2 12.01 9.55C11.59 9.21 11.14 8.88 10.68 8.58C10.93 7.38 11.39 6.23 12.05 5.19ZM8.94 12.25C10.14 13.11 11.18 14.2 12 15.45C14.15 12.17 17.82 10 22 10C22 15.32 18.64 19.82 13.97 21.49C13.33 21.71 12.68 21.88 12 22C11.32 21.89 10.66 21.72 10.03 21.49C5.36 19.82 2 15.32 2 10C4.59 10 6.98 10.83 8.93 12.24C8.87792 12.2053 8.82208 12.1706 8.76492 12.135C8.69037 12.0887 8.61358 12.0409 8.54 11.99C8.61545 12.048 8.69427 12.096 8.77255 12.1436L8.77256 12.1436L8.77257 12.1436L8.77259 12.1436C8.82917 12.178 8.88546 12.2122 8.94 12.25ZM13.32 19.6C12.88 19.75 12.44 19.87 11.99 19.97C11.55 19.88 11.12 19.76 10.71 19.61C7.42 18.43 5.01 15.62 4.26 12.26C5.36 12.52 6.41 12.97 7.38 13.59L7.36 13.6L7.36002 13.6C7.49001 13.69 7.62001 13.78 7.75 13.85L7.82 13.89C8.81 14.61 9.66 15.5 10.33 16.54L12 19.1L13.67 16.55C14.36 15.5 15.22 14.6 16.2 13.89L16.27 13.84C16.36 13.79 16.45 13.73 16.54 13.67L16.54 13.67L16.53 13.65C17.51 13 18.6 12.52 19.74 12.25C18.99 15.62 16.59 18.43 13.32 19.6ZM8.95 12.2498C8.96072 12.26 8.97536 12.2727 8.99 12.28C8.97 12.27 8.96 12.26 8.95 12.25C8.95 12.2499 8.95 12.2499 8.95 12.2498ZM8.94 12.24C8.94 12.24 8.94987 12.24 8.95 12.2498C8.94608 12.2461 8.94268 12.2427 8.94 12.24Z" fill="#005EE7"/>
</svg>
