<svg width="24" height="24" viewBox="0 0 24 24" fill="none" xmlns="http://www.w3.org/2000/svg">
<path fill-rule="evenodd" clip-rule="evenodd" d="M4.25 4.71488C6.24 2.73488 8.98 1.50488 12 1.50488C15.02 1.50488 17.76 2.73488 19.75 4.71488L18.34 6.12488C16.72 4.50488 14.47 3.50488 12 3.50488C9.53 3.50488 7.28 4.50488 5.66 6.12488L4.25 4.71488ZM8.43 9.00488L7 7.57488C8.28 6.29488 10.05 5.50488 12 5.50488C13.95 5.50488 15.72 6.29488 17 7.57488L15.57 9.00488C14.66 8.09488 13.39 7.52488 12 7.52488C10.61 7.52488 9.34 8.09488 8.43 9.00488ZM9.14 10.5049C8.51 10.5049 8 11.0149 8 11.6449V21.3549C8 21.9849 8.51 22.4949 9.14 22.4949H14.85C15.48 22.4949 15.99 21.9849 15.99 21.3549V11.6449C16 11.0149 15.49 10.5149 14.86 10.5149L9.14 10.5049ZM9 12.5049V20.5049H15V12.5049H9Z" fill="white"/>
</svg>
