<svg width="24" height="24" viewBox="0 0 24 24" fill="none" xmlns="http://www.w3.org/2000/svg">
<g id="speaker_notes_off-gr">
<path id="icon/action/speaker_notes_off_24px" fill-rule="evenodd" clip-rule="evenodd" d="M2.33969 0.929993L0.929688 2.33999L2.93969 4.34999L2.92969 21.34L6.92969 17.34H15.9297L21.6597 23.07L23.0697 21.66L2.33969 0.929993ZM20.9297 15.34V3.33999H7.58969L5.58969 1.33999H20.9297C22.0297 1.33999 22.9297 2.23999 22.9297 3.33999V15.34C22.9297 16.24 22.3197 17 21.4997 17.25L19.5897 15.34H20.9297ZM8.92969 11.34H6.92969V13.34H8.92969V11.34ZM18.9297 8.33999H12.5897L14.5897 10.34H18.9297V8.33999ZM10.9297 5.33999H18.9297V7.33999H11.5897L10.9297 6.67999V5.33999ZM4.92969 16.51L6.09969 15.34H13.9297L8.92969 10.34H6.92969V8.33999L4.92969 6.33999V16.51Z" fill="black" fill-opacity="0.54"/>
</g>
</svg>
