<svg width="24" height="24" viewBox="0 0 24 24" fill="none" xmlns="http://www.w3.org/2000/svg">
<path fill-rule="evenodd" clip-rule="evenodd" d="M22.2921 15.7L17.3321 3.73C17.0221 2.98 16.2921 2.52 15.5221 2.5C15.2621 2.5 14.9921 2.54 14.7321 2.65L7.36206 5.7C6.61206 6.01 6.15206 6.73 6.13206 7.5C6.12206 7.77 6.17206 8.04 6.28206 8.3L11.2421 20.27C11.5521 21.03 12.2921 21.49 13.0721 21.5C13.3321 21.5 13.5921 21.45 13.8421 21.35L21.2021 18.3C22.2221 17.88 22.7121 16.71 22.2921 15.7ZM2.79206 19.4L4.13206 19.96V10.93L1.70206 16.79C1.29206 17.81 1.78206 18.98 2.79206 19.4ZM8.13206 7.54L13.0921 19.5L20.4421 16.45L15.4921 4.5H15.4821L8.13206 7.54ZM11.2621 7.75C10.7098 7.75 10.2621 8.19772 10.2621 8.75C10.2621 9.30228 10.7098 9.75 11.2621 9.75C11.8143 9.75 12.2621 9.30228 12.2621 8.75C12.2621 8.19772 11.8143 7.75 11.2621 7.75ZM8.14206 21.5C7.04206 21.5 6.14206 20.6 6.14206 19.5V13.16L9.59206 21.5H8.14206Z" fill="white"/>
</svg>
