<svg width="24" height="24" viewBox="0 0 24 24" fill="none" xmlns="http://www.w3.org/2000/svg">
<path fill-rule="evenodd" clip-rule="evenodd" d="M3.31982 4.73007L4.72982 3.32007L20.6798 19.2701L19.2698 20.6801L16.6898 18.1001C16.0098 18.5201 15.2598 18.8501 14.4598 19.0601V16.9701C14.7198 16.8701 14.9698 16.7601 15.2198 16.6301L7.13982 8.55007C6.70982 9.38007 6.45982 10.3201 6.45982 11.3201C6.45982 12.9801 7.13982 14.4701 8.21982 15.5601L10.4598 13.3201V19.3201H4.45982L6.81982 16.9601C5.36982 15.5201 4.45982 13.5301 4.45982 11.3201C4.45982 9.76007 4.90982 8.31007 5.67982 7.09007L3.31982 4.73007ZM20.4598 11.3201C20.4598 9.11007 19.5498 7.12007 18.0998 5.68007L20.4598 3.32007H14.4598V9.32007L16.6998 7.08007C17.7798 8.17007 18.4598 9.66007 18.4598 11.3201C18.4598 12.1701 18.2698 12.9701 17.9498 13.7001L19.4498 15.2001C20.0898 14.0601 20.4598 12.7301 20.4598 11.3201ZM10.4598 5.67007V3.58007C9.79982 3.75007 9.16982 4.01007 8.57982 4.33007L10.0798 5.83007C10.1448 5.80507 10.2073 5.77757 10.2698 5.75007C10.3323 5.72257 10.3948 5.69507 10.4598 5.67007Z" fill="#005EE7"/>
</svg>
