<svg width="24" height="24" viewBox="0 0 24 24" fill="none" xmlns="http://www.w3.org/2000/svg">
<g id="thumbs_up_down-gr">
<path id="icon/action/thumbs_up_down_24px" fill-rule="evenodd" clip-rule="evenodd" d="M11 5C11.55 5 12 5.45 12 6V7.25C12 7.44 11.96 7.63 11.89 7.8L9.63 13.09C9.4 13.62 8.87 14 8.25 14H1.5C0.67 14 0 13.33 0 12.5V6C0 5.59 0.17 5.21 0.44 4.94L5.38 0L6.17 0.79C6.37 1 6.5 1.28 6.5 1.59L6.48 1.82L5.82 5H11ZM7.92 12L10 7.13V7H3.36L3.93 4.28L2 6.21V12H7.92ZM22.5 10H15.75C15.13 10 14.6 10.38 14.37 10.91L12.11 16.2C12.04 16.37 12 16.56 12 16.75V18C12 18.55 12.45 19 13 19H18.18L17.52 22.18L17.5 22.42C17.5 22.73 17.63 23.01 17.83 23.22L18.62 24L23.56 19.06C23.83 18.79 24 18.41 24 18V11.5C24 10.67 23.33 10 22.5 10ZM20.07 19.72L22 17.79V12H16.08L14 16.87V17H20.64L20.07 19.72Z" fill="black" fill-opacity="0.54"/>
</g>
</svg>
