<svg width="24" height="24" viewBox="0 0 24 24" fill="none" xmlns="http://www.w3.org/2000/svg">
<path fill-rule="evenodd" clip-rule="evenodd" d="M10.34 12.3299C10.6 12.5199 10.8 12.7399 10.96 12.9799C11.12 13.2299 11.23 13.4899 11.31 13.7399C11.38 14.0199 11.42 14.3099 11.42 14.5999C11.42 15.1499 11.32 15.6499 11.12 16.0799C10.92 16.5199 10.64 16.8799 10.28 17.1799C9.93004 17.4799 9.51004 17.7099 9.02004 17.8599C8.53004 18.0099 8.01004 18.0899 7.44004 18.0899C6.92004 18.0899 6.43004 18.0199 5.96004 17.8799C5.49004 17.7399 5.08004 17.5299 4.72004 17.2499C4.36004 16.9699 4.07004 16.6199 3.86004 16.1999C3.65004 15.7799 3.54004 15.2999 3.54004 14.7499H5.53004C5.53004 15.0099 5.58004 15.2499 5.67004 15.4699C5.76004 15.6899 5.89004 15.8699 6.06004 16.0299C6.23004 16.1899 6.43004 16.3099 6.67004 16.3899C6.91004 16.4799 7.18004 16.5199 7.47004 16.5199C8.08004 16.5199 8.57004 16.3599 8.92004 16.0299C9.27004 15.6999 9.45004 15.2299 9.45004 14.6099C9.45004 14.2799 9.39004 13.9799 9.29004 13.7399C9.19004 13.4899 9.04004 13.2899 8.85004 13.1299C8.66004 12.9699 8.43004 12.8599 8.16004 12.7799C7.89004 12.7099 7.59004 12.6699 7.25004 12.6699H6.07004V11.0999H7.24004C7.58004 11.0999 7.88004 11.0599 8.13004 10.9699C8.38004 10.8799 8.59004 10.7599 8.76004 10.5999C8.93004 10.4399 9.06004 10.2499 9.14004 10.0299C9.22004 9.80991 9.26004 9.55991 9.26004 9.28991C9.26004 8.71991 9.12004 8.27991 8.82004 7.96991C8.52004 7.65991 8.07004 7.49991 7.46004 7.49991C7.19004 7.49991 6.95004 7.53991 6.73004 7.61991C6.51004 7.69991 6.32004 7.80991 6.15004 7.94991C5.99004 8.08991 5.86004 8.26991 5.77004 8.46991C5.68004 8.66991 5.63004 8.89991 5.63004 9.15991H3.65004C3.65004 8.69991 3.74004 8.25991 3.94004 7.86991C4.12004 7.46991 4.39004 7.12991 4.72004 6.83991C5.05004 6.54991 5.45004 6.31991 5.92004 6.14991C6.38004 5.98991 6.89004 5.90991 7.44004 5.90991C8.00004 5.90991 8.52004 5.97991 8.97004 6.10991C9.44004 6.24991 9.84004 6.46991 10.17 6.74991C10.51 7.03991 10.77 7.38991 10.95 7.80991C11.14 8.22991 11.23 8.71991 11.23 9.26991C11.23 9.50991 11.2 9.75991 11.12 9.99991C11.05 10.2499 10.93 10.4799 10.78 10.7099C10.63 10.9399 10.44 11.1499 10.21 11.3499C9.98004 11.5499 9.71004 11.7099 9.41004 11.8499C9.78004 11.9799 10.09 12.1399 10.34 12.3299ZM19.59 13.6399C19.87 13.8499 20.08 14.0999 20.22 14.3799C20.37 14.6599 20.44 14.9999 20.46 15.3999C20.46 15.7899 20.38 16.1399 20.21 16.4599C20.04 16.7799 19.81 17.0599 19.5 17.2899C19.19 17.5199 18.82 17.6999 18.39 17.8299C17.96 17.9599 17.48 18.0199 16.95 18.0199C16.35 18.0199 15.83 17.9399 15.37 17.7699C14.91 17.5999 14.53 17.3799 14.22 17.1099C13.91 16.8299 13.68 16.5199 13.52 16.1799C13.36 15.8399 13.28 15.4899 13.28 15.1299H15.17C15.18 15.3899 15.24 15.6199 15.35 15.7999C15.46 15.9799 15.59 16.1299 15.76 16.2399C15.92 16.3499 16.11 16.4299 16.32 16.4799C16.53 16.5399 16.74 16.5599 16.96 16.5599C17.47 16.5599 17.86 16.4699 18.13 16.2699C18.4 16.0699 18.53 15.8199 18.53 15.4999C18.53 15.3599 18.51 15.2299 18.46 15.1099C18.41 14.9899 18.32 14.8699 18.19 14.7699C18.05 14.6699 17.86 14.5699 17.62 14.4799C17.38 14.3899 17.06 14.2999 16.67 14.2199C16.21 14.1199 15.78 13.9999 15.4 13.8599C15.02 13.7099 14.69 13.5399 14.42 13.3299C14.15 13.1199 13.93 12.8799 13.78 12.5999C13.63 12.3199 13.55 11.9999 13.55 11.6399C13.55 11.2799 13.62 10.9499 13.78 10.6299C13.94 10.3099 14.16 10.0299 14.45 9.78991C14.74 9.54991 15.1 9.35991 15.51 9.21991C15.92 9.07991 16.39 9.00991 16.9 9.00991C17.44 9.00991 17.93 9.07991 18.36 9.22991C18.79 9.37991 19.15 9.56991 19.45 9.81991C19.75 10.0699 19.98 10.3599 20.14 10.6999C20.3 11.0399 20.38 11.3999 20.38 11.7899H18.43C18.43 11.6199 18.39 11.4599 18.33 11.2999C18.26 11.1399 18.17 10.9999 18.04 10.8799C17.91 10.7599 17.75 10.6599 17.56 10.5899C17.37 10.5199 17.15 10.4799 16.9 10.4799C16.66 10.4799 16.44 10.5099 16.26 10.5699C16.08 10.6299 15.93 10.7099 15.81 10.8099C15.69 10.8999 15.6 11.0199 15.54 11.1499C15.48 11.2799 15.45 11.4099 15.45 11.5599C15.45 11.7099 15.48 11.8399 15.53 11.9499C15.58 12.0599 15.67 12.1599 15.81 12.2499C15.95 12.3399 16.13 12.4199 16.36 12.4999C16.59 12.5799 16.88 12.6599 17.23 12.7299C17.73 12.8399 18.18 12.9699 18.58 13.1099C18.98 13.2499 19.31 13.4299 19.59 13.6399Z" fill="#005EE7"/>
</svg>
