<svg width="24" height="24" viewBox="0 0 24 24" fill="none" xmlns="http://www.w3.org/2000/svg">
<path fill-rule="evenodd" clip-rule="evenodd" d="M9 1.50488H15V3.50488H9V1.50488ZM11 14.5049V8.50488H13V14.5049H11ZM19.03 7.88488L20.45 6.46488C20.02 5.95488 19.55 5.47488 19.04 5.05488L17.62 6.47488C16.07 5.23488 14.12 4.49488 12 4.49488C7.03 4.49488 3 8.52488 3 13.4949C3 18.4649 7.02 22.4949 12 22.4949C16.98 22.4949 21 18.4649 21 13.4949C21 11.3849 20.26 9.43488 19.03 7.88488ZM5 13.5049C5 17.3749 8.13 20.5049 12 20.5049C15.87 20.5049 19 17.3749 19 13.5049C19 9.63488 15.87 6.50488 12 6.50488C8.13 6.50488 5 9.63488 5 13.5049Z" fill="#005EE7"/>
</svg>
