<svg width="24" height="24" viewBox="0 0 24 24" fill="none" xmlns="http://www.w3.org/2000/svg">
<g id="toggle_off-gr">
<path id="icon/toggle/toggle_off_24px" fill-rule="evenodd" clip-rule="evenodd" d="M17 6H7C3.69 6 1 8.69 1 12C1 15.31 3.69 18 7 18H17C20.31 18 23 15.31 23 12C23 8.69 20.31 6 17 6ZM17 16H7C4.79 16 3 14.21 3 12C3 9.79 4.79 8 7 8H17C19.21 8 21 9.79 21 12C21 14.21 19.21 16 17 16ZM4 12C4 10.34 5.34 9 7 9C8.66 9 10 10.34 10 12C10 13.66 8.66 15 7 15C5.34 15 4 13.66 4 12Z" fill="#666666"/>
</g>
</svg>
