<svg width="24" height="24" viewBox="0 0 24 24" fill="none" xmlns="http://www.w3.org/2000/svg">
<g id="train-gr">
<path id="icon/maps/train_24px" fill-rule="evenodd" clip-rule="evenodd" d="M4 6.5C4 3 8 2.5 12 2.5C16 2.5 20 3 20 6.5V16C20 17.93 18.43 19.5 16.5 19.5L18 21V21.5H16L14 19.5H10L8 21.5H6V21L7.5 19.5C5.57 19.5 4 17.93 4 16V6.5ZM8.5 13.5C7.67157 13.5 7 14.1716 7 15C7 15.8284 7.67157 16.5 8.5 16.5C9.32843 16.5 10 15.8284 10 15C10 14.1716 9.32843 13.5 8.5 13.5ZM15.5 13.5C14.6716 13.5 14 14.1716 14 15C14 15.8284 14.6716 16.5 15.5 16.5C16.3284 16.5 17 15.8284 17 15C17 14.1716 16.3284 13.5 15.5 13.5ZM12 4.5C15.51 4.5 16.96 4.98 17.57 5.5H6.43C7.04 4.98 8.49 4.5 12 4.5ZM11 7.5H6V10.5H11V7.5ZM18 16C18 16.83 17.33 17.5 16.5 17.5H7.5C6.67 17.5 6 16.83 6 16V12.5H18V16ZM13 10.5H18V7.5H13V10.5Z" fill="#666666"/>
</g>
</svg>
