<svg width="24" height="24" viewBox="0 0 24 24" fill="none" xmlns="http://www.w3.org/2000/svg">
<path fill-rule="evenodd" clip-rule="evenodd" d="M9.5 5.25C10.6 5.25 11.5 4.35 11.5 3.25C11.5 2.15 10.6 1.25 9.5 1.25C8.4 1.25 7.5 2.15 7.5 3.25C7.5 4.35 8.4 5.25 9.5 5.25ZM16.49 13.5V15.25H22V16.75H16.49V18.5L14 16L16.49 13.5ZM14 19.5H19.51V17.75L22 20.25L19.51 22.75V21H14V19.5ZM3 22.75L5.75 8.65L4 9.4V12.75H2V8.05L7.25 5.9C7.5 5.8 7.75 5.75 8 5.75C8.7 5.75 9.35 6.1 9.7 6.7L10.65 8.3C11.55 9.75 13.15 10.75 15 10.75V12.75C12.8 12.75 10.85 11.75 9.55 10.15L8.95 13.15L11 15.2V22.75H9V16.75L6.85 14.75L5.1 22.75H3Z" fill="#005EE7"/>
</svg>
