<svg width="24" height="24" viewBox="0 0 24 24" fill="none" xmlns="http://www.w3.org/2000/svg">
<path fill-rule="evenodd" clip-rule="evenodd" d="M20.4885 5.49829V14.5383C21.2685 15.3283 21.6785 16.4783 21.4285 17.7183C21.1585 19.0583 20.0685 20.1583 18.7285 20.4283C16.6485 20.8483 14.8285 19.4183 14.5485 17.4983H4.49854C3.39854 17.4983 2.49854 16.5983 2.49854 15.4983V5.49829C2.49854 4.39829 3.39854 3.49829 4.49854 3.49829H18.4885C19.5885 3.49829 20.4885 4.39829 20.4885 5.49829ZM11.4985 8.99829L18.4885 5.49829H4.49854L11.4985 8.99829ZM14.8485 15.4983H4.49854V7.49829L11.4985 10.9983L18.4985 7.49829V13.5483C18.4628 13.5438 18.4266 13.5389 18.3899 13.5338C18.2626 13.5164 18.1306 13.4983 17.9985 13.4983C16.6085 13.4983 15.4085 14.3183 14.8485 15.4983ZM15.9985 16.4983V17.4983H19.9985V16.4983H15.9985Z" fill="#005EE7"/>
</svg>
