<svg width="24" height="24" viewBox="0 0 24 24" fill="none" xmlns="http://www.w3.org/2000/svg">
<g id="videogame_asset-gr">
<path id="icon/hardware/videogame_asset_24px" fill-rule="evenodd" clip-rule="evenodd" d="M21 6H3C1.9 6 1 6.9 1 8V16C1 17.1 1.9 18 3 18H21C22.1 18 23 17.1 23 16V8C23 6.9 22.1 6 21 6ZM21 16H3V8H21V16ZM8 15H6V13H4V11H6V9H8V11H10V13H8V15ZM14.5 12C13.6716 12 13 12.6716 13 13.5C13 14.3284 13.6716 15 14.5 15C15.3284 15 16 14.3284 16 13.5C16 12.6716 15.3284 12 14.5 12ZM17 10.5C17 9.67157 17.6716 9 18.5 9C19.3284 9 20 9.67157 20 10.5C20 11.3284 19.3284 12 18.5 12C17.6716 12 17 11.3284 17 10.5Z" fill="#666666"/>
</g>
</svg>
