<svg width="24" height="24" viewBox="0 0 24 24" fill="none" xmlns="http://www.w3.org/2000/svg">
<g id="videocam_off-gr">
<path id="icon/av/videocam_off_24px" fill-rule="evenodd" clip-rule="evenodd" d="M9.99018 8.56999L7.99018 6.56999L3.84018 2.42999L2.43018 3.83999L5.16018 6.56999H4.43018C3.88018 6.56999 3.43018 7.01999 3.43018 7.56999V17.57C3.43018 18.12 3.88018 18.57 4.43018 18.57H16.4302C16.6402 18.57 16.8202 18.49 16.9802 18.39L20.1602 21.57L21.5702 20.16L12.7102 11.3L9.99018 8.56999ZM5.43018 16.57V8.56999H7.16018L15.1602 16.57H5.43018ZM15.4302 11.18V8.56999H12.8202L10.8202 6.56999H16.4302C16.9802 6.56999 17.4302 7.01999 17.4302 7.56999V11.07L21.4302 7.06999V17.18L15.4302 11.18Z" fill="#666666"/>
</g>
</svg>
