<svg width="24" height="24" viewBox="0 0 24 24" fill="none" xmlns="http://www.w3.org/2000/svg">
<path fill-rule="evenodd" clip-rule="evenodd" d="M18.442 4.13L20.072 2.5C23.932 6.49 23.962 12.44 20.222 16.33L18.582 14.69C21.202 11.52 21.162 7.1 18.442 4.13ZM15.082 7.55L16.762 5.86C18.742 8.01 18.772 10.97 16.872 12.99L15.172 11.29C15.912 10.13 15.882 8.68 15.082 7.55ZM9.43195 5.54L12.962 9.07C12.762 7.21 11.292 5.74 9.43195 5.54ZM3.00195 4.77L4.41195 3.36L21.142 20.09L19.732 21.5L16.712 18.48C16.892 18.8 17.002 19.13 17.002 19.5V21.5H1.00195V19.5C1.00195 16.84 6.33195 15.5 9.00195 15.5C10.782 15.5 13.742 16.1 15.512 17.28L11.112 12.88C10.502 13.27 9.78195 13.5 9.00195 13.5C6.79195 13.5 5.00195 11.71 5.00195 9.5C5.00195 8.72 5.23195 8 5.62195 7.39L3.00195 4.77ZM3.00195 19.5C3.22195 18.78 6.31195 17.5 9.00195 17.5C11.702 17.5 14.802 18.79 15.002 19.5H3.00195ZM7.00195 9.5C7.00195 10.6 7.90195 11.5 9.00195 11.5C9.22195 11.5 9.42195 11.46 9.62195 11.39L7.11195 8.88C7.04195 9.08 7.00195 9.28 7.00195 9.5Z" fill="white"/>
</svg>
