<svg width="24" height="24" viewBox="0 0 24 24" fill="none" xmlns="http://www.w3.org/2000/svg">
<path fill-rule="evenodd" clip-rule="evenodd" d="M5.34266 8.04C6.59214 5.64 9.11109 4 11.9999 4C15.6384 4 18.6671 6.59 19.3568 10.04C21.9457 10.22 23.9949 12.36 23.9949 15C23.9949 17.76 21.7558 20 18.997 20H6.00238C2.69376 20 0.00488281 17.31 0.00488281 14C0.00488281 10.91 2.34391 8.36 5.34266 8.04ZM17.3976 10.43C16.8878 7.86 14.6088 6 11.9999 6C9.94074 6 8.07152 7.14 7.13191 8.97L6.63212 9.92L5.56257 10.03C3.53341 10.24 2.00405 11.95 2.00405 14C2.00405 16.21 3.7933 18 6.00238 18H18.997C20.6463 18 21.9957 16.65 21.9957 15C21.9957 13.45 20.7762 12.15 19.2169 12.04L17.6975 11.93L17.3976 10.43Z" fill="white"/>
</svg>
