<svg width="24" height="24" viewBox="0 0 24 24" fill="none" xmlns="http://www.w3.org/2000/svg">
<g id="wb_incandescent-gr">
<path id="icon/image/wb_incandescent_24px" fill-rule="evenodd" clip-rule="evenodd" d="M9 1.52502H15V6.33502C16.79 7.37502 18 9.30502 18 11.525C18 14.835 15.31 17.525 12 17.525C8.69 17.525 6 14.835 6 11.525C6 9.30502 7.21 7.37502 9 6.33502V1.52502ZM13 3.52502V7.48502L14 8.06502C15.24 8.78502 16 10.105 16 11.525C16 13.735 14.21 15.525 12 15.525C9.79 15.525 8 13.735 8 11.525C8 10.105 8.77 8.78502 10 8.06502L11 7.48502V3.52502H13ZM4 10.475H1V12.475H4V10.475ZM3.55 18.565L4.96 19.975L6.75 18.175L5.34 16.765L3.55 18.565ZM13 19.475V22.475H11V19.475H13ZM20 10.475H23V12.475H20V10.475ZM19.03 19.985L17.24 18.185L18.64 16.785L20.44 18.575L19.03 19.985Z" fill="#666666"/>
</g>
</svg>
