<svg width="24" height="24" viewBox="0 0 24 24" fill="none" xmlns="http://www.w3.org/2000/svg">
<path fill-rule="evenodd" clip-rule="evenodd" d="M9 1.5249H15V6.3349C16.79 7.3749 18 9.3049 18 11.5249C18 14.8349 15.31 17.5249 12 17.5249C8.69 17.5249 6 14.8349 6 11.5249C6 9.3049 7.21 7.3749 9 6.3349V1.5249ZM13 3.5249V7.4849L14 8.0649C15.24 8.7849 16 10.1049 16 11.5249C16 13.7349 14.21 15.5249 12 15.5249C9.79 15.5249 8 13.7349 8 11.5249C8 10.1049 8.77 8.7849 10 8.0649L11 7.4849V3.5249H13ZM4 10.4749H1V12.4749H4V10.4749ZM3.55 18.5649L4.96 19.9749L6.75 18.1749L5.34 16.7649L3.55 18.5649ZM13 19.4749V22.4749H11V19.4749H13ZM20 10.4749H23V12.4749H20V10.4749ZM19.03 19.9849L17.24 18.1849L18.64 16.7849L20.44 18.5749L19.03 19.9849Z" fill="#005EE7"/>
</svg>
