<svg width="24" height="24" viewBox="0 0 24 24" fill="none" xmlns="http://www.w3.org/2000/svg">
<path fill-rule="evenodd" clip-rule="evenodd" d="M11 1.05005H13V4.00005H11V1.05005ZM4.96 3.55005L6.76 5.34005L5.34 6.75005L3.55 4.96005L4.96 3.55005ZM4 11H1V13H4V11ZM20.4476 4.95205L19.0404 3.54505L17.2515 5.33395L18.6586 6.74105L20.4476 4.95205ZM17.24 18.66L19.03 20.46L20.44 19.05L18.64 17.26L17.24 18.66ZM23 11H20V13H23V11ZM12 6.00005C8.69 6.00005 6 8.69005 6 12C6 15.31 8.69 18 12 18C15.31 18 18 15.31 18 12C18 8.69005 15.31 6.00005 12 6.00005ZM8 12C8 14.21 9.79 16 12 16C14.21 16 16 14.21 16 12C16 9.79005 14.21 8.00005 12 8.00005C9.79 8.00005 8 9.79005 8 12ZM13 20V22.9501H11V20H13ZM4.96 20.4501L3.55 19.04L5.34 17.24L6.75 18.65L4.96 20.4501Z" fill="white"/>
</svg>
