<svg width="24" height="24" viewBox="0 0 24 24" fill="none" xmlns="http://www.w3.org/2000/svg">
<g id="wc-gr">
<path id="icon/notification/wc_24px" fill-rule="evenodd" clip-rule="evenodd" d="M7 6C8.11 6 9 5.11 9 4C9 2.89 8.11 2 7 2C5.89 2 5 2.89 5 4C5 5.11 5.89 6 7 6ZM5 14.5V22H9V14.5H10.5V9C10.5 7.9 9.6 7 8.5 7H5.5C4.4 7 3.5 7.9 3.5 9V14.5H5ZM17.5 16V22H14.5V16H11.5L14.04 8.37C14.31 7.55 15.08 7 15.94 7H16.06C16.92 7 17.68 7.55 17.96 8.37L20.5 16H17.5ZM18 4C18 5.11 17.11 6 16 6C14.89 6 14 5.11 14 4C14 2.89 14.89 2 16 2C17.11 2 18 2.89 18 4Z" fill="#666666"/>
</g>
</svg>
