<svg width="24" height="25" viewBox="0 0 24 25" fill="none" xmlns="http://www.w3.org/2000/svg">
<g clip-path="url(#clip0_104_12974)">
<path d="M18 13.5H17.32L15.32 15.5H17.23L19 17.5H5L6.78 15.5H8.83L6.83 13.5H6L3 16.5V20.5C3 21.6 3.89 22.5 4.99 22.5H19C20.1 22.5 21 21.61 21 20.5V16.5L18 13.5ZM19 20.5H5V19.5H19V20.5ZM11.34 15.52C11.73 15.91 12.36 15.91 12.75 15.52L19.11 9.16004C19.5 8.77004 19.5 8.14004 19.11 7.75004L14.16 2.80004C13.78 2.40004 13.15 2.40004 12.76 2.79004L6.39 9.16004C6 9.55004 6 10.18 6.39 10.57L11.34 15.52ZM13.46 4.91004L17 8.45004L12.05 13.4L8.51 9.86004L13.46 4.91004Z" fill="#666666"/>
</g>
<defs>
<clipPath id="clip0_104_12974">
<rect width="24" height="24" fill="white" transform="translate(0 0.5)"/>
</clipPath>
</defs>
</svg>
