<svg width="28" height="28" viewBox="0 0 28 28" fill="none" xmlns="http://www.w3.org/2000/svg">
<rect width="28" height="28" rx="14" fill="#FF8484"/>
<g clip-path="url(#clip0_96_17268)">
<path d="M9.8335 15.6665C11.2168 15.6665 12.3335 14.5498 12.3335 13.1665C12.3335 11.7832 11.2168 10.6665 9.8335 10.6665C8.45016 10.6665 7.3335 11.7832 7.3335 13.1665C7.3335 14.5498 8.45016 15.6665 9.8335 15.6665ZM9.8335 12.3332C10.2918 12.3332 10.6668 12.7082 10.6668 13.1665C10.6668 13.6248 10.2918 13.9998 9.8335 13.9998C9.37516 13.9998 9.00016 13.6248 9.00016 13.1665C9.00016 12.7082 9.37516 12.3332 9.8335 12.3332ZM19.8335 9.83317H13.1668V16.4998H6.50016V8.1665H4.8335V20.6665H6.50016V18.1665H21.5002V20.6665H23.1668V13.1665C23.1668 11.3248 21.6752 9.83317 19.8335 9.83317ZM21.5002 16.4998H14.8335V11.4998H19.8335C20.7502 11.4998 21.5002 12.2498 21.5002 13.1665V16.4998Z" fill="white"/>
</g>
<defs>
<clipPath id="clip0_96_17268">
<rect width="20" height="20" fill="white" transform="translate(4 4)"/>
</clipPath>
</defs>
</svg>
