<svg width="40" height="40" viewBox="0 0 40 40" fill="none" xmlns="http://www.w3.org/2000/svg">
<ellipse cx="19.9998" cy="36.6667" rx="13.3333" ry="1.66667" fill="#2B77F1" fill-opacity="0.4"/>
<g filter="url(#filter0_d_235_47634)">
<path d="M20.0002 18.3335C20.8022 18.3335 21.4891 18.0395 22.0608 17.4515C22.6325 16.8635 22.9178 16.1575 22.9168 15.3335C22.9168 14.5085 22.631 13.802 22.0593 13.214C21.4877 12.626 20.8013 12.3325 20.0002 12.3335C19.1981 12.3335 18.5112 12.6275 17.9395 13.2155C17.3679 13.8035 17.0825 14.5095 17.0835 15.3335C17.0835 16.1585 17.3693 16.865 17.941 17.453C18.5127 18.041 19.1991 18.3345 20.0002 18.3335ZM20.0002 33.3335C16.087 29.9085 13.1645 26.7275 11.2327 23.7905C9.30086 20.8535 8.33447 18.1345 8.3335 15.6335C8.3335 11.8835 9.50648 8.896 11.8525 6.671C14.1984 4.446 16.9143 3.3335 20.0002 3.3335C23.087 3.3335 25.8034 4.446 28.1493 6.671C30.4953 8.896 31.6678 11.8835 31.6668 15.6335C31.6668 18.1335 30.7004 20.8525 28.7677 23.7905C26.8349 26.7285 23.9124 29.9095 20.0002 33.3335Z" fill="#002CAB"/>
<path d="M20.0002 33.998L19.6709 33.7097C15.7383 30.2678 12.7803 27.0532 10.8149 24.0653C8.85038 21.0785 7.83452 18.2644 7.8335 15.6337L7.8335 15.6335C7.8335 11.7702 9.04674 8.64291 11.5084 6.30821C13.9423 3.99976 16.7797 2.8335 20.0002 2.8335C23.2216 2.8335 26.0594 3.99973 28.4934 6.30821C30.9551 8.64292 32.1678 11.7702 32.1668 15.6335L20.0002 33.998ZM20.0002 33.998L20.3295 33.7097M20.0002 33.998L20.3295 33.7097M20.3295 33.7097C24.261 30.2688 27.2191 27.0542 29.1854 24.0653C31.1508 21.0776 32.1668 18.2635 32.1668 15.6336L20.3295 33.7097ZM20.0002 12.8335H20.0008C20.6631 12.8327 21.2209 13.0689 21.7008 13.5625C22.1812 14.0566 22.4168 14.6378 22.4168 15.3335V15.3341C22.4177 16.0284 22.1826 16.6089 21.7023 17.103C21.2224 17.5966 20.6638 17.8335 20.0002 17.8335H19.9995C19.3373 17.8343 18.7794 17.5981 18.2995 17.1045C17.8192 16.6104 17.5835 16.0292 17.5835 15.3335V15.3329C17.5827 14.6386 17.8177 14.0581 18.298 13.564C18.7779 13.0704 19.3365 12.8335 20.0002 12.8335Z" stroke="white"/>
</g>
<circle cx="20" cy="15" r="5" fill="#002CAB"/>
<path d="M16.2227 9.27344H14.0254L10.8789 11.3125V13.4043L13.8496 11.5059H13.9199V22H16.2227V9.27344ZM24.0098 22.1758C27.0684 22.1758 28.8965 19.8115 28.8965 15.6367C28.8965 11.4883 27.0596 9.09766 24.0098 9.09766C20.96 9.09766 19.1143 11.4883 19.123 15.6367C19.1143 19.8027 20.9424 22.1758 24.0098 22.1758ZM21.4258 15.6367C21.4346 12.6045 22.4189 11.0049 24.0098 10.9961C25.6006 11.0049 26.585 12.6045 26.5938 15.6367C26.5938 18.6953 25.6006 20.251 24.0098 20.2598C22.4102 20.251 21.4258 18.6953 21.4258 15.6367Z" fill="white"/>
<defs>
<filter id="filter0_d_235_47634" x="4.3335" y="0.333496" width="31.3335" height="38.3291" filterUnits="userSpaceOnUse" color-interpolation-filters="sRGB">
<feFlood flood-opacity="0" result="BackgroundImageFix"/>
<feColorMatrix in="SourceAlpha" type="matrix" values="0 0 0 0 0 0 0 0 0 0 0 0 0 0 0 0 0 0 127 0" result="hardAlpha"/>
<feOffset dy="1"/>
<feGaussianBlur stdDeviation="1.5"/>
<feComposite in2="hardAlpha" operator="out"/>
<feColorMatrix type="matrix" values="0 0 0 0 0 0 0 0 0 0 0 0 0 0 0 0 0 0 0.25 0"/>
<feBlend mode="normal" in2="BackgroundImageFix" result="effect1_dropShadow_235_47634"/>
<feBlend mode="normal" in="SourceGraphic" in2="effect1_dropShadow_235_47634" result="shape"/>
</filter>
</defs>
</svg>
