<svg width="100" height="100" viewBox="0 0 100 100" fill="none" xmlns="http://www.w3.org/2000/svg">
<path d="M31 40C34.3137 40 37 37.3137 37 34C37 30.6863 34.3137 28 31 28C27.6863 28 25 30.6863 25 34C25 37.3137 27.6863 40 31 40Z" fill="url(#paint0_linear_36_1111)"/>
<path d="M41.9453 73.326L37.2499 48.2242C36.6789 45.2086 34.0562 43 30.9894 43C27.9226 43 25.3 45.1874 24.7289 48.2242L20.0547 73.326C19.6951 75.2374 21.1545 77 23.0792 77C24.5809 77 25.871 75.8957 26.1248 74.4091L27.2881 67.401C27.5842 65.5959 29.1493 64.258 30.9894 64.258C32.8295 64.258 34.3735 65.5959 34.6907 67.401L35.854 74.4091C36.1078 75.8957 37.398 77 38.8997 77H38.9208C40.8455 77 42.3049 75.2374 41.9453 73.326Z" fill="url(#paint1_linear_36_1111)"/>
<path d="M69 40C72.3137 40 75 37.3137 75 34C75 30.6863 72.3137 28 69 28C65.6863 28 63 30.6863 63 34C63 37.3137 65.6863 40 69 40Z" fill="url(#paint2_linear_36_1111)"/>
<path d="M50 59C52.2091 59 54 57.2091 54 55C54 52.7909 52.2091 51 50 51C47.7909 51 46 52.7909 46 55C46 57.2091 47.7909 59 50 59Z" fill="#00C2CE"/>
<path d="M79.961 74.4925L75.139 48.2275C74.5778 45.21 72.0005 43 68.9868 43C65.973 43 63.3957 45.1888 62.8345 48.2275L58.0333 74.4925C57.8047 75.81 58.7816 77 60.0702 77H77.9241C79.2335 77 80.2104 75.7887 79.961 74.4925Z" fill="url(#paint3_linear_36_1111)"/>
<path d="M49.989 62C48.7096 62 47.5846 62.8786 47.3199 64.1L45.0479 74.4071C44.7611 75.7357 45.7979 77 47.2096 77H52.7904C54.2021 77 55.2389 75.7357 54.9521 74.4071L52.6801 64.1C52.4154 62.8786 51.2904 62 50.011 62H49.989Z" fill="#00C2CE"/>
<defs>
<linearGradient id="paint0_linear_36_1111" x1="31" y1="28" x2="31" y2="40" gradientUnits="userSpaceOnUse">
<stop stop-color="#005EE7"/>
<stop offset="1" stop-color="#98B5FF"/>
</linearGradient>
<linearGradient id="paint1_linear_36_1111" x1="31" y1="43" x2="31" y2="77" gradientUnits="userSpaceOnUse">
<stop stop-color="#005EE7"/>
<stop offset="1" stop-color="#98B5FF"/>
</linearGradient>
<linearGradient id="paint2_linear_36_1111" x1="69" y1="28" x2="69" y2="40" gradientUnits="userSpaceOnUse">
<stop stop-color="#FF9393"/>
<stop offset="1" stop-color="#FFC1C1"/>
</linearGradient>
<linearGradient id="paint3_linear_36_1111" x1="69" y1="43" x2="69" y2="77" gradientUnits="userSpaceOnUse">
<stop stop-color="#FF9393"/>
<stop offset="1" stop-color="#FFC1C1"/>
</linearGradient>
</defs>
</svg>
