<svg width="28" height="28" viewBox="0 0 28 28" fill="none" xmlns="http://www.w3.org/2000/svg">
<rect width="28" height="28" rx="14" fill="#6C94FE"/>
<g clip-path="url(#clip0_96_17260)">
<path d="M16.0832 13.7918C16.6585 13.7918 17.1248 13.3255 17.1248 12.7502C17.1248 12.1749 16.6585 11.7085 16.0832 11.7085C15.5079 11.7085 15.0415 12.1749 15.0415 12.7502C15.0415 13.3255 15.5079 13.7918 16.0832 13.7918Z" fill="white"/>
<path d="M11.9167 13.7918C12.492 13.7918 12.9583 13.3255 12.9583 12.7502C12.9583 12.1749 12.492 11.7085 11.9167 11.7085C11.3414 11.7085 10.875 12.1749 10.875 12.7502C10.875 13.3255 11.3414 13.7918 11.9167 13.7918Z" fill="white"/>
<path d="M23.1168 13.45C22.9085 12.1917 21.9835 11.1667 20.7752 10.8083C20.3335 9.875 19.7085 9.05833 18.9502 8.38333C17.6335 7.20833 15.9002 6.5 14.0002 6.5C12.1002 6.5 10.3668 7.20833 9.05016 8.38333C8.2835 9.05833 7.6585 9.88333 7.22516 10.8083C6.01683 11.1667 5.09183 12.1833 4.8835 13.45C4.85016 13.625 4.8335 13.8083 4.8335 14C4.8335 14.1917 4.85016 14.375 4.8835 14.55C5.09183 15.8083 6.01683 16.8333 7.22516 17.1917C7.6585 18.1167 8.2835 18.9333 9.0335 19.6C10.3502 20.7833 12.0918 21.5 14.0002 21.5C15.9085 21.5 17.6502 20.7833 18.9752 19.6C19.7252 18.9333 20.3502 18.1083 20.7835 17.1917C21.9835 16.8333 22.9085 15.8167 23.1168 14.55C23.1502 14.375 23.1668 14.1917 23.1668 14C23.1668 13.8083 23.1502 13.625 23.1168 13.45ZM19.8335 15.6667C19.7502 15.6667 19.6752 15.65 19.5918 15.6417C19.4252 16.2 19.1835 16.7167 18.8752 17.1917C17.8335 18.7833 16.0418 19.8333 14.0002 19.8333C11.9585 19.8333 10.1668 18.7833 9.12516 17.1917C8.81683 16.7167 8.57516 16.2 8.4085 15.6417C8.32516 15.65 8.25016 15.6667 8.16683 15.6667C7.25016 15.6667 6.50016 14.9167 6.50016 14C6.50016 13.0833 7.25016 12.3333 8.16683 12.3333C8.25016 12.3333 8.32516 12.35 8.4085 12.3583C8.57516 11.8 8.81683 11.2833 9.12516 10.8083C10.1668 9.21667 11.9585 8.16667 14.0002 8.16667C16.0418 8.16667 17.8335 9.21667 18.8752 10.8083C19.1835 11.2833 19.4252 11.8 19.5918 12.3583C19.6752 12.35 19.7502 12.3333 19.8335 12.3333C20.7502 12.3333 21.5002 13.0833 21.5002 14C21.5002 14.9167 20.7502 15.6667 19.8335 15.6667ZM14.0002 18.1667C15.6752 18.1667 17.1168 17.1417 17.7502 15.6667H10.2502C10.8835 17.1417 12.3252 18.1667 14.0002 18.1667Z" fill="white"/>
</g>
<defs>
<clipPath id="clip0_96_17260">
<rect width="20" height="20" fill="white" transform="translate(4 4)"/>
</clipPath>
</defs>
</svg>
