<svg width="28" height="28" viewBox="0 0 28 28" fill="none" xmlns="http://www.w3.org/2000/svg">
<rect width="28" height="28" rx="14" fill="#784520"/>
<g clip-path="url(#clip0_96_17264)">
<path d="M20.6668 10.6668H18.1668V7.3335H6.50016C5.5835 7.3335 4.8335 8.0835 4.8335 9.00016V18.1668H6.50016C6.50016 19.5502 7.61683 20.6668 9.00016 20.6668C10.3835 20.6668 11.5002 19.5502 11.5002 18.1668H16.5002C16.5002 19.5502 17.6168 20.6668 19.0002 20.6668C20.3835 20.6668 21.5002 19.5502 21.5002 18.1668H23.1668V14.0002L20.6668 10.6668ZM20.2502 11.9168L21.8835 14.0002H18.1668V11.9168H20.2502ZM9.00016 19.0002C8.54183 19.0002 8.16683 18.6252 8.16683 18.1668C8.16683 17.7085 8.54183 17.3335 9.00016 17.3335C9.4585 17.3335 9.8335 17.7085 9.8335 18.1668C9.8335 18.6252 9.4585 19.0002 9.00016 19.0002ZM10.8502 16.5002C10.3918 15.9918 9.74183 15.6668 9.00016 15.6668C8.2585 15.6668 7.6085 15.9918 7.15016 16.5002H6.50016V9.00016H16.5002V16.5002H10.8502ZM19.0002 19.0002C18.5418 19.0002 18.1668 18.6252 18.1668 18.1668C18.1668 17.7085 18.5418 17.3335 19.0002 17.3335C19.4585 17.3335 19.8335 17.7085 19.8335 18.1668C19.8335 18.6252 19.4585 19.0002 19.0002 19.0002Z" fill="white"/>
</g>
<defs>
<clipPath id="clip0_96_17264">
<rect width="20" height="20" fill="white" transform="translate(4 4)"/>
</clipPath>
</defs>
</svg>
