<svg width="28" height="28" viewBox="0 0 28 28" fill="none" xmlns="http://www.w3.org/2000/svg">
<rect width="28" height="28" rx="14" fill="#F2C938"/>
<g clip-path="url(#clip0_96_17261)">
<path d="M14.0002 5.6665C10.3168 5.6665 7.3335 6.08317 7.3335 8.99984V17.3332C7.3335 18.0665 7.6585 18.7248 8.16683 19.1832V20.6665C8.16683 21.1248 8.54183 21.4998 9.00016 21.4998H9.8335C10.2918 21.4998 10.6668 21.1248 10.6668 20.6665V19.8332H17.3335V20.6665C17.3335 21.1248 17.7085 21.4998 18.1668 21.4998H19.0002C19.4585 21.4998 19.8335 21.1248 19.8335 20.6665V19.1832C20.3418 18.7248 20.6668 18.0665 20.6668 17.3332V8.99984C20.6668 6.08317 17.6835 5.6665 14.0002 5.6665ZM18.7168 8.15817H9.2835C9.74183 7.7165 10.9252 7.33317 14.0002 7.33317C17.0752 7.33317 18.2585 7.7165 18.7168 8.15817ZM19.0002 9.82484V12.3332H9.00016V9.82484H19.0002ZM18.7168 17.9415L18.4752 18.1665H9.52516L9.2835 17.9415C9.17516 17.8498 9.00016 17.6415 9.00016 17.3332V13.9998H19.0002V17.3332C19.0002 17.6415 18.8252 17.8498 18.7168 17.9415Z" fill="white"/>
<path d="M11.0835 17.3335C11.7739 17.3335 12.3335 16.7739 12.3335 16.0835C12.3335 15.3931 11.7739 14.8335 11.0835 14.8335C10.3931 14.8335 9.8335 15.3931 9.8335 16.0835C9.8335 16.7739 10.3931 17.3335 11.0835 17.3335Z" fill="white"/>
<path d="M16.9165 17.3335C17.6069 17.3335 18.1665 16.7739 18.1665 16.0835C18.1665 15.3931 17.6069 14.8335 16.9165 14.8335C16.2261 14.8335 15.6665 15.3931 15.6665 16.0835C15.6665 16.7739 16.2261 17.3335 16.9165 17.3335Z" fill="white"/>
</g>
<defs>
<clipPath id="clip0_96_17261">
<rect width="20" height="20" fill="white" transform="translate(4 4)"/>
</clipPath>
</defs>
</svg>
