<svg width="28" height="28" viewBox="0 0 28 28" fill="none" xmlns="http://www.w3.org/2000/svg">
<rect width="28" height="28" rx="14" fill="#FD4B4B"/>
<g clip-path="url(#clip0_104_13216)">
<path d="M19 14.8332H18.4333L16.7667 16.4999H18.3583L19.8333 18.1666H8.16667L9.65 16.4999H11.3583L9.69167 14.8332H9L6.5 17.3332V20.6666C6.5 21.5832 7.24167 22.3332 8.15833 22.3332H19.8333C20.75 22.3332 21.5 21.5916 21.5 20.6666V17.3332L19 14.8332ZM19.8333 20.6666H8.16667V19.8332H19.8333V20.6666ZM13.45 16.5166C13.775 16.8416 14.3 16.8416 14.625 16.5166L19.925 11.2166C20.25 10.8916 20.25 10.3666 19.925 10.0416L15.8 5.91658C15.4833 5.58325 14.9583 5.58325 14.6333 5.90825L9.325 11.2166C9 11.5416 9 12.0666 9.325 12.3916L13.45 16.5166ZM15.2167 7.67491L18.1667 10.6249L14.0417 14.7499L11.0917 11.7999L15.2167 7.67491Z" fill="white"/>
</g>
<defs>
<clipPath id="clip0_104_13216">
<rect width="20" height="20" fill="white" transform="translate(4 4)"/>
</clipPath>
</defs>
</svg>
