<svg width="24" height="24" viewBox="0 0 24 24" fill="none" xmlns="http://www.w3.org/2000/svg">
<path d="M13.7498 11.9999L20.0998 5.6499C20.1998 5.5499 20.1998 5.3999 20.0998 5.2999L18.6998 3.8999C18.5998 3.7999 18.4498 3.7999 18.3498 3.8999L11.9998 10.2499L5.64981 3.8499C5.54981 3.7499 5.39981 3.7499 5.29981 3.8499L3.89981 5.2499C3.79981 5.3499 3.79981 5.4999 3.89981 5.5999L10.2498 11.9999L3.84981 18.3499C3.74981 18.4499 3.74981 18.5999 3.84981 18.6999L5.24981 20.0999C5.34981 20.1999 5.49981 20.1999 5.59981 20.0999L11.9998 13.7499L18.3498 20.0999C18.4498 20.1999 18.5998 20.1999 18.6998 20.0999L20.0998 18.6999C20.1998 18.5999 20.1998 18.4499 20.0998 18.3499L13.7498 11.9999Z" fill="black"/>
</svg>
