<svg width="18" height="18" viewBox="0 0 18 18" fill="none" xmlns="http://www.w3.org/2000/svg">
<path d="M2.47484 11.1375L1.87484 15.2625C1.79984 15.7125 2.17484 16.125 2.62484 16.125C2.66234 16.125 2.69984 16.125 2.73734 16.125L6.86234 15.525C6.93734 15.525 7.01234 15.4875 7.08734 15.4125L13.2748 9.22496L8.77484 4.72496L2.58734 10.9125C2.51234 10.9875 2.47484 11.0625 2.47484 11.1375Z" fill="#0041C3"/>
<path d="M14.8124 7.6875C16.0499 6.45 16.0499 4.425 14.8124 3.1875C14.1749 2.55 13.3874 2.25 12.5624 2.25C11.7374 2.25 10.9499 2.55 10.3124 3.1875L9.78738 3.7125L14.2874 8.2125L14.8124 7.6875Z" fill="#0041C3"/>
</svg>
