<svg width="16" height="16" viewBox="0 0 16 16" fill="none" xmlns="http://www.w3.org/2000/svg">
<path d="M14.1666 7.1665H8.83329V1.83317C8.83329 1.73317 8.76663 1.6665 8.66663 1.6665H7.33329C7.23329 1.6665 7.16663 1.73317 7.16663 1.83317V7.1665H1.83329C1.73329 7.1665 1.66663 7.23317 1.66663 7.33317V8.6665C1.66663 8.7665 1.73329 8.83317 1.83329 8.83317H7.16663V14.1665C7.16663 14.2665 7.23329 14.3332 7.33329 14.3332H8.66663C8.76663 14.3332 8.83329 14.2665 8.83329 14.1665V8.83317H14.1666C14.2666 8.83317 14.3333 8.7665 14.3333 8.6665V7.33317C14.3333 7.23317 14.2666 7.1665 14.1666 7.1665Z" fill="#005EE7"/>
</svg>
