<svg width="10" height="10" viewBox="0 0 10 10" fill="none" xmlns="http://www.w3.org/2000/svg">
<path d="M8.85419 4.47925H5.52085V1.14591C5.52085 1.08341 5.47919 1.04175 5.41669 1.04175H4.58335C4.52085 1.04175 4.47919 1.08341 4.47919 1.14591V4.47925H1.14585C1.08335 4.47925 1.04169 4.52091 1.04169 4.58341V5.41675C1.04169 5.47925 1.08335 5.52091 1.14585 5.52091H4.47919V8.85425C4.47919 8.91675 4.52085 8.95841 4.58335 8.95841H5.41669C5.47919 8.95841 5.52085 8.91675 5.52085 8.85425V5.52091H8.85419C8.91669 5.52091 8.95835 5.47925 8.95835 5.41675V4.58341C8.95835 4.52091 8.91669 4.47925 8.85419 4.47925Z" fill="white"/>
</svg>
