<svg width="10" height="10" viewBox="0 0 10 10" fill="none" xmlns="http://www.w3.org/2000/svg">
<path d="M8.85419 4.479H5.52085V1.14567C5.52085 1.08317 5.47919 1.0415 5.41669 1.0415H4.58335C4.52085 1.0415 4.47919 1.08317 4.47919 1.14567V4.479H1.14585C1.08335 4.479 1.04169 4.52067 1.04169 4.58317V5.4165C1.04169 5.479 1.08335 5.52067 1.14585 5.52067H4.47919V8.854C4.47919 8.9165 4.52085 8.95817 4.58335 8.95817H5.41669C5.47919 8.95817 5.52085 8.9165 5.52085 8.854V5.52067H8.85419C8.91669 5.52067 8.95835 5.479 8.95835 5.4165V4.58317C8.95835 4.52067 8.91669 4.479 8.85419 4.479Z" fill="#0041C3"/>
</svg>
