<svg width="10" height="10" viewBox="0 0 10 10" fill="none" xmlns="http://www.w3.org/2000/svg">
<path d="M8.85413 4.479H5.52079V1.14567C5.52079 1.08317 5.47913 1.0415 5.41663 1.0415H4.58329C4.52079 1.0415 4.47913 1.08317 4.47913 1.14567V4.479H1.14579C1.08329 4.479 1.04163 4.52067 1.04163 4.58317V5.4165C1.04163 5.479 1.08329 5.52067 1.14579 5.52067H4.47913V8.854C4.47913 8.9165 4.52079 8.95817 4.58329 8.95817H5.41663C5.47913 8.95817 5.52079 8.9165 5.52079 8.854V5.52067H8.85413C8.91663 5.52067 8.95829 5.479 8.95829 5.4165V4.58317C8.95829 4.52067 8.91663 4.479 8.85413 4.479Z" fill="#005EE7"/>
</svg>
