<svg width="14" height="14" viewBox="0 0 14 14" fill="none" xmlns="http://www.w3.org/2000/svg">
<path d="M13.1667 6.1665H7.83335V0.833171C7.83335 0.733171 7.76669 0.666504 7.66669 0.666504H6.33335C6.23335 0.666504 6.16669 0.733171 6.16669 0.833171V6.1665H0.833354C0.733354 6.1665 0.666687 6.23317 0.666687 6.33317V7.6665C0.666687 7.7665 0.733354 7.83317 0.833354 7.83317H6.16669V13.1665C6.16669 13.2665 6.23335 13.3332 6.33335 13.3332H7.66669C7.76669 13.3332 7.83335 13.2665 7.83335 13.1665V7.83317H13.1667C13.2667 7.83317 13.3334 7.7665 13.3334 7.6665V6.33317C13.3334 6.23317 13.2667 6.1665 13.1667 6.1665Z" fill="#282828"/>
</svg>
