<svg width="14" height="14" viewBox="0 0 14 14" fill="none" xmlns="http://www.w3.org/2000/svg">
<path d="M12.3959 6.47516H7.52504V1.60433C7.52504 1.51683 7.46671 1.4585 7.37921 1.4585H6.65004C6.56254 1.4585 6.50421 1.51683 6.50421 1.60433V6.50433H1.60421C1.51671 6.50433 1.45837 6.56266 1.45837 6.65016V7.37933C1.45837 7.46683 1.51671 7.52516 1.60421 7.52516H6.50421V12.4252C6.50421 12.5127 6.56254 12.571 6.65004 12.571H7.37921C7.46671 12.571 7.52504 12.5127 7.52504 12.4252V7.52516H12.425C12.5125 7.52516 12.5709 7.46683 12.5709 7.37933V6.65016C12.5417 6.56266 12.4834 6.47516 12.3959 6.47516Z" fill="#525252"/>
</svg>
