<svg width="16" height="16" viewBox="0 0 16 16" fill="none" xmlns="http://www.w3.org/2000/svg">
<path d="M14.1667 7.16675H8.83332V1.83341C8.83332 1.73341 8.76666 1.66675 8.66666 1.66675H7.33332C7.23332 1.66675 7.16666 1.73341 7.16666 1.83341V7.16675H1.83332C1.73332 7.16675 1.66666 7.23341 1.66666 7.33341V8.66675C1.66666 8.76675 1.73332 8.83341 1.83332 8.83341H7.16666V14.1667C7.16666 14.2667 7.23332 14.3334 7.33332 14.3334H8.66666C8.76666 14.3334 8.83332 14.2667 8.83332 14.1667V8.83341H14.1667C14.2667 8.83341 14.3333 8.76675 14.3333 8.66675V7.33341C14.3333 7.23341 14.2667 7.16675 14.1667 7.16675Z" fill="white"/>
</svg>
