<svg width="14" height="14" viewBox="0 0 14 14" fill="none" xmlns="http://www.w3.org/2000/svg">
<path d="M12.3959 6.271H7.72921V1.60433C7.72921 1.51683 7.67087 1.4585 7.58337 1.4585H6.41671C6.32921 1.4585 6.27087 1.51683 6.27087 1.60433V6.271H1.60421C1.51671 6.271 1.45837 6.32933 1.45837 6.41683V7.5835C1.45837 7.671 1.51671 7.72933 1.60421 7.72933H6.27087V12.396C6.27087 12.4835 6.32921 12.5418 6.41671 12.5418H7.58337C7.67087 12.5418 7.72921 12.4835 7.72921 12.396V7.72933H12.3959C12.4834 7.72933 12.5417 7.671 12.5417 7.5835V6.41683C12.5417 6.32933 12.4834 6.271 12.3959 6.271Z" fill="white"/>
</svg>
