<svg width="16" height="16" viewBox="0 0 16 16" fill="none" xmlns="http://www.w3.org/2000/svg">
<path d="M14.1667 7.1665H8.83335V1.83317C8.83335 1.73317 8.76669 1.6665 8.66669 1.6665H7.33335C7.23335 1.6665 7.16669 1.73317 7.16669 1.83317V7.1665H1.83335C1.73335 7.1665 1.66669 7.23317 1.66669 7.33317V8.6665C1.66669 8.7665 1.73335 8.83317 1.83335 8.83317H7.16669V14.1665C7.16669 14.2665 7.23335 14.3332 7.33335 14.3332H8.66669C8.76669 14.3332 8.83335 14.2665 8.83335 14.1665V8.83317H14.1667C14.2667 8.83317 14.3334 8.7665 14.3334 8.6665V7.33317C14.3334 7.23317 14.2667 7.1665 14.1667 7.1665Z" fill="#0041C3"/>
</svg>
