<svg width="20" height="20" viewBox="0 0 20 20" fill="none" xmlns="http://www.w3.org/2000/svg">
<path d="M2.75009 12.375L2.08343 16.9583C2.00009 17.4583 2.41676 17.9166 2.91676 17.9166C2.95843 17.9166 3.00009 17.9166 3.04176 17.9166L7.62509 17.25C7.70842 17.25 7.79176 17.2083 7.87509 17.125L14.7501 10.25L9.75009 5.24996L2.87509 12.125C2.79176 12.2083 2.75009 12.2916 2.75009 12.375Z" fill="black"/>
<path d="M16.4585 8.54167C17.8335 7.16667 17.8335 4.91667 16.4585 3.54167C15.7501 2.83333 14.8751 2.5 13.9585 2.5C13.0418 2.5 12.1668 2.83333 11.4585 3.54167L10.8751 4.125L15.8751 9.125L16.4585 8.54167Z" fill="black"/>
</svg>
