<svg width="16" height="16" viewBox="0 0 16 16" fill="none" xmlns="http://www.w3.org/2000/svg">
<path d="M14.1667 7.16675H8.83335V1.83341C8.83335 1.73341 8.76669 1.66675 8.66669 1.66675H7.33335C7.23335 1.66675 7.16669 1.73341 7.16669 1.83341V7.16675H1.83335C1.73335 7.16675 1.66669 7.23341 1.66669 7.33341V8.66675C1.66669 8.76675 1.73335 8.83341 1.83335 8.83341H7.16669V14.1667C7.16669 14.2667 7.23335 14.3334 7.33335 14.3334H8.66669C8.76669 14.3334 8.83335 14.2667 8.83335 14.1667V8.83341H14.1667C14.2667 8.83341 14.3334 8.76675 14.3334 8.66675V7.33341C14.3334 7.23341 14.2667 7.16675 14.1667 7.16675Z" fill="white"/>
</svg>
