<svg width="14" height="15" viewBox="0 0 14 15" fill="none" xmlns="http://www.w3.org/2000/svg">
<path d="M12.3958 6.771H7.72915V2.10433C7.72915 2.01683 7.67081 1.9585 7.58331 1.9585H6.41665C6.32915 1.9585 6.27081 2.01683 6.27081 2.10433V6.771H1.60415C1.51665 6.771 1.45831 6.82933 1.45831 6.91683V8.0835C1.45831 8.171 1.51665 8.22933 1.60415 8.22933H6.27081V12.896C6.27081 12.9835 6.32915 13.0418 6.41665 13.0418H7.58331C7.67081 13.0418 7.72915 12.9835 7.72915 12.896V8.22933H12.3958C12.4833 8.22933 12.5416 8.171 12.5416 8.0835V6.91683C12.5416 6.82933 12.4833 6.771 12.3958 6.771Z" fill="#0041C3"/>
</svg>
