<svg width="14" height="15" viewBox="0 0 14 15" fill="none" xmlns="http://www.w3.org/2000/svg">
<path d="M12.3958 6.77075H7.72915V2.10409C7.72915 2.01659 7.67081 1.95825 7.58331 1.95825H6.41665C6.32915 1.95825 6.27081 2.01659 6.27081 2.10409V6.77075H1.60415C1.51665 6.77075 1.45831 6.82909 1.45831 6.91659V8.08325C1.45831 8.17075 1.51665 8.22909 1.60415 8.22909H6.27081V12.8958C6.27081 12.9833 6.32915 13.0416 6.41665 13.0416H7.58331C7.67081 13.0416 7.72915 12.9833 7.72915 12.8958V8.22909H12.3958C12.4833 8.22909 12.5416 8.17075 12.5416 8.08325V6.91659C12.5416 6.82909 12.4833 6.77075 12.3958 6.77075Z" fill="white"/>
</svg>
