<svg width="14" height="15" viewBox="0 0 14 15" fill="none" xmlns="http://www.w3.org/2000/svg">
<path d="M12.3959 6.771H7.72921V2.10433C7.72921 2.01683 7.67087 1.9585 7.58337 1.9585H6.41671C6.32921 1.9585 6.27087 2.01683 6.27087 2.10433V6.771H1.60421C1.51671 6.771 1.45837 6.82933 1.45837 6.91683V8.0835C1.45837 8.171 1.51671 8.22933 1.60421 8.22933H6.27087V12.896C6.27087 12.9835 6.32921 13.0418 6.41671 13.0418H7.58337C7.67087 13.0418 7.72921 12.9835 7.72921 12.896V8.22933H12.3959C12.4834 8.22933 12.5417 8.171 12.5417 8.0835V6.91683C12.5417 6.82933 12.4834 6.771 12.3959 6.771Z" fill="#005EE7"/>
</svg>
