<svg width="16" height="16" viewBox="0 0 16 16" fill="none" xmlns="http://www.w3.org/2000/svg">
<path d="M14.1667 7.39984H8.60002V1.83317C8.60002 1.73317 8.53335 1.6665 8.43335 1.6665H7.60002C7.50002 1.6665 7.43335 1.73317 7.43335 1.83317V7.43317H1.83335C1.73335 7.43317 1.66669 7.49984 1.66669 7.59984V8.43317C1.66669 8.53317 1.73335 8.59984 1.83335 8.59984H7.43335V14.1998C7.43335 14.2998 7.50002 14.3665 7.60002 14.3665H8.43335C8.53335 14.3665 8.60002 14.2998 8.60002 14.1998V8.59984H14.2C14.3 8.59984 14.3667 8.53317 14.3667 8.43317V7.59984C14.3334 7.49984 14.2667 7.39984 14.1667 7.39984Z" fill="#121212"/>
</svg>
