<svg width="14" height="14" viewBox="0 0 14 14" fill="none" xmlns="http://www.w3.org/2000/svg">
<path d="M12.3958 6.47516H7.52498V1.60433C7.52498 1.51683 7.46665 1.4585 7.37915 1.4585H6.64998C6.56248 1.4585 6.50415 1.51683 6.50415 1.60433V6.50433H1.60415C1.51665 6.50433 1.45831 6.56266 1.45831 6.65016V7.37933C1.45831 7.46683 1.51665 7.52516 1.60415 7.52516H6.50415V12.4252C6.50415 12.5127 6.56248 12.571 6.64998 12.571H7.37915C7.46665 12.571 7.52498 12.5127 7.52498 12.4252V7.52516H12.425C12.5125 7.52516 12.5708 7.46683 12.5708 7.37933V6.65016C12.5416 6.56266 12.4833 6.47516 12.3958 6.47516Z" fill="#0041C3"/>
</svg>
