<svg width="16" height="16" viewBox="0 0 16 16" fill="none" xmlns="http://www.w3.org/2000/svg">
<path d="M14.1667 7.1665H8.83332V1.83317C8.83332 1.73317 8.76666 1.6665 8.66666 1.6665H7.33332C7.23332 1.6665 7.16666 1.73317 7.16666 1.83317V7.1665H1.83332C1.73332 7.1665 1.66666 7.23317 1.66666 7.33317V8.6665C1.66666 8.7665 1.73332 8.83317 1.83332 8.83317H7.16666V14.1665C7.16666 14.2665 7.23332 14.3332 7.33332 14.3332H8.66666C8.76666 14.3332 8.83332 14.2665 8.83332 14.1665V8.83317H14.1667C14.2667 8.83317 14.3333 8.7665 14.3333 8.6665V7.33317C14.3333 7.23317 14.2667 7.1665 14.1667 7.1665Z" fill="#0041C3"/>
</svg>
