<svg id="레이어_1" data-name="레이어 1" xmlns="http://www.w3.org/2000/svg" viewBox="0 0 432.08 432.12"><defs><style>.cls-1{opacity:0.6;}.cls-2{fill:#32fff5;}.cls-3{opacity:0.2;}</style></defs><g class="cls-1"><path class="cls-2" d="M790.6,354.6a19.13,19.13,0,0,1,2.81,7.25c.1-2.91.15-5.82.13-8.73a18.77,18.77,0,0,0-2.75-7.1c0,2.86-.07,5.72-.19,8.58" transform="translate(-361.46 -139.64)"/><path class="cls-2" d="M447.57,185.78c1.27-.08,2.64-.09,4.1,0a201.17,201.17,0,0,1,32.51-22.5,35,35,0,0,0-3.72,0,203.75,203.75,0,0,0-32.89,22.5" transform="translate(-361.46 -139.64)"/><path class="cls-2" d="M446.51,182.44c6.27-4.17,12.47-8.46,18.74-12.65-5.7,3.73-13.33,8.68-18.82,12.71l.08-.06m-7.62,6.05-.24.16c18.1-13.85,19.18-14.68,35.74-24.07h0c-3.1,2.55-12.58,8.8-35.5,23.91" transform="translate(-361.46 -139.64)"/><path class="cls-2" d="M719.36,504.05a20,20,0,0,1,2.94,7.58q3.36-3,6.59-6.1a20.35,20.35,0,0,0-3-7.69q-3.23,3.18-6.55,6.21" transform="translate(-361.46 -139.64)"/><path class="cls-2" d="M408.22,491a62.62,62.62,0,0,0,5.2,5.81l.1-.2c-1.74-3.59-7.63-10.21-9.57-12.39,1.21,1.8,2.56,3.49,3.62,5.38-.06,0-1.41-.72-7.54-10.49-.09-.16-9.76-15.52-11-16.79a2,2,0,0,0,.14.41c.15.3.34.68,1,1.75L391,466l4.56,7.39,1.23,1.88c-2-3.07-2.76-4.4-3-4.92.15.15.46.47,2.95,4.47A153.77,153.77,0,0,0,408.22,491" transform="translate(-361.46 -139.64)"/><path class="cls-2" d="M414.64,498.64q-5.77-6.48-10.89-13.42c3.49,4.41,8.12,10.31,11.8,14.56l.79.9c-.63-.71-1.2-1.39-1.7-2" transform="translate(-361.46 -139.64)"/><path class="cls-2" d="M550.92,569.08a5.74,5.74,0,0,1-1,.33c6.65.92,15.56,1.87,22.26,2.33a198,198,0,0,1-24.35-2.08c-.52,0-1.07,0-1.66,0a186.55,186.55,0,0,0,20.5,2c6.05,0,14.12.15,20.16-.08H587c-6.32.08-14.76-.08-21.08-.45a205.52,205.52,0,0,0,24.06.11,8.66,8.66,0,0,0,1.56-.5,211.53,211.53,0,0,1-40.57-1.6" transform="translate(-361.46 -139.64)"/><path class="cls-2" d="M567.69,563.74a9.45,9.45,0,0,1,1.36,3.53q4.47.11,8.92.05a9.9,9.9,0,0,0-1.48-3.82c-2.93.14-5.87.22-8.8.24" transform="translate(-361.46 -139.64)"/><path class="cls-2" d="M603.26,148.51c-14.77-1-11.86-3.58-11.83-3.6,2.22-1.82,6.54-1,13.68.46-4.18.22-4.34.65-4.43.92.32.29,3.62,1.41,8.16.5,7.52-1.51,23.94,3.23,25.34,4.63l-.08.21c-2.2.61-3.59.26-12.62-2a11.53,11.53,0,0,0,3.34-.15l-.05-.21c-1.56-.64-4.37-1.3-8.91-.77-1.65.19-4.71.55-12.6,0" transform="translate(-361.46 -139.64)"/><path class="cls-2" d="M600.6,155a8.23,8.23,0,0,1-2.8-2,43.94,43.94,0,0,1-3.5-4,206.68,206.68,0,0,1,40,4,29.91,29.91,0,0,0,3.06,3.31c-2.63-.37-5.27-.67-7.91-.92-1-1-1.93-1.91-2.68-2.77-2.38-.33-4.77-.62-7.15-.86.85.9,2,2.1,2.88,3q-3.91-.22-7.85-.29a46.13,46.13,0,0,1-3.21-3.34c-2.44-.14-4.88-.25-7.31-.31.63.73,1.34,1.5,2.12,2.29a7.8,7.8,0,0,0,2,1.52c-2.45.15-5.09.26-7.72.42" transform="translate(-361.46 -139.64)"/><path class="cls-2" d="M623.65,162.25q-6.39.7-12.84,1.95c-1.06-.82-2.09-1.62-3.08-2.42,4.47-.69,8.93-1.21,13.35-1.54a157.64,157.64,0,0,1,18.52-2c.55.47,1.12.95,1.73,1.44-3.38.28-7.92.47-11.27,1,4.16.3,9.72.64,13.87,1,.68.52,1.38,1.05,2.11,1.58-6.71-.39-15.67-1.31-22.39-1.05" transform="translate(-361.46 -139.64)"/><path class="cls-2" d="M629.13,176.56a18.81,18.81,0,0,1-4.53-2.47q-4.23-2.86-8.05-5.61a138.21,138.21,0,0,1,30.1-4.74c2,1.48,4.26,3,6.64,4.56q-2.52.52-5.1,1.22-2.9-1.91-5.52-3.74c-1.7.23-3.41.5-5.13.82,1.77,1.21,4.13,2.81,5.92,4q-2.58.79-5.2,1.73-3.48-2.3-6.65-4.51c-1.77.41-3.55.85-5.33,1.34,1.47,1,3,2.07,4.57,3.13a20.45,20.45,0,0,0,3.59,2c-1.76.71-3.53,1.48-5.31,2.29" transform="translate(-361.46 -139.64)"/><path class="cls-2" d="M653.31,180.07c-1.46,1-5.26,3.11-8.75,1.22-4.07-2.8,2-6.4,6.83-7.29,4-.73,6.84.47,4.76,3.43a10.76,10.76,0,0,1-2.84,2.64m3.8,2.16c1.9-1.67,7.72-7.35,2.84-10.15-6.68-3.38-25.35,2.35-23.37,8.91,1.15,3.8,11,9.59,20.53,1.24" transform="translate(-361.46 -139.64)"/><path class="cls-2" d="M670.44,201.13q-2.36-1.23-4.67-2.47c-.22-4.49-.28-10.5,0-15q-3.47,4.88-7.51,10.9-2.41-1.33-4.78-2.69c5-6.06,9.58-11.17,13.63-15.18l2.61,1.47a111.16,111.16,0,0,0-.56,12.38c1.73-3.76,3.27-7.17,4.58-10.19l2.78,1.46c-1.42,5.44-3.45,11.93-6,19.31" transform="translate(-361.46 -139.64)"/><path class="cls-2" d="M689.91,199.19c1.47,16.49-10.53,6.8-10.65,6.7-8.5-7.17-2.57-21.25,1.76-21.65a4,4,0,0,1,2,.46c1.58.8,2.69,2.1,4.72,5.59l-1.46,2.39c-4.24-7.76-6.38-1.21-6.4-1.14-2.43,7.73,2.7,12.46,5.16,11,.15-.09.92-.66.93-2.68l-3.52-1.71c.11-1.55.19-3.06.24-4.54,2.34,1.15,4.64,2.24,6.88,3.28.11.77.21,1.54.31,2.32" transform="translate(-361.46 -139.64)"/><path class="cls-2" d="M703,198.05q-2.78-1.05-5.77-2.31c.66,1.62,1.3,3.28,1.9,5,1.19.5,2.37,1,3.52,1.44a8.64,8.64,0,0,0,2.56.76q1.37,2.86,2.62,5.83c-.51,0-.85.06-3.3-.92l-3.54-1.45q1.53,5.06,2.72,10.46-2.17-.92-4.43-1.89a118.33,118.33,0,0,0-6.8-25.47c2.58,1.12,5,2.13,7.34,3q1.65,2.72,3.18,5.57" transform="translate(-361.46 -139.64)"/><path class="cls-2" d="M712.34,204.19c.29.48,1.69,2.86.46,2.63l-.2,0c-.69-.23-1.39-.47-2.1-.73q-1.83-3.37-3.81-6.61l1.83.63c1.64.65,3.47,3.55,3.82,4.13m10.49,19.86c1.27.41,2.5.79,3.69,1.15-2.59-3.86-6-9-8.65-12.85.52-3.74-9-16.39-13.72-18.28-1.06-.37-2.17-.76-3.32-1.19A142.17,142.17,0,0,1,714.4,221.1c1.3.48,2.57,1,3.82,1.38q-2.12-5.25-4.54-10.24l2.15.75,7,11.06" transform="translate(-361.46 -139.64)"/><path class="cls-2" d="M726.73,212.6c2.85,3.9,5.2,8,3.61,8-3.53-1.16-13.79-17.41-13.49-18.26.9-.32,6,5,9.88,10.31m1.82.17c-6.87-8.91-15.3-16.88-17.38-17.16l-.22,0c-.88,1.67,15.5,24.71,15.67,24.93,5.86,7.67,8.45,7.68,9.1,7.51,2.22-.61-.8-7.06-7.17-15.33" transform="translate(-361.46 -139.64)"/><path class="cls-2" d="M746.39,227.58a5.56,5.56,0,0,1-1.11.36c-5.27-6-12.44-14-17.95-19.8a212.13,212.13,0,0,1,15.61,20.08c-.57,0-1.19,0-1.85,0a207.58,207.58,0,0,0-25.48-31.39c.36,0,.7,0,1,0,5.63,5.33,13,12.56,18.45,18.1a217.26,217.26,0,0,0-17.19-18.24,2.84,2.84,0,0,0,.66-.21,218.23,218.23,0,0,1,27.85,31.11" transform="translate(-361.46 -139.64)"/><path class="cls-2" d="M449.24,198.84c-8.08,5.88-12.75,3.34-11.95-1.25.42-2.48,3.69-6.59,4.31-7.18,1.43-1.34,4.21-1.77,6-2.53-5.26,7.78-1.35,7-1.31,7,1.36-.35,3.25-1.47,4.52-4.82,5.47-14.47,20.24-18,22.23-14.62,1.39,3.34-2.36,8-2.41,8-1.63,1.62-5.23,1.2-7.48,1.71,0-.06,3.56-6,.65-5.4-3.37.64-4.94,5.1-5.77,7.5s-2.44,7-8.8,11.59" transform="translate(-361.46 -139.64)"/><path class="cls-2" d="M456.28,220c-.61-.27-2.22-1-5.3-4.1a104.81,104.81,0,0,1-7.94-9,234.88,234.88,0,0,1,33.31-24.48,109.19,109.19,0,0,0,11.36,12.29c-2.4,1.62-4.79,3.29-7.14,5-3.33-3.16-6.24-6.16-8.67-9q-3.11,2.1-6.14,4.3c2.47,2.64,5.81,6.11,8.39,8.64q-3.4,2.63-6.73,5.37c-3.26-3.12-6.11-6.08-8.52-8.85q-3,2.35-6,4.81c1.56,1.8,3.31,3.67,5.22,5.61a21,21,0,0,0,4.56,3.58q-3.25,2.85-6.43,5.83" transform="translate(-361.46 -139.64)"/><path class="cls-2" d="M491.75,230.09q-5.73,5.49-11.24,11.34-3.63-2.79-7-5.49,5.63-5.76,11.47-11.16c3-6.94,7.35-16.05,10.94-22.71q3.06,2.63,6.44,5.37c-2.15,4.07-5.15,9.42-7.1,13.58,5-1.81,11.7-4.27,16.75-6q3.78,2.88,7.85,5.85c-8.46,2.68-20.53,4.61-28.11,9.22" transform="translate(-361.46 -139.64)"/><path class="cls-2" d="M521.44,269.35c-1-.39-3.39-1.29-9.65-5.49q-9.62-6.5-18.26-12.73a335.74,335.74,0,0,1,28.59-28.62c7.58,5.47,15.83,11.14,24.64,16.93q-2.84,3-5.66,6.12-9.36-6.13-17.85-12.08c-1.72,1.69-3.44,3.4-5.14,5.14,5.18,3.53,12.1,8.21,17.32,11.67-1.83,2.08-3.66,4.2-5.47,6.34q-9.23-6.07-17.63-12-2.57,2.75-5.08,5.55,5.43,3.81,11.22,7.7a59.67,59.67,0,0,0,8.31,4.77q-2.68,3.29-5.34,6.66" transform="translate(-361.46 -139.64)"/><path class="cls-2" d="M568.24,277.36c-1.51,1.86-7.12,7.53-15.87,2.68-10.69-7.14-3.15-18.49,5.25-20.39,9.06-2.06,17.48,7.09,11.75,16.14a17.32,17.32,0,0,1-1.13,1.57m10.33,5.92c7.91-11.06,4.9-22.2-8-29.79-21.06-11.38-38,8.5-34.47,21.43,3.71,13.48,29.61,26.42,42.51,8.36" transform="translate(-361.46 -139.64)"/><path class="cls-2" d="M615.76,325.19q-5.34-2.78-10.61-5.59c-1.52-9.23-3.41-21.55-4.7-30.82q-6.11,10.52-12.39,21.53-5.47-3-10.85-6.09c7-11.66,14-22.89,20.77-33.58,3.19,1.81,6.42,3.63,9.68,5.43,1.14,8.68,2.8,20.24,4.18,28.89q5.53-10.6,10.77-20.75,5.11,2.73,10.31,5.44c-5.38,11.46-11.13,23.35-17.16,35.54" transform="translate(-361.46 -139.64)"/><path class="cls-2" d="M668.49,329.91c-2.49,6-5.59,13.58-17.11,12.68-4.44-.35-18.11-4.76-22.91-15.84-6.22-14.36,6.39-34.59,26.55-26.75,1.46.57,2.66,1.15,3.31,1.46,5.62,2.93,8.83,6.41,12.24,13.3l-8,2.72c-6-12.09-18.84-12.82-23-1.31-4.45,12.39,8.74,18.23,13.31,16.15a6.42,6.42,0,0,0,3.21-3.51q-4.58-2.19-9.23-4.47,1.57-3.81,3.07-7.58,10.11,5,19.8,9.43-.62,1.86-1.26,3.72" transform="translate(-361.46 -139.64)"/><path class="cls-2" d="M718,337.72q-8.92-3.41-18.61-7.47-.87,3.76-1.81,7.55,5.22,2.19,10.22,4.19a49.82,49.82,0,0,0,7.95,2.65q-.82,4.14-1.75,8.28c-2.45-.29-4.28-1-9.31-3q-4.56-1.83-9.29-3.82-2,7.32-4.32,14.68c-3.3-1.38-6.64-2.81-10.05-4.29,4.38-13,8.07-25.87,11.06-38.47,9.58,4.17,18.7,7.9,27.25,11.17-.41,2.83-.85,5.66-1.34,8.5" transform="translate(-361.46 -139.64)"/><path class="cls-2" d="M740,350.87c-.38,1.88-1.63,3.88-5.37,2.76-1.95-.65-3.94-1.34-6-2.05.53-3.15,1-6.28,1.44-9.41q3,1.06,5.9,2c4.34,1.62,4.37,4.87,4,6.67m-5.42,26.31c2.88.93,5.66,1.8,8.36,2.6-.7-5.21-1.55-12.18-2.36-17.38,9-3.44,10.2-21.09-3.41-26.71-.46-.19-1.07-.4-1.53-.57q-5.94-2-12.34-4.41a321.89,321.89,0,0,1-7.84,39.78c2.95,1.1,5.84,2.14,8.65,3.14q1.65-6.75,3-13.49l5.56,1.92,1.93,15.12" transform="translate(-361.46 -139.64)"/><path class="cls-2" d="M769,366.33c-.29,2.45-1.62,10.38-6.79,9.73-7.66-2.25-5.22-21-.25-23.87,4.11-2.38,8.24,3.8,7,14.14m5.18.59c.31-3.76,1.3-22.59-10.38-24.64-13.87-1.45-16.39,30.7-9.24,39.35,5.73,6.92,17.82,6.58,19.62-14.71" transform="translate(-361.46 -139.64)"/><path class="cls-2" d="M788,385.19a13.44,13.44,0,0,1-2.51.82c-.73-7.53-2-17.55-3.31-25a228.31,228.31,0,0,1-2,25.66c-1.3,0-2.71,0-4.2-.07a232.46,232.46,0,0,0,2.17-41.28c1.34.08,2.59.1,3.76.06,1.66,7.23,3.62,16.93,4.81,24.25a222.6,222.6,0,0,0-.13-24.78,13.56,13.56,0,0,0,2.45-.79A217.9,217.9,0,0,1,788,385.19" transform="translate(-361.46 -139.64)"/><path class="cls-2" d="M367,343.3c-.87,5.4-2.4,7.61-3.9,5.61-.79-1.05-3.16-5.47-.3-18.14,0,5.26.36,8.22,1.14,8.8,1-.43,1.1-3.46.39-9-1.3-10.17,2.44-30.11,5.61-24.28,1.85,4.07,1.78,11.47,1.77,11.53-.15,1.65-2.27,3.14-3.24,4.48-.09-1.62-.42-6.94-1.25-7.38-.85.72-1.61,3.32-.46,11.65A53.14,53.14,0,0,1,367,343.3" transform="translate(-361.46 -139.64)"/><path class="cls-2" d="M379.86,367c-.51-.22-1.69-.76-4.71-3.82a99.64,99.64,0,0,1-7.79-8.86,208.29,208.29,0,0,1,7.17-39.6,126,126,0,0,0,13.11,14.19c-.83,2.75-1.61,5.51-2.33,8.26-3.71-3.53-6.95-6.87-9.66-10-.58,2.39-1.13,4.79-1.62,7.19,2.66,2.85,6.25,6.6,9,9.32q-.92,4.06-1.67,8.11c-3.4-3.27-6.39-6.36-8.9-9.26-.41,2.41-.77,4.83-1.08,7.24,1.58,1.82,3.35,3.73,5.3,5.7a22.43,22.43,0,0,0,4.22,3.49q-.62,4-1.08,8" transform="translate(-361.46 -139.64)"/><path class="cls-2" d="M407.06,373.89q-1.72,7.23-3,14.34-3.55-2.73-6.86-5.38,1.14-7.2,2.77-14.5c-1.08-9.24-2.26-21.59-2.87-30.87q3.53,3,7.43,6.2c.3,5.61.59,13.1,1.05,18.7,3-3,7-7.07,10.1-9.95q4.37,3.33,9.06,6.75c-5.44,4.26-14.16,8.79-17.71,14.71" transform="translate(-361.46 -139.64)"/><path class="cls-2" d="M443.93,415.55c-1-.39-3-1.21-9.18-5.33s-12.26-8.42-17.9-12.49a272.94,272.94,0,0,1,10.53-36.65c8.75,6.32,18.28,12.87,28.46,19.55q-1.57,3.89-3,7.71-10.43-6.84-19.9-13.47c-.77,2.24-1.52,4.47-2.23,6.69,5.6,3.82,13.07,8.89,18.72,12.63-.9,2.48-1.75,5-2.57,7.41q-9.65-6.35-18.44-12.5c-.64,2.21-1.25,4.42-1.83,6.61q5.52,3.85,11.39,7.81a64,64,0,0,0,8.19,4.82c-.77,2.42-1.5,4.83-2.19,7.21" transform="translate(-361.46 -139.64)"/><path class="cls-2" d="M486.23,423.3c-1.31,2.4-5.28,7.46-13.8,2.67-11.45-7.53-7-20.27.2-21.94,8-1.88,19.2,9,13.6,19.27m10.9,6.27c6.13-11.68.86-23.92-14.09-32.73-23.5-12.88-30.18,9.55-27.23,20.19,4.4,15.86,31.05,30,40.8,13.48.17-.28.37-.65.52-.94" transform="translate(-361.46 -139.64)"/><path class="cls-2" d="M536.67,470.33q-5.24-2.71-10.4-5.48c-2-8.69-4.64-20.28-6.59-29q-5.32,10.32-10.16,19.89-5.37-3-10.64-6c4.87-10.42,10.25-21.5,16.11-33.12q5.53,3.15,11.19,6.28c1.84,8.77,4.33,20.46,6.25,29.21q5.33-9.54,11-19.81,5.91,3.15,11.91,6.28c-6.48,11.29-12.73,21.89-18.68,31.71" transform="translate(-361.46 -139.64)"/><path class="cls-2" d="M592.31,479c-3.54,4.26-9.48,11.41-22.5,8.14-7.63-1.92-20.78-8.12-21.74-19.25-.9-10.54,11.77-27.42,36-15.74,6.93,3.4,10.46,7,13.5,13.95l-10,1.6c-5.66-12.32-22.61-13.27-26.68-1.48-3.33,9.63,9.7,15.42,15.23,12.64a6.4,6.4,0,0,0,2.41-2q-4.75-2.26-9.6-4.64,2.09-3.12,4.2-6.33Q584,471.16,594.44,476q-1.07,1.5-2.13,3" transform="translate(-361.46 -139.64)"/><path class="cls-2" d="M650,491c-6.63-2.53-13.56-5.31-20.74-8.32-1.52,2-3.06,4-4.6,6,3.75,1.58,7.43,3.08,11,4.53a66.68,66.68,0,0,0,8.75,3c-1.72,2.05-3.47,4.06-5.22,6-1.59-.29-3.08-.56-10-3.31q-4.76-1.9-9.68-4-4.47,5.37-9,10.33c-3.22-1.36-6.51-2.76-9.84-4.21a345.48,345.48,0,0,0,23-29.62c11.07,4.81,21.6,9.12,31.48,12.9q-2.6,3.42-5.22,6.71" transform="translate(-361.46 -139.64)"/><path class="cls-2" d="M671.78,503.74c-1.39,1.33-3.91,2.66-8,1.42-2.09-.71-4.22-1.44-6.39-2.21q3-3.39,6-7c2.24.79,4.43,1.54,6.59,2.27,4.73,1.73,3.14,4.18,1.77,5.48M653.15,521.3q4.23,1.37,8.19,2.55c1.68-3.53,4-8.19,5.55-11.8,10.69-1.14,20.5-11.36,13.91-17.35-2-1.78-5-2.9-6.82-3.57-4.56-1.55-9.32-3.25-14.24-5.09a261.45,261.45,0,0,1-25.33,28.69q4.33,1.62,8.47,3.08,4.56-4.26,9-8.88c1.95.69,3.86,1.35,5.75,2l-4.46,10.38" transform="translate(-361.46 -139.64)"/><path class="cls-2" d="M698.51,517.38c-1.78,1.58-8,6.7-13.47,5.88-6.6-1.82,2.76-11,8.33-14.16,6.14-3.54,11.51-3,10.45,1.09-.31,1.19-1.41,3.7-5.31,7.19m5.56.68c4-3.68,16.17-15.87,3-18.3-17.06-2.31-38.17,20.2-33.4,26.77,3.44,4.74,16.24,4.44,30.4-8.47" transform="translate(-361.46 -139.64)"/><path class="cls-2" d="M705.52,529.15a13.93,13.93,0,0,1-2.46.8,194.38,194.38,0,0,0,13.77-15.76,204.46,204.46,0,0,1-19,16.38c-1.28,0-2.66,0-4.13-.06a207.48,207.48,0,0,0,29.37-27.62c1.54.09,3,.11,4.34.07a201.77,201.77,0,0,1-12.07,16.81,206.56,206.56,0,0,0,17.47-17.42,15.78,15.78,0,0,0,2.84-.92,207,207,0,0,1-30.17,27.72" transform="translate(-361.46 -139.64)"/><path class="cls-2" d="M731.64,506.76a8.17,8.17,0,0,1-1.32.93q3.2-3.27,6.26-6.71a7.71,7.71,0,0,0,1.62-1.19l-6.56,7" transform="translate(-361.46 -139.64)"/><path class="cls-2" d="M395.54,473.35,391,466l-.86-1.49c1.75,3,3.61,5.92,5.42,8.88" transform="translate(-361.46 -139.64)"/><path class="cls-2" d="M419.2,503.54a11.44,11.44,0,0,1-1.42-1.33q-.76-.79-1.44-1.53l-.79-.9c-3.59-4.32-8.4-10.08-11.8-14.56a186,186,0,0,1-11.45-17.51,69.5,69.5,0,0,0,7.23,7.83q1.8,3.25,3.73,6.42c-1.93-1.84-3.62-3.58-5-5.21,1.21,1.91,2.45,3.79,3.73,5.66,1.31,1.4,3.08,3.26,4.45,4.6q2,3,4.21,6c-1.58-1.52-3-2.95-4.14-4.3q2.07,2.76,4.26,5.43c.69.8,1.47,1.63,2.31,2.49a16.84,16.84,0,0,0,1.42,1.32c1.58,1.94,3.14,3.8,4.74,5.61" transform="translate(-361.46 -139.64)"/><path class="cls-2" d="M422.73,503.33a107.73,107.73,0,0,0,6.71,9c-.95-.73-1.87-1.46-2.76-2.17a117.71,117.71,0,0,1-7.23-9.36c-4.55-6.05-10.44-14.24-14.69-20.51,1.3,1.11,2.67,2.26,4.11,3.42,2.51,3.76,5.79,8.83,8.43,12.51-.71-2.3-1.83-5.32-2.29-7.68q2.42,1.83,5,3.72c.48,3.4,1.16,8,2.72,11.11" transform="translate(-361.46 -139.64)"/><path class="cls-2" d="M445.22,523.25a24.47,24.47,0,0,1-3.42-2.1q-3.8-2.56-7.21-5a94.4,94.4,0,0,1-13.14-22.85c4.83,3.48,10.08,7.09,15.7,10.78.4,1.57.84,3.1,1.31,4.59-3.62-2.38-7.09-4.73-10.38-7q.93,2.13,1.93,4.17c2.77,1.89,6.46,4.39,9.25,6.25.55,1.4,1.13,2.77,1.75,4.1q-4.49-3-8.57-5.82c.75,1.32,1.54,2.6,2.35,3.85,1.61,1.13,3.27,2.26,5,3.41a39.45,39.45,0,0,0,3.36,2.07c.66,1.24,1.36,2.45,2.09,3.61" transform="translate(-361.46 -139.64)"/><path class="cls-2" d="M458.75,526.28c0,1.52-.62,2.94-3.82,1.1-5.39-3.46-7.59-10-5.22-10.61,2.64-.7,9,4.66,9,9.51m5.16,3c.47-5.45-4-11.54-12-16.28-7.82-4.4-9.24-1.27-8.08,2.75,2.71,9.41,16.78,20.52,19.55,15.44a5,5,0,0,0,.51-1.91" transform="translate(-361.46 -139.64)"/><path class="cls-2" d="M482.87,545.38l-4.19-2.21c-1.37-3.13-3.23-7.3-4.63-10.42-.95,2.66-1.66,4.92-2.12,6.75l-4.29-2.4a61.53,61.53,0,0,1,2.13-13.18c2,1.16,4.09,2.31,6.17,3.47,1.48,3.66,3.43,8.55,4.86,12.24,1.35-2,2.91-4.33,4.66-7.06,2.17,1.16,4.36,2.32,6.57,3.46a70.59,70.59,0,0,1-9.16,9.35" transform="translate(-361.46 -139.64)"/><path class="cls-2" d="M509.19,552.78c-11.22,2.71-23.27-4.3-21-8.52,1.77-3.23,8.6-6,20.17-.42,4.15,2.12,5.41,3.88,6,5.88l-6.12-.51c-1.84-5.14-12.62-6.13-14.54-2.47-1.3,2.5,5.37,4.93,8.16,4.13l.15,0c-1.45-.7-2.93-1.41-4.41-2.14.93-.42,1.87-.89,2.84-1.41,3.56,1.74,7,3.41,10.45,5-.58.19-1.16.37-1.74.53" transform="translate(-361.46 -139.64)"/><path class="cls-2" d="M541.27,562.17c-3.45-1.32-7.06-2.77-10.8-4.34-1.52.32-3,.6-4.53.83,1.84.77,3.66,1.52,5.44,2.23a45.91,45.91,0,0,0,4.47,1.61q-2.77.24-5.52.3a38.64,38.64,0,0,1-4.83-1.72q-2.19-.89-4.47-1.84a65.71,65.71,0,0,1-8.39.21c-1.3-.54-2.62-1.11-4-1.69a67.16,67.16,0,0,0,21.07-3.64c6.1,2.66,11.91,5,17.36,7.12q-2.93.56-5.83.93" transform="translate(-361.46 -139.64)"/><path class="cls-2" d="M550.4,567a19,19,0,0,1-5.85-.76c-1-.35-2-.7-3.11-1.08,2.27-.07,4.56-.21,6.85-.42l3.43,1.19c.5.17,1.42.5.94.78a6.13,6.13,0,0,1-2.26.29m-20.58-1.09c1.13.37,2.23.71,3.3,1,3,.13,7,.48,10,.39,8.9,1.45,19.21,1,17.52-.84a11,11,0,0,0-3.17-1.51c-2.52-.85-5.14-1.79-7.86-2.8a100.14,100.14,0,0,1-27.34,1.08c1.17.44,2.31.85,3.42,1.25q4.76.56,9.59.67c.89.32,1.76.62,2.62.91l-8.07-.18" transform="translate(-361.46 -139.64)"/><path class="cls-2" d="M559.56,571a114.15,114.15,0,0,1-12.13-1.24l-.38-.11c.89-.43,21,.62,22,1.14-.44.55-6.38.38-9.46.21m2.72.37c6.71.36,14.31.33,15.84-.44l0-.23a5.46,5.46,0,0,0-1.94-.58c-7.1-1.26-37.41-1.74-37.65-1.73.82.58,13.21,2.41,23.73,3" transform="translate(-361.46 -139.64)"/><path class="cls-2" d="M566.68,571.6q9,.36,17.88-.12c.81,0,1.57.06,2.28,0-6.05.1-14.12.26-20.16.08" transform="translate(-361.46 -139.64)"/></g><g class="cls-3"><path class="cls-2" d="M741.17,214c.75.83,1.53,1.65,2.28,2.48.4.44.77.87,1.12,1.3l-5.44-6.4-.69-.79-.31-.34c-.57-.62-1.24-1.32-1.84-1.95q2.51,2.79,4.88,5.7" transform="translate(-361.46 -139.64)"/><path class="cls-2" d="M732,206.08c.89.72,1.74,1.42,2.57,2.11A157.14,157.14,0,0,0,724,196a143.28,143.28,0,0,1,14.37,15.52c.77.7,1.5,1.39,2.18,2.05a153.93,153.93,0,0,0-11.91-13.15l-5-4.8-3.43-3.09c1.88,1.85,4.5,4.22,6.26,6.19a123.78,123.78,0,0,0-9.71-9.16l-3.84-3.16-.24-.19A113.89,113.89,0,0,1,732,206.08" transform="translate(-361.46 -139.64)"/><path class="cls-2" d="M714.79,189.34c4.57,4.94,5.16,5.58,6.82,6.85.69.5,1.36,1,2,1.49a94.25,94.25,0,0,0-11.09-11.42c-.47-.36-.95-.71-1.44-1.07a3,3,0,0,0-.44-.3c0,.1,0,.11,1,1.14s1.91,2,3.14,3.31m-2.34-1.49c-2-2.28-4.3-4.33-6.33-6.62a7.48,7.48,0,0,1,1,.7c.39.29.77.57,1.14.86l2.52,1.94a107.21,107.21,0,0,1,19.51,20c-1.43-1.12-2.94-2.26-4.51-3.43-4.33-3.31-5.53-4.66-13.37-13.47" transform="translate(-361.46 -139.64)"/><path class="cls-2" d="M696.93,176.42a13.48,13.48,0,0,0,3.11,2.73l2.47,1.56a38.52,38.52,0,0,0-3-3.39L697.43,176c-.39-.25-1.06-.65-.94-.25a2.76,2.76,0,0,0,.44.69m-3-1.8c-.82-1.21-.83-1.51-.84-1.66l.12-.12c.35,0,.86.26,2.34,1.18q1.89,1.18,3.67,2.35a47.78,47.78,0,0,1,12.22,14.92q-2-1.32-4.09-2.66a45.58,45.58,0,0,0-2.65-4.84l-2.6-1.65a28.59,28.59,0,0,1-8.17-7.52" transform="translate(-361.46 -139.64)"/><path class="cls-2" d="M681.15,168.48c0,.35-.08,2.2,3.72,4.44,3.52,1.89,4.18.68,3.77-.59-.79-2.43-6.37-6.12-7.37-4.27a1.13,1.13,0,0,0-.12.42m-4-2.2c1.43-2.25,5.67.16,7.47,1.19,8.63,5,9.18,9.6,7.09,10.12-4.14,1-16.93-7.57-14.56-11.31" transform="translate(-361.46 -139.64)"/><path class="cls-2" d="M666.45,159.51c-.48.06-.27.37,0,.61a7.9,7.9,0,0,0,1.13.65l2.89,1.46a9.47,9.47,0,0,1,1.8-.45l-2.51-1.27c-2-1-3-1-3.36-1m-7.25,2.11q-2.7-1.34-5.33-2.59c2.52.08,5.89.11,8.41.29-1.25-1.18-.32-1.41.35-1.45,1.41-.07,4.21.38,9.51,3l3.19,1.62,1.28.67c-1.38.23-3.39,1.69-6,4.28l-2.32-1.21-2.74-1.41a24.8,24.8,0,0,1,3.13-1.84l-3-1.5-6.58.13" transform="translate(-361.46 -139.64)"/><path class="cls-2" d="M654.35,153.34q1.59.67,3.24,1.41a45.06,45.06,0,0,0-14.42-.65q2.28,1,4.62,2.09a36.42,36.42,0,0,1,12.83-.07c1.09.5,2.21,1,3.33,1.56a21.66,21.66,0,0,1,2.82.57c-2.82-1.34-5.54-2.56-8.12-3.66-1.41-.48-2.84-.9-4.3-1.25" transform="translate(-361.46 -139.64)"/><path class="cls-2" d="M645,149.61c1.77.65,3.63,1.37,5.56,2.15q-2.21-.58-4.44-1c-1.16-.47-2.3-.91-3.41-1.34-1.43-.55-1.63-.63-2.22-.88-1.95-.45-3.81-.81-5.68-1.1a26.57,26.57,0,0,0,2.93,1.2c1.12.43,2.26.89,3.43,1.36a70.59,70.59,0,0,0-8.88-.49l4.3,1.77a57.85,57.85,0,0,1,21.14,3q-3.76-1.59-7.1-2.8-2.79-1-5.63-1.8" transform="translate(-361.46 -139.64)"/><path class="cls-2" d="M626.17,144.27a35.77,35.77,0,0,0-6.28-.93c.1.12.1.12.55.26,6.16,1.77,12.52,2.57,18.74,4,0,0-6.33-2-13-3.36m-2.33-.6c.61.12,6.24,1.33,15.2,3.91,2,.61,4.56,1.41,6.5,2l-.21-.07a134.73,134.73,0,0,0-19.1-4.11c-3.93-.65-13.13-2.16-14.58-3.25l.09-.15c1.65-.29,7.43.63,12.1,1.62" transform="translate(-361.46 -139.64)"/><path class="cls-2" d="M600.52,139.83l.53.07c1.35.17,2.83.43,4.43.77a158.21,158.21,0,0,1,16.58,2.59l-10.47-1.94-.78-.13-.21,0-10.1-1.33h0" transform="translate(-361.46 -139.64)"/><path class="cls-2" d="M777.26,354.93a30.7,30.7,0,0,0,4.1,5.17,75,75,0,0,1,6.77,8.54,202.23,202.23,0,0,0,1-39.6,81.58,81.58,0,0,0-9.84-11.64q.18,4,.18,8.09a98.49,98.49,0,0,1,7.61,8.51c0,2.37.07,4.74,0,7.12-2.14-2.54-5-5.88-7.31-8.29-.09,2.67-.22,5.35-.42,8a103.93,103.93,0,0,1,7.47,8.4q-.2,3.64-.52,7.29c-1.32-1.69-2.84-3.46-4.53-5.31a41.19,41.19,0,0,1-3.58-4.43q-.43,4.05-1,8.11" transform="translate(-361.46 -139.64)"/><path class="cls-2" d="M755.4,336.43c2,1.61,4,3.21,5.84,4.77a189.87,189.87,0,0,0,11.19-16.08,208.93,208.93,0,0,1-2.55,23.6q2.61,2.38,5,4.65a201.83,201.83,0,0,0,2.28-38.18c-1.38-1.34-2.85-2.72-4.39-4.13a164.83,164.83,0,0,1-8.84,15.51,200.35,200.35,0,0,0,1.28-22.1q-2.71-2.27-5.65-4.64a210.84,210.84,0,0,1-4.11,36.6" transform="translate(-361.46 -139.64)"/><path class="cls-2" d="M736.46,302.75c-1.18,9.05,3.21,12.55,4.86,13.86s3.32,2.46,4.93,3.67c1.33-7,2.3-13.83,2.93-20.57-1.52-1.15-3.07-2.3-4.66-3.47-4.4-3-7.11-.77-8.06,6.51m-7.58-4.39c1.1-8.63,5.1-17.08,17.91-8.32q4.85,3.6,9.26,7.06a213.15,213.15,0,0,1-4.45,36.31q-4.87-3.81-10.23-7.78c-4.34-3.42-14.52-11.41-12.49-27.27" transform="translate(-361.46 -139.64)"/><path class="cls-2" d="M693.19,267.42c-.22,1.2-.21,4.35,4.67,7.58,2.34,1.46,4.65,2.93,6.93,4.39q1.23-4.36,2.29-8.6c-2.25-1.44-4.54-2.89-6.85-4.34-6-3.57-7,.49-7,1m-9.4-5.35c1.17-4.24,5.29-10.06,19.73-1.41q7,4.41,13.6,8.75a282.14,282.14,0,0,1-8.47,33.46q-4.56-3-9.3-6c1.19-3.49,2.31-6.95,3.35-10.35q-3.27-2.1-6.63-4.21c-11.19-7.21-13.61-15.39-12.28-20.21" transform="translate(-361.46 -139.64)"/><path class="cls-2" d="M644.35,245.68c-.74,1.86-2.43,8.38,6.64,13.88,12.28,6.4,16.84-4,14.88-10.2-2.79-8.86-16.7-13.35-21.06-4.69-.15.3-.34.7-.46,1m-10.94-6.06c3.91-7.92,13.88-13,30.17-3.53,21.71,13.49,13.51,32.72,2.76,35.14-13,2.93-41.67-13.85-32.93-31.61" transform="translate(-361.46 -139.64)"/><path class="cls-2" d="M602.11,216.62c-1.05,2,.51,4,4.61,6.19q4.08,2,8.22,4.16,2.13-3.25,4.22-6.36-4.08-2.09-8.11-4.1c-6.15-2.94-8.24-1.19-8.94.11m-11.85,19q-6.12-3-12.1-5.88c4.68-2.2,10.91-5.18,15.62-7.33-7.4-8.31-.36-15.1,8-15,5.91.1,11.83,2.94,15,4.46q5.85,2.94,11.83,6l4.76,2.48c-5.36,8.65-11.09,18.15-17.11,28.4L611,246.06l-6.22-3.2Q608,237.77,611,233c-2.55-1.3-5.09-2.59-7.62-3.85l-13.16,6.46" transform="translate(-361.46 -139.64)"/><path class="cls-2" d="M561.34,193.56q5.11,2.19,10.42,4.54-8.94,9.33-17.86,20.42,5.18,2.29,10.48,4.73c5.71-7.48,11.44-14.4,17.12-20.74q5.31,2.43,10.75,5,2.29-2.76,4.57-5.39c-10.47-5-20.55-9.52-30.13-13.61q-2.69,2.44-5.35,5" transform="translate(-361.46 -139.64)"/><path class="cls-2" d="M531,181.33q8.58,3.13,18,6.93c-1.66,1.48-3.32,3-5,4.57q-5-2-9.89-3.9a66.59,66.59,0,0,1-7.27-3.11c-1.89,1.63-3.77,3.29-5.64,5,1.74,1.14,2.89,1.59,8.41,3.73q4.4,1.71,9,3.56-4.71,4.75-9.35,9.93,4.8,1.94,9.75,4a261,261,0,0,1,24.34-25c-9.31-3.92-18.13-7.4-26.36-10.4q-3,2.23-6,4.62" transform="translate(-361.46 -139.64)"/><path class="cls-2" d="M494,179.49c-1.67,1.41-6.64,6.21-.64,8.36,9.66,2.45,22-8.17,19.57-12.13-2.12-3.47-11.86-2.25-18.93,3.77m-6.55-1.8c7.81-6.17,20-11.49,30.88-7.95,14.64,5.52-3.55,19-11.09,22.37-13.29,5.89-29.59,1.79-26.42-6.64.62-1.65,2.27-4.34,6.63-7.78" transform="translate(-361.46 -139.64)"/><path class="cls-2" d="M453.92,185.32c.53.31.9.52,4.44,1,3.07.4,6.43,1,10.06,1.75a202,202,0,0,1,30.94-22.71c-1.86-.4-3.65-.74-5.35-1a200.34,200.34,0,0,0-24.94,17.12c-1.66-.27-3.24-.5-4.75-.69a16.09,16.09,0,0,1-3.81-.75q-3.33,2.59-6.59,5.33" transform="translate(-361.46 -139.64)"/><path class="cls-2" d="M733.82,501.54a7,7,0,0,1-.38,2.61,211.22,211.22,0,0,1-24.12,21.23,5.61,5.61,0,0,1-1.07,1.83,208.79,208.79,0,0,0,24.07-21.12,6.15,6.15,0,0,1-.68.67l6.56-7a6.42,6.42,0,0,0,1.92-5q-3.09,3.47-6.3,6.78" transform="translate(-361.46 -139.64)"/><path class="cls-2" d="M695.46,499.7c.31.75.7,1.68,3.53,4.86a73.48,73.48,0,0,1,6.64,8.37,227.94,227.94,0,0,0,30.17-28.82,94.08,94.08,0,0,0-11.35-13.44q-2.9,3.43-5.88,6.76a113.13,113.13,0,0,1,8.47,9.5q-2.61,2.81-5.31,5.52c-2.3-2.74-5.42-6.35-7.87-9q-3,3.17-6.16,6.2a108.86,108.86,0,0,1,7.8,8.79q-2.81,2.63-5.7,5.14-2-2.58-4.59-5.39a23,23,0,0,1-3.25-4.3q-3.21,2.94-6.5,5.77" transform="translate(-361.46 -139.64)"/><path class="cls-2" d="M673.55,481.35c2,1.58,3.88,3.15,5.72,4.68,8.15-3.06,18.94-7.35,27-10.75q-8.85,9.57-18.49,18.12c1.71,1.55,3.32,3.07,4.85,4.55a253.35,253.35,0,0,0,29.28-29.83c-1.59-1.55-3.29-3.14-5.08-4.77-7.53,3.58-17.66,8.16-25.34,11.4q8.67-9.06,16.62-19-3.14-2.62-6.53-5.36a296.24,296.24,0,0,1-28,31" transform="translate(-361.46 -139.64)"/><path class="cls-2" d="M664.15,450.16c-6,8.08-1.71,11.6-.08,12.92s3.37,2.5,5,3.73q8.1-8.69,15.67-18.11-2.54-1.92-5.19-3.87c-6.33-4.18-11.87.59-15.4,5.33m-8.47-4.74c5.87-8.56,16-16.61,31.17-6.34q5.6,4.16,10.7,8.15a306.2,306.2,0,0,1-27.73,31.16q-4.79-3.74-10-7.63c-4.16-3.31-13.89-11.07-4.12-25.34" transform="translate(-361.46 -139.64)"/><path class="cls-2" d="M620.52,412.69c-.67,1.31-1.68,4.71,3.46,8.16q3.75,2.34,7.4,4.68,3.23-4.48,6.39-9.07-3.76-2.41-7.64-4.84c-6.87-4-9.5.86-9.61,1.07m-10.33-5.81c2.76-4.93,9.91-11.71,26.69-1.74q8.08,5.1,15.71,10.11c-8,11.64-16.29,22.74-24.87,33.2q-4.47-2.94-9.12-5.91,3.81-4.85,7.55-9.88c-2.25-1.43-4.53-2.88-6.84-4.33-11.44-7.43-12.06-16.2-9.12-21.45" transform="translate(-361.46 -139.64)"/><path class="cls-2" d="M566.71,389.8c-1.27,2.82-3.25,10,5.65,15.42,12.78,6.6,21-5.85,18.37-14-3.08-9.61-17.83-12.82-23.4-2.62-.2.36-.45.85-.62,1.23m-11.56-6.42c4.94-10.48,16.93-17.74,35.75-6.72,25.34,16,8.58,37.73-3.58,40.51-15.23,3.48-42.07-12.79-32.17-33.79" transform="translate(-361.46 -139.64)"/><path class="cls-2" d="M521.34,357.28c-.86,2.75.94,5.32,5.35,7.65q4.37,2.19,8.81,4.45,2.13-4.39,4.31-8.83-4.54-2.32-9-4.57c-7.09-3.36-9-.21-9.43,1.3m-9.67,25.21q-6-3-11.86-5.75c4.13-3.28,9.59-7.71,13.79-10.9-8.52-9.9-2.76-22.48,9.79-21.36,5.19.47,10.07,2.79,13.3,4.32q6.76,3.4,13.67,7l5.5,2.86c-6.48,12.51-12.74,24.83-18.72,36.81L532,392.77c-2-1.06-4.08-2.11-6.11-3.14q2.85-6.12,5.81-12.35-4-2-7.88-4l-12.15,9.2" transform="translate(-361.46 -139.64)"/><path class="cls-2" d="M475.43,330.51c3.8,1.62,7.68,3.31,11.61,5.06-4.06,10.11-7.73,20.2-11,30.2q5.07,2.25,10.27,4.64,5.26-14.85,11.58-29.94,5.91,2.7,12,5.58,1.88-4.24,3.81-8.51c-12.09-5.73-23.73-11-34.8-15.71q-1.75,4.34-3.42,8.68" transform="translate(-361.46 -139.64)"/><path class="cls-2" d="M441.61,316.78q9.57,3.5,20,7.72c-.93,2.58-1.83,5.17-2.7,7.75Q453.49,330,448.26,328a64.23,64.23,0,0,1-8-3.52q-1.28,4.19-2.43,8.37c1.57,1.06,2.68,1.65,9,4.12q4.59,1.77,9.37,3.7-2.31,7.41-4.29,14.8,4.69,1.9,9.56,3.95c3.79-13,8.31-26.17,13.56-39.26-10.75-4.52-20.94-8.54-30.44-12q-1.54,4.29-3,8.59" transform="translate(-361.46 -139.64)"/><path class="cls-2" d="M407.74,319.81c-.44,2.4-1.38,10.43,4.91,12.75,10,2.4,13.31-15.12,9.7-20.95-3.75-6-11.94-3.48-14.33,6.84-.09.41-.21.95-.28,1.36m-7-1.95c2.25-11.51,9.15-22.31,21.81-18.1,18.36,7.25,9,37-1.86,41.78-8.21,3.61-24.26-1.58-19.95-23.68" transform="translate(-361.46 -139.64)"/><path class="cls-2" d="M377.54,332.93c.6.38,1.21.77,4.84,1.26q4.51.58,9.86,1.72a249.91,249.91,0,0,1,8.86-40.86c-2.15-.46-4.22-.85-6.18-1.18a242.18,242.18,0,0,0-7.24,32c-1.68-.29-3.29-.52-4.82-.71a13.73,13.73,0,0,1-4.24-1c-.42,2.93-.78,5.87-1.08,8.8" transform="translate(-361.46 -139.64)"/><path class="cls-2" d="M371.81,333.68c1.24-.08,2.58-.09,4,0a228.7,228.7,0,0,1,7.75-41c-1.54-.05-3,0-4.3,0a223.84,223.84,0,0,0-7.46,41" transform="translate(-361.46 -139.64)"/><path class="cls-2" d="M364.41,318.29c-.36,2.35-1.4,9.95.17,9.2,2.62-2.3,6.54-24.49,4.28-24.23-1.18.13-3.22,7-4.45,15m-.93,1.89c.39-2.45,3.91-24,7.77-26.25,5-1.78-.79,30.85-5,39.5-1.41,2.9-3.24,4.81-3.87,3-.93-2.75.6-13.12,1.1-16.23" transform="translate(-361.46 -139.64)"/><path class="cls-2" d="M584.86,567.56a4,4,0,0,1-.2,1.37,220.12,220.12,0,0,1-32.21-1.37,2.12,2.12,0,0,1-.43.74,216.89,216.89,0,0,0,32.05,1.63,3.83,3.83,0,0,1-1,.84c3,0,6-.17,9-.34a3.59,3.59,0,0,0,2-3.43q-4.53.38-9.08.56" transform="translate(-361.46 -139.64)"/><path class="cls-2" d="M547.36,557.42c-.06.44-.08.6.93,1.75a29.75,29.75,0,0,1,2.68,3.38,220.24,220.24,0,0,0,40.59-1.43,52.42,52.42,0,0,0-6.27-7.41c-2.72.52-5.46,1-8.19,1.4a57.14,57.14,0,0,1,4.42,5c-2.43.25-4.86.47-7.29.64-1.13-1.35-2.67-3.13-3.87-4.42q-4.05.47-8.1.78a49.18,49.18,0,0,1,3.63,4.08c-2.48.09-4.95.13-7.43.13-.59-.76-1.26-1.54-2-2.36a4,4,0,0,1-1.06-1.72c-2.68.12-5.36.2-8,.22" transform="translate(-361.46 -139.64)"/><path class="cls-2" d="M538,549.82c.8.64,1.56,1.27,2.3,1.89,8,.29,18.6.56,26.57.66a198.11,198.11,0,0,1-23.15,2.31c.69.62,1.34,1.24,2,1.83a206.41,206.41,0,0,0,38.17-4.21c-.89-.85-1.82-1.73-2.81-2.63-7.89.22-18.42.42-26.32.47a201.62,201.62,0,0,0,21.51-4.66q-1.72-1.46-3.6-3a189.35,189.35,0,0,1-34.62,7.3" transform="translate(-361.46 -139.64)"/><path class="cls-2" d="M543.28,539c-7.08,2.58-5.53,3.9-4.79,4.54s1.47,1.09,2.19,1.62a181.37,181.37,0,0,0,18.78-5.08c-.89-.66-1.79-1.34-2.71-2-1.08-.7-4-2.55-13.47.93m-4.42-2.36c16-6.87,23-2.17,25.7-.39q3.09,2.28,5.9,4.49a186.46,186.46,0,0,1-33.93,7.85c-1.28-1-2.62-2-4-3.08-1.83-1.51-4.88-4,6.36-8.87" transform="translate(-361.46 -139.64)"/><path class="cls-2" d="M524.46,521.22c-.87.78-2,2.34.35,3.92l3.57,2.26c2.16-1.3,4.34-2.66,6.54-4.1q-2-1.26-4-2.52a5.45,5.45,0,0,0-6.48.44m-5.27-2.91c3.3-3.17,9.06-5.88,17.81-.74q4.46,2.8,8.66,5.57a174.63,174.63,0,0,1-26.09,13.42c-1.2-.79-2.43-1.58-3.67-2.38,2.39-1.16,4.82-2.42,7.27-3.78-1-.65-2-1.3-3.08-1.95-6.6-4.33-1.5-9.55-.9-10.14" transform="translate(-361.46 -139.64)"/><path class="cls-2" d="M497,510.36c-.84,1.6-2.37,5.58,1.43,8,6.17,3.09,12.92-4.47,11.43-9-1.54-4.66-9.31-5.81-12.86,1m-5.48-3.06c3.78-8.54,11.55-10.65,20.27-5.51,13.78,8.92.21,20.14-7.39,21.87-9.56,2.16-17.68-5.53-12.88-16.36" transform="translate(-361.46 -139.64)"/><path class="cls-2" d="M474.75,493.36c-.18,1.87.83,3.41,3,4.56l4.29,2.17c.58-1.93,1.18-3.91,1.82-5.93q-2.37-1.21-4.71-2.38c-3.55-1.66-4.28.27-4.4,1.58M472.8,510c-1.61-.8-3.21-1.57-4.78-2.32,1.2-2.43,2.68-5.74,4.07-8.07-5-6.31-3.82-15.76,3.53-15.09a19.12,19.12,0,0,1,6.12,2q3.74,1.88,7.54,3.84l3,1.58c-3.59,8.59-6.7,16.39-9.24,23.28L481,514.12l-2.46-1.27c.61-2.43,1.29-5,2-7.61L477,503.42,472.8,510" transform="translate(-361.46 -139.64)"/><path class="cls-2" d="M450.36,478.54c2,.85,4,1.72,6.05,2.63a166.89,166.89,0,0,0,2,22.07c1.36.6,2.74,1.23,4.13,1.87a174.81,174.81,0,0,1-.52-21.39c2.05.94,4.12,1.91,6.23,2.91q.33-3.12.75-6.34c-6.67-3.17-13.09-6.06-19.19-8.67q.21,3.51.52,6.92" transform="translate(-361.46 -139.64)"/><path class="cls-2" d="M432.68,471.35c3.32,1.21,6.8,2.56,10.43,4q.51,3.12,1.11,6.16-2.69-1.09-5.26-2.08a23.28,23.28,0,0,1-4.13-1.87q1,3.39,2.09,6.69a17.13,17.13,0,0,0,4.42,2.12q2.12.81,4.32,1.71c.9,3.77,1.92,7.45,3,11,1.26.51,2.55,1,3.85,1.59a173.77,173.77,0,0,1-4.83-30c-5.93-2.5-11.55-4.71-16.79-6.63q.81,3.68,1.74,7.26" transform="translate(-361.46 -139.64)"/><path class="cls-2" d="M421.48,477.13c.41.84,4.14,8.29,7.44,9.6,3.74.76-1.81-12.07-4.43-16-2.5-3.73-5.11-5-5.58-2.75-.14.63-.35,3.17,2.57,9.13m-3.39-1c-6.71-13.15-5.13-18.68-.24-17.2l.52.18c11,4.56,19.52,33.64,15.79,34.95-3.13,1.11-10.64-7.27-16.07-17.93" transform="translate(-361.46 -139.64)"/><path class="cls-2" d="M418.26,489.7a5,5,0,0,0,2.31.8c1.34.17,2.66.4,4.1.7A207.12,207.12,0,0,1,407,456.85c-1.19-.25-2.33-.47-3.41-.65a213.65,213.65,0,0,0,14.18,27.39c-.74-.12-1.44-.23-2.11-.31a5.55,5.55,0,0,1-2.07-.59c1.43,2.32,3.05,4.68,4.71,7" transform="translate(-361.46 -139.64)"/><path class="cls-2" d="M416.43,490.31c.5,0,1,0,1.62,0a219.84,219.84,0,0,1-20.77-34.78,22.8,22.8,0,0,0-2.36,0,222.15,222.15,0,0,0,21.51,34.77" transform="translate(-361.46 -139.64)"/><path class="cls-2" d="M400.9,476.41c2.84,4,6.29,8.26,7.1,8.11.16-.26.49-.82-7.38-12.66-3.48-5.23-5.55-7.82-6.15-7.68-.85.21,1.77,5.59,6.43,12.23m-.53.84c-7.44-10.5-12.33-20.48-10.46-21.35,1,0,2.76,1.15,8.12,9.23,6.44,9.68,17.05,26.06,15.86,26.88-.95.66-7.06-5.64-13.52-14.76" transform="translate(-361.46 -139.64)"/><path class="cls-2" d="M726.46,201.07a2.12,2.12,0,0,1-.1.73,215.46,215.46,0,0,1,21.73,24.09,2.4,2.4,0,0,1-.47.82A218.59,218.59,0,0,0,726,202.34a2.13,2.13,0,0,1-.56.45q-3.29-3.28-6.73-6.43a1.52,1.52,0,0,0,.83-1.45q3.51,3,6.88,6.16" transform="translate(-361.46 -139.64)"/><path class="cls-2" d="M736.54,209.26A7.22,7.22,0,0,1,737.6,212q-3-3.27-6.19-6.41a6.39,6.39,0,0,0-.94-2.41q3.12,3,6.07,6.08" transform="translate(-361.46 -139.64)"/><path class="cls-2" d="M721.91,194.23a30.59,30.59,0,0,1,2.36,2.63c1.76,1.56,3.5,3.14,5.2,4.76-.74-.87-1.74-2-2.52-2.83,1.84,1.72,3.63,3.49,5.38,5.29,1.1,1.13,2,2.19,2.82,3.17q2.46,2.56,4.82,5.21l-1.53-1.83.69.79,5.44,6.4a26.82,26.82,0,0,1,1.87,2.47,191.14,191.14,0,0,0-27.87-27.86,21.87,21.87,0,0,0-2.65-3.13c2.05,1.6,4,3.24,6,4.93" transform="translate(-361.46 -139.64)"/><path class="cls-2" d="M723.61,195.6l5,4.8a154,154,0,0,0-13.34-11.7c-.37-.36-.77-.73-1.18-1.11l6,4.92,3.43,3.09" transform="translate(-361.46 -139.64)"/><path class="cls-2" d="M712.65,186.19l.24.19,3.84,3.16c-1.51-1.27-3.05-2.52-4.63-3.73l-1.52-1.25c.7.54,1.39,1.08,2.07,1.63" transform="translate(-361.46 -139.64)"/><path class="cls-2" d="M710.82,184.73l-2.52-1.94,1.35,1,1.17.9" transform="translate(-361.46 -139.64)"/><path class="cls-2" d="M639,147.58c-3.38-.94-7.89-2.19-11.3-3l.14,0c2.86.69,2.86.69,18.24,5.31l.41.1c-.44-.23-6.94-2.25-7.49-2.41" transform="translate(-361.46 -139.64)"/><path class="cls-2" d="M611.59,141.32l10.47,1.94a158,158,0,0,1,18.46,5.08l-1.44-.27a168.08,168.08,0,0,0-27.49-6.75" transform="translate(-361.46 -139.64)"/><path class="cls-2" d="M599.56,139.76a4.31,4.31,0,0,1,.94.07l10.1,1.33-1.72-.25a8.29,8.29,0,0,0-1.11-.08c-2.76-.41-5.48-.77-8.21-1.07" transform="translate(-361.46 -139.64)"/><path class="cls-2" d="M596.29,139.67a17.89,17.89,0,0,1,1.81,0,188.48,188.48,0,0,1,38.33,8.13c-.35,0-.69,0-1,0a196.33,196.33,0,0,0-39.14-8.12" transform="translate(-361.46 -139.64)"/><path class="cls-2" d="M611.18,143.75c-6.91-1.22-9.24-1.64-10.1-2.05l0-.14c2.31-.86,21.31,2.91,24,4.43l-.08.12c-.52,0-.52,0-13.81-2.36m-.2.72c6.92,1.15,12.61,2.28,16.38,3,6.47,1.29,6.62,1.22,7,1.05-2.33-2.78-37.2-10.27-42.74-8l-.06.23c.76.6.76.6,19.38,3.69" transform="translate(-361.46 -139.64)"/><path class="cls-2" d="M793.45,347.2a6.56,6.56,0,0,1-.34,2.35,210.28,210.28,0,0,1-1.22,31.8,5.93,5.93,0,0,1-1.08,1.87,214.67,214.67,0,0,0,1.29-31.93,6.87,6.87,0,0,1-1.8,1.44q-.13-4.55-.45-9.08a5.63,5.63,0,0,0,3.06-5.39c.25,3,.42,5.95.54,8.94" transform="translate(-361.46 -139.64)"/><path class="cls-2" d="M453,178.05c-6.77,4.6-6.77,4.6-7.3,4.93l.19-.14.51-.34c5.59-3.89,13-9.12,18.82-12.71l.71-.48c-4.28,2.95-8.62,5.82-12.93,8.74m-.79,1.83c7.33-5,14.48-10.23,21.85-15.16l.26-.17c-19.26,11.4-20.83,12.33-35.7,24.1h0a3.67,3.67,0,0,0-.53.41c1.21-.39,6.91-4.27,14.13-9.19" transform="translate(-361.46 -139.64)"/><path class="cls-2" d="M678.82,167.42l-3.24-1.71c0-.41,1.39,0,3.19.95s3.28,2,3.32,2.42-1.4,0-3.19-1-3.29-2-3.32-2.42Z" transform="translate(-361.46 -139.64)"/></g></svg>