<svg width="216" height="36" viewBox="0 0 216 36" fill="none" xmlns="http://www.w3.org/2000/svg">
<g clip-path="url(#clip0_160_10345)">
<path d="M215.621 0.0361328H181.125V35.5861H215.621V0.0361328Z" fill="#00479D"/>
<path d="M208.018 17.9759L199.646 17.5739L199.273 9.19189H199.256L198.877 17.5739L190.517 17.9759V17.9939L198.877 18.3599L199.256 27.2279H199.273L199.646 18.3599L208.018 17.9939V17.9759Z" fill="#F39800"/>
<path d="M196.612 5.16582V5.5438H196.449C195.931 5.5438 195.355 5.64582 195.355 7.15182V12.9058C195.348 13.333 195.371 13.7602 195.425 14.1838H194.965L188.642 6.92382V12.1318C188.642 13.2358 188.851 13.6138 189.806 13.6138H190.016V13.9858H186.761V13.6138H186.936C187.78 13.6138 188.036 13.0138 188.036 12.0058V6.68382C188.037 6.53287 188.009 6.38327 187.953 6.2438C187.897 6.10433 187.814 5.9778 187.71 5.87162C187.606 5.76544 187.482 5.68176 187.346 5.62547C187.21 5.56918 187.065 5.54141 186.918 5.5438H186.761V5.16582H189.265L194.703 11.5018L194.732 11.4718V6.73181C194.755 6.57651 194.744 6.4178 194.699 6.26753C194.655 6.11726 194.578 5.97932 194.474 5.86396C194.371 5.74861 194.243 5.65883 194.101 5.60132C193.959 5.54381 193.807 5.52005 193.655 5.53181H193.393V5.15381L196.612 5.16582Z" fill="white"/>
<path d="M205.095 13.9861V13.6141H205.27C205.712 13.6141 206.178 13.5481 206.178 12.8881V6.28808C206.178 5.62208 205.712 5.56207 205.27 5.56207H205.095V5.18408H208.839V5.56207H208.676C208.233 5.56207 207.768 5.62208 207.768 6.28808V12.8881C207.768 13.5481 208.233 13.6141 208.676 13.6141H208.845V13.9861H205.095Z" fill="white"/>
<path d="M194.866 30.3598C193.98 30.7544 193.025 30.9586 192.06 30.9598C189.294 30.9598 187.25 29.3999 187.25 26.2259C187.25 23.3999 189.475 21.7559 191.995 21.7559C193.434 21.7559 193.899 22.2119 195.052 22.3859L195.151 24.4979L194.784 24.5458C194.441 23.3458 193.876 22.3139 192.036 22.3139C190.028 22.3139 188.962 23.9399 188.962 26.1539C188.962 28.2659 190.016 30.4018 192.327 30.4018C192.919 30.4108 193.495 30.2037 193.953 29.8172C194.412 29.4307 194.722 28.8897 194.831 28.2899L195.18 28.3378L194.866 30.3598Z" fill="white"/>
<path d="M203.313 30.738V30.36H203.488C203.931 30.36 204.396 30.2941 204.396 29.6401V23.0401C204.396 22.3801 203.931 22.314 203.488 22.314H203.313V21.936H209.52C209.488 22.5816 209.488 23.2284 209.52 23.874L209.153 23.976C209.089 23.148 208.943 22.494 207.657 22.494H205.951V25.806H207.406C208.146 25.806 208.303 25.38 208.379 24.696H208.745V27.612L208.379 27.696C208.303 26.934 208.268 26.442 207.424 26.442H205.951V29.388C205.951 30.21 206.661 30.21 207.447 30.21C208.92 30.21 209.566 30.108 209.939 28.662L210.283 28.752C210.12 29.424 209.98 30.096 209.869 30.762L203.313 30.738Z" fill="white"/>
<path d="M163.106 14.0938C162.503 13.3469 162.068 12.4721 161.831 11.5318C161.75 11.1964 161.692 10.8556 161.656 10.5118C161.613 10.1134 161.594 9.71268 161.598 9.31182V7.27783H160.044V9.19183C160.029 9.6778 159.988 10.1625 159.922 10.6438C159.856 11.0792 159.765 11.5101 159.648 11.9338C159.381 12.7966 158.954 13.5975 158.39 14.2918C157.891 14.9796 157.212 15.5079 156.434 15.8158H156.358L156.405 15.8878L157.208 16.9318L157.249 16.9738H157.302C158.086 16.4669 158.794 15.8442 159.403 15.1258C160.03 14.4516 160.513 13.6507 160.824 12.7738C161.132 13.6093 161.606 14.3695 162.215 15.0058C162.788 15.6656 163.437 16.25 164.148 16.7458L164.207 16.7878L164.242 16.7278L165.01 15.6298L165.062 15.5638L164.987 15.5278C164.262 15.2044 163.618 14.7138 163.106 14.0938Z" fill="#231815"/>
<path d="M168.922 11.8141H167.385V6.87012H165.091V7.78211H165.895V20.6341H166.675C167.082 20.6341 167.385 19.8361 167.385 18.8341V13.1761H168.98V11.8141H168.922Z" fill="#231815"/>
<path d="M154.146 6.83984H151.928V7.75186H152.725V15.3659H148.306V14.3398C148.956 14.2319 149.562 13.9341 150.053 13.4818C150.306 13.2544 150.506 12.9714 150.639 12.6537C150.772 12.336 150.835 11.9916 150.822 11.6458C150.84 11.2424 150.76 10.8407 150.588 10.4778C150.416 10.1149 150.158 9.80262 149.838 9.56985C149.778 9.51971 149.713 9.47551 149.645 9.43785H151.555V8.10585H148.4V6.86985H146.886V8.10585H143.73V9.41385H145.535C145.483 9.41385 145.424 9.47384 145.355 9.52184C145.066 9.7457 144.829 10.0313 144.658 10.3589C144.487 10.6865 144.387 11.0483 144.365 11.4195C144.343 11.7908 144.399 12.1625 144.53 12.5092C144.66 12.8559 144.862 13.1693 145.122 13.4278C145.599 13.8815 146.19 14.189 146.828 14.3159V15.3419H143.002V16.6678H152.725V20.5798H153.5C153.896 20.5798 154.216 19.7818 154.216 18.7798V6.83984H154.146ZM146.379 10.5358C146.724 10.2463 147.157 10.0912 147.602 10.0979C148.046 10.0862 148.478 10.242 148.819 10.5358C148.986 10.6639 149.12 10.8317 149.21 11.0251C149.301 11.2184 149.344 11.4314 149.337 11.6458C149.345 11.857 149.302 12.0668 149.211 12.2564C149.121 12.446 148.986 12.6094 148.819 12.7318C148.475 13.0179 148.044 13.1708 147.602 13.1638C147.16 13.1688 146.73 13.0162 146.385 12.7318C146.22 12.608 146.087 12.4442 145.997 12.2548C145.908 12.0654 145.865 11.8563 145.873 11.6458C145.867 11.4328 145.909 11.2213 145.997 11.0285C146.085 10.8356 146.216 10.6668 146.379 10.5358Z" fill="#231815"/>
<path d="M131.661 13.068C132.182 12.5381 132.623 11.9315 132.971 11.268C133.298 11.8932 133.732 12.4523 134.252 12.918C134.813 13.471 135.437 13.9525 136.109 14.352L136.167 14.382V14.322L136.953 13.212L136.994 13.14H136.913C136.069 12.792 135.326 12.2283 134.753 11.502C134.071 10.7085 133.702 9.68147 133.716 8.62196V7.31396H132.127V9.01196C132.043 10.0252 131.661 10.988 131.032 11.772C130.458 12.6083 129.643 13.2379 128.704 13.572H128.616L128.669 13.65L129.42 14.73L129.449 14.778H129.501C130.31 14.338 131.04 13.7598 131.661 13.068Z" fill="#231815"/>
<path d="M131.399 15.3599H131.329V16.6919H138.589V20.6219H139.393C139.783 20.6219 140.097 19.8179 140.103 18.7859V15.3599H131.399Z" fill="#231815"/>
<path d="M140.021 6.83984H137.797V7.75186H138.595V14.8498H139.393C139.789 14.8498 140.091 14.0699 140.097 13.0199V6.83984H140.021Z" fill="#231815"/>
<path d="M116.337 12.9181V12.9781H116.395C117.426 12.6653 118.407 12.1983 119.306 11.5922C120.03 11.1426 120.659 10.549 121.158 9.84615C121.626 10.535 122.219 11.1238 122.904 11.5801C123.853 12.2312 124.9 12.7157 126.002 13.0141H126.054V12.9662L126.677 11.7961L126.718 11.7181H126.625C125.576 11.5957 124.575 11.2014 123.714 10.5721C123.04 10.1894 122.524 9.56653 122.264 8.82015H126.083V7.49414H116.36V8.81415H120.145C119.837 9.54328 119.3 10.1438 118.619 10.5181C117.763 11.1008 116.786 11.4686 115.766 11.5922H115.673L115.72 11.6761L116.337 12.9181Z" fill="#231815"/>
<path d="M126.904 14.124H115.522V15.456H120.517V20.58H121.298C121.693 20.58 122.008 19.788 122.008 18.78V15.474H126.997V14.142L126.904 14.124Z" fill="#231815"/>
<path d="M11.0152 16.1762L11.0501 16.1402V9.92421C11.0783 9.72239 11.0624 9.51663 11.0035 9.32197C10.9446 9.12731 10.8443 8.94867 10.7098 8.79913C10.5753 8.64959 10.41 8.53293 10.2261 8.45768C10.0423 8.38243 9.84437 8.35049 9.64697 8.3642H9.29182V7.86621C10.0487 7.86621 10.7881 7.93821 11.5508 7.93821C12.2029 7.93821 12.8666 7.86621 13.5245 7.86621V8.3642H13.2858C12.6104 8.3642 11.8535 8.4962 11.8535 10.4762V18.0182C11.8439 18.578 11.877 19.1377 11.9525 19.6922H11.3354L3.05053 10.1762V17.0042C3.05053 18.4502 3.32417 18.9482 4.56427 18.9482H4.83791V19.4462C4.14508 19.4462 3.45226 19.3802 2.75943 19.3802C2.0666 19.3802 1.29808 19.4462 0.570312 19.4462V18.9482H0.826486C1.93851 18.9482 2.27619 18.1682 2.27619 16.8422V9.8582C2.27699 9.66025 2.23945 9.46413 2.16578 9.28132C2.09212 9.09851 1.9838 8.93268 1.84717 8.79355C1.71053 8.65442 1.54834 8.54479 1.37008 8.47106C1.19182 8.39734 1.00108 8.36101 0.809021 8.3642H0.599425V7.86621C1.21657 7.86621 1.83953 7.93821 2.45085 7.93821C2.93408 7.93821 3.39986 7.86621 3.88309 7.86621L11.0152 16.1762Z" fill="#231815"/>
<path d="M13.9789 18.9482H14.2176C14.7998 18.9482 15.3821 18.8642 15.3821 18.0002V9.31219C15.3821 8.44819 14.7707 8.3642 14.2176 8.3642H13.9906V7.86621C14.6194 7.86621 15.58 7.93821 16.3718 7.93821C17.1636 7.93821 18.1184 7.86621 18.8986 7.86621V8.3642H18.6715C18.0893 8.3642 17.5071 8.44819 17.5071 9.31219V18.0002C17.5071 18.8642 18.1243 18.9482 18.6715 18.9482H18.8753V19.4462C18.101 19.4462 17.1287 19.3802 16.3311 19.3802C15.5334 19.3802 14.5844 19.4462 13.9673 19.4462L13.9789 18.9482Z" fill="#231815"/>
<path d="M29.6521 11.2861C29.2038 9.67811 28.4877 8.35212 26.0482 8.35212C23.4108 8.35212 22.0251 10.4881 22.0251 13.3921C22.0251 16.1641 23.3933 18.9601 26.4325 18.9601C27.2088 18.9735 27.9646 18.7031 28.5657 18.1967C29.1669 17.6903 29.5744 16.9808 29.7161 16.1941L30.1644 16.2601C29.9681 17.145 29.8339 18.0434 29.7627 18.9481C28.5952 19.4488 27.3418 19.7019 26.0773 19.6921C22.4618 19.6921 19.772 17.6521 19.772 13.4941C19.772 9.7741 22.683 7.62012 26.0016 7.62012C27.8822 7.62012 28.4935 8.22012 30.0014 8.44812C29.9825 9.37422 30.0273 10.3005 30.1353 11.2201L29.6521 11.2861Z" fill="#231815"/>
<path d="M31.0316 18.9482H31.2586C31.8408 18.9482 32.423 18.8642 32.423 18.0002V9.31219C32.423 8.44819 31.8408 8.3642 31.2586 8.3642H31.0316V7.86621C32.0155 7.86621 33.6923 7.93821 35.043 7.93821C36.3937 7.93821 38.0705 7.86621 39.1592 7.86621C39.1301 8.58021 39.1592 9.6662 39.1941 10.4042L38.7109 10.5362C38.6294 9.4622 38.4373 8.59821 36.7489 8.59821H34.5132V12.9422H36.4228C37.3893 12.9422 37.5872 12.3782 37.6979 11.4842H38.1811C38.1462 12.1322 38.1287 12.7802 38.1287 13.4222C38.1287 14.0642 38.1287 14.6882 38.1811 15.3182L37.6979 15.4142C37.5989 14.4182 37.5523 13.7702 36.4403 13.7702H34.5132V17.6402C34.5132 18.7142 35.4447 18.7142 36.4752 18.7142C38.4082 18.7142 39.2582 18.5822 39.7414 16.6922L40.1955 16.8122C39.9801 17.6882 39.7938 18.5642 39.6133 19.4462C38.5828 19.4462 36.7314 19.3802 35.2875 19.3802C33.8436 19.3802 31.9282 19.4462 31.0024 19.4462L31.0316 18.9482Z" fill="#231815"/>
<path d="M93.107 6.81592H93.043V7.72191H93.8173V20.6159H94.5858C94.9759 20.6159 95.2845 19.8179 95.2845 18.8159V6.89991V6.83392H93.107V6.81592Z" fill="#231815"/>
<path d="M88.0765 8.6401C87.1573 8.62775 86.263 8.94841 85.5497 9.54611C85.1892 9.84776 84.9024 10.2324 84.7123 10.669C84.5222 11.1056 84.4342 11.5821 84.4552 12.0601C84.4547 12.5139 84.5478 12.9626 84.7285 13.3764C84.9092 13.7902 85.1733 14.1596 85.5032 14.4601C86.1902 15.1139 87.0949 15.4705 88.03 15.4561C88.5351 15.4956 89.0427 15.4234 89.5186 15.2444C89.9945 15.0654 90.4279 14.7837 90.7896 14.4181C91.374 13.7808 91.6991 12.9369 91.6979 12.0601C91.6993 11.6113 91.6118 11.1669 91.4406 10.7541C91.2694 10.3414 91.0181 9.96915 90.7023 9.66011C90.354 9.31636 89.9418 9.04878 89.4906 8.87349C89.0393 8.6982 88.5583 8.61881 88.0765 8.6401ZM86.4696 10.4821C86.6785 10.2775 86.9255 10.1188 87.1958 10.0156C87.466 9.91248 87.7538 9.86705 88.0416 9.88211C88.3525 9.85715 88.6648 9.90398 88.9559 10.0192C89.247 10.1344 89.5095 10.3151 89.7242 10.5481C90.0857 10.9772 90.2824 11.5278 90.2773 12.0961C90.2835 12.3971 90.2279 12.696 90.1141 12.9733C90.0003 13.2506 89.8309 13.4999 89.6171 13.705C89.4032 13.9101 89.1497 14.0663 88.8732 14.1633C88.5967 14.2604 88.3033 14.2961 88.0125 14.2681C87.7254 14.2752 87.44 14.2207 87.1744 14.1081C86.9088 13.9956 86.6688 13.8273 86.4696 13.6141C86.2736 13.4105 86.1186 13.1688 86.0137 12.9031C85.9088 12.6374 85.856 12.353 85.8583 12.0661C85.851 11.7768 85.9016 11.489 86.0067 11.2207C86.1119 10.9523 86.2695 10.7091 86.4696 10.5061V10.4821Z" fill="#231815"/>
<path d="M65.2134 6.81592H65.1494V7.72191H65.9237V20.6159H66.6981C67.0824 20.6159 67.3909 19.8179 67.3967 18.8159V6.81592H65.2018H65.2134Z" fill="#231815"/>
<path d="M51.4791 6.81592H51.415V7.72191H52.1894V20.6159H52.9637C53.348 20.6159 53.6566 19.8179 53.6624 18.8159V6.81592H51.4791Z" fill="#231815"/>
<path d="M72.2467 14.9762H77.0382V16.3382H70.7329V7.63818H76.1358V9.00018H72.2408L72.2467 14.9762Z" fill="#231815"/>
<path d="M80.1123 20.5562V20.6222H80.8983C81.3 20.6222 81.6144 19.8062 81.6144 18.7682V6.84619H80.124L80.1123 20.5562Z" fill="#231815"/>
<path d="M79.3435 6.88191V6.81592H77.0147V7.74591H77.8123V11.1659H75.1167V12.5639H77.8356V20.5799H78.6274C79.0291 20.5799 79.3377 19.7699 79.3435 18.7259" fill="#231815"/>
<path d="M100.117 11.25H103.925V12.582H100.117V14.982H105.654V16.344H98.6382V7.64404H104.786V9.00605H100.129L100.117 11.25Z" fill="#231815"/>
<path d="M110.166 11.7541H108.629V6.81006H106.335V7.72205H107.138V20.5681H107.919C108.326 20.5681 108.629 19.7701 108.629 18.7681V13.1161H110.224V11.7541H110.166Z" fill="#231815"/>
<path d="M48.4456 13.3022C47.873 12.5962 47.4737 11.7586 47.2812 10.8602C47.2254 10.5767 47.1846 10.2902 47.1589 10.0022C47.1589 9.69617 47.1182 9.40216 47.1182 9.09616H49.9768V7.76416H42.9263V9.09616H45.6568C45.6568 9.49216 45.6219 9.87016 45.5753 10.2362C45.5341 10.6093 45.464 10.9785 45.3657 11.3402C45.1449 12.1917 44.7476 12.9839 44.2013 13.6622C43.6782 14.2841 43.0334 14.7851 42.3091 15.1322L42.2393 15.1682L42.2858 15.2282L43.0427 16.2782L43.0776 16.3202L43.1242 16.2902C43.8958 15.7817 44.582 15.1474 45.1561 14.4122C45.6718 13.793 46.0938 13.0972 46.4079 12.3482C46.74 13.097 47.2084 13.7732 47.7877 14.3402C48.4015 15.0032 49.074 15.6058 49.7963 16.1402L49.8487 16.1762L49.8779 16.1222L50.5998 15.0602L50.6405 15.0002H50.5707C49.7435 14.6128 49.0157 14.0313 48.4456 13.3022Z" fill="#231815"/>
<path d="M64.2993 14.982H58.6461V7.60799V7.54199H58.582H57.1964H57.1323V7.60799V16.266V16.332H57.1964H64.2993V14.982Z" fill="#231815"/>
<path d="M65.19 30.1082V26.1242C65.1986 25.9451 65.1667 25.7664 65.0969 25.6022C65.0415 25.4824 64.9597 25.3776 64.8581 25.2962C64.7715 25.2298 64.6724 25.1828 64.567 25.1582C64.4787 25.1409 64.3891 25.1308 64.2992 25.1282H64.0722V24.8102C64.3109 24.8102 64.5496 24.8102 64.7883 24.8102C65.027 24.8102 65.2715 24.8102 65.516 24.8102C65.7606 24.8102 65.9411 24.8102 66.1507 24.8102C66.3603 24.8102 66.5698 24.8102 66.7794 24.8102V25.1282H66.6281C66.5168 25.1293 66.4059 25.1393 66.2962 25.1582C66.1853 25.1837 66.0842 25.2421 66.0051 25.3262C65.9054 25.4435 65.8336 25.5832 65.7955 25.7342C65.7288 25.976 65.6993 26.227 65.7082 26.4782V31.3082C65.7082 31.4942 65.7082 31.6802 65.7082 31.8602C65.7129 32.0353 65.7304 32.2098 65.7606 32.3822H65.3705L60.0782 26.2862V30.6602C60.0733 30.8611 60.0869 31.062 60.119 31.2602C60.1403 31.3974 60.1899 31.5284 60.2645 31.6442C60.3417 31.7423 60.4449 31.8152 60.5614 31.8542C60.7182 31.9021 60.8812 31.9243 61.0447 31.9202H61.2193V32.2142C60.9981 32.2142 60.7768 32.2142 60.5556 32.2142H59.8919C59.659 32.2142 59.4203 32.2142 59.1874 32.2142C58.9545 32.2142 58.7217 32.2142 58.4888 32.2142V31.9022H58.6285C58.7713 31.9195 58.9159 31.8949 59.0457 31.8312C59.1755 31.7675 59.2852 31.6673 59.3621 31.5422C59.5108 31.2357 59.5791 30.8943 59.56 30.5522V26.0822C59.5618 25.9456 59.5339 25.8103 59.4785 25.6862C59.4251 25.5732 59.3544 25.4699 59.2689 25.3802C59.1823 25.2949 59.0791 25.2295 58.9662 25.1882C58.856 25.1474 58.7397 25.1271 58.6227 25.1282H58.4888V24.8102C58.6867 24.8102 58.8847 24.8102 59.071 24.8102C59.2573 24.8102 59.4611 24.8102 59.6532 24.8102C59.8064 24.8193 59.9599 24.8193 60.1131 24.8102C60.2644 24.8009 60.416 24.8009 60.5672 24.8102L65.19 30.1082Z" fill="#231815"/>
<path d="M67.082 31.8779H67.2276C67.3187 31.8839 67.4101 31.8839 67.5012 31.8779C67.5887 31.8684 67.6736 31.8419 67.7516 31.7999C67.8235 31.7559 67.8835 31.694 67.9262 31.6199C67.9728 31.5168 67.9948 31.4036 67.9903 31.2899V25.7279C67.9947 25.6162 67.9728 25.505 67.9262 25.4039C67.8854 25.3268 67.8251 25.2625 67.7516 25.2179C67.674 25.174 67.5891 25.1455 67.5012 25.1339H67.2276H67.082V24.8159C67.2858 24.8159 67.5245 24.8159 67.804 24.8159C68.0834 24.8159 68.3571 24.8159 68.6132 24.8159C68.8694 24.8159 69.1489 24.8159 69.4342 24.8159C69.7195 24.8159 70.0164 24.8159 70.226 24.8159V25.1339H70.1095H69.8301C69.7459 25.1455 69.6648 25.1741 69.5914 25.2179C69.515 25.2606 69.4523 25.3252 69.4109 25.4039C69.3644 25.505 69.3424 25.6162 69.3468 25.7279V31.2899C69.3424 31.4036 69.3643 31.5168 69.4109 31.6199C69.4541 31.6956 69.5165 31.7578 69.5914 31.7999C69.6652 31.8419 69.7463 31.8684 69.8301 31.8779C69.9231 31.8843 70.0165 31.8843 70.1095 31.8779H70.2493V32.2139C70.0047 32.2139 69.7369 32.2139 69.4516 32.2139H68.6249H67.8273C67.5478 32.2139 67.3091 32.2139 67.1053 32.2139L67.082 31.8779Z" fill="#231815"/>
<path d="M77.0964 26.9822C77.0241 26.7347 76.9366 26.4922 76.8344 26.2562C76.7347 26.0279 76.59 25.8236 76.4094 25.6562C76.2233 25.4745 76.0007 25.3373 75.7573 25.2542C75.4464 25.1451 75.1191 25.0943 74.7908 25.1042C74.4053 25.0946 74.0228 25.1767 73.673 25.3442C73.3591 25.505 73.0844 25.7367 72.8695 26.0222C72.6455 26.3251 72.4796 26.6693 72.3805 27.0362C72.2675 27.4561 72.2126 27.8904 72.2175 28.3262C72.2157 28.7657 72.2705 29.2035 72.3805 29.6282C72.4824 30.0383 72.6582 30.425 72.8987 30.7682C73.1305 31.103 73.4305 31.3815 73.7778 31.5842C74.1663 31.7968 74.6015 31.9022 75.0412 31.8902C75.5396 31.9112 76.0269 31.7352 76.4036 31.3982C76.7691 31.056 77.0267 30.6088 77.143 30.1142L77.4283 30.1622C77.3642 30.4502 77.306 30.7622 77.2711 31.0202C77.2361 31.2782 77.2012 31.6202 77.1721 31.8782C76.8327 32.0223 76.4821 32.1367 76.1241 32.2202C75.6935 32.3143 75.2543 32.3606 74.8141 32.3582C74.2693 32.3628 73.7272 32.2798 73.2072 32.1122C72.7323 31.9632 72.2937 31.7116 71.9205 31.3742C71.5491 31.0336 71.26 30.6083 71.0763 30.1322C70.8633 29.5769 70.7603 28.9832 70.7736 28.3862C70.7633 27.8375 70.8748 27.2936 71.0996 26.7962C71.3014 26.3364 71.5973 25.927 71.9671 25.5962C72.3428 25.2703 72.7756 25.0219 73.2422 24.8642C73.7316 24.6932 74.2449 24.606 74.7617 24.6062C75.0193 24.6034 75.2766 24.6255 75.5302 24.6722C75.7457 24.7142 75.9436 24.7682 76.1125 24.8222L76.6947 24.9962C76.9013 25.0647 77.1138 25.113 77.3293 25.1402C77.3293 25.4402 77.3293 25.7402 77.3293 26.0282C77.3293 26.3162 77.37 26.6282 77.3991 26.9162L77.0964 26.9822Z" fill="#231815"/>
<path d="M77.9985 31.8779H78.1383C78.2294 31.8839 78.3208 31.8839 78.4119 31.8779C78.4994 31.8684 78.5843 31.8419 78.6623 31.7999C78.7337 31.7573 78.7922 31.695 78.8311 31.6199C78.8826 31.5183 78.9067 31.4044 78.901 31.2899V25.7279C78.9077 25.6153 78.8835 25.503 78.8311 25.4039C78.7939 25.3261 78.7352 25.2613 78.6623 25.2179C78.5847 25.174 78.4997 25.1455 78.4119 25.1339H78.1383H77.9985V24.8159H78.54H79.1862C79.4133 24.8159 79.6462 24.8159 79.8791 24.8159H81.2356H81.9343H82.6038H83.186V25.6139C83.186 25.7579 83.186 25.9019 83.186 26.0399C83.186 26.1779 83.186 26.3099 83.186 26.4239L82.8775 26.5079C82.8659 26.3467 82.8445 26.1864 82.8134 26.0279C82.7879 25.8812 82.728 25.7432 82.6387 25.6259C82.5399 25.5049 82.4112 25.4137 82.2661 25.3619C82.0576 25.2922 81.839 25.2597 81.6199 25.2659H80.1935V28.0139H81.4219C81.551 28.0171 81.6795 27.9947 81.8004 27.9479C81.8955 27.9106 81.9783 27.8461 82.0391 27.7619C82.0997 27.6725 82.145 27.5731 82.173 27.4679C82.2047 27.34 82.2261 27.2095 82.237 27.0779H82.5456C82.5456 27.4979 82.5456 27.9119 82.5456 28.3259C82.5456 28.7399 82.5456 29.1299 82.5456 29.5259L82.237 29.5919C82.2267 29.4471 82.2093 29.3029 82.1846 29.1599C82.171 29.0439 82.1354 28.9318 82.0798 28.8299C82.0267 28.7363 81.9476 28.6611 81.8528 28.6139C81.7193 28.5607 81.5766 28.5362 81.4336 28.5419H80.1935V31.0139C80.1861 31.1552 80.2206 31.2954 80.2924 31.4159C80.3636 31.5113 80.461 31.5823 80.5719 31.6199C80.702 31.6636 80.837 31.6899 80.9736 31.6979H81.4511C81.7538 31.6979 82.0333 31.6979 82.2487 31.6679C82.451 31.6529 82.6487 31.5979 82.8309 31.5059C83.0003 31.4172 83.1447 31.2849 83.2501 31.1219C83.3793 30.9006 83.4736 30.6597 83.5295 30.4079L83.8206 30.4799C83.7508 30.7619 83.6867 31.0439 83.6285 31.3199C83.5703 31.5959 83.5179 31.8779 83.4713 32.1539H82.8891H82.1846H81.4278H80.0072H79.2445H78.5458H78.0044L77.9985 31.8779Z" fill="#231815"/>
<path d="M107.488 31.8778H107.639H107.907C107.994 31.8683 108.079 31.8418 108.157 31.7998C108.229 31.7558 108.289 31.6939 108.332 31.6198C108.379 31.5166 108.401 31.4035 108.396 31.2898V25.7278C108.4 25.616 108.379 25.5049 108.332 25.4038C108.291 25.3267 108.231 25.2624 108.157 25.2178C108.08 25.1738 107.995 25.1453 107.907 25.1338H107.639H107.488V24.8158C107.651 24.8158 107.884 24.8158 108.186 24.8158C108.489 24.8158 108.809 24.8158 109.141 24.8158C109.473 24.8158 109.776 24.8158 110.055 24.8158C110.335 24.8158 110.579 24.8158 110.801 24.8158C111.379 24.8053 111.956 24.8945 112.506 25.0798C112.982 25.2368 113.422 25.4919 113.799 25.8298C114.151 26.1509 114.429 26.5484 114.614 26.9938C114.805 27.4711 114.9 27.9835 114.894 28.4998C114.897 29.0144 114.794 29.5238 114.591 29.9938C114.399 30.4517 114.118 30.8648 113.767 31.2082C113.416 31.5516 113.001 31.8181 112.547 31.9918C112.078 32.1827 111.572 32.2607 111.068 32.2198H110.224H109.194H108.664H108.181H107.773H107.488V31.8778ZM109.718 30.9718C109.712 31.1241 109.732 31.2763 109.776 31.4218C109.814 31.5257 109.883 31.6142 109.974 31.6738C110.078 31.734 110.193 31.7727 110.311 31.7878C110.47 31.7981 110.63 31.7981 110.789 31.7878C111.192 31.7991 111.591 31.7106 111.953 31.5298C112.275 31.3627 112.557 31.1252 112.78 30.8338C113.01 30.5364 113.182 30.1962 113.287 29.8318C113.403 29.4432 113.46 29.0384 113.455 28.6318C113.474 28.0459 113.394 27.461 113.217 26.9038C113.085 26.4964 112.859 26.1279 112.559 25.8298C112.288 25.5682 111.958 25.3805 111.598 25.2838C111.218 25.1802 110.827 25.1278 110.434 25.1278C110.317 25.1188 110.201 25.1188 110.084 25.1278L109.735 25.1698L109.718 30.9718Z" fill="#231815"/>
<path d="M118.433 28.8599C118.445 28.7385 118.431 28.6159 118.392 28.5007C118.352 28.3856 118.289 28.2808 118.206 28.1939C118.04 28.0607 117.834 27.9926 117.624 28.0019C117.502 27.9875 117.379 27.9875 117.257 28.0019C117.169 28.0158 117.088 28.0578 117.024 28.1219C116.962 28.1875 116.916 28.2679 116.89 28.3559C116.855 28.4748 116.835 28.5978 116.832 28.7219C116.828 28.7588 116.817 28.7944 116.799 28.8265C116.781 28.8585 116.756 28.8862 116.727 28.9079C116.665 28.9636 116.594 29.0082 116.517 29.04C116.443 29.0759 116.365 29.104 116.285 29.1239C116.225 29.1303 116.164 29.1303 116.104 29.1239C115.976 29.1239 115.906 29.0399 115.906 28.8779C115.903 28.6855 115.963 28.4976 116.075 28.3439C116.182 28.1965 116.319 28.0755 116.477 27.99L117.012 27.7019L117.595 27.3719C117.691 27.3092 117.797 27.2645 117.909 27.24C118.01 27.2338 118.111 27.2338 118.212 27.24C118.589 27.2136 118.961 27.3407 119.248 27.5939C119.372 27.7368 119.467 27.9039 119.527 28.0853C119.587 28.2667 119.611 28.4588 119.597 28.6499V30.8159C119.594 31.0034 119.611 31.1907 119.65 31.3739C119.66 31.4386 119.693 31.4971 119.742 31.5381C119.792 31.5791 119.854 31.5997 119.918 31.5959C119.973 31.5956 120.027 31.5812 120.075 31.554C120.123 31.5304 120.168 31.5001 120.209 31.4639L120.343 31.6499C120.203 31.8295 120.045 31.9925 119.871 32.1359C119.693 32.2665 119.478 32.332 119.26 32.3219C119.152 32.3327 119.043 32.3171 118.942 32.2764C118.84 32.2358 118.75 32.1712 118.677 32.0879C118.543 31.9177 118.465 31.7073 118.456 31.4879C118.237 31.7116 117.997 31.9126 117.74 32.0879C117.48 32.2543 117.179 32.3398 116.873 32.3339C116.583 32.3409 116.3 32.2409 116.075 32.0519C115.963 31.9527 115.874 31.8278 115.816 31.6873C115.759 31.5467 115.734 31.3942 115.743 31.2419C115.736 31.063 115.775 30.8853 115.854 30.726C115.931 30.5814 116.038 30.4563 116.168 30.3599C116.302 30.25 116.451 30.1611 116.611 30.0959C116.774 30.0239 116.948 29.9579 117.135 29.8859L118.415 29.4299L118.433 28.8599ZM118.433 29.8139L117.956 29.9639C117.785 30.0178 117.619 30.0881 117.461 30.1739C117.312 30.2507 117.18 30.3567 117.071 30.4859C116.968 30.6161 116.914 30.7802 116.919 30.9479C116.919 31.4039 117.129 31.632 117.548 31.632C117.658 31.634 117.766 31.6136 117.868 31.5719C117.959 31.5307 118.045 31.4783 118.124 31.4159C118.195 31.3616 118.259 31.2992 118.317 31.2299C118.36 31.182 118.399 31.1298 118.433 31.0739V29.8139Z" fill="#231815"/>
<path d="M123.673 28.0138H122.451V30.9238C122.44 31.0077 122.449 31.0931 122.477 31.1726C122.506 31.252 122.553 31.3231 122.614 31.3798C122.725 31.4568 122.857 31.4966 122.992 31.4938C123.104 31.496 123.216 31.4798 123.324 31.4458C123.422 31.41 123.516 31.3616 123.603 31.3018L123.737 31.4878C123.558 31.7173 123.349 31.9193 123.114 32.0878C122.885 32.25 122.612 32.334 122.334 32.3278C122.165 32.3336 121.996 32.303 121.839 32.2378C121.715 32.1855 121.605 32.1032 121.519 31.9978C121.435 31.8986 121.374 31.7819 121.338 31.6558C121.303 31.5189 121.285 31.3776 121.286 31.2358V28.0138H120.669V27.7558C120.982 27.5785 121.271 27.3607 121.531 27.1078C121.818 26.8418 122.083 26.5507 122.322 26.2378L122.451 26.3038V27.4138H123.673V28.0138Z" fill="#231815"/>
<path d="M127.021 28.8599C127.032 28.7381 127.017 28.6153 126.976 28.5002C126.936 28.3851 126.872 28.2805 126.788 28.1939C126.622 28.0607 126.416 27.9926 126.206 28.0019C126.084 27.9875 125.961 27.9875 125.839 28.0019C125.751 28.0158 125.67 28.0578 125.606 28.1219C125.544 28.1875 125.498 28.2679 125.472 28.3559C125.434 28.4741 125.415 28.5976 125.414 28.7219C125.41 28.7588 125.399 28.7944 125.381 28.8265C125.363 28.8585 125.338 28.8862 125.309 28.9079C125.247 28.9636 125.176 29.0082 125.1 29.04C125.025 29.0759 124.947 29.104 124.867 29.1239C124.805 29.1307 124.742 29.1307 124.68 29.1239C124.558 29.1239 124.488 29.0399 124.488 28.8779C124.486 28.6866 124.543 28.4995 124.651 28.3439C124.76 28.1962 124.899 28.0753 125.059 27.99L125.589 27.7019C125.781 27.5999 125.967 27.4919 126.171 27.3719C126.27 27.3099 126.378 27.2653 126.491 27.24C126.592 27.2338 126.693 27.2338 126.794 27.24C127.169 27.2126 127.54 27.3399 127.824 27.5939C127.952 27.735 128.049 27.9016 128.111 28.0833C128.173 28.2649 128.199 28.4578 128.185 28.6499V30.8159C128.18 31.0032 128.196 31.1904 128.232 31.3739C128.242 31.4386 128.275 31.4971 128.324 31.5381C128.374 31.5791 128.436 31.5997 128.5 31.5959C128.555 31.5956 128.609 31.5812 128.657 31.554C128.705 31.5304 128.75 31.5001 128.791 31.4639L128.925 31.6499C128.784 31.8281 128.626 31.9909 128.453 32.1359C128.275 32.2665 128.06 32.332 127.842 32.3219C127.734 32.3327 127.625 32.3171 127.524 32.2764C127.422 32.2358 127.332 32.1712 127.26 32.0879C127.125 31.9177 127.047 31.7073 127.038 31.4879C126.818 31.7102 126.578 31.911 126.322 32.0879C126.062 32.2543 125.761 32.3398 125.455 32.3339C125.165 32.3409 124.882 32.2409 124.657 32.0519C124.545 31.9527 124.456 31.8278 124.398 31.6873C124.341 31.5467 124.316 31.3942 124.325 31.2419C124.318 31.063 124.357 30.8853 124.436 30.726C124.513 30.5814 124.62 30.4563 124.75 30.3599C124.885 30.2511 125.034 30.1622 125.193 30.0959C125.356 30.0239 125.53 29.9579 125.717 29.8859L127.003 29.4299L127.021 28.8599ZM127.021 29.8139L126.538 29.9639C126.366 30.0167 126.2 30.087 126.043 30.1739C125.894 30.2507 125.762 30.3567 125.653 30.4859C125.55 30.6161 125.496 30.7802 125.501 30.9479C125.501 31.4039 125.711 31.632 126.13 31.632C126.24 31.634 126.348 31.6136 126.45 31.5719C126.541 31.5307 126.627 31.4783 126.706 31.4159C126.777 31.3616 126.842 31.2992 126.899 31.2299C126.942 31.1803 126.983 31.1282 127.021 31.0739V29.8139Z" fill="#231815"/>
<path d="M147.742 33.732C148.213 33.6 148.906 33.282 148.906 32.676C148.906 31.896 147.986 32.304 147.986 31.476C147.988 31.2658 148.068 31.0641 148.21 30.9132C148.352 30.7623 148.545 30.6737 148.749 30.666C148.893 30.6726 149.034 30.7094 149.164 30.7742C149.293 30.8389 149.409 30.9302 149.503 31.0426C149.598 31.1549 149.669 31.2858 149.712 31.4274C149.756 31.569 149.771 31.7182 149.756 31.866C149.756 33.03 148.929 33.726 147.905 34.008L147.742 33.732Z" fill="#231815"/>
<path d="M138.228 26.9639C137.943 25.9319 137.471 25.0799 135.9 25.0799C134.205 25.0799 133.32 26.4539 133.32 28.3139C133.32 30.1739 134.199 31.8779 136.144 31.8779C136.646 31.8855 137.134 31.7085 137.52 31.3785C137.906 31.0485 138.166 30.5874 138.252 30.0779L138.537 30.1139C138.41 30.6808 138.323 31.2563 138.275 31.8359C137.529 32.1603 136.727 32.3237 135.917 32.3159C133.588 32.3159 131.876 31.0079 131.876 28.3439C131.876 25.9439 133.745 24.5879 135.865 24.5879C137.07 24.5879 137.466 24.9719 138.432 25.1159C138.421 25.7171 138.448 26.3184 138.514 26.9159L138.228 26.9639Z" fill="#231815"/>
<path d="M141.722 27.642C142.723 27.642 142.968 29.226 142.968 29.988C142.968 30.942 142.758 31.962 141.803 31.962C140.848 31.962 140.557 30.72 140.557 29.814C140.557 28.908 140.645 27.642 141.722 27.642ZM139.282 29.802C139.269 30.1387 139.324 30.4745 139.442 30.7884C139.561 31.1023 139.741 31.3876 139.972 31.6264C140.203 31.8652 140.479 32.0524 140.783 32.1762C141.087 32.3 141.412 32.3578 141.739 32.346C142.07 32.3444 142.396 32.2754 142.701 32.1427C143.005 32.01 143.281 31.8164 143.512 31.5731C143.743 31.3297 143.926 31.0415 144.048 30.7252C144.17 30.4088 144.231 30.0705 144.225 29.73C144.236 29.3947 144.178 29.0609 144.055 28.7501C143.933 28.4392 143.749 28.1582 143.515 27.9253C143.28 27.6924 143.001 27.5127 142.695 27.3977C142.39 27.2828 142.064 27.2352 141.739 27.258C141.413 27.2512 141.09 27.3131 140.788 27.4397C140.487 27.5663 140.213 27.755 139.985 27.9943C139.757 28.2336 139.578 28.5184 139.46 28.8313C139.342 29.1442 139.288 29.4786 139.3 29.814L139.282 29.802Z" fill="#231815"/>
<path d="M146.059 30.6542C146.212 30.6565 146.361 30.7055 146.487 30.7949C146.612 30.8843 146.71 31.01 146.767 31.1564C146.823 31.3028 146.837 31.4631 146.805 31.6173C146.773 31.7714 146.698 31.9125 146.589 32.0226C146.479 32.1328 146.341 32.2071 146.191 32.2363C146.04 32.2654 145.885 32.2481 145.744 32.1864C145.604 32.1248 145.484 32.0216 145.4 31.8898C145.316 31.7581 145.272 31.6037 145.273 31.4461C145.272 31.3404 145.292 31.2355 145.331 31.1379C145.371 31.0402 145.429 30.9517 145.502 30.8778C145.576 30.8038 145.663 30.7459 145.759 30.7075C145.854 30.6691 145.956 30.6509 146.059 30.6542Z" fill="#231815"/>
<path d="M158.844 30.414C158.53 31.614 157.988 31.71 156.748 31.71C156.125 31.71 155.584 31.71 155.502 31.11V25.71C155.502 25.152 155.892 25.11 156.265 25.11H156.411V24.792C155.927 24.792 155.31 24.834 154.792 24.834C154.274 24.834 153.674 24.792 153.267 24.792V25.11H153.412C153.785 25.11 154.175 25.164 154.175 25.71V31.272C154.175 31.824 153.785 31.872 153.412 31.872H153.267V32.214C153.849 32.214 155.077 32.172 156.003 32.172C156.929 32.172 158.116 32.214 158.774 32.214C158.867 31.656 158.99 31.092 159.124 30.528L158.844 30.414Z" fill="#231815"/>
<path d="M162.378 28.0141H161.156V30.9241C161.14 31.0026 161.143 31.0838 161.164 31.1609C161.185 31.238 161.224 31.3088 161.277 31.3675C161.33 31.4261 161.395 31.4709 161.469 31.4982C161.542 31.5254 161.62 31.5343 161.697 31.5241C161.916 31.5285 162.131 31.459 162.308 31.3262L162.442 31.5122C162.294 31.7621 162.088 31.9708 161.844 32.1204C161.599 32.2699 161.323 32.3556 161.039 32.3702C160.897 32.3859 160.754 32.3683 160.62 32.3186C160.485 32.2689 160.364 32.1885 160.264 32.0834C160.164 31.9782 160.089 31.8511 160.044 31.7117C159.998 31.5722 159.984 31.424 160.003 31.2782V28.0141H159.38V27.7562C160.016 27.3625 160.575 26.8497 161.028 26.2441L161.156 26.3042V27.4141H162.378V28.0141Z" fill="#231815"/>
<path d="M169.668 30.6542C169.821 30.6565 169.97 30.7055 170.095 30.7949C170.221 30.8843 170.319 31.01 170.375 31.1564C170.432 31.3028 170.445 31.4631 170.414 31.6173C170.382 31.7714 170.307 31.9125 170.198 32.0226C170.088 32.1328 169.95 32.2071 169.799 32.2363C169.649 32.2654 169.494 32.2481 169.353 32.1864C169.212 32.1248 169.093 32.0216 169.009 31.8898C168.925 31.7581 168.881 31.6037 168.882 31.4461C168.881 31.3404 168.901 31.2355 168.94 31.1379C168.98 31.0402 169.038 30.9517 169.111 30.8778C169.185 30.8038 169.272 30.7459 169.367 30.7075C169.463 30.6691 169.565 30.6509 169.668 30.6542Z" fill="#231815"/>
<path d="M166.274 31.3198C166.027 31.5109 165.731 31.6216 165.424 31.6378C164.609 31.6378 164.05 30.7318 164.05 29.5978C164.05 28.7518 164.323 27.7318 165.249 27.7318C165.464 27.7408 165.672 27.8091 165.852 27.9294C166.032 28.0497 166.178 28.2177 166.274 28.4158V31.3198ZM167.438 24.1558L167.31 24.0718C166.749 24.3693 166.165 24.6182 165.563 24.8158V24.9958L166.256 25.2538V27.4138C165.988 27.2959 165.698 27.2406 165.406 27.2518C164.706 27.2952 164.05 27.6186 163.578 28.1533C163.106 28.6879 162.855 29.3914 162.879 30.1138C162.836 30.66 163.003 31.2017 163.346 31.621C163.688 32.0402 164.178 32.3029 164.707 32.3518C165.002 32.353 165.293 32.29 165.562 32.167C165.831 32.0439 166.071 31.8635 166.268 31.6378V32.2858L166.349 32.3518C166.472 32.3098 166.827 32.2138 167.182 32.0938C167.455 32.0076 167.733 31.9375 168.014 31.8838V31.6138L167.432 31.6618L167.438 24.1558Z" fill="#231815"/>
<path d="M98.3584 31.8722H98.4283C98.7252 31.8722 98.9639 31.8722 98.9639 31.5602V28.5602C98.9639 28.3862 98.9639 28.3262 98.7136 28.2602L98.3584 28.1582V27.9002C98.6728 27.8162 99.0221 27.6902 99.2899 27.5942C99.5578 27.4982 99.7732 27.3723 100 27.2763L100.117 27.3722V28.0502C100.563 27.6319 101.121 27.3621 101.718 27.2763C101.894 27.2569 102.073 27.2795 102.24 27.3422C102.407 27.405 102.557 27.5062 102.681 27.6382C102.804 27.7703 102.896 27.9296 102.95 28.1039C103.004 28.2783 103.019 28.4631 102.993 28.6442V31.5782C102.993 31.8722 103.249 31.8722 103.499 31.8722H103.622V32.2142C103.232 32.2142 102.847 32.1722 102.457 32.1722C102.067 32.1722 101.648 32.1722 101.235 32.2142V31.8962H101.339C101.543 31.8962 101.84 31.8963 101.84 31.6263V28.9742C101.84 28.3262 101.526 28.0862 101.06 28.0862C100.72 28.1195 100.395 28.2436 100.117 28.4462V31.6142C100.117 31.8662 100.35 31.8662 100.606 31.8662H100.763V32.2142C100.373 32.2142 99.9828 32.1722 99.5985 32.1722C99.2142 32.1722 98.766 32.1722 98.3701 32.2142L98.3584 31.8722Z" fill="#231815"/>
<path d="M106.172 25.146C106.172 25.0176 106.135 24.8921 106.066 24.7854C105.996 24.6787 105.898 24.5957 105.783 24.5468C105.667 24.4979 105.541 24.4855 105.418 24.5109C105.296 24.5364 105.184 24.5988 105.097 24.69C105.009 24.7812 104.949 24.8972 104.926 25.0233C104.902 25.1494 104.916 25.2799 104.964 25.3982C105.013 25.5165 105.094 25.6172 105.198 25.6877C105.302 25.7582 105.424 25.7952 105.549 25.794C105.631 25.794 105.713 25.7772 105.789 25.7446C105.865 25.7119 105.934 25.6641 105.992 25.6039C106.05 25.5436 106.095 25.4721 106.126 25.3935C106.157 25.315 106.173 25.2308 106.172 25.146ZM106.125 27.372L106.009 27.276C105.782 27.372 105.537 27.51 105.299 27.594C105.06 27.678 104.682 27.816 104.367 27.9V28.158L104.722 28.26C104.949 28.326 104.973 28.386 104.973 28.56V31.56C104.973 31.872 104.734 31.872 104.437 31.872H104.367V32.214C104.763 32.214 105.176 32.172 105.601 32.172C106.026 32.172 106.382 32.172 106.766 32.214V31.896H106.609C106.353 31.896 106.12 31.896 106.12 31.644L106.125 27.372Z" fill="#231815"/>
<path d="M96.9962 25.146C96.9962 24.9742 96.93 24.8093 96.8121 24.6878C96.6941 24.5663 96.5342 24.498 96.3674 24.498C96.2007 24.498 96.0407 24.5663 95.9228 24.6878C95.8049 24.8093 95.7386 24.9742 95.7386 25.146C95.7386 25.3179 95.8049 25.4827 95.9228 25.6043C96.0407 25.7258 96.2007 25.794 96.3674 25.794C96.5342 25.794 96.6941 25.7258 96.8121 25.6043C96.93 25.4827 96.9962 25.3179 96.9962 25.146ZM96.9438 27.372L96.8332 27.276C96.6061 27.372 96.3558 27.51 96.1229 27.594C95.89 27.678 95.5058 27.816 95.1855 27.9V28.158L95.5465 28.26C95.7736 28.326 95.791 28.386 95.791 28.56V31.56C95.791 31.872 95.5582 31.872 95.2554 31.872H95.1855V32.214C95.5873 32.214 96.0006 32.172 96.4198 32.172C96.839 32.172 97.2 32.172 97.5843 32.214V31.896H97.4329C97.1767 31.896 96.938 31.896 96.938 31.644L96.9438 27.372Z" fill="#231815"/>
<path d="M94.2423 25.0619C94.2016 25.1592 94.1421 25.2469 94.0676 25.3199C93.9454 25.4639 93.8464 25.5959 93.7591 25.7159L90.1028 30.5459C89.9923 30.6881 89.8893 30.8363 89.7942 30.9899C89.7054 31.1101 89.6509 31.2535 89.637 31.4039C89.637 31.5539 89.7535 31.6499 89.9805 31.6799C90.2076 31.7099 90.8946 31.7279 92.0474 31.7279C92.8974 31.7279 93.4214 31.5779 93.6252 31.2779C93.8007 31.0405 93.9329 30.7721 94.0152 30.4859C94.0443 30.3779 94.0735 30.2879 94.0968 30.2159C94.1061 30.1848 94.1258 30.158 94.1525 30.1405C94.1791 30.1229 94.211 30.1156 94.2423 30.1199C94.2889 30.1199 94.3238 30.1199 94.3354 30.1199C94.3485 30.1711 94.3485 30.2248 94.3354 30.2759V31.6259C94.3529 31.781 94.3245 31.9378 94.2539 32.0759C94.2015 32.1419 94.0385 32.1719 93.7591 32.1719C93.4796 32.1719 93.0837 32.1719 92.7227 32.1719C92.3618 32.1719 91.9542 32.1719 91.4884 32.1719H87.9952H87.7506C87.6887 32.1781 87.6263 32.1781 87.5644 32.1719C87.4828 32.1719 87.4304 32.1719 87.413 32.1359C87.4015 32.1219 87.393 32.1057 87.388 32.0881C87.383 32.0705 87.3816 32.0521 87.3839 32.0339C87.3803 31.9825 87.3948 31.9314 87.4246 31.8899L87.4945 31.7819L92.1522 25.6019L92.2395 25.4939C92.2579 25.4654 92.268 25.4321 92.2686 25.3979C92.2686 25.3619 92.2395 25.3319 92.1813 25.3079C91.9877 25.2887 91.7927 25.2887 91.5991 25.3079C91.1508 25.3079 90.5918 25.3079 89.9165 25.3739C89.445 25.3645 88.9793 25.4824 88.5658 25.7159C88.3794 25.8597 88.2313 26.0496 88.1349 26.2679C88.0476 26.4839 87.9253 26.5859 87.7798 26.5859C87.6342 26.5859 87.6342 26.5859 87.6109 26.5379C87.5995 26.4947 87.5995 26.4492 87.6109 26.4059C87.6332 26.2778 87.6704 26.1529 87.7215 26.0339C87.7953 25.8379 87.871 25.6159 87.9486 25.3679C88.0359 25.0919 88.1116 24.8579 88.1815 24.6659C88.2514 24.4739 88.3212 24.3779 88.4027 24.3779C88.6007 24.3779 88.6589 24.4739 88.5658 24.6539C88.4726 24.8339 88.6473 24.9299 89.0723 24.9299H91.2381C92.222 24.9299 93.171 24.9299 94.0735 24.9299C94.1007 24.9294 94.1276 24.9357 94.1519 24.9483C94.1762 24.9608 94.1972 24.9792 94.2132 25.0019C94.2256 25.0204 94.2354 25.0406 94.2423 25.0619Z" fill="#231815"/>
</g>
<defs>
<clipPath id="clip0_160_10345">
<rect width="216" height="36" fill="white"/>
</clipPath>
</defs>
</svg>
