<svg width="225" height="48" viewBox="0 0 225 48" fill="none" xmlns="http://www.w3.org/2000/svg">
<path d="M225 0H177.477V48H225V0Z" fill="#00479D"/>
<path d="M214.533 24.2228L202.991 23.6881L202.478 12.3625H202.454L201.932 23.6881L190.406 24.2228V24.2471L201.932 24.7413L202.454 36.715H202.478L202.991 24.7413L214.533 24.2471V24.2228Z" fill="#F39800"/>
<path d="M198.812 6.92652V7.4369H198.563C197.841 7.4369 197.055 7.58273 197.055 9.61614V17.3772C197.044 17.9569 197.079 18.5367 197.16 19.1109H196.518L187.807 9.30829V16.3402C187.807 17.8308 188.096 18.3412 189.412 18.3412H189.7V18.8435H185.201V18.3412H185.433C186.604 18.3412 186.957 17.5311 186.957 16.1701V8.98427C186.958 8.78008 186.919 8.57769 186.842 8.38894C186.765 8.20019 186.651 8.02884 186.508 7.88483C186.365 7.74083 186.195 7.62703 186.007 7.55013C185.82 7.47323 185.619 7.43475 185.417 7.4369H185.201V6.92652H188.65L196.173 15.4896V15.4491V9.04904C196.203 8.84033 196.187 8.62744 196.126 8.42587C196.064 8.22431 195.959 8.03918 195.817 7.88394C195.676 7.72871 195.502 7.60731 195.308 7.52857C195.114 7.44984 194.906 7.41572 194.697 7.42879H194.328V6.91846L198.812 6.92652Z" fill="white"/>
<path d="M210.498 18.8435V18.3413H210.739C211.349 18.3413 211.998 18.2521 211.998 17.361V8.44959C211.998 7.55845 211.349 7.46937 210.739 7.46937H210.498V6.95898H215.664V7.46937H215.423C214.813 7.46937 214.18 7.55845 214.18 8.44959V17.361C214.18 18.2521 214.813 18.3413 215.423 18.3413H215.664V18.8435H210.498Z" fill="white"/>
<path d="M196.406 40.9519C195.182 41.4678 193.866 41.7269 192.54 41.7134C188.738 41.7134 185.915 39.6152 185.915 35.3296C185.915 31.5058 188.978 29.2861 192.452 29.2861C194.433 29.2861 195.074 29.9018 196.662 30.1449L196.799 32.9965L196.293 33.0613C195.82 31.441 195.042 30.0477 192.508 30.0477C189.74 30.0477 188.281 32.2431 188.281 35.2324C188.281 38.076 189.724 40.9681 192.909 40.9681C193.724 40.9802 194.518 40.7005 195.149 40.1787C195.78 39.6568 196.208 38.9264 196.358 38.1165L196.839 38.1813L196.406 40.9519Z" fill="white"/>
<path d="M208.044 41.4622V40.9518H208.285C208.894 40.9518 209.536 40.8628 209.536 39.9797V31.0278C209.536 30.1447 208.894 30.0557 208.285 30.0557H208.044V29.5453H216.594C216.55 30.417 216.55 31.2903 216.594 32.162L216.089 32.2997C216.001 31.1817 215.8 30.2906 214.027 30.2906H211.677V34.7706H213.683C214.701 34.7706 214.918 34.1954 215.022 33.2637H215.527V37.2091L215.022 37.3144C214.918 36.2936 214.878 35.6293 213.707 35.6293H211.677V39.607C211.677 40.7169 212.656 40.7169 213.739 40.7169C215.768 40.7169 216.658 40.5792 217.172 38.6268L217.645 38.7483C217.428 39.6476 217.228 40.5549 217.075 41.4622H208.044Z" fill="white"/>
<path d="M15.0471 28.962L15.0952 28.9134V20.1316C15.0952 18.2035 13.7717 17.9281 13.0739 17.9281H12.5686V17.2233C13.6595 17.2233 14.7182 17.3205 15.8171 17.3205C16.7635 17.3205 17.718 17.2233 18.6644 17.2233V17.9281H18.3196C17.341 17.9281 16.2502 18.1144 16.2502 20.9012V31.603C16.2396 32.3941 16.2878 33.1848 16.3946 33.9686H15.5123L3.56927 20.5205V30.1691C3.56927 32.2106 3.96229 32.9154 5.74291 32.9154H6.14395V33.6121C5.14937 33.6121 4.14677 33.523 3.15219 33.523C2.15761 33.523 1.04271 33.6121 0 33.6121V32.9154H0.32084C1.925 32.9154 2.40625 31.8137 2.40625 29.9342V20.0344C2.40734 19.7554 2.35336 19.479 2.24743 19.2214C2.14151 18.9637 1.98578 18.73 1.78936 18.5339C1.59294 18.3378 1.35977 18.1832 1.10349 18.0791C0.847202 17.9751 0.57295 17.9238 0.296779 17.9281H0V17.2233C0.88229 17.2233 1.78063 17.3205 2.66292 17.3205C3.36073 17.3205 4.03447 17.2233 4.72426 17.2233L15.0471 28.962Z" fill="white"/>
<path d="M19.3301 32.8749H19.6509C20.453 32.8749 21.3674 32.7534 21.3674 31.5382V19.2648C21.3674 18.0496 20.4851 17.9281 19.6509 17.9281H19.3301V17.2233C20.2364 17.2233 21.624 17.3205 22.763 17.3205C23.9019 17.3205 25.3136 17.2233 26.4044 17.2233V17.9281H26.0756C25.2735 17.9281 24.3591 18.0496 24.3591 19.2648V31.5382C24.3591 32.7534 25.2414 32.8749 26.0756 32.8749H26.4044V33.5716C25.2896 33.5716 23.8939 33.4825 22.7389 33.4825C21.5839 33.4825 20.2364 33.5716 19.3301 33.5716V32.8749Z" fill="white"/>
<path d="M41.9008 22.0516C41.2511 19.7751 40.1843 17.9038 36.7033 17.9038C32.9014 17.9038 30.9123 20.9255 30.9123 25.0247C30.9123 28.9377 32.8773 32.8911 37.2647 32.8911C39.7432 32.8911 41.3874 31.3275 41.997 28.9863L42.6467 29.0754C42.3611 30.326 42.1654 31.5958 42.0612 32.8749C40.3787 33.5807 38.5732 33.9388 36.7514 33.928C31.5379 33.928 27.6638 31.044 27.6638 25.1625C27.6638 19.9209 31.8587 16.8749 36.6391 16.8749C39.3501 16.8749 40.2324 17.685 42.4061 18.0496C42.3827 19.3541 42.4471 20.6587 42.5986 21.9544L41.9008 22.0516Z" fill="white"/>
<path d="M43.89 32.8749H44.1948C44.9969 32.8749 45.9113 32.7534 45.9113 31.5382V19.2648C45.9113 18.0496 45.029 17.9281 44.1948 17.9281H43.866V17.2233C45.2857 17.2233 47.6999 17.3205 49.641 17.3205C51.582 17.3205 54.0043 17.2233 55.5844 17.2233C55.5404 18.4169 55.5565 19.612 55.6325 20.804L54.9347 20.9984C54.8144 19.4754 54.5417 18.2603 52.1033 18.2603H48.895V24.3929H51.6542C53.0498 24.3929 53.3466 23.5827 53.4829 22.3271H54.1807C54.1807 23.2425 54.1166 24.158 54.1166 25.0734C54.1166 25.9888 54.1166 26.8557 54.1807 27.7468L53.4829 27.8845C53.3466 26.4749 53.2824 25.5595 51.6782 25.5595H48.895V31.0278C48.895 32.5427 50.2425 32.5427 51.7264 32.5427C54.5096 32.5427 55.7368 32.3564 56.4346 29.683L57.0843 29.8532C56.7795 31.0927 56.5068 32.3321 56.2822 33.5716C54.7903 33.5716 52.1274 33.4825 50.042 33.4825C47.9566 33.4825 45.2295 33.5716 43.866 33.5716L43.89 32.8749Z" fill="white"/>
<path d="M133.346 15.7327H133.226V17.0208H134.341V35.2243H135.456C136.017 35.2243 136.458 34.1064 136.458 32.6805V15.8542V15.757H133.298L133.346 15.7327Z" fill="white"/>
<path d="M126.095 18.3169C124.77 18.296 123.48 18.7495 122.454 19.5969C121.929 20.0193 121.51 20.5608 121.232 21.1773C120.953 21.7939 120.822 22.4681 120.85 23.1453C120.844 23.7929 120.977 24.4342 121.238 25.0255C121.5 25.6168 121.884 26.1442 122.366 26.5721C123.35 27.5011 124.652 28.0091 125.999 27.9898C126.733 28.0517 127.472 27.9519 128.165 27.6974C128.857 27.4428 129.486 27.0395 130.01 26.5154C130.852 25.6153 131.323 24.4244 131.325 23.1858C131.331 22.5444 131.207 21.9086 130.96 21.3178C130.713 20.7269 130.349 20.1936 129.889 19.7509C129.386 19.267 128.792 18.8906 128.141 18.6442C127.491 18.3978 126.798 18.2865 126.103 18.3169H126.095ZM123.777 20.9174C124.077 20.6223 124.432 20.3918 124.822 20.24C125.213 20.0882 125.629 20.0182 126.047 20.0344C126.492 20.0004 126.939 20.0671 127.356 20.2296C127.772 20.3922 128.147 20.6466 128.454 20.9742C128.975 21.581 129.26 22.3583 129.256 23.1615C129.263 23.5863 129.182 24.0079 129.017 24.3989C128.853 24.79 128.608 25.1417 128.301 25.4312C127.993 25.7208 127.628 25.9417 127.23 26.0796C126.832 26.2176 126.41 26.2694 125.991 26.2319C125.576 26.244 125.162 26.1672 124.778 26.0067C124.393 25.8461 124.047 25.6054 123.761 25.3002C123.479 25.0143 123.255 24.6743 123.103 24.3002C122.952 23.9261 122.876 23.5252 122.879 23.121C122.869 22.7123 122.942 22.3058 123.094 21.9268C123.246 21.5478 123.473 21.2043 123.761 20.9174H123.777Z" fill="white"/>
<path d="M93.1217 15.7327H93.0334V17.0208H94.1483V35.2243H95.2632C95.8167 35.2243 96.2658 34.1064 96.2658 32.6805V15.7327H93.1217Z" fill="white"/>
<path d="M73.3504 15.7327H73.2542V17.0208H74.369V35.2243H75.4759C76.0293 35.2243 76.4785 34.1064 76.4785 32.6805V15.8542V15.757H73.3183L73.3504 15.7327Z" fill="white"/>
<path d="M103.284 27.2608H110.19V29.1727H101.143V16.9073H108.923V18.8355H103.308L103.284 27.2608Z" fill="white"/>
<path d="M114.617 35.1433V35.2324H115.748C116.326 35.2324 116.783 34.0901 116.783 32.6238V15.7812H114.641L114.617 35.1433Z" fill="white"/>
<path d="M113.511 15.8379V15.7407H110.19V17.0207H111.337V21.8815H107.415V23.8582H111.329V35.2H112.468C113.045 35.2 113.495 34.0577 113.503 32.5833" fill="white"/>
<path d="M143.444 21.995H148.931V23.8745H143.436V27.2608H151.417V29.1727H141.247V16.9073H150.069V18.8355H143.372L143.444 21.995Z" fill="white"/>
<path d="M157.93 22.6916H155.684V15.7164H152.38V17.0207H153.527V35.1676H154.658C155.243 35.1676 155.676 34.0415 155.684 32.5994V24.6197H157.978V22.6916H157.93Z" fill="white"/>
<path d="M68.9872 24.9033C68.1508 23.9087 67.5647 22.7247 67.2787 21.4522C67.1919 21.0514 67.1303 20.6456 67.0943 20.237C67.0541 19.8076 67.0381 19.3864 67.0381 18.9651H71.1608V17.0775H61.0385V18.9651H64.9607C64.9607 19.5052 64.9206 20.0453 64.8404 20.5854C64.7829 21.1117 64.681 21.6321 64.5356 22.1408C64.208 23.3481 63.6221 24.4682 62.8192 25.4218C62.0688 26.3057 61.1387 27.0158 60.0921 27.5038L59.9958 27.5524L60.06 27.6334L61.1589 29.116L61.207 29.1808H61.2712C62.3841 28.4625 63.3731 27.5648 64.1987 26.5236C64.9423 25.6518 65.5508 24.6712 66.0034 23.6152C66.4847 24.6684 67.1597 25.6196 67.9926 26.4182C68.878 27.3448 69.8474 28.1857 70.8881 28.9297L70.9603 28.9783L71.0084 28.9053L72.0431 27.4066L72.0993 27.3175H72.003C70.8263 26.7594 69.7939 25.933 68.9872 24.9033Z" fill="white"/>
<path d="M91.8304 27.2688H83.6812V16.8506V16.7615H83.585H81.5958H81.5076V16.8506V29.0835V29.1726H81.5958H91.8304V27.2688Z" fill="white"/>
</svg>
